<?xml version="1.0" encoding="UTF-8"?><svg id="bench" xmlns="http://www.w3.org/2000/svg" viewBox="0 0 512 512"><path d="M347.52,41.01c2.16,1.52,7.85-4.42,10.57-4.67,1.94-.17,8.13,2.64,9.39,4.2,1.36,1.7,6.34,19.96,5.83,21.83-1.07,3.91-15.53,6.86-14.86,10.19.89,4.39,7.46-1.93,8.75-2.26,13.63-3.55,11.7,16,15.09,24.18-1.81,3.5-16.58,7.57-15.84,11.08.95,4.45,9.11-3.25,12.09-3,10.8.87,9.24,16.3,11.45,24.52-2.19,2.86-15.93,7.51-16.24,10.48l5.71,24.52c1.55,1.12,16.59-9.62,21.23-8.84.94.16,14.23,6.69,14.77,7.32,1.21,1.39,1.04,2.86.99,4.52.22.3,5.4-2.84,7.07-2.53.93.17,13.43,6.42,13.94,7.01,1.2,1.38,1.05,2.87.99,4.52,1.94.35,3.06-1.53,4.73-1.86,2.82-.56,19.72,6.45,17.28,11.86,2.26-1.13,3.14-3.18,6-2.58,1.88.39,18.48,9.22,18.83,10.24.54,1.56.47,9.97-.35,11.33-1.47,2.44-17.43,8.85-17.48,10.5,7.99,9.05,3.3,16.83-6.98,20.04-1.91.6-5.1.11-5.9.6-.44.27-2.41,7.44-2.69,8.81-3.9,18.74,4.47,40.97,7.58,59.52,4.65-.46,9.34,11.96,7.82,14.38-.48.76-15.27,7.91-16.17,7.89-1.98-.06-22.52-11.36-23.21-12.74-1.22-2.44,2.14-8.14,3.66-10.37,1.16-1.7,3.42-1.65,3.9-4.14.63-3.25-1.8-16.36-2.71-20.32-2.83-12.27-9.49-26.63-20.65-33.04-4.39,3.91-22.26,10.31-24.73,14.3-4.45,7.18-.09,7.21,2.53,10.59.84,1.08,4.55,8.49,4.39,9.34-.27,1.43-14.5,9.49-16.34,9.53-3.98.08-17.98-9.38-22.51-11.49l-3.01.02-174.57,96.57c-.81,1.35,7.59,10.21-1.11,16.83-2.28,1.74-10.69,4.95-11.09,5.42-.73.87-2.15,9.4-2.27,11.23-.82,12.51,3.26,23.34,5.74,35.33.93,4.5,1.01,12.93,2.52,16.48,1.02,2.41,4.34,2.6,5.5,3.99.3.36,4.24,7.81,4.31,8.28.65,4.14-2.97,5.17-6.01,6.97-3.2,1.9-8.65,5-12.27,4.3-1.97-.39-21.72-11.65-22.32-12.82-.85-1.65,3.53-8.58,4.73-10.38.77-1.16,2.61-1.41,2.86-2.32,2.43-8.84-3.34-28.9-7.48-37.32-9.61-19.52-39.02-39.6-43.27-5.21-.99,8.04.96,4.99,3.61,8.87,1.8,2.64,6.67,10.02,4.48,12.47-.63.7-15.74,8.76-16.68,8.68-1.36-.11-23.27-11.74-24.21-12.73-3.02-3.19.98-8.6,3.52-11.57,1.52-1.78,3.82-2.52,5.05-3.95,6.68-7.82,6.14-48.24,3.94-59-1.13-5.53-14.75-7.1-15.81-10.19-.57-1.66-.45-7.72.33-9.35,1.25-2.59,7.68-3.32,8.41-5.67.51-1.66-3.85-25.52-4.92-26.34-.44-.33-8.28,2.54-10.85.88-1.02-.66-5.93-21.65-5.89-23.61.07-3.9,10.66-5.89,10.68-7.75,0-.13-.83-2.42-.93-2.51-.46-.42-10.09,4.39-12.11,1.42-1.12-1.64-6.39-22.77-5.92-24.71.39-1.59,9.11-4.62,9.08-5.31-.04-1.03-1.15-2.2-1.07-3.4-.56-.42-10.21,4.61-13.05.32-1.51-2.27-7.54-22.27-6.96-24.61.25-1.01,8.53-5.25,10.07-6.25-.85-5.97-5.09-3.66-8.8-5.12-3.94-1.55-4.12-10.03-1.71-13.32.78-1.06,7.21-5.19,8.44-5.57,4.44-1.35,11.2,1.65,14.07,5.03s1.83,10.91,7.01,9.1L330.37,52c1.34-5.19-3.36-1.44-6.53-3.83-5.09-3.84-2.16-12.02,2.9-15.28,6.48-4.17,11.99-4,17.61,1.77,1.74,1.79,2.87,6.15,3.16,6.35ZM342.1,36.41c-3.11-3.11-6.57-3.65-10.66-2.33,3.67,3.44,7.98,6.6,9.01,11.99,5.72-2.45,6.03-5.28,1.65-9.66ZM362.44,40.09c-4.22-3.88-21.21,10.59-26.68,10.81L33.46,215.58c3.73,3.98,7.18.94,11-.98,81.88-41.05,163.62-89.68,244.31-133.69,23.56-12.85,48.68-24.68,71.7-38.34,1.29-.76,2.52.18,1.98-2.48ZM366.43,43.08c-12.4,5.86-24.58,12.35-36.67,18.82-94.87,50.82-188.49,104.02-283.63,154.37-10.49,3.95-1.99,12.83-1.21,20.82L370.27,61.9l-3.84-18.81ZM351.44,78.07c1.06,1.01,6.5-1,5.99-3.48-.79-3.82-8.27,1.3-5.99,3.48ZM372.43,73.09l-164.33,87.16L46.44,249.07l164.02-87.47,161.97-88.51ZM379.35,93.93l-4.4-18.85L51.59,250.22c-1.71,2.73,4.85,15.85,4.86,19.85L379.35,93.93ZM339.95,81.11L66.44,231.56c2.22,3.19,6.07,0,8.66-1.32,37.85-19.3,75.25-41.96,112.66-62.34,50.55-27.54,101.47-54.45,152.05-81.95,2.42-.67,1.81-4.69.14-4.85ZM365.43,106.08c-1.78-.4-6.49,1.33-5.99,3.48.74,3.18,7.46.04,5.99-3.48ZM379.43,106.09L54.44,280.57c1.37,3.29,8.05-1.2,10.02-1.97L379.43,106.09ZM383.43,108.08l-73.67,38.82L62.1,282.23c-5.84,3.85,1.75,13.87,1.34,19.84L387.31,125.91l-3.88-17.83ZM76.44,265.07L348.81,117.95c1.41-.64,1.95-1.89,1.62-3.36-.57-2.52-3.46-.29-4.66.32-82.6,42.64-166.96,89.31-248.01,134.99-5.59,3.15-14.98,7.71-19.68,11.32-1.21.93-2.67,2.76-1.64,3.85ZM376.31,164.94c.65-1.04-3.11-22.23-4.09-24.15-1.69-3.29-4.87-1.99-4.73,1.63.27,7.09,4.53,16.1,3.95,23.65.31.33,4.55-.62,4.87-1.13ZM361.27,172.9c.67-1.13-3.04-23.95-4.35-25.81-1.15-1.65-1.08-.57-2.14-.19-3.29,1.19-6.68,3.69-10.01,5.01L84.48,294.62c-1.14.69-1.88,1.47-1.96,2.88-.07,1.29,3.79,22.56,4.4,23.6l274.35-148.2ZM412.44,161.09c-5.79-.53-10.84-7-16.72-4.23-109.79,59.83-219.19,120.47-329.27,179.72,1.06,2.06,13.86,8.4,16.73,5.74l321.94-176.06,7.33-5.16ZM433.43,170.09c-3.29-.06-8.63-5.03-11.33-4.79-4.35.38-15.87,9.21-20.34,11.6-2.8,1.5-6.01,2.39-9,4-101.14,54.5-201.07,111.32-302.31,165.67l12.49,6.09,329.2-180.35,1.28-2.22ZM401.44,172.09L81.59,345.22l-.15,4.85c2.99.45,2.36-2.67,3.71-4.05.97-1,6.79-4.07,8.62-5.12,98.08-56.32,199.67-107.26,298.34-162.66,3.03-1.7,7.04-3.64,9.33-6.16ZM111.44,358.06c3.9.51,8.72,5,12.52,4.91,4.5-.1,33.32-18.47,39.81-22.07,97.03-53.77,195-105.87,291.65-160.33-9.07-7.27-12.57-5.55-22.03-1.04-104.16,60.56-212.44,114.23-316.97,174.02-.97.55-6.43,2.94-4.98,4.51ZM430.44,177.09l-160.7,87.79-159.3,88.19,161.09-87.4,158.91-88.58ZM456.43,184.08l-288.67,157.82c-11.56,8.69-28.27,14.25-39.66,22.34-1.38.98-3.02,1.8-2.66,3.83l330.98-183.99ZM465.1,184.3c-67.94,37.51-136.35,74.18-204.34,111.6-39.38,21.67-85.78,44.16-123.02,67.98-1.22.78-2.4,1.51-3.29,2.7.01.92,14.33,8.37,16.66,6.76,108.73-61.81,219.29-120.57,328.3-181.76.02-.92-12.37-7.43-14.31-7.27ZM36.44,189.09c1.85,2.44,4.5,3.42,6.43,6.05,1.71,2.32,4.99,13.65,9.14,6.94,2.5-4.04-9.02-18.55-15.57-12.99ZM482.43,194.08l-330.83,181.15-.15,8.84c108.88-58.97,217.25-118.98,325.66-178.83,5.64-3.54,6-3.67,5.33-11.16ZM466.35,215.16l-6.91,1.94,3,10.98c7.85-1.21,6.76-7.21,3.9-12.92ZM42.43,239.07c-2.44-7.1-2.27-19-10.99-20.99-.65.84,5.04,19.23,5.88,20.41.98,1.37,3.73.33,5.11.59ZM59.44,237.07c.74.72,6.45-1.16,5.99-3.48-.85-4.28-8.27,1.26-5.99,3.48ZM456.3,304.9c1.29-2.17-7.32-37.26-7.85-43.34-.88-10.25,1.25-15.9,2.74-25.24.17-1.06,1.06-3.48-.74-3.24-13.73,23.73.76,48.96.99,73.99.41.46,4.72-1.94,4.86-2.17ZM442.44,268.08v-21.5c0-1.36,2.64-5.26,1.99-7.49-1.78.66-2.44,5.07-2.74,6.75-.62,3.54,0,7.3-1.29,10.79l2.04,11.45ZM438.44,301.08v-16.5c0-5.94-6.36-21.94-9.48-27.52-.89-1.58-10.25-16.12-12.52-13.97,9.45,9.09,15.07,20.24,18.72,32.77l3.28,25.22ZM48.52,271.99c2.58,1.77,5.11-.6,4.71-4.13-.46-4.14-4.13-18.86-9.79-16.77.52,2.8,4.19,20.3,5.08,20.91ZM384.44,260.09c-4.56.72-6.59,5.9-5.99,9.99,6.7-.36,4.1-5.54,5.99-9.99ZM72.94,264.1c-.32-.01-5.49,3.04-5.49,3.48,3.14,6.02,9.53-3.32,5.49-3.48ZM387.44,269.09c-3.24-.15-6.92,4.66-9.68,4.81-1.41.07-8.7-4.99-10.83-5.81-.86-.13-.56,1.89-.49,1.98.56.6,9.13,3.46,10.5,5.67,3.58-1.68,8.04-3.39,10.5-6.64ZM56.34,284.18c-.65-.56-3.66.12-4.89-.1,1.72,4.1,2.89,16.51,4.88,19.41.88,1.29,3.64.36,5.11.57-.76-2.57-4.32-19.22-5.1-19.89ZM80.43,298.08c-.72-.72-5.37,1.69-5.03,3.49l4.54,24.52c1.37,0,4.97-2.12,5.14-3.47.55-4.58-5.51-18.54-4.65-24.54ZM461.44,305.09c-3.08-.35-8.43,4.99-10.5,4.99-2.34,0-12.63-8.08-16.5-7.99l16.5,10.99c1.88-3.89,8.13-3.9,10.49-7.99ZM77.43,328.07l-1.3-11.18-2.67-9.81,3.98,20.99ZM447.44,320.07c-5.12-4.09-11.86-7.77-18-9.98,5.09,4.22,11.76,7.83,18,9.98ZM79.25,346.26c-.67-1.08-12.91-5.2-14.8-7.18-4.6,8.64,10.05,10.65,15.99,12.99-1.3-1.58-.52-4.75-1.18-5.81ZM101.43,361.07c1.83-5.88-6.64-9.58-11.29-11.22s-4.22,3.33-2.29,5.25c1.28,1.26,12.52,7.03,13.57,5.97ZM81.43,402.07c1.03-13.87,2.15-28.41-.3-42.19-.22-1.25-.19-4.84-1.68-4.8,3.01,13.95,1.66,27.47.94,41.45-.06,1.18-.7,5.55,1.04,5.54ZM92.44,386.08c-.54-.69,0-14.95,0-17.5,0-.5-1.2-5.31-1.48-6.53-.15-.65-.59-3.02-1.53-1.45,1.48,9.12,2.47,18.23,2.02,27.48l3-1.99c-.56-.14-1.88.15-2,0ZM123.27,366.24c-.37-.59-11.87-5.9-12.56-6-3.92-.6-4.34,3.71-1.82,5.9s10.26,3.57,13.06,6.92c1.54-.08,2.11-5.55,1.33-6.82ZM94.44,382.08c2.7-.02,5.08-2.96,5.08-5.48l-5.08-10.52v16ZM132.44,370.08c.05,2.24-.63,4.66.98,6.51.5.57,11.93,5.5,13.26,5.77,4.27.85,2.08-4.64.16-6.19-1.31-1.06-13.68-6.85-14.4-6.09ZM176.35,375.16c-12.11.99-3.51,5.99-4.91,13.92,7.47-2.34,8.55-7.27,4.91-13.92ZM137.43,386.09c-3.63.36-6.76-.33-10.2-1.3-4.56-1.29-7.59-4.12-11.79-5.7,4.09,5.43,11.91,8.02,18.48,8.02,1.16,0,3.76.68,3.51-1.02ZM144.43,405.08l4-17c-4.18,2.72-3.91,9.18-5.05,13.28-.08.3-4.44,2.97,1.05,3.73ZM130.44,400.07c-7.73-7.53-18.77-11.43-29.24-6.73-2.15.96-7.75,4.45-6.26,6.74,5.06-5.33,10.65-7.55,18.05-7.04,6.79.47,11.45,4.63,17.46,7.03ZM164.44,465.07c3.03.43,5.02-1.47,5.08-4.49-.65-14.97-8.17-31.59-9.07-46.02-.44-7.09,1.9-13.51,1.48-20.48-14.46,21.35,3.79,47.65,2.5,70.99ZM154.44,422.58c-.63-5.59,0-13.12,0-19,0-.57,2.65-4.31.01-4.49-6.41,21.73,6.34,42.74,6.98,64.49,1.35,1.63,1.09-1.2,1.05-2.02-.24-5.05-1.53-11.46-2.51-16.51-1.34-6.91-4.81-16.06-5.54-22.46ZM95.21,422.87c.84-1.41-.03-7.56.33-10.18.51-3.67,2.21-7,2.88-10.61-6.53,5.2-7.67,15.11-7.98,22.99.45.51,4.59-1.9,4.77-2.21ZM88.43,427.07c-.9-6.88,1.78-13.21,2-19.99l-2.97,11.51.97,8.48ZM150.44,440.58c.62,5.84-.45,12.56,0,18.5,3.21,1.05,2.14-6.53,2.04-8.54-.61-11.93-3.81-25.82-9.85-36.15-.28-.48-1.5-3.19-2.2-1.8,3.79,8.55,9.01,18.59,10.01,27.99ZM99.44,424.09c-3.24.05-5.78,3.23-8.75,3.81-5.1.99-14.78-7.39-20.25-8.81-.59,2.31,2.12,2.83,3.7,3.77,1.86,1.1,13.96,7.94,14.8,7.94.62,0,9.54-5.25,10.5-6.7ZM103.43,434.06c.1-.12.37-2.11-.48-1.97l-14.5,7.98c2.47.54,13.97-4.81,14.99-6.01ZM174.43,463.08c-.41-.4-8.61,4.76-10.49,4.64-1.29-.08-15.83-9.3-16.49-8.64-1.7,1.69,1.31,2.11,1.96,2.49,1.93,1.13,14.65,8.22,15.52,8.16.43-.03,6.34-3.47,7.53-4.16.65-.38,3.67-.81,1.96-2.49ZM167.43,478.09c-8.8-.4-15.58-8.6-23.99-10,.56,1.53,3.51,2.7,4.98,3.51,3.55,1.96,10.47,5.88,13.99,7.01,1.02.33,5.04,1.53,5.02-.52Z"/><path d="M74.29,248.23c3.14,5.07-3.67,9.22-6.39,4.86-2.93-4.7,4.61-7.73,6.39-4.86Z"/><path d="M361.57,95.94c-1.85-1.15-2.09-9.33,3.87-6.37,4.91,2.43.49,9.09-3.87,6.37Z"/><path d="M60.13,216.19c5.05-1.25,5.87,7.91.81,7.92-4.03,0-4.85-6.92-.81-7.92Z"/><path d="M357.18,62.85c-2.27,2.37-5.61-.05-5.72-3.36-.24-7.3,10.68-1.83,5.72,3.36Z"/><path d="M79.07,281.2c7.03-2.37,6.59,7.02,2.73,7.72-4.15.76-6.33-6.51-2.73-7.72Z"/><path d="M369.68,121.33c3.01-3.26,8.06,4.06,4.81,6.31-4.25,2.94-8.46-2.35-4.81-6.31Z"/><path d="M460.33,198.98c-.88,1.42-7.09,1.75-7.69-1.55-1.11-6.05,10.96-3.73,7.69,1.55Z"/><path d="M157.44,361.06c-2.15-3.27,6.47-7.67,7.86-2.32,1.31,5.03-7.34,3.11-7.86,2.32Z"/><path d="M392.43,170.06c-1.2,1.77-11.34,1.36-7.56-4.05,2.33-3.33,9.57,1.08,7.56,4.05Z"/><path d="M89.58,327.22c3.81-2.37,11.02,4.47,3.36,4.95-4.56.28-5.72-3.48-3.36-4.95Z"/></svg>