<?xml version="1.0" encoding="UTF-8"?><svg id="bike-rack" xmlns="http://www.w3.org/2000/svg" viewBox="0 0 512 512"><defs><style>.cls-1{fill:#f1f1f1;}.cls-2{fill:#d6d6d8;}.cls-3{fill:#e0e0e0;}.cls-4{fill:#bbbbba;}.cls-5{fill:#c1c0c0;}.cls-6{fill:#d7d6d7;}.cls-7{fill:#cdcdce;}.cls-8{fill:#dadad9;}.cls-9{fill:#d8d7d9;}.cls-10{fill:#0b0a0b;}.cls-11{fill:#bdbdbd;}.cls-12{fill:#c9c9c8;}.cls-13{fill:#d9dada;}.cls-14{fill:#c5c6c5;}.cls-15{fill:#d9d9d8;}.cls-16{fill:#d8d8d9;}.cls-17{fill:#bebdbd;}.cls-18{fill:#d2d2d2;}.cls-19{fill:#e6e6e6;}.cls-20{fill:#f2f1f2;}.cls-21{fill:#c0c0c1;}.cls-22{fill:#c5c5c4;}.cls-23{fill:#c6c7c8;}.cls-24{fill:#d0d0d0;}.cls-25{fill:#d5d4d5;}.cls-26{fill:#c5c5c6;}.cls-27{fill:#222021;}.cls-28{fill:#c7c8c9;}.cls-29{fill:#bebebf;}.cls-30{fill:#cfcece;}.cls-31{fill:#d9d9d9;}.cls-32{fill:#dbdbdb;}.cls-33{fill:#d3d2d4;}.cls-34{fill:#cecece;}.cls-35{fill:#c6c4c6;}.cls-36{fill:#d5d5d6;}.cls-37{fill:#d0cfd0;}.cls-38{fill:#d2d3d4;}.cls-39{fill:#cacbcb;}.cls-40{fill:#c1c1c1;}.cls-41{fill:#fcfcfd;}.cls-42{fill:#d2d1d1;}.cls-43{fill:#cbcbcc;}.cls-44{fill:#aaa;}.cls-45{fill:#d4d4d4;}.cls-46{fill:#b8baba;}.cls-47{fill:#dad9d9;}.cls-48{fill:#cccdcf;}.cls-49{fill:#d0d0cf;}.cls-50{fill:#080707;}.cls-51{fill:#d1d0d1;}.cls-52{fill:#dedfdf;}.cls-53{fill:#cacbcd;}.cls-54{fill:#ccc;}.cls-55{fill:#100f10;}.cls-56{fill:#d0d0d1;}.cls-57{fill:#c4c4c4;}.cls-58{fill:#d7d8da;}.cls-59{fill:#d5d6d7;}.cls-60{fill:#d4d4d6;}.cls-61{fill:#c6c6c6;}.cls-62{fill:#c0c2c2;}.cls-63{fill:#dadadb;}.cls-64{fill:#c8c9ca;}.cls-65{fill:#c7c7c7;}.cls-66{fill:#d1d1d0;}.cls-67{fill:#c4c4c6;}.cls-68{fill:#ddd;}.cls-69{fill:#c7c7c8;}.cls-70{fill:#d3d3d4;}.cls-71{fill:#cecfcf;}.cls-72{fill:#c9c9c9;}.cls-73{fill:#d7d7d7;}.cls-74{fill:#c9caca;}.cls-75{fill:#c1c0c1;}.cls-76{fill:#c1c2c4;}.cls-77{fill:#d2d2d4;}.cls-78{fill:#c1c1c2;}.cls-79{fill:#cbcac9;}.cls-80{fill:#cbcccd;}.cls-81{fill:#c1c0c3;}.cls-82{fill:#f0f0f0;}.cls-83{fill:#cac9ca;}.cls-84{fill:#c5c5c5;}.cls-85{fill:#cececf;}.cls-86{fill:#c5c6c6;}.cls-87{fill:#dfdfe1;}.cls-88{fill:#cdcdcd;}.cls-89{fill:#cbcccc;}.cls-90{fill:#c8c6c7;}.cls-91{fill:#bdbebf;}.cls-92{fill:#d7d7d9;}.cls-93{fill:#d8d7d8;}.cls-94{fill:silver;}.cls-95{fill:#cccbc9;}.cls-96{fill:#d9dadb;}.cls-97{fill:#d3d4d6;}.cls-98{fill:#fefefe;}.cls-99{fill:#d2d2d3;}.cls-100{fill:#d3d2d3;}.cls-101{fill:#cecdce;}.cls-102{fill:#d4d4d3;}.cls-103{fill:#cacacb;}.cls-104{fill:#d4d3d4;}.cls-105{fill:#070607;}.cls-106{fill:#d7d7d6;}.cls-107{fill:#c5c3c2;}.cls-108{fill:#c0c0bf;}.cls-109{fill:#c4c4c5;}.cls-110{fill:#949394;}.cls-111{fill:#f3f3f3;}.cls-112{fill:#d8d8d7;}.cls-113{fill:#cbcaca;}.cls-114{fill:#bfbfc0;}.cls-115{fill:#dedfe0;}.cls-116{fill:#d6d7d8;}.cls-117{fill:#c8c7c9;}.cls-118{fill:#cdcecf;}.cls-119{fill:#cbcbcb;}.cls-120{fill:#d1d0d0;}.cls-121{fill:#d5d4d3;}.cls-122{fill:#cdccce;}.cls-123{fill:#cccccd;}.cls-124{fill:#e0dede;}.cls-125{fill:#cacacd;}.cls-126{fill:#cacbcc;}.cls-127{fill:#d0d0d2;}.cls-128{fill:#d7d8d9;}.cls-129{fill:#cfcecf;}.cls-130{fill:#c9c8c8;}.cls-131{fill:#cecfd0;}.cls-132{fill:#d7d7d8;}.cls-133{fill:#c1c2c1;}.cls-134{fill:#d4d5d7;}.cls-135{fill:#c6c6c7;}.cls-136{fill:#d3d3d3;}.cls-137{fill:#dadada;}.cls-138{fill:#d1d1d1;}.cls-139{fill:#f8f7f7;}.cls-140{fill:#c7c8c7;}.cls-141{fill:#eee;}.cls-142{fill:#dcdcdc;}.cls-143{fill:#dcdcdd;}.cls-144{fill:#bbbcbb;}.cls-145{fill:#fefdfe;}.cls-146{fill:#cacaca;}.cls-147{fill:#c0bfc0;}.cls-148{fill:#c7c6c6;}.cls-149{fill:#c9cacb;}.cls-150{fill:#cfcfcf;}.cls-151{fill:#cac9c9;}.cls-152{fill:#b7b7b8;}.cls-153{fill:#fdfdfd;}</style></defs><path class="cls-10" d="M306.5,100.86c1.51,1.18,2.78,3.27,5,4-12.39,13.61-13.13,42.03-11.03,59.53.56,4.66,10.56,19.34,13.21,25.79,2.09,5.09,3.54,10.34,4.82,15.68-1.13-2.64-3.39-3.27-3,0l-2.6-2.04c-6.33-20.61-18.95-39.15-34.72-53.73l-.68-3.23c1.42-1.15,2.73-.33,4.03.41,2.7,1.53,2.31,3.74,4.96,3.59,1.12-1.48-1.59-14.34,1.01-16.99l1.91,1.16.08,16.23c3.81,2.54,6.15,5.75,7.01,9.61-2.41-2.37-2.78-25.93-2-27.05.51-.73,1.11-1.24,2-1.45-.5-.09-.97-.23-1.32-.51-1.78-1.4,3.37-20.42,7.32-21.99.79-2.15,2.02-4.87,3-7-1.6-1.76-1.27-2.42,1-2Z"/><path class="cls-41" d="M302.5,109.86c-1.84,5.04-6,17.69-6,22.5v28.5c-1.07-2.28-8.5-7.68-8.84-8.66-.64-1.89-.48-15.58-.16-18.34.28-2.44,2-7.63,3-10-2.29-1.8-.53-3.94,2-3,2.51-4.63,4.6-8.92,10-11Z"/><path class="cls-10" d="M408.5,267.86c-2.53.48-3.45-1.04-5-2,0-1.54-1.02-2.73-3.08-3.57l.08-1.43,1-2c.48-.67.48-1.67,0-3,.81.02,1.49-.83,2-1l.2-1.51c-2.81-1.48-5.21-3.31-7.2-5.49-.06-1.04.66-2.07,1-3,1.42-1.45,6.55,2.49,7.99,4,.27.28-6.58-3.98-4.99-5,.67.12,2.1-.05,2-1l1.12-1.05c-1.82-.68-2.53-1.66-2.12-2.95l1-2,.72-.76c-2.88-1.3-5.12-3.05-6.72-5.24.13-.57,1.51-1.45,2-2,1.12-1.94,5.96,1.4,6.8,2.95.14.25-4.14-3.05-2.8-3.95,1.02.05,1.39-.27,2-1-.28-2.19-2.21-4.09-5.8-5.7l.8-1.3c-.19-.42.13-1.4,0-2l.72-1.12c1.9,1.33,2.33,1.04,1.28-.88l1-2c.66-.78.99-1.78,1-3,.12-.56-.18-1.83,0-2l.45-1.41c-2.94-1.77-5.42-3.63-7.45-5.59.19-.61,1.5-1.42,2-2,.86-.66,1.19-1.66,1-3,.79.03,2.07.05,2-1,1.1-.41,1.43-1.41,1-3l1-2c.82-.3,1.1-.62.52-.96l-7.52-5.04c-.04-.34.99-1.95,1-3,.97-1.13,2.48-.94,4.52.56l.48-1.56c.38-.21.74-.92,1-1,.42-1.4-.34-2.65-2.3-3.75l.3-1.25c1.01.04,1.4-.25,2-1-.36-2.25-1.19-3.34-3.18-4.5l.18-1.5v-2c1.24-1.34,3.01-.2,4,1,1.89-.51,2.42.63,2-3,6.37,30.55,1.78,71.99,2,104Z"/><path class="cls-105" d="M386.5,138.86c3.56.42,8.69,3.58,10,7,.18.12.13.86.5.99h1.49s.02-3.99.02-3.99l1.99,1c3.25-.18,5.62,7.14,3,9,.25,3.19-4.26,2.18-3-1-2.7-1.38-5.49-3-8.38-4.87l-.62.87c2.12,1.49,2.79,3.82,2,7l1.25-.51c2.42,2.11,4.67,2.95,6.75,2.51-2.89-2.79.58-4.07,3-2,3.29.37,4.66,7.16,2,9,.69,2.97.25,6.72-2,3-3.15-2.6-4.48-2.93-4-1,1.7,1.49,1.7,2.16,0,2l-.89,1.02c2.61,1.28,3.91,2.94,3.89,4.98,1.1,2.22-.01,2.15-2,1-1.13.58-2.54.06-4.23-1.56,3.78,1.84,5.86,4.02,6.23,6.56,1.4,1.35.79,1.95-1,1-1.55.42-3.22.75-5,1,2.57,1.64,1.97,3.01-1,3,3.62,1.65,5.95,3.65,7,6,2.44,1.39,1.65,2.55-1,2-.76.8-1.09,1.8-1,3,2.63,2.2.77,2.48-2,1-.29.54-.6.97-.95,1.01-1.27.15.04-2.04.66.75.08.34-.26.78-.72,1.24,1.74,1.7,1.07,2.37-2,2,2.3,2.01,4.84,3.94,7.61,5.79l-.61,1.21c2.66.32,2.44,1.06,0,2-.92.71-1.25,1.71-1,3,2.44,1.39,1.65,2.55-1,2-1.63.27-2.3.94-2,2,1.64,1.35,1.64,2.02,0,2l.8,2.37c2.97,1.16,4.37,2.7,4.2,4.63,1.1,3.07.51,2.77-2,1-.68,1.07-1.81.97-3.37-.29l-.63,1.29c1.72,1.78,1.05,2.45-2,2,2.37,2.03,4.37,4.03,6,6,2.44,1.39,1.65,2.55-1,2-.46.54-.88.95-1.13.86-5.44-1.89-2.04-3.06,2.37,1.73.2.21.03.76-.25,1.41,2.66,2.21.18,2.81-2,1-.67.7-1.67,1.04-3,1,2.43,1.4,1.57,2.87-1,3,2.08,2.19,4.49,4.03,7.23,5.51l-.23,1.49c.88,1.93-.25,1.68-2,1-.67.51-.67,1.51,0,3,2.44,1.39,1.65,2.55-1,2-.2,2.23-3.3-.67-3.13-.56,3.46,1.59,5.51,3.44,6.13,5.56,2.5-.96,4.16-.3,5,2,.89.19.86.52,0,1-.66.71-2.65.71-3,1-1.71.06-2.38.72-2,2-.6.3-1.16.98-2,1l-.68,1.1c1.76.74,2.32,1.71,1.68,2.9-.13,0-1.29,1.12-2,1-.8.77-1.13,1.77-1,3-.41.85-1.59.72-2,1,2.36,2.71,5.02,5.38,8,8,1.23-.16,1.47-2.91,2.99-3,.4,5.07-1.81,9.02,3.01,12,.9,2.5-2.82,3.22-4.97,2.8l-.03,2.2c-.57.91-.95,1.92-1,3-.49,1.35-1.19,1.37-2.26.71l-14.09-8.31c-.17-.1,3.38,1.13,2.35,2.61.47,2.67-.63,2.04-3,2-5.91-3.56-7.18-2.49-6.07-11.54.28-2.25,8.91-4.92,11.11-7.12v-113.87c-.68-9.88-4.44-22.7-9.04-31.46.36-.71,1.84-.81,2-1Z"/><path class="cls-1" d="M406.5,303.86c-1.11-.2-19.77-10.99-19-11.99l5.99-2.01c.12,1.16-.41,2.9.16,3.84.41.67,12.48,6.24,14.35,6.21,1.55-.02,2.38-.76,3.49-1.06,4.04-1.07,12.33-3.88,11-9,.22-.24,6.32,1.47,5.51,3.01-4.53,1.95-17.29,11.74-21.51,10.99Z"/><path class="cls-66" d="M405.5,306.86c0,.17,1.92,2.83-.49,2.98-.78.05-11.59-6.83-13.51-7.98-1.56-.93-4.44-1.74-5.52-2.98s-.75-2.5,1-2.01c5.68,1.61,12.16,8.85,18.52,9.99Z"/><path class="cls-64" d="M396.5,145.86c-3.34-2.28-6.47-4.98-10-7,.25-.3-.53-2.03.49-2,2.15,1.92,5.2,2.94,7.44,4.57.87.63,4.56,3.21,2.07,4.43Z"/><path class="cls-83" d="M400.5,277.86c1.38.64,6.65,3.84,4.99,6-.2.27-5.71-2.81-5.99-3-1.58-1.07-2.41-2.2-3-3.99,1.58-.31,2.67.37,4,.99Z"/><path class="cls-95" d="M405.5,289.86c-.68.09-10.93-6.01-8-8,2.57,2.85,8.57,3.23,8,8Z"/><path class="cls-49" d="M405.5,269.86c-.43.36,1.05.5-2,2-11.05-8.13-8.09-8.87,2-2Z"/><path class="cls-123" d="M401.5,272.86c.66.38,3.95,2.27,4.02,2.5,1.23,3.97-1.4,1.57-3.02,1.5l-5.99-4.51c-.8-3.02,4.22.08,4.99.51Z"/><path class="cls-10" d="M400.5,151.86c.92.31,1.75,1.34,2.5,1.98l.5-.98c.1.33.7.94,1,2-1.46.01-2.57.57-3,2l-1.07.8c-2.39-1.82-4.7-2.75-6.93-2.8-1.62-2.02-1.2-4.7-2-7l1.33-.57c2.62,1.84,5.18,3.36,7.67,4.57Z"/><path class="cls-39" d="M404.5,166.86c-1.88.51-2.11.16-4-1-1.05-.64-6.94-5.4-5.5-6.99,2.99,3.33,8.28,3.09,9.5,7.99Z"/><path class="cls-129" d="M396.5,230.86c3.36.11,13.93,9.31,6,6-2.78-1.16-6.79-2.42-6-6Z"/><path class="cls-31" d="M396.5,201.86c2.19-.03,10.4,5.03,8.9,6.92-.26.33-1.72-.1-1.9.08-1.6-3.71-8.42-2.44-7-7Z"/><path class="cls-38" d="M401.5,156.86c.13.16,1.64,3.82.51,3.99-1.74-2.38-6.98-4.09-8.51-5.99l.49-2.99c1.19,2.09,6.57,3.83,7.51,4.99Z"/><path class="cls-8" d="M396.5,184.86c2.62-.09,10.91,4.12,8.99,7-.75,0-1.25-.72-1.99-1-1.55-.57-6.83-4.34-7-6Z"/><path class="cls-100" d="M401.5,215.86c1.48.87,5.66,2.82,3.99,5-.2.27-5.68-2.78-5.99-3-1.57-1.12-2.4-2.13-3-3.99,2.23-.46,3.39,1.04,5,1.99Z"/><path class="cls-97" d="M400.5,151.86c-.09-.03-.69,1.1-1.88.54-2.27-1.07-4.44-3.76-7.12-4.54-.31-.9-1.35-1.77-1.99-2.5,1.48-.51,5.89,2.12,7.72,3.29,1.38.88,2.28,1.98,3.28,3.22Z"/><path class="cls-121" d="M396.5,247.86c1.9.95,7.46,3.76,8.53,4.97,2.08,2.36-.64,1.73-1.53,2.03-2.3-2.19-6.81-3.58-7-7Z"/><path class="cls-127" d="M402.5,227.86c1.77,1.46,3.53,2.15,2.99,5-1.95-1.93-5.03-2.76-6.99-4-1.56-.99-.98-2.21-.99-4,1.37,1.25,3.64,1.89,4.99,3Z"/><path class="cls-148" d="M400.5,167.86c2.65,1.87,4.99,3.52,3,6-2.2-3.21-6.41-3.62-7.99-7.51.51-1.02,4.62,1.24,4.99,1.51Z"/><path class="cls-42" d="M401.5,174.86c.84.59,3.78,2.94,3.99,3.51.81,2.16-1.11,1.21-1.99,1.49l-6.99-6.51c.95-1.21,4.12.9,4.99,1.51Z"/><path class="cls-6" d="M401.5,238.86c.68.4,3.95,2.27,4.02,2.5.91,2.92-.88,2.75-3.02,1.5-4.41-2.57-10.27-9.43-1-4Z"/><path class="cls-73" d="M399.5,219.86c1.73,3.84,8.44,2.87,5,7-1.89-2.52-4.92-4.39-8-5.02l3-1.98Z"/><path class="cls-128" d="M402.5,192.86c4.44,2.95,4.85,6.86-1,3-1.29-.85-3.94-3.66-5-4.99,1.63-.01,4.73,1.15,6,1.99Z"/><path class="cls-88" d="M401.5,255.86c5.21,2.99,6.63,6.81,0,3-1.67-.96-4.87-2.74-5.01-4.49-.03-1.58,4.25,1.05,5.01,1.49Z"/><path class="cls-13" d="M399.5,196.86c.62.98,7.83,4.21,5.99,5.99-.27.27-6.69-2.77-6.99-2.99-.45-.33-1.08-2.06-1.98-2.5,1.63-2.55,2.19-.53,2.98-.5Z"/><path class="cls-99" d="M405.5,294.86c-.66.65-8.11-4.2-8.97-5.49,1.88-2.53,1.62-.71,3.06-.08.97.42,7.62,3.91,5.92,5.58Z"/><path class="cls-102" d="M400.5,260.86c2.45,1.15,8.05,5.26,3,5-.79-.49-8.28-5.01-7-5.99,1.58-.31,2.67.36,4,.99Z"/><path class="cls-119" d="M402.5,180.86c.56.39,3.66,4.3,2.99,5l-7.99-4c0-1.1-.78-1.98-1-2.99.25-.2,5.6,1.71,6,1.99Z"/><path class="cls-113" d="M403.5,210.86c2.33,1.73,3.65,5.63-1,3-1.44-.82-6.54-3.91-4.99-6,.2-.27,5.72,2.8,5.99,3Z"/><path class="cls-51" d="M400.5,243.86l4.99,5-7.99-4c.19-.52-.23-1.81,0-2,.6-.5,2.36.88,2.99,1Z"/><path class="cls-50" d="M298.5,87.86c4.04-2.47,5.83,1.44,2,3,2.22,4.29,7.48,6.79,12,8-.15-2.16,1.18-2.49,4-1,.3-.62.63-.6,1,0,3.71-.64,3.44,1.65,0,3-3.89,1.05-3.54,1.3-6,4-2.82,2.18-6.12-.83-5-4-.68,1.68-4.51-1.37-4.27-1.31.89.2,3.84,2.2,3.27,3.31,2.31,1.94-.02,7.31-3,7-2.91,3.38-5.46,7-7.65,10.85l-2.35.15c-2.98,2.98-6.17-2.1-2-3-2.38-1.76-3.38-1.76-3,0,2.25.97,2.02,2.77-1,2-1.4.76-.74,1.76,2,3,1.51-1.67,2.45-1.24,2,1,2.06,2.32-.06,9.14-3,10-1.26,5.98-.68,12.3-.02,18.32l-1.47.47c-2.6-2.75-5.43-4.67-8.51-5.78l-2.91.21c-17.93-14.21-38.61-18.23-60.09-11.21,5.99-1.44,11.92-2.47,18.1-2l1.4,2c.29-.83.81-1.49,1.64-1.8,3.33-1.26,26.65,12.12,29.59,14.43,26.73,21,42.86,50.71,45.31,84.73l.15,115.61c1.25-.4,5.36-1.91,5.48-3.08.78-40.41.85-80.85.22-121.31l-2.54-16.84,1.65-1.73c-.92-5.75,1.55-4.69,3,0,1.23,5.12,2.52,10.19,3.04,15.46v116.01c-.05,4.26,11,7.41,11.8,8.68.33.52.45,8.17.21,9.18-.34,1.41-23.67,13.73-25.54,13.73-6.57,0-19.2-11.55-26.34-13.22-2.61-10.76,3.48-12.3,11.84-15.84v-81l-7.34,2.75c-3.13-3.1-23.67-11.97-24.5-14.41-.52-1.51-.48-8.04.32-9.36,1.32-2.14,10-4,10.52-7.48l.05-51.06c-.59-4.44-12.04-13.18-16.14-15.86-9.97-6.54-27.1-13.73-38.61-7.78-6.11,3.16-11.88,15.9-13.58,22.42-2.39,9.18-3.15,39.73-1.66,49.22.81,5.18,8.71,18.64,10.96,26.04,3.22,10.63,5.43,22.88,6.02,33.98,1.9,35.66-1.47,73.03-.08,108.87,6.18,3.68,16.13,6.22,11.55,15.68-.64,1.33-23.15,14.03-25.51,14.6-.91.22-1.05.22-1.93-.09-2.23-.78-24.43-13.8-24.9-15.18-.4-1.17-.46-8.43,0-9.18.62-1,11.66-3.96,11.84-7.65l.05-78.93c-3.67-.42-25.31-12.56-25.9-14.23-3.78-10.77,9.75-10.35,10.82-15.87l-.19-45.77c-9.08-15.54-28.91-31.55-47.43-32.59-16.46-.92-20.8,14.39-24.11,27.63l-.26,102.75c5.12,6.79,15.12,5.2,11.84,17.34-6.81,1.56-20.15,13.76-26.24,13.15-5.6-.56-18.03-10.87-24.15-12.94-5.92-10.17,4.05-12.16,10.57-16.76v-102.78c2.47-24.79,17.16-42.92,40.02-51.98s41.83.79,59.95,13.46c-.57-19.77,4.82-39.15,20-52.51,18.96-16.69,40.44-23.02,64.37-12.34,4.46,1.99,8.17,5.03,12.64,6.85-.29-21.54,8.9-38.76,26.01-50.99Z"/><path class="cls-36" d="M306.5,100.86c.09.9-.75,1.46-1,2-2.89-.81-5.98-3.13-8.19-5.07-.55-.49-3.89-3.05-2.8-3.92,1.72-1.38,10.16,5.56,11.99,6.99Z"/><path class="cls-31" d="M301.5,105.86c-1.38,1.3-12.2-5.87-9.99-7.99,1.43-1.37,11.36,6.7,9.99,7.99Z"/><path class="cls-143" d="M295.5,109.86c-1.41.44-3.17-.32-3-2-1.56-1.19-2.94-3.48-4.99-4.51-.35-2.02.58-1.78,2.09-1.09,1.1.5,7.87,5.6,7.88,6.1-.32.77-1.72,1.1-1.98,1.5Z"/><path class="cls-77" d="M290.5,117.86c-.77,2.93-1.85,2.59-3,0-.71-2.61-7.9-4.69-4.5-6.98,1.94,2.57,7.62,3.61,7.5,6.98Z"/><path class="cls-74" d="M286.5,119.86c2.32-1.38,4.29,1.58,2,3-2.67,1.02-1.63.97-3.28-.23s-3.95-3.8-5.7-5.27c1.92-2.47,1.49-.93,2.97.02,1.21.78,3.11,1.79,4.01,2.48Z"/><path class="cls-124" d="M290.5,108.86c4.47-1.1,5.35,5.79,1,4-3.33-1.29-4.57-2.91-7-5.5,1.1-1.12,5,.89,6,1.5Z"/><rect class="cls-126" x="278.82" y="130.71" width="2.31" height="11.37" transform="translate(7.18 286.63) rotate(-54.82)"/><path class="cls-136" d="M286.5,127.85c-3.66-.09-7.95-2.48-9-5.98,1.01-.9,8.68,3.84,9,5.98Z"/><path class="cls-10" d="M290.5,117.86c-.06,1.58-2.88,1.46,2,3-.69,1.26-1.93,2.83-2,3-.5-.38-1.73-.64-2-1-.57-.77.15-1.34-2-3,.71-.33.9-1.95,1-2,.56-.26,2.16.18,3,0Z"/><path class="cls-85" d="M284.5,133.86c-.92.92-9.47-5.39-7.99-6.99,1.25.41,9.69,5.29,7.99,6.99Z"/><path class="cls-12" d="M283.3,143.03c.34.58.66,2.69-.29,2.82-.64-1.28-9.49-5.02-7.5-6.99.37-.37,7.57,3.78,7.79,4.17Z"/><path class="cls-10" d="M295.5,109.86c-1.29,1.96-.87,3.85-1,4.01-.86.96-2.58-.85-3-1.01,4.16.41,1.29-2.58-1-4l2-1c.59.45,2.72.12,3,2Z"/><path class="cls-145" d="M277.5,146.86c16.39,13.76,32.91,38.05,38,59,1.3,5.35,2.68,14.93,3.04,20.46,2.52,38.37-2.01,79.43,0,118.09-.28,5.12-6.44,5.63-10.04,7.45l.03-118.54c-2.24-35.16-22.37-71.08-53.12-88.88-3.75-2.17-17.83-8.58-21.42-8.58h-19.5l11.75-4.75c17.1-3.94,38.15,4.76,51.25,15.75Z"/><path class="cls-153" d="M198.5,221.86l-8.08-10.42c-2.04-11.58-1.71-24.05,3.22-34.94.91-2,10.08-17.55,12.85-14.64-.76,4.16-3.4,7.64-4.71,11.78-.95,3-3.28,12.08-3.28,14.72v33.5Z"/><path class="cls-139" d="M287.5,242.86v-39l4.72,12.78c.29,7.15,5.83,25.3-4.72,26.22Z"/><rect class="cls-137" x="259.53" y="125.81" width="3.03" height="71.99" transform="translate(-27.4 267.29) rotate(-51.88)"/><path class="cls-141" d="M293.5,343.87c.21,1.39-.5,3.77.17,4.84.4.64,12.73,6.82,13.49,6.89,2.72.25,19.25-6.28,14.36-11.73l6.99,3.49c-4.7,1.94-17.27,11.77-21.43,11.5-4.05-.27-15.34-10.12-20.57-11.01-.65-.95,6.39-4.7,6.99-3.98Z"/><path class="cls-82" d="M293.5,244.87c1.77,1.9-4.41,7-6.33,6.83-3.11-.28-16.65-10.52-20.64-12.33l5.97-3.5c-1.62,5.54,11.52,11.5,15.43,10.99,1.52-.2,4.95-2.65,5.57-1.98Z"/><path class="cls-96" d="M251.5,146.86c9.58,6.14,21.72,14.83,29,23.5.94,1.12,2.43,1.63,1.99,3.5-10.55-8.79-21.01-17.73-31.99-26-1.33-1.41-.77-1.92,1-1Z"/><path class="cls-3" d="M330.5,350.87c.78.77-1.06,2.98-2.06,3.43-2.41.84-18,11.58-18.93,10.56-.25-.27-.51-3.33,1.25-3.26,2.77-.57,18.86-11.6,19.74-10.73Z"/><path class="cls-15" d="M305.36,361.99c.27.42.56,2.77-.35,2.86-4.66-3.53-10.14-5.83-15.03-8.97-1.73-1.11-5.77-2.64-5.47-5.02,2.81.96,20.22,10.13,20.86,11.13Z"/><path class="cls-112" d="M285.49,256.86c-6.59-3.4-13.51-6.67-19.72-10.74-1.36-.89-2.15-2.1-1.26-3.26.66-.86,17.68,9.96,18.72,10.77,1.2.94,2.72,1.16,2.26,3.23Z"/><path class="cls-72" d="M241.5,151.85c-3.38-.75-7.2-3.49-9.92-5.57-2.14-1.64-6.35-4.78-7.07-7.42,6.5,2.98,11.7,8.26,16.99,12.99Z"/><path class="cls-116" d="M230.5,149.85c-5.32-1.43-9.92-6.39-14-9.98,5.39-.07,10.64,6.04,14,9.98Z"/><path class="cls-16" d="M223.5,148.87c.13,2-3.03.86-3.95.44-3-1.36-7.91-5.73-10.04-8.45,5.79-.15,8.6,6.55,13.99,8Z"/><path class="cls-89" d="M298.49,201.86c-1.17-1.18-14.18-7.83-11.99-9.99,1.03-1.01,13.87,8.08,11.99,9.99Z"/><rect class="cls-60" x="203.64" y="143.43" width="2.63" height="14.11" transform="translate(-36.92 228.88) rotate(-54.24)"/><path class="cls-134" d="M216.5,149.88c.16.19.37,1.93-.5,1.99-3.03.24-13-7.37-11.48-9.01,1.86,1.74,11.05,5.93,11.98,7.02Z"/><path class="cls-102" d="M294.49,193.86c-1.27-1.28-14.12-7.74-11.98-10,1.82.22,13.93,7.98,11.98,10Z"/><path class="cls-33" d="M205.5,156.85c-4.48.53-7.91-3.78-10.98-6.49,1.77-2.3,1.46-1.07,3.08-.11,2.63,1.56,6.07,4.11,7.9,6.6Z"/><path class="cls-9" d="M200.5,160.86c-1.47,1.32-9.26-5.05-9.99-6.98,2.05-.76,11.53,5.61,9.99,6.98Z"/><path class="cls-118" d="M283.17,227.18c.35.32,2.55,3.31-.15,2.66-11.19-4.14-8.99-11.07.15-2.66Z"/><path class="cls-88" d="M305.5,332.86c-.92.9-10.65-5.24-8.99-6.99,1.17.45,11.06,4.97,8.99,6.99Z"/><path class="cls-108" d="M300.49,207.86c-1.2-.64-11.67-6.28-9.98-8,1.48.38,12.02,5.83,9.98,8Z"/><path class="cls-125" d="M196.5,164.86c-.96.92-10.68-5.31-8.99-6.99.64-.64,10.54,5.51,8.99,6.99Z"/><path class="cls-79" d="M305.49,303.86c-1.17-.45-11.06-4.97-8.99-6.99,1.99-.35,10.55,5.35,8.99,6.99Z"/><path class="cls-58" d="M193.28,167.05c4,6.66-9.91-1.89-7.76-4.19,1.31.86,7.33,3.47,7.76,4.19Z"/><path class="cls-90" d="M305.5,291.86c-.94.89-10.64-5.24-8.99-6.99,1.04.33,10.8,5.26,8.99,6.99Z"/><path class="cls-84" d="M296.51,290.86c1.64.91,8.85,3.95,8.97,5.5.26,3.27-6.42-1.66-6.9-2.08-1.15-1-2.48-1.53-2.07-3.42Z"/><path class="cls-76" d="M284.5,235.86c-.94.89-10.64-5.24-8.99-6.99,1.04.33,10.8,5.26,8.99,6.99Z"/><path class="cls-120" d="M305.5,285.86c-.94.89-10.64-5.24-8.99-6.99,1.04.33,10.8,5.26,8.99,6.99Z"/><path class="cls-40" d="M283.5,194.86c-.46.46-10.19-4.53-7.99-6.99.69-.77,9.44,5.55,7.99,6.99Z"/><path class="cls-24" d="M305.5,314.85c-3,0-8.49-2.49-8.99-5.98,3.5.54,7.29,2.89,8.99,5.98Z"/><path class="cls-85" d="M275.51,210.86c.34-.44,8.15,5.63,8.97,6.5-1.94,2.49-1.5.9-2.96-.02-1.62-1.03-7.94-4.02-6.01-6.48Z"/><path class="cls-29" d="M305.49,309.86c-.93-.68-10.8-5.27-8.99-6.99,2-.35,10.54,5.35,8.99,6.99Z"/><path class="cls-146" d="M284.5,211.85c-2.13.93-10.81-4.2-8.99-5.98.55-.55,8.7,4.15,8.99,5.98Z"/><path class="cls-119" d="M305.5,261.85c-1.8.63-10.63-4.46-8.99-5.98.97-.9,8.77,3.91,8.99,5.98Z"/><path class="cls-54" d="M302.22,217.14c.57.56,2.1,3.17.79,3.72-2.89-2.2-6.73-3.58-8.51-6.98,1.78.37,6.67,2.23,7.72,3.27Z"/><path class="cls-22" d="M284.5,200.86c-.31.3-6.82-3.16-7.74-3.73-1.42-.87-2.06-2.2-1.24-3.27.35-.46,10.43,5.62,8.98,6.99Z"/><path class="cls-56" d="M304.49,232.86c-.34.43-9.59-5.32-7.98-7,1.67.92,10.34,4.01,7.98,7Z"/><rect class="cls-148" x="182.34" y="176" width="2.42" height="10.61" transform="translate(-72.82 210.2) rotate(-51.08)"/><path class="cls-101" d="M305.5,338.85c-.69.63-10.53-5.5-8.99-6.99.71-.69,9.29,4.47,8.99,6.99Z"/><path class="cls-71" d="M304.49,344.86c-.34.43-9.59-5.32-7.98-7,1.67.92,10.34,4.01,7.98,7Z"/><path class="cls-152" d="M305.5,244.86c-.55.55-8.7-4.15-8.99-5.98,2.13-.93,10.81,4.2,8.99,5.98Z"/><path class="cls-18" d="M305.5,255.85c-1.54.23-10.82-4.27-8.99-5.99.96-.89,8.69,3.83,8.99,5.99Z"/><rect class="cls-132" x="185.86" y="166.29" width="2.42" height="9.61" transform="translate(-63.45 209.93) rotate(-51.26)"/><path class="cls-84" d="M284.49,206.86c-1.08-.39-10.76-5.19-8.98-7,1.25.53,10.99,4.86,8.98,7Z"/><path class="cls-138" d="M305.5,279.86c-.94.89-10.64-5.24-8.98-6.99.71,1.09,10.97,5.1,8.98,6.99Z"/><path class="cls-130" d="M305.5,273.85c-2.47-.19-4.96-2.17-7.01-3.52-1.16-.77-2.58.25-1.98-2.47,3.97-.28,7.01,2.95,8.99,5.98Z"/><path class="cls-88" d="M302.5,213.85c-3.79-.15-7.85-4.04-10-6.98,3.64,1.26,8.04,3.61,10,6.98Z"/><path class="cls-150" d="M305.5,320.85c-1.84.44-2.77-.64-4.14-1.35s-5.39-2.59-4.85-4.64c3.52.57,7.27,2.86,8.99,5.99Z"/><path class="cls-61" d="M304.21,324.15c.28.22,2.5,3.41-.19,2.7-1.21-1.73-9.77-3.98-7.51-6.99.26-.35,7.35,4.01,7.7,4.29Z"/><path class="cls-109" d="M186.5,201.86c-.54.53-9.64-4.45-7.99-5.99.95-.89,9.78,4.23,7.99,5.99Z"/><path class="cls-54" d="M305.5,238.85c-.62.55-8.72-4.17-9-5.98,3.91.11,7.79,2.15,9,5.98Z"/><path class="cls-78" d="M284.5,241.86c-.64.62-10.51-5.44-8.99-6.99,1.05.35,10.79,5.24,8.99,6.99Z"/><path class="cls-135" d="M181.51,172.86l7.97,5.5c-1.78,2.31-1.47,1.04-3.08.11-1-.58-6.25-4.18-4.89-5.61Z"/><path class="cls-26" d="M305.5,349.85c-2.51-.18-5.12-1.99-7.12-3.4-.56-.39-3.61-1.11-1.87-2.59,1.01-.86,8.68,3.82,8.99,5.99Z"/><path class="cls-32" d="M305.5,267.85c-3.57.01-7.17-3.09-9-5.98,3.5.52,7.29,2.89,9,5.98Z"/><path class="cls-94" d="M304.49,226.86c-1.45-1.36-10.2-4.06-7.98-7,.33-.44,9.45,5.44,7.98,7Z"/><path class="cls-80" d="M283.37,220.99c.27.42.56,2.77-.36,2.86-.12-1.08-9.52-4.33-7.5-5.99.33-.27,7.63,2.77,7.86,3.13Z"/><path class="cls-17" d="M186.5,195.86c-.54.52-9.62-4.43-7.99-5.99,1.44-.04,9.56,4.49,7.99,5.99Z"/><path class="cls-45" d="M305.5,249.85c-1.84.21-10.1-3.25-7.99-5.99.31-.4,7.77,4.4,7.99,5.99Z"/><path class="cls-80" d="M186.5,189.86c-.91.88-7.67-4.33-7.99-5.99,1.71-.42,9.48,4.55,7.99,5.99Z"/><path class="cls-44" d="M251.5,146.86l-1,1c-2.01-1.52-4.88-2.52-6-4.99,2.95-.12,4.9,2.64,7,3.99Z"/><path class="cls-107" d="M293.5,252.87c1.43,1.41-3.79,4.27-3.98,3.99-1.82-2.53,3.19-4.78,3.98-3.99Z"/><path class="cls-98" d="M205.51,407.86c1.12-4.32.02-8.2-.06-12.45-1.4-73.17,17.49-165.94-63.96-203.03l-25.98-5.5c35.09-12.91,70.59,18.14,86.16,47.32,25.53,47.83,9.07,114.55,13.89,167.23,1.22,3.32-9.28,7.23-10.05,6.44Z"/><path class="cls-153" d="M89.5,244.86c.45-7.74,2.61-15.87,7.16-22.34,1.01-1.44,8.36-9.23,9.35-9.65,1.35-.58,1.69.22,1.5,1.5-.33,2.26-4.14,7.87-5.28,11.73-1.4,4.77-1.88,9.41-2.73,14.27v104.78c-.34,1.27-9.25,5.31-10.01,4.7-.21-.17.21-1.79,0-1.99-.57-.04-1.07-.14-1.33-.45-.87-.99-.79-10.14,0-10.92.33-.33.81-.5,1.33-.64v-8c-.52-1.01-.99-2.04-1.34-3.11s-.66-2.09-.69-3.13c-.35-13.9-.29-28.09.1-41.86-1-11.74.06-23.18,1.93-34.9Z"/><path class="cls-55" d="M89.5,244.86c-1.54,26.58,0,56.08,0,83-1.38-.08-2.45-.37-3,1-1.5,1.42-3.45-.31-2-2,1.16-.28-.07-1.93,0-2,.24-1.13.57-2.13,1-3-.3-.94-.38-2.21-1-3v-3c.75-.49.8-1.23,1-2-1.49-.76-1.83-2.09-1-4,.12-.56-.18-1.82,0-2-.12-1.23-.17-2.31,1-3-.33-.98-.34-2.14-1-3v-3c.75-.49.8-1.23,1-2-.89-1.39-1.22-2.73-1-4,.12-.56-.18-1.83,0-2l.11-1.66c-3.28-1.41-4.65-2.85-4.11-4.34.18-.17-.12-1.44,0-2l.71-1.12c1.9,1.32,2.33,1.03,1.29-.88.83-.04,1.39-.7,2-1-.08-1.44-.08-2.77,0-4,.12-.56-.18-1.83,0-2v-3c.82-.48.72-1.34,1-2-.82-1.1-1.16-2.44-1-4,.75-.49.8-1.23,1-2-1.01-1.14-1.59-2.67-1-4,.84-.46.71-1.4,1-2-1.96-1.9-1.71-2.27,1-2,.09-.11,1.73.49,2.02-.65.27-1.04.15-7.74-.23-8.19-.36-.42-1.33-.04-1.79-.16-.87-.28-.86-.62,0-1h3Z"/><path class="cls-20" d="M219.51,400.87c.61-.72,7.64,3.04,6.99,3.98-5.54,1.13-15.91,10.45-20.65,10.73-2.26.13-20.63-9.73-21.34-11.23-.81-1.7,4.89-3.52,5.98-4.49-1.85,5.54,12.64,12.37,16.41,11.99,3.22-.32,15.41-5.96,12.6-10.99Z"/><path class="cls-111" d="M103.51,342.86l6.98,3.99c-5.18.7-15.6,10.32-19.63,10.77-4.41.49-16.76-9.1-21.35-11.26l4.97-3.5c-.63,4.75,12.86,11.35,16.41,10.99,3.22-.32,15.41-5.96,12.61-10.99Z"/><path class="cls-68" d="M183.49,233.86l-21.47-15.02-29.51-24.97c1.7-.23,2.92.36,4.35,1.13,7.11,3.87,19.61,16.95,27.18,22.81,4.76,3.69,10.63,6.52,14.93,10.07.9.74,5.59,4.87,4.51,5.98Z"/><path class="cls-19" d="M176.47,291.89c.18.17-.03,2.1.57,2.89,3.32,4.34,12.89,5.6,13.41,6.15.15.16.18,3.79.05,3.94-.73.83-18.65-8.79-19.51-9.99-1.15-1.61,4.65-3.74,5.48-2.98Z"/><path class="cls-56" d="M174.49,221.86l-24.98-19.99c5.73,1.13,12.99,7.06,17.46,11.02,1.18,1.05,8.62,7.74,7.52,8.97Z"/><path class="cls-68" d="M228.5,407.87l-4.08,4.41-17.91,9.58c-.29-2.4,2.45-3.36,4.08-4.41,5.34-3.46,12-7.16,17.91-9.58Z"/><path class="cls-63" d="M203.5,421.86c-.76.76-15.27-9.06-17.52-9.97l-4.47-4.02c5.97,2.5,14.98,6.55,19.94,10.55.78.63,3.03,2.46,2.06,3.43Z"/><path class="cls-112" d="M88.49,363.86c-6.53-3.49-13.43-6.83-19.74-10.73-1.42-.88-2.07-2.2-1.24-3.27.66-.86,18.03,9.85,18.93,10.56,1.19.94,2.41,1.66,2.05,3.44Z"/><path class="cls-47" d="M112.5,349.87c1.21,1.17-1.58,2.68-2.27,3.22-5.32,4.14-12.93,7.15-18.72,10.77l2.66-3.83c2.14-1.05,17.57-10.9,18.32-10.17Z"/><path class="cls-55" d="M89.5,335.86v12c-.35-.32-2.6,1.04-3,1-1.78-1.77-3.12-3.44-4-5,1.66.37,2.2-.41,2-2,.02-.95.02-1.95,0-3,.84-.46.71-1.4,1-2-1.61-1.97-1.5-2.13,1-2,.94.52,1.92.87,3,1Z"/><path class="cls-106" d="M188.5,308.88c-.04.82.42,2.02-.51,2-2.91-.06-17.89-9.96-20.48-13.01,7.52,1.92,13.83,8.05,20.99,11.01Z"/><path class="cls-59" d="M141.5,205.85c-7.37-2.42-13.19-9.08-19-13.98,7.61,1.55,13.73,8.68,19,13.98Z"/><path class="cls-140" d="M188.49,242.86c-5.43-4.07-11.86-7.52-15.99-12.99l13.91,8.58,2.08,4.41Z"/><path class="cls-27" d="M187.5,278.86c.27-.05,1.92.87,2.99,0v13.99c-4.39.17.4-4.07-3.99-7-1.81-1.72-1.44-2.04,1-2,.2-.48,1.9-1.94,1-2.99-.1-.12-1.68-.14-3-1.01-.33-1.12.34-1.45,2-1Z"/><path class="cls-37" d="M115.5,204.86c-.94.94-12.47-7.89-12.99-9.98,2-.51,2.71.65,4.04,1.45,1.19.71,10.34,7.14,8.95,8.54Z"/><path class="cls-2" d="M122.5,202.85c-5.04-.53-10.47-5.38-14-8.98,5.04.53,10.47,5.38,14,8.98Z"/><path class="cls-85" d="M129.5,202.85l-11.72-7.77c-1.11-.33-3.16-2.34-2.27-3.22,1.04-1.02,13.42,8.76,13.99,10.99Z"/><path class="cls-87" d="M110.5,206.85c-2.16.17-13.7-7.27-11.99-8.99.53-.53,7.96,4.81,8.91,5.58,1.13.91,2.61,1.99,3.08,3.41Z"/><rect class="cls-93" x="98.22" y="199.06" width="2.35" height="13.2" transform="translate(-124.75 161.68) rotate(-53.1)"/><path class="cls-89" d="M202.5,292.86c-.8.78-10.72-4.62-8.98-7.99,1.11.87,10.78,6.23,8.98,7.99Z"/><path class="cls-122" d="M100.5,212.86c-1.49,1.33-11.31-6.66-9.99-7.99.58-.58,6.75,4.01,7.72,4.77.66.52,3.53,2.1,2.27,3.22Z"/><rect class="cls-38" x="196.79" y="384.85" width="2.43" height="12.01" transform="translate(-230.54 299.61) rotate(-51.11)"/><path class="cls-151" d="M84.5,264.86c3.1,1.87,2.12,1.35,1,4-2.92-2.21-6.41-2.87-7.99-6.51,1.56-.64,5.64,1.69,6.99,2.51Z"/><path class="cls-109" d="M202.49,406.86c-3.23-2.46-9.15-3.2-8.98-8,1.54.44,10.68,6.17,8.98,8Z"/><path class="cls-127" d="M96.5,216.86c-.67.64-3.13-.94-3.91-1.57l-5.08-5.42c1.96-.41,10.6,5.45,8.99,6.99Z"/><path class="cls-34" d="M84.5,309.86c2.34,1.85,1.36,2.63,1,4-2.65-1.23-8.42-3.69-6.51-6.99,1.08,1.64,4.52,2.21,5.51,2.99Z"/><path class="cls-28" d="M202.49,328.86c-1.65-1.21-11.31-5.07-8.98-8,.38-.48,10.47,6.43,8.98,8Z"/><path class="cls-21" d="M202.49,364.86c-1.19-.96-10.73-6.14-8.98-8,1.68.77,11.25,5.1,8.98,8Z"/><path class="cls-126" d="M202.3,374.03c.34.58.66,2.69-.29,2.82-.78-1.16-10.52-5.95-8.5-7.99.36-.36,8.53,4.73,8.79,5.17Z"/><rect class="cls-86" x="195.85" y="271.59" width="2.44" height="11.37" transform="translate(-143.1 278.57) rotate(-54.82)"/><path class="cls-72" d="M202.3,386.03c.34.58.66,2.69-.29,2.82-1.17-.84-10.26-6.09-8.5-7.99,1.25.92,8.51,4.7,8.79,5.17Z"/><path class="cls-114" d="M202.49,346.86c-1.35-.47-10.59-6.4-8.99-7.99,1.04-1.03,10.48,6.41,8.99,7.99Z"/><path class="cls-23" d="M192.5,249.85c-4.41-1.59-9.18-5.34-12-8.98,4.49,1.65,9.32,5.02,12,8.98Z"/><path class="cls-46" d="M202.5,304.86c-.64.64-10.54-5.5-8.99-6.99.61-.58,10.8,5.19,8.99,6.99Z"/><path class="cls-69" d="M202.5,339.86c-1.11,1.04-10.75-5.13-8.99-6.99.93.67,10.81,5.28,8.99,6.99Z"/><path class="cls-53" d="M202.3,380.03c.34.58.66,2.69-.29,2.82-2.89-2.2-6.73-3.58-8.51-6.98,1.52-.47,8.55,3.74,8.8,4.16Z"/><path class="cls-72" d="M84.5,275.86c.57.46,2.01,2.56,2.01,3.49.04,1.08-1.43.22-2.01.51-1.77-2.69-7.78-3.52-5.51-6.99,1.07,1.64,4.54,2.22,5.51,2.99Z"/><path class="cls-147" d="M202.5,316.86c-.5.49-5.77-3.17-6.67-3.82-1.24-.9-2.79-1.04-2.32-3.17.96-.91,10.67,5.31,8.99,6.99Z"/><path class="cls-144" d="M187.5,274.86c-7.54-1.4-14.64-12.12-2.32-3.17,1.24.9,2.79,1.04,2.32,3.17Z"/><path class="cls-57" d="M200.49,274.86c-.44.47-10.84-7.25-9.99-7.99,2.21-.43,11.57,6.29,9.99,7.99Z"/><path class="cls-131" d="M202.5,357.85c-2.13.61-10.67-5.33-8.99-6.99,1.01-1,8.6,5.23,8.99,6.99Z"/><path class="cls-101" d="M85.5,304.86c1.68,5.03-.08,2.07-1,3-.71-2.21-8.32-3.98-5.99-7,.26-.34,5.33,4.38,6.99,4Z"/><path class="cls-135" d="M202.5,310.86c-.41.4-10.05-4.3-7.98-6.99.33-.43,9.63,5.37,7.98,6.99Z"/><path class="cls-131" d="M93.5,220.86c-1.36,1.31-8.37-5.18-8.99-6.99,1.72-.01,10.74,5.3,8.99,6.99Z"/><path class="cls-150" d="M86.5,254.86c-.07.09-.79,1.57-1,2-1.79-1.52-4.04-2.33-6.02-3.52-1.26-.76-2.53.2-1.97-2.48,3.66-.42,5.89,2.86,8.99,3.99Z"/><path class="cls-117" d="M84.5,326.86c.34.19.98,1.86,2,2-.2.49.24,1.81,0,2-.52.41-10.05-4.12-7.99-7,.2-.27,5.33,2.64,5.99,3Z"/><path class="cls-118" d="M82.5,280.86c1.48.84,5.65,2.84,3.99,5-.2.27-5.72-2.8-5.99-3-.68-.5-3.26-3.78-3-3.99,1.77-.08,3.5,1.13,5,1.99Z"/><path class="cls-119" d="M202.5,351.86c-.94.89-10.64-5.24-8.99-6.99.93.68,10.8,5.27,8.99,6.99Z"/><path class="cls-149" d="M202.5,298.86c-.65.63-10.53-5.49-8.99-6.99.65-.63,10.53,5.49,8.99,6.99Z"/><path class="cls-14" d="M202.5,400.86c-.81.81-8.58-5.35-8.99-6.99,2.13-.6,10.66,5.32,8.99,6.99Z"/><path class="cls-132" d="M86.5,250.85c-2.16,1.08-10.1-3.8-7.99-5.98.86-.9,7.71,4.34,7.99,5.98Z"/><path class="cls-24" d="M84.5,338.86c2.56,1.74,4.18,4.49,0,3-2.02-.72-5.22-3.02-6.01-5.49,1.72.08,4.59,1.53,6.01,2.49Z"/><path class="cls-7" d="M86.5,245.86c-.72-.17-1.68.38-2.73-.25-.41-.25-4.96-5.12-5.28-6.24l7.86,3.68.15,1.81v1Z"/><path class="cls-109" d="M80.5,284.86c1,1.75,5.44,3.15,5.99,4.51.88,2.15-1.81,1.32-1.99,1.49-1-1.75-5.44-3.15-5.99-4.51-.88-2.15,1.81-1.32,1.99-1.49Z"/><path class="cls-62" d="M201.18,284.18c.34.31,2.55,3.32-.15,2.67-9.93-5.25-9.37-11.31.15-2.67Z"/><path class="cls-127" d="M202.5,367.88c3.64,4.27-10.34-1.19-8.98-5.02,1.31,1.24,8.48,4.43,8.98,5.02Z"/><path class="cls-72" d="M84.5,270.86c4.79,3.71.55,2.47,0,3-1.41-3.14-7.79-2.74-5.51-6.99,1.54,1.72,3.73,2.62,5.51,3.99Z"/><path class="cls-4" d="M186.21,266.15c.3.24,2.5,3.39-.19,2.7-1-.78-9.21-5.18-7.51-6.99,2.08,1.59,5.88,2.81,7.7,4.29Z"/><path class="cls-91" d="M198.49,267.86c-.29.31-6.22-3.78-7.1-4.42-.52-.38-3.65-1.07-1.89-2.57,1.02-.87,10.62,5.24,8.98,6.99Z"/><path class="cls-114" d="M84.5,258.86c2.34,1.68,1.33,2.73,1,4-2.22-2.31-8.82-3.44-6.5-6.99,1.03,2.2,4.51,2.28,5.5,2.99Z"/><path class="cls-81" d="M197.5,262.85c-.59.55-6.86-4.03-7.73-4.76-1.15-.96-2.75-1.13-2.26-3.23,3.36,2.85,8.64,3.27,9.99,7.99Z"/><path class="cls-103" d="M91.5,224.85c-3.57.01-7.17-3.09-9-5.98,3.57-.01,7.17,3.09,9,5.98Z"/><path class="cls-43" d="M89.5,227.88c3.72,4.45-10.89-1.3-7.98-5.02,1.16,1.41,7.49,4.43,7.98,5.02Z"/><path class="cls-109" d="M202.49,322.86c-3.53-1.51-7.03-3.51-8.99-6.99,2-.37,10.54,5.35,8.99,6.99Z"/><path class="cls-67" d="M88.5,234.85c-3.73.89-6.81-3.4-9-5.98,3.4-.05,7.03,3.44,9,5.98Z"/><path class="cls-101" d="M82.5,343.86c2.34,1.31,4.87,2.19,4,5-.67-.07-10.51-5.74-9-6.99,1.79-.09,3.48,1.14,5,1.99Z"/><path class="cls-11" d="M194.5,255.86c-.67.67-6.04-3.64-7.1-4.41-.52-.38-3.64-1.07-1.89-2.58.66-.57,10.78,5.19,8.99,6.99Z"/><path class="cls-42" d="M86.5,334.86c.04.88-.73,1.43-1,2-1.01-1.79-9.31-3.97-6.99-7,.29-.37,6.94,4.42,7.99,5Z"/><path class="cls-121" d="M86.5,240.86l-7.99-6.99c3.04.68,8.69,3.12,7.99,6.99Z"/><path class="cls-48" d="M202.49,334.86l-8.99-6.99c2.03-.6,10.62,5.2,8.99,6.99Z"/><path class="cls-100" d="M85.5,321.86c1.59,4.95.07,2.01-1,3-7.66-5.42-8.96-7.92,1-3Z"/><path class="cls-133" d="M186.5,262.85c-.62.54-8.36-3.62-8-5.98,3.66-.06,6.82,2.74,8,5.98Z"/><path class="cls-30" d="M84.5,315.86c2.32,1.59,3.78,2.96,0,3-1.62-2.07-5.61-2.21-6.01-5.49,1.71.08,4.61,1.53,6.01,2.49Z"/><path class="cls-54" d="M84.5,292.86c2.34,1.85,1.36,2.63,1,4-1.75-2.46-8.01-3.78-6.51-6.99,1.08,1.64,4.52,2.21,5.51,2.99Z"/><path class="cls-5" d="M187.5,278.86c-.11.02-1,1.39-2,1-2.78-1.85-6.19-2.64-7-5.99l9,4.99Z"/><path class="cls-123" d="M84.5,298.86c2.32,1.58,3.78,2.96,0,3-1.38-1.78-5.58-2.77-6.01-5.49,1.71.08,4.61,1.53,6.01,2.49Z"/><path class="cls-75" d="M187.5,283.86c-.27.67-.19,1.52-1,2-2.66-1.78-6.56-2.46-8-5.99l9,3.99Z"/><path class="cls-65" d="M186.5,291.86c-.84.84-8.44-4.47-6.99-5.99,1.24.26,8.75,4.25,6.99,5.99Z"/><rect class="cls-110" x="181.86" y="289.49" width="1.79" height="8.56" transform="translate(-163.18 298.69) rotate(-58.93)"/><path class="cls-101" d="M183.5,254.86c-1.01.95-4.52-2.57-4.99-3.98,1.99-1.08,6.25,2.8,4.99,3.98Z"/><path class="cls-10" d="M388.5,303.86c.35-1.12,1.35-1.78,3-2,2.12-.28,4.76.94,7.94,3.67,2.77,2.23,4.79,2.67,6.06,1.33-2.37-1.87-2.01-2.93,1-3l.98-2c2.37-.51,7.39-1.61,4.02-3-5.31.77-5.47-4.49-5.04-8.63l-.96-.37c-2.91-2.63-5.58-5.3-8-8-.76-1.93-.1-2.27,2-1,.91-.73,1.25-1.73,1-3-.36-1.78.54-1.73,2-1l.7-1.3c-1.59-.67-2.15-1.56-1.7-2.7-.55-1.83.44-1.73,2-1-.32-2.38-.2-2.6,2-2-.81-1.44.19-1.77,3-1,2.41,7.94,3.26,16.25,2.56,24.92.06.32,5.5-2.9,5.5-3.49.18-40.03.35-80.22-.25-119.57-3.05-44.25-39.52-95.66-88.12-90.68,33.77,3.63,60.4,30.04,73.07,60.35l-.76,3.47c-1.46,2.4-1.29-.36-1.23-.23,2.45,5.15-2.33,6.81-2.77,2.23-1.3-3.48-6.56-6.53-10-7,.04,2.58,0,2.56-2,1-11.53-21.92-40.74-46.11-67-39,1.48-1.71.44-1.96,0-3-1.4-1.09-1.73-1.09-1,0-1.35.22-2.66.79-4,1-4.07-.62-10.25-4.2-12-8-.63-1.3,1.4-3.67-2-3,60.47-43.25,119.17,24.88,123.99,83.51v111.99c.53,3.48,9.21,5.34,10.53,7.48,1.25,2.03,1.07,9.21-1.12,10.91-5.67,4.39-17.79,8.09-24.06,12.87-2.22.19-16.28-8.93-19.34-10.77Z"/><path class="cls-92" d="M312.5,98.86c-.57.09-1.36,1.02-2.49.93-.96-.07-12.19-6.12-9.51-8.93.49,1.01,10.67,5.95,12,8Z"/><path class="cls-25" d="M317.5,97.86h-1c-2.33-2.56-8.54-4.6-10.52-6.98-1.07-1.28-.81-2.37,1.03-2.04,2.48.44,9.45,6.57,10.49,9.02Z"/><path class="cls-153" d="M400.5,143.86c-13.04-33.87-44.53-64.1-82.99-62.01l10.58-3.91c45.37-5.7,82.72,42.05,89.1,82.73,2.58,16.42,1.23,33.22,1.27,49.64.07,26.68.03,53.37.05,80.05.05,2.31-7.94,6.57-9,5.49-.55-9.01-.88-17.95-1.01-27,0-.33,0-.67,0-1l-1.34-1.97c.66-29.11.57-58.49-.28-88.14-1.26-5.01-1.65-9.33-.38-13.88-.53-2.56-1.35-6.7-2-9-2.44.56-2.77-.1-1-2-.85-2.75-1.99-6.39-3-9Z"/><path class="cls-142" d="M370,112.23c2.1,1.94.5,3.56-1.99,2.26l-33.44-26.44,1.86-2.36,33.57,26.54Z"/><path class="cls-115" d="M379.49,116.86l-17.51-14.98-13.48-10.01c10.09,3.12,22.19,13.4,29,21.49.94,1.12,2.42,1.63,1.99,3.5Z"/><polygon class="cls-52" points="370 112.23 388.37 126.76 386.5 129.11 368.01 114.49 370 112.23"/><path class="cls-32" d="M430.37,298.73c-.63,1-18.41,8.96-20.85,11.13-.38-1.82.88-2.49,2.05-3.44,5.16-4.16,13.21-6.18,18.44-10.56.91.09.62,2.44.36,2.86Z"/><path class="cls-104" d="M343.5,98.85c-6.72-2.31-12.79-8.24-18-12.98,7.17.99,12.89,8.21,18,12.98Z"/><path class="cls-70" d="M331.5,95.85c-5.37-1.41-10.21-6.11-14-9.98,5.28.87,10.74,5.9,14,9.98Z"/><path class="cls-85" d="M394.49,138.86l-13.99-9.99c2.6-.68,15.64,8.19,13.99,9.99Z"/><path class="cls-35" d="M323.5,95.85l-13-8.98c5.27.32,10.01,4.91,13,8.98Z"/></svg>