<?xml version="1.0" encoding="UTF-8"?><svg id="bus-stop" xmlns="http://www.w3.org/2000/svg" viewBox="0 0 512 512"><defs><style>.cls-1{fill:#f1f1f1;}.cls-2{fill:#f8f8f9;}.cls-3{fill:#fdfdfe;}.cls-4{fill:#050505;}.cls-5{fill:#010101;}.cls-6{fill:#e6e7e6;}.cls-7{fill:#f7f7f8;}.cls-8{fill:#f5f5f6;}.cls-9{fill:#f6f6f6;}.cls-10{fill:#000001;}.cls-11{fill:#060606;}.cls-12{fill:#020202;}.cls-13{fill:#080808;}.cls-14{fill:#f7f7f7;}.cls-15{fill:#fefefe;}.cls-16{fill:#0c0c0c;}.cls-17{fill:#f2f2f2;}.cls-18{fill:#fbfbfb;}.cls-19{fill:#fcfcfc;}.cls-20{fill:#bdbdbb;}.cls-21{fill:#161616;}.cls-22{fill:#f5f6f6;}.cls-23{fill:#333334;}.cls-24{fill:#fdfdfd;}</style></defs><path class="cls-12" d="M242.18,193.19v234l37.84,21.16c-.85,3.71,1.43,12.62.94,15.23-.22,1.18-1.53,1.81-2.44,2.45-13.13,9.19-31.45,15.51-44.62,25.39l-3.14.77-46.91-26.15c-5.7-3.67-.39-11.93-1.5-17.69l37.86-21.86.04-231.85c-.31-3.91-2.39-7.23-2.8-11.21-.18-1.76,1.18-4.11.64-5.08-.83-1.48-25.16-13.83-29.36-17.18-5.22-4.16-10.85-12.05-12.46-18.54.48-33.03-4.26-72.35-1.11-104.99.42-4.4,2.08-7.69,5.55-10.45,3.02-2.4,16.15-9.75,19.8-11.25.98-.4,1.83-.94,2.96-.59l82.66,46.41c7.39,4.15,11.18,11.45,13.81,19.19.19,32.23,4.05,69.79,1.31,101.76-.44,5.14-1.22,8.41-5.02,11.98-3.02,2.83-19.81,12.28-23.53,12.55-9,.65-21.48-12.65-30.49-14.06Z"/><path class="cls-19" d="M238.18,195.19v252.5c0,2.81-14,3.5-14,0v-253.5c4.67,1.79,9.17,1.91,14,1Z"/><path class="cls-18" d="M186.84,28.48c3.4-.18,14.29,6.5,18.02,8.54,22.03,12.02,43.22,25.72,65.27,37.73,6.1,6.17,10.34,14.16,11.09,22.91,2.56,29.71-2.02,62.98,0,93.08-.21,7.79-6.62,16.41-14.72,11.63-22.23-13.68-45.75-25.38-67.99-39-11.52-7.05-19.08-12.83-20.36-27.64-2.66-30.64,2.09-65.03,0-96.07-.33-4.85,3.73-10.91,8.69-11.17Z"/><path class="cls-3" d="M219.96,439.98c-.31.54-4.77,2.8-6.19,5.29-10.59,18.52,40,23.03,35.2,1.63-.99-4.39-5.97-5.46-6.63-7.38-.78-2.26.16-5.84-.16-8.33l32.99,19.98-41.28,23.24-3.16.78c-14.73-7.59-28.53-17.17-43.55-24.02l32.5-19.98c.62,1.8,1.03,7.49.28,8.79Z"/><path class="cls-24" d="M297.18,89.19v92.5c-3.69,3.61-9.27,5.47-14,7.5v-92.5c4.08-3.18,8.99-6.08,14-7.5Z"/><path class="cls-24" d="M191.18,27.17c-1.46-1.96,11.01-8.46,12.99-7.58l80.99,46.09c0,.78-11.9,7.32-13.98,6.09-22.73-12.39-44.74-26.14-67.33-38.76-2.16-1.2-12.25-5.28-12.67-5.84Z"/><path class="cls-19" d="M228.97,478.39c.74,1.28.34,7-.28,8.79l-42.5-24.5c-1.93-2.25-.76-5.68-1-8.49l43.78,24.2Z"/><path class="cls-19" d="M277.18,454.19c-.25,2.81.92,6.24-1,8.49l-42.98,24.51c.32-2.9-1-7.29.98-9.51l43.01-23.48Z"/><path class="cls-19" d="M297.11,86.09l-13.91,7.09c-.86-7.27-5.53-12.88-9.01-18.98,4.1-.26,11.46-7.13,14.97-5.55,2.88,1.29,9.13,15.86,7.96,17.44Z"/><path class="cls-8" d="M242.19,444.19c3.01,1.2,3.67,4.35,2.79,7.29-3.19,10.62-39.79,6.22-24.81-7.29-1.26,12.95,23.63,12.79,22.02,0Z"/><path class="cls-7" d="M238.18,191.18c-.57.8-6.98,1.19-8.51,1.04-7.17-.72-9.42-5.26-8.47-12.03,4.14,3.43,11.41,5.18,15.33,8.16.79.6,2.54,1.59,1.65,2.83Z"/><path class="cls-1" d="M297.18,186.19c-1.24,7.12-9.76,9.4-14.99,12.99-.36-8.8,7.85-11.07,14.99-12.99Z"/><path class="cls-10" d="M233.17,439.18l-2.07-11.49c.45-69.02-.1-139.43.03-209.05l2.04-4.45v224.99Z"/><path class="cls-16" d="M185.9,33.38c2.26-.67,4.66-.19,6.68.91,23.12,14.92,50.49,26.7,73.26,41.73,6.51,4.29,9.71,8.79,11.36,16.64-2.24,31.55,2.89,66.99.02,98.07-.63,6.85-4.67,10.63-11.45,7.35-22.58-14.9-49.49-26.46-71.9-41.09-7.73-5.05-11.92-10.73-12.73-20.27-2.58-30.03,2.03-63.65,0-94.07-.08-3.04,1.56-8.32,4.76-9.27Z"/><path class="cls-15" d="M188.67,35.59c1.31-.05,2.93.95,4.19,1.42,21.45,15.79,53.04,26.68,73.65,42.36,5.37,4.09,8.11,9.56,8.72,16.28,2.69,29.56-2.14,63.1,0,93.09-1.04,9.49-5.15,8.28-12.06,4.97-23.32-11.16-45.66-28.61-69.32-39.68-5.28-4.21-9.05-8.29-9.7-15.3-2.51-26.86.2-61.28.08-89.08-.02-3.74-2.78-13.77,4.44-14.06Z"/><path class="cls-5" d="M266.18,156.19c.14,1.43-.19,2.1-1,2l-1.4-.21c-3.12-13.24-4.95,3.33-2.75,6.7,2.74,1.25,4.45,3.09,5.14,5.51.48-2.11,1.15-2.45,2-1,.09,2.99-.06,6.01,0,9-.74.79-7.81-2.12-8.99-3-.9-5.07-2.9-9.07-6-12-8.71-3.35-3.56,5.55-12.05,1.54-4.53-2.14-24.17-12.92-25.69-16.3-1.98-4.41-.33-3.86-4.26-8.24-.13-.15.33-1.35-.64-2.06-3.9-2.86-7.04,1.53-7.86,5.05-1.23-2.07-10.99-6.58-11.34-7.15-1.11-1.77.15-20.85,1.1-24.08.81-2.76,1.78-4.44,5-3.59l64.71,36.37c4.62,3.77,3.14,7.14,4.04,11.46Z"/><path class="cls-5" d="M222.18,105.19c-.76-.23-2.13.23-3.01-.45-2.23-1.73-.38-14.03-1-17.55-1.66.2-2.01,3.78-2.33,5.15-.84,3.52-1.2,7.24-1.68,10.82-.46.45-7.46-.65-7.84-1.12-.65-.81-1.61-14.55-2.15-17.35-.28-1.46.02-3.11-1.99-3.51v20c-.98-.44-8-1.59-8-2v-47c2.08.36,9.96,4.09,10.73,5.27,2.53,3.89,2.96,21.26,4.28,26.73,2.58.28,1.59,0,2.03-1.46,1.78-6.03,2.5-13.33,3.98-19.54,4.51,1.88,10.45,2.65,10.99,8-.61,3.22-.78,6.56-.53,10.02,2.27,1.5,2.32,4.39.33,6.2l-.38,18c-.94.47-2.08.4-3.42-.22Z"/><path class="cls-4" d="M226.18,71.19c.36,3.5-.26,7.44,0,11.01h2.99s0-5.01,0-5.01c8.31-.12,4.89,2.05,6.04,6.45.64,2.45,2.67,3.81,2,7.05-4.1-.16-3.62,4.36-3.1,8.07s4.6,5.49,3.05,10.43c-13.65-2.67-3.99-15.93-10.5-22.99l-.5,20c-1.85.69-2.91-.67-4-1,3.5.12,2.76.62,3-2.45.65-8.24-.12-17.64-.02-26.06.02-1.69-.64-4.45,1.02-5.49Z"/><path class="cls-13" d="M252.18,113.19c-6.9-4.37-14.38-.68-14.09-11.51.2-7.3,5.02-3.93,10.09-3.5-1.45-5.88-5.48-2.38-10-4,.22-9.89,14-2.85,14,2.51v16.5Z"/><path class="cls-11" d="M257.18,173.19c-4.69,6.9-11.49-4.07-8-8,5.81-3.11,10.15,3.35,8,8Z"/><path class="cls-21" d="M211.18,140.19c.94.64,3.94,11.37-1.36,10.92-3.02-1.31-6.75-8.39-3.7-10.48.75-.51,4.61-.74,5.06-.44Z"/><path class="cls-20" d="M259.18,175.19c-.42-.31-1.9-1.73-2-2-1.61-4.22.22-9.07-8-8,1.09-1.23,2.92-.8,4-2,5.13,1.97,6.42,6.75,6,12Z"/><path class="cls-23" d="M268.18,169.19c-.55.18-1.67,1.07-2,1-2.71-2.7-3.43-8.95-1-12l1-2c1.05,5.02,1.84,7.57,2,13Z"/><path class="cls-9" d="M234.37,144.99c-.69-1.08-1.3-8.97-.16-9.78,2.11-.52,10.35,4.27,10.8,5.63.55,1.67.58,9.22-1.33,9.32-.53.03-9.02-4.72-9.31-5.17Z"/><path class="cls-17" d="M265.18,158.19c.74,3.89,1.17,8.01,1,12-.91-.19-6.17-3.62-6.7-4.29-3.31-4.15.2-11.87-.29-16.71,5.48,1.94,5.11,4.38,5.99,9Z"/><path class="cls-22" d="M231.18,142.18c-8.76-2.37-11.43-5.75-9.99-14.99.4-.46,10.24,5.47,10.57,5.99.74,1.17-1.45,6.86-.58,9Z"/><path class="cls-14" d="M219.02,125.34c.43.69.34,7,.16,8.36-.15,1.13.37,2.04-1.48,1.46-.56-.18-7.76-4.6-8.01-5-.92-1.47-2.77-10.41.53-9.56.48.13,8.53,4.3,8.8,4.73Z"/><path class="cls-2" d="M206.02,117.34c.92,1.46-.3,7.58.16,9.84-6.71-2.81-13.1-4.5-9.99-12.99.91-.88,9.46,2.57,9.83,3.16Z"/><path class="cls-14" d="M256.18,156.18c-9.32-2.63-10.58-4.51-8.99-13.99,7.42,2.75,10.46,5.6,8.99,13.99Z"/><path class="cls-6" d="M247.18,106.18h-3.99s0-4.99,0-4.99c3.78-.6,4.36,1.72,3.99,4.99Z"/></svg>