<?xml version="1.0" encoding="UTF-8"?><svg id="citibike" xmlns="http://www.w3.org/2000/svg" viewBox="0 0 512 512"><defs><style>.cls-1{fill:#e3e3e2;}.cls-2{fill:#f1f1f1;}.cls-3{fill:#bebfc0;}.cls-4{fill:#fdfdfe;}.cls-5{fill:#3c3c3a;}.cls-6{fill:#010101;}.cls-7{fill:#898b8b;}.cls-8{fill:#757676;}.cls-9{fill:#09090a;}.cls-10{fill:#e8e6e6;}.cls-11{fill:#d6d6d6;}.cls-12{fill:#dcdddc;}.cls-13{fill:#eaeaea;}.cls-14{fill:#d8d8d9;}.cls-15{fill:#e3e3e3;}.cls-16{fill:#f9f9fa;}.cls-17{fill:#212223;}.cls-18{fill:#18181a;}.cls-19{fill:#b1b0b3;}.cls-20{fill:#efefef;}.cls-21{fill:#e6e5e5;}.cls-22{fill:#f6f6f6;}.cls-23{fill:#f2f2f3;}.cls-24{fill:#d9d9d9;}.cls-25{fill:#111112;}.cls-26{fill:#e7e6e6;}.cls-27{fill:#e9eaea;}.cls-28{fill:#d5d5d6;}.cls-29{fill:#c1c1c1;}.cls-30{fill:#fdfcfd;}.cls-31{fill:#e5e4e4;}.cls-32{fill:#8f9091;}.cls-33{fill:#dfe0e1;}.cls-34{fill:#c0c1c3;}.cls-35{fill:#c4c5c5;}.cls-36{fill:#d4d5d6;}.cls-37{fill:#0a0a0b;}.cls-38{fill:#e7e7e7;}.cls-39{fill:#ddddde;}.cls-40{fill:#c7c6c7;}.cls-41{fill:#232224;}.cls-42{fill:#747473;}.cls-43{fill:#f9f9f9;}.cls-44{fill:#f0f0f0;}.cls-45{fill:#e0dfdf;}.cls-46{fill:#f9f8f9;}.cls-47{fill:#fafafa;}.cls-48{fill:#babbba;}.cls-49{fill:#e9e9e9;}.cls-50{fill:#131315;}.cls-51{fill:#b6b6b7;}.cls-52{fill:#fefefe;}.cls-53{fill:#e7e6e7;}.cls-54{fill:#dbdadb;}.cls-55{fill:#a2a2a2;}.cls-56{fill:#f2f2f2;}.cls-57{fill:#dbdbda;}.cls-58{fill:#fcfbfc;}.cls-59{fill:#121314;}.cls-60{fill:#d7d7d6;}.cls-61{fill:#8c8c8c;}.cls-62{fill:#f3f3f3;}.cls-63{fill:#212023;}.cls-64{fill:#fbfbfb;}.cls-65{fill:#fcfcfc;}.cls-66{fill:#c6c5c5;}.cls-67{fill:#d3d3d3;}.cls-68{fill:#eee;}.cls-69{fill:#d3d3d5;}.cls-70{fill:#f4f3f3;}.cls-71{fill:#6d6f70;}.cls-72{fill:#0e0e0f;}.cls-73{fill:#ececec;}.cls-74{fill:#b0adaf;}.cls-75{fill:#fdfdfd;}.cls-76{fill:#131416;}</style></defs><path class="cls-52" d="M425.16,270.82c16.87,9.25,33.38,19.79,50.04,29.45,4.25,3.69,1.14,8.63-2.54,11.54l-243.51,135.49c-9.72,3.09-14.2.9-22.66-3.32-55.15-27.46-108.52-64.23-163.66-92.34-4.54-2.35-5.09-7.47-1.02-10.68l77.35-43.15v41c0,.49-7.78,2.47-8.79,4.2-.84,1.45-.49,9.73.8,11.29.87,1.04,14.15,8.36,15.59,8.5,2.52.24,18.68-8.04,19.24-9.65s.49-7.95-.35-9.33c-1.84-3.06-8.47-2.48-9.43-8.57-1.23-7.81-1.1-36.84-.12-44.99.13-1.1.02-2.19,1.04-2.96l50-27.48c-1.57,6.89,2.91,22.61-.56,27.93-.89,1.37-3.12,1.45-3.99,4-4.99,14.55,23.63,14.97,23.66,3.58.02-6.06-4.41-6.56-5.08-10.03-.57-2.96-.41-32.07.46-33.49l52.21-28.8,2.3-.18-.99,11-.44,1.35c-15.77,1.11-15.21,12.24-2.1,17.82-.02,4.84,1.52,7.49,4.62,7.95,16.06-1.92,10.03,8.42.91,12.88.48,1.77-1.37,3.83-3,4-.33,1.8-1.69,4.78-3.47,5.51-10.5.81-20.11,2.94-28.28,9.94l-1.25-.45c-4.56,4.74-9.14,9.62-13.73,14.64-3.54,5.45-6.96,10.9-10.27,16.36l.89.8c-4.85,20.43-14.41,66.95,16.83,71.02s51.19-27.81,59.68-52.48c11.82-3.96,22.48-7.61,30.59-17.34.07-.08,1.36.17,2.02-.69,3.17-4.08.84-6.03,8.75-7.11,6.33-.87,18.31,9.47,17.24-5.19,3.03.37,4.51,3.47,7.3,5.19,29.11,17.93,67.77-25.59,69.7-53.2.85-.89,12.12,4.98,14,6Z"/><path class="cls-9" d="M426.16,268.82c14.19,7.62,30.09,15.39,43.67,23.83,4.49,2.79,9.68,4.88,10.35,10.65.72,6.16,1.01,23.57-3.01,28.03l-240.34,134.66c-13.26,6.6-18.14,6.58-31.35,0-33.73-16.8-69.81-39.18-103-58-18.67-10.59-43.61-22.61-60.66-34.34-1.42-.98-5.03-4.07-5.46-5.54,1.24-10.28-5.35-23.18,4.3-30.29l75.84-42.16,2.46-2.54.27-76.84c-.35-2.93-6.68-2.7-6.14-6.91,2.53-40.63-3.16-84.91.03-125.1,1.5-18.92,17.9-42.79,37.18-46.82,13.61-2.84,35.2,9.12,36.86,23.85l-.2,126.81-50.81,30.19v64c0,.11,1.45,2,1.98,1.01l48.57-27.46c2.52-2.44,1.01-11.68,2.39-16.61,5.13-18.35,46.45-31.71,61.64-42.41,9.06-2.22,18.78,4.11,18.43,13.96.7.89,17.16-9.81,19.96-10.53,15.63-4.01,30.61,9.69,43.34,16.76,2.73,3.03,6.7-6.18,6.64-7.73-.08-2.26-4.87-10.42-4.88-13,0-2.14,2.89-5.32,2.82-6.02-.04-.43-4.32-3.05-5.59-6.29-2.5-6.35,1.17-12.91-5.96-16.13-2.03-.92-3.72-.29-5.04-.86-2.51-1.07-15.91-7.15-16.85-8.16-3.42-3.65.14-9.58,4.55-8.63,8.63,5.86,26.11,7.61,29.73,18.34,2.06,6.11-.57,11.17,5.26,15.24.02,1.73-.65,2.06-2,1q-2.56,2.36,0,0c1.91-.82,3.79,1.25,2,3l1.01,2.2c-6.71,5.84-6.94,7.31,2.6,7.97l1.38,1.83c.84.44,1.2,1.1,1,2,1.37,1.4.75,2.01-1,1-3.18.54-4.18,1.21-3,2,4.63,3.45,11.87,19.41,4,22,5.51,2.33-4.42,7.52-3,0l-1.33-2.14c1.43-3.93.91-9.59-2.15-12.01l-29.93,71.41c-4.07,6.8-9.62,11.88-17.02,14.74l1.44,2c.64,1.7-5.58,3.35-7,3-3.16.98-4.43-2.94-2-5,.92.7,1.25-.3,1-3l1.15-2.07c5.37-.81,12.11-6.22,15.02-10.67l25.14-60.71c-.23-1.34-20.2-13.01-23.11-14.36-4.32-2.01-8.82-3.67-13.66-3.24-2.63.23-21.2,9.38-22.41,11.14-.74,1.07-.3,12.18-.13,12.9-.18,3.06-2.72,4.06-5,2l-2.05-.99.21-16.06c-.73-7.55-2.52-12.09-11.15-12l-49.86,27.28c-3.98,3.62-7.71,7.69-10.02,12.63l-2.13.64,2,.93v49.37l-2,1.2c.16-1.68,1.82-2.41,4.97-2.17.1-14.01-.03-28.02-.38-42.05.11-4.5,1.14-9.46,3.82-13.11,5.53-7.54,34.51-22.68,44.06-26.68l2.53,1.01c1.22.17,1.89.83,2,2l-.08,2.29c-14.95,6.74-28.95,14.84-41.98,24.3l-2.5,4.73,50.57-26.53,1.99,1.21c1.32,3.45,2.42,12.03,2.25,16.05-.04,1.04-3.02.84-3.25-1.05-2.02-1.38-2.43-4.24-1.23-8.56l-50.53,27.81c-.67,10.57-.76,21.27-.26,31.86,21.75,26.51-34.95,26.16-20.96,3.78,5.7-.49,3.7-24.73,2.45-25.22l-46.34,25.39c-1.62,2.12-1.5,45.61.98,48.47,6.8,2.47,12.02,9.31,8.51,16.59-1.52,3.17-17.98,11.22-21.53,10.79-2.05-.25-15.39-7.54-16.57-9.13-1.66-2.23-2.48-10.19-1.39-12.64,1.28-2.89,8.45-6.78,10.86-4.14-.77,0-1.96-.18-2-.67-.4-4.46-.75-35.58,0-37.78l2-2.55-1.34,3.04-74.86,41.73c-2.62,2.1-2.59,5.4.45,7.1,47.62,26.71,95.06,53.84,142.34,81.26l27.56,14.06c4.86,2.26,10.01,2.19,15.1.46l243.61-135.71c2.29-2.03,4.75-5.34,1.99-7.9l-43.1-25.53c-2.19-1.54-4.1-3.38-5.74-5.5-2.44-1.39-1.65-2.55,1-2Z"/><path class="cls-52" d="M236.17,461.82c-1.8-4.93-.93-10.24.61-15.11l240.37-133.89c-.34,6.44,2.07,13.95-4.67,17.82-78.81,43.66-156.91,88.61-236.31,131.18Z"/><path class="cls-52" d="M209.16,463.82l-168.99-95.51c-1.51-1.8-1.36-10.34-1.01-13.01.18-1.38-.55-1.74,1.47-1.46l168.53,95.48v14.5Z"/><path class="cls-75" d="M232.16,449.82v14.5c0,3.57-16.94,3.85-20,1.5v-15c7.21,1.75,12.99.74,20-1Z"/><path class="cls-75" d="M266.16,230.82c-1.36.56-2.64,1.49-4,2-1.18.54-2.32.68-3.4.42.19-7.84-.01-15.65-.6-23.42-3.33-5.2-8.57-.59-12,1-8.11,3.75-40.23,20.4-44.43,26.07-1.54,2.07-3.27,5.82-3.59,8.41-1.76,14.42,1.48,32.09-.12,46.88-.82,2.5-4.71,1.52-6.86,1.64v-51.5c0-3.57,8.02-12.68,11.06-14.94l50.52-27.52c18.32-.73,12.6,18.86,13.42,30.96Z"/><path class="cls-75" d="M346.16,226.82c-2.16,5.2-4.79,10.64-7,16-1.75,8.25-5.27,17.01-10,24-1.74,3.93-3.23,8.18-5,12-1.86,8.2-6.66,17.32-13,23-5.13.62-4.1-1.66-8.52-2.06-2.59-.23-4.09.97-5.48,1.06-1.04.07-8.49.58-6-1.98.45-.46,8.81-3.92,11.47-6.04,3.22-2.56,6.16-6.16,8.35-9.65l30.71-73.3c.99-1.8,2.25-.05,2.9,1.04,3.32,5.58,4.01,10.06,1.57,15.93Z"/><path class="cls-65" d="M248.16,212.82c2.74-1.41,4.03-2.86,8-2,.18,2.63-.26,5.39,0,8l-54.99,29c-.24-4.27,1.91-8.62,5.05-11.44,6.3-5.64,32.92-18.93,41.94-23.56Z"/><path class="cls-68" d="M341.16,184.82c-.29.84.61,2.9-.51,3.01-13.35-1.41-1.7-23.01-17.49-23.02-1.27-7.16,8.43-1.67,10.48,1.03,3.62,4.75,1.74,12.51,4.05,16.97,1,1.93,2.96,1.56,3.48,2.01Z"/><path class="cls-45" d="M188.15,291.82c.57.54-.67,4.59,4.98,5.61,7.43,1.34,7.37-5.53,8.53-5.59,1.26-.07,1.77,2.85,1.34,4.31-2.04,6.9-21.86,3.53-17.37-3.36.51-.79,2.07-1.39,2.52-.97Z"/><path class="cls-34" d="M348.16,202.82c-.88.38-2.29,1.85-3,2-2.19.46-6.38.3-5.99-2.99l8.99.99Z"/><path class="cls-4" d="M127.16,215.82l-11.04-5.67.49-129.38c2.11-8.96,5.18-16.81,11.04-23.96,9.57-11.67,27.4-24.02,41.51-12-16.48,1.5-31.51,15.81-37.86,30.65-1.07,2.5-4.14,10.71-4.14,12.86v127.5Z"/><path class="cls-75" d="M133.16,219.82v124.5c0,3.86-11,2.2-11,0v-126.5c4.22.4,6.41,3.77,11,2Z"/><path class="cls-73" d="M125.99,354.98c.56.91.9,4.5-1.31,3.82-2.37-.73-13.96-7.67-11.51-10.99,1.59,1.54,12.43,6.54,12.82,7.16Z"/><path class="cls-13" d="M143.16,348.82c.99,1.05-.4,2.94-1.63,3.86-1.01.76-11.89,6.68-12.36,6.13.14-1.18-.39-2.89.17-3.83.38-.65,13.3-6.71,13.82-6.16Z"/><path class="cls-14" d="M141.16,343.83c1.41,1.97-4.42,4.69-5.99,3.98l1.01-5c.29-.3,4.84.81,4.99,1.02Z"/><path class="cls-12" d="M119.16,345.82c1.33,1.41.77,1.92-1,1-.34-.21-6-.87-4-2.98.19-.2,4.09-1.07,4.99-2.02.25,1.16-.31,3.1,0,4Z"/><path class="cls-55" d="M126.16,349.82c.12.7-.54,1.03-2,1-3.06-1.01-4.07-2.77-6-4l1-1c.45,1.25,5.85,2.72,7,4Z"/><path class="cls-69" d="M126.16,349.82c1.98-.11,4.01.07,6,0-1.53,3.41-5.19,1.92-8,.99.27-.96,1.15-.95,2-1Z"/><path class="cls-46" d="M130.16,88.32c2.07-17.49,24.52-44.85,43.82-39.81,9.2,2.4,10.91,13.65,11.22,21.77.35,9.27-1.03,18.88-1.08,28-.16,29.72,1.19,59.22.06,88.84l-54.02,29.71V88.32Z"/><path class="cls-25" d="M147.16,203.82l-2-1,1.37-2.35c8.93-6.41,18.41-12.05,28.44-16.91l.99-1.62-.78-81.24,1.98-1.88c2.11-.92,2.89.14,3,0,1.13-1.4-.85-31.36,0-36.01.16.66,1.61,1.96,1.07,3.38l-.23,118.96c-.68,1.98-29.52,16.43-33.84,18.66Z"/><path class="cls-52" d="M145.16,202.82c-2.25,1.31-4.72,2.78-7,4-1.6.94-2.62.9-2.55-1.05l.55-83.95c1.15-1.96,6.98-4.85,9.33-6.17,9.31-5.22,22.2-12.69,31.67-16.83l.81,84.31-1.84,2.16c-10.71,5.18-20.73,11.55-30.97,17.53Z"/><path d="M180.16,62.82c.63,11.81.83,23.67.59,35.57-.14,3.03-2.39,2.58-3.59.43l-1.24,2.75c-12.82,6.37-25.64,13.21-37.62,20.8l-2.14-.55-.53,84.13c.56,1.41,1.16,1.51,2.53.87.04-3.33,4.11-5.68,7-4,2.12-.73,2.79-.4,2,1-2.4,1.24-11.45,7.15-13,7v-91c.15-19.74-4.02-36.24,9.02-52.48,8.61-10.72,31.84-26.11,36.98-4.52Z"/><path class="cls-25" d="M134.16,210.82v-91c-.23,30.31.17,60.68,0,91Z"/><path class="cls-27" d="M164.25,76.74c.46.3,2.58-1.78,2.92-.41-1.03,3.34-4.23,5.94-3.08,9.89.27.91,6.35.87,2.82,4.38-5.84,5.83-9.26-11-6.29-15.81,2.11-3.42,3.36,1.79,3.62,1.96Z"/><path class="cls-25" d="M136.16,121.82c.8,27.11-1.07,54.45,0,81.55.08,1.93-1.03,4.01,2,3.45-.72.39-1.16,1.67-3,1l1-86Z"/><path class="cls-26" d="M152.16,83.82c2.47,2.52-4.25,4.72-5.05,5.7-4.3,5.27-.3,8.43,5.04,4.29.43,6.11-9.48,9.02-9.95,1.44-.29-4.6,7.48-13.96,9.96-11.43Z"/><rect class="cls-10" x="169.15" y="74.81" width="3.03" height="13.01"/><path class="cls-24" d="M157.16,83.81c-.21,1.99.92,11.93-1.5,11.98-2.56.06-.62-10.1-2.5-11.97h4Z"/><path class="cls-72" d="M371.16,210.82c-.84,1.66-3.48,3.19-5,2l-1-1-1.03-.81c8.22-4.44,16.08-9.48,23.57-15.13-.04-1.76.44-2.78,1.46-3.06.17-6.4.1-12.79-.23-19.16l-18.88-11.39.11-1.44,2-1c3.94,2.03,18.12,8.18,20.07,11.43,2.32,3.87.53,23.06-2.06,27.07-3.05,4.7-13.87,9.77-19,12.5Z"/><path class="cls-52" d="M289.16,295.82c-1.68-7.22-4.6-14.34-7.23-21.27-1.17-3.07-8.81-19.1-8.79-20.21.02-1.31,1.81-2.54,2.04-4.1.37-2.49-1.65-4.91-.85-7.7,1.14-4.01,15.63-8.86,7.41-14.8-3.45-2.49-7.21-.02-10.57,1.07-3.04.56-1.92-1.53-2-3.45-.1-2.42-.51-8.86.51-10.54,1.12-1.86,20.17-11.5,23.05-11.94,13.2-2,29.15,12.45,40.32,18.53l-26.04,62.74c-4.5,5.26-10.42,11.58-17.84,11.66Z"/><path class="cls-30" d="M268.16,318.82c4.82-2.71,10.62-5.11,15.67-7.83,6.35-3.42,11.55-9.75,19.8-8.16,6.36,1.23,8.02,12.53,1.53,8.48-2.25-1.41-1.54-5.34-8.36-3.29-1.27.38-1.33,1.57-1.65,1.8-7.24,7.26-5.96,26.31,5.54,13.59l1.46.41c1-.88,4.25-3.75,4.99-2.99.3,1.64-1.06,2.62-1.99,3.99-6.96,10.21-18.86,13.88-22.04-.97-1.05-.25-2.02.06-3,.41-4.25,1.52-25.26,13.74-29.28,16.73-2.33,1.73-7.69,8.56-8.27,8.74-5.74,1.83-2.75-8.48-.41-10.9l-4,1.99c-2.18,1.56-1.95.1-1-2,.5-.76,2.61-3.76,3-4l.02-.82c2.78-.89,5.44-1.94,7.98-3.18,1.62-1.23,1.95-.23,1,3l1.6.07c1.06-9.97,8.95-12.96,17.4-15.07Z"/><path class="cls-16" d="M266.16,317.82c-.15,2-9.13,5.9-10.06,4.06-.68-1.35,6.97-21.63,8.35-22.6.45-.32,1.06-.42,1.7-.45,2.06,2.42,8.38,10.5,7.86,13.37-.45,2.46-6.37,3.62-7.86,5.63Z"/><path class="cls-59" d="M266.16,298.82c-4.08,6.6-6.71,15-9.01,22.49l9.01-3.49,2,1c-1.92,1.08-13.21,7.65-13.72,8.27-2.07,2.54-1.05,8.57-4.79,10.72-1.01-.61-.43-2.83-.49-3.99,3.25-11.6,7.37-22.99,12.37-34.17l2.63-2.83c.63.7,1.39,1.29,2,2Z"/><path class="cls-39" d="M265.16,291.82c-.67,1.54-.52,3.86-1,5-5.12,12.28-10.38,24.51-15,37-.06-1.09.32-2.52-1-3-.25-.77-.44-1.53-.43-2.3.04-3.28,9.48-26.04,11.69-31.28.26-.61.94-1.04,1.74-1.42.46-1.16,2.38-3.43,3-5l1,1Z"/><path class="cls-18" d="M296.16,310.82c1.79.88-1.68,5.17-2.92,6.7-.19.24-.6.29-1.08.3.15,2.92,3.82,9.89,4,4,2.6-.08,4.84-.75,6,2-1.09.96-1.85,2.91-3.49,4-10.44,6.97-13.69-10.53-3.51-18l1,1Z"/><path class="cls-50" d="M340.16,245.82c-3.45,6.98-6.89,16.56-10,24l-1-3c3.45-7.82,6.73-16.08,10-24l1,3Z"/><path class="cls-50" d="M325.16,280.82c-1.87,5.1-4.46,10.62-7.2,15.3-1.76,3.02-4.8,5.13-5.8,6.7.19-.6-.57-1.05-1-1,4.63-7.31,9.37-15.17,13-23-.16,1.15.01,1.47,1,2Z"/><path class="cls-31" d="M294.16,320.82c.4.36,1.4.66,2,1,1.62.92,2.59.81,4,1.49-5.47,5.79-10.07,1.61-8-5.49.77.86,1.19,2.25,2,3Z"/><path class="cls-25" d="M222.16,292.82c-1.28,2.04-1.67,2.17,1,2l-.51,2.96c-8.35,7-15.37,15.71-19.8,25.71l-2.69,1.33c.17-2.67.04-2.28-2-1,5.14-14.33,11.91-22.53,24-31Z"/><path class="cls-52" d="M258.16,292.82c1.31.38,1.93,1.89,1.69,3.2-1.37,7.49-9.69,27.81-13.45,35.07-1.05,2.03-5.25,2.87-7.24,2.73-6.72,2.65-20.64-2.1-28.3-2.2-2.59-.63-.82-3.42.12-5.48,7.95-17.31,26.71-35.71,47.18-33.32Z"/><path class="cls-76" d="M258.16,292.82c2.77.32,1.52.64,3,3-4.5,11.42-7.86,23.86-13,35-.59,1.28-1.85,4.02-2.99,4.58-.85.41-2.53-2.14-5.01-.58l-1-1c.67-.27,4.29-3.33,6.07-3.69,3.56-10.82,9.71-22.06,13-32.81.51-1.65,1.23-2.89-.07-4.5Z"/><path class="cls-6" d="M258.16,209.82c.55,7.8.77,15.62.67,23.47.34-1.63.41-1.62.99.09l2.34-.57c-.61-2.8,2.14-4.3,4-2,1.48-.61,3.59-1.54,5-2,.06-3.71,6.78-4.82,9.73-3.73,12.11,4.5.75,13.76-4.69,18.1,1.48,4.55,1.1,8.3-1.13,11.23,6.46,12.61,11.46,25.78,15,39.51l-.91,1.89c.28,1.19,1.48,2.38.99,4l-1.99-1-2.5-.89c-3.48-11.75-8.14-22.81-13.96-33.2,1.6,2.23,2.33,4.72,2.21,7.48-3.62,6.11-6.87,12.32-9.76,18.61.29,1.93-.7,5.94-3,5l-1.47.05c.18-1.45-.31-2.3-1.53-3.05l-2.14,1.83c-17.9-.38-30.95,12.37-40.11,26.45-.6.92-4.69,8.29-4.28,8.55,2.22,1.37,21.94,3.14,25.96,2.59l1.57,1.59c1.59-.76,1.94-.58,1,1,2.42,1.75-.58,4.61-3,4-.24,1.22-.31,2.26,1,2,2.04-6.75,7.34-2.41,3.43,3.83l-.21,3.39c2.63-6.81,37.83-27.98,41.56-26.06.43.22.88.41,1.34.59,3.2,12.74,12.75,10.82,19.42,2l1.45.25,1,1c-5.79,7.41-7.64,10.26-16.72,14.78-2.96,1.48-10.91,2.09-12.75,4.25-1.45,1.7-2.84,8.36-4.04,10.96-9.64,20.84-29.7,44.23-55.03,42.06-24.91-2.14-29.13-31.04-24.8-50.88,1.38-6.33,3.6-18.3,5.34-23.16,2.02-3.74,3.38-2.85,2,1l1.58,1.55c-1.16,2.28.09,3.35,3.75,3.21,7.03-21.32,25.37-41.25,49.12-41.54l-.45-2.22c-3.92-1.05-8.07-1.04-12,0l-.94,2.18c-5.76,1.32-11,4.27-15.8,7.63l-2.26-.81c-3.8,2.22-3.89.61-1-2,4.28-3,7.98-6.53,13.45-8.05,9.09-2.53,11.65,1.18,19.55-6.95,1.41-1.33,1.92-.77,1,1,.5,3.25,6.71-4.08,3-3-2.17,1.08-1.83-.16-1-2,1.67-1.94,9.11-8.81,7-11-5.11-.46-11.46,2.1-13.56-3.97-.54-1.57-.1-4.01-.63-4.86-1.19-1.91-9.33-2.06-9.88-9.7-.71-9.93,6.77-10.18,14.06-10.49.66-.03,1.34.05,2,0,.65-5.13-.51-10.01-1-15.01-1.77-.91-2.58-3-2.43-6.26-2.31,1.17-4.16,1.26-5.57.26-2.13.24-2.24.13-2-2-.68-5.22,13.83-8.35,12-1Z"/><path class="cls-23" d="M288.16,298.82c.64,1.58.84,3.5,2,5-.85.47-4.35,2.57-4.99,2l-10.02-31c-1.51-1.54-9.4,15.63-9.99,17-1.31,1.32-1.71.76-1-1,1.36-3.46,2.13-7.79,3.81-11.69,2.53-5.83,7.77-8.18.2-13.81,2.78-3.4,4.49-3.47,6.73.25,4.71,7.84,9.47,23.93,13.25,33.25Z"/><path class="cls-41" d="M259.16,275.82c1.08,1.95-1.06,4.22-3,3l-1-1c.24-.25,1.94-2.77,3-4l1,2Z"/><path class="cls-52" d="M206.16,354.82c.5-2.57,2.54-14.53,4.56-14.97,3.99,4.77,17.79.19,19.5,1.39,1.62,1.14.46,5.28,1.45,7.56,4.47,10.24,27.67-.35,29.48,1.03-7.26,24.5-49.39,53.81-55,11.99-1.46-1.2-1.59-5.92,0-7Z"/><path class="cls-65" d="M242.16,285.82c3.92-1.05,8.08-1.06,12,0,1.03.15,9.07,3.23,7,4.99-25.08-5.21-48.18,18.33-54.03,40.97-6.1-.75-9.37-.55-6.96-6.96,4.24-11.3,13.48-22.7,23-30,4.87-3.73,12.92-8.25,19-9Z"/><path class="cls-44" d="M213.16,382.82c14.16,9.2,33.72-4.97,41.99-16.51,4.14-5.77,5.68-11.48,8.75-17.23.85-1.59,2.51-1.97,3.25-1.25,2.16,2.1-10.6,21.69-13.02,24.47-9.81,11.26-29.51,22.92-42.97,11.53-1.19-2.09-.52-2.43,2-1Z"/><path class="cls-57" d="M228.16,335.82c.49,2.79-.6,1.67-2.19,2.25-4.9,1.78-12.77,3.02-14.8-3.25l16.99,1Z"/><path class="cls-67" d="M205.16,366.82c1.11,6.07,2.34,12.32,8,16l-2,1c-5.6-4.73-7.43-9.61-8-17-1.24-4.18-.91-6.52,1-7,.96,1.44,1.29,3.77,1,7Z"/><path class="cls-29" d="M259.16,275.82c1.28-1.42,7.06-9.04,7.99-4.51-3.21,1.7-7.92,9.67-9.97,11.03-4.02,2.66-2.79-1.07-1.02-3.52.29-.39,2.17-2.09,3-3Z"/><path class="cls-24" d="M265.16,336.82c1.74,6.33-9.37,6.01-13.99,7.99.43-2.42,13.46-8.6,13.99-7.99Z"/><path class="cls-36" d="M278.17,336.81l1.49-9.99,5.49,7.49c0,1.16-6.43,3.07-6.98,2.5Z"/><path class="cls-40" d="M271.02,255.96c2.8,1.76.14,7.59-3.83,6.85.14-1.71-2.26-4.23-2.03-5.47.29-1.51,4.66-2.13,5.86-1.38Z"/><path class="cls-61" d="M264.16,344.83c.23,1.46-1.74,1.33-2.79,1.68-4.66,1.58-9.59,2.57-14.2,4.31-.38-2.26.92-2.36,2.56-2.93,4.31-1.52,9.85-2.62,14.43-3.06Z"/><path class="cls-33" d="M264.16,259.81c-9.7,2.36-13.63-6.81-2.55-2.94,1.63.57,2.92.71,2.55,2.94Z"/><path class="cls-9" d="M258.16,209.82c2.24,3.51.59,15.4,1,20.55.24,3.07-.49,2.57,3,2.45-1.15.43-2.05,1.68-4,1v-24Z"/><path class="cls-32" d="M204.16,350.82c1.03,2.85,1.89,6.67,0,9-1.6,1.25-1.16,4.95-1,7-2.08-4.85-.95-11.94,0-17,1.32-1.32,1.72-.76,1,1Z"/><path class="cls-17" d="M206.16,354.82c.02,2.22.24,4.88,0,7-.1.88-1.94,3.1-1,5-.48-2.66-.89-3.74-1-7-.1-2.99.07-6.01,0-9,.28-.87.62-.86,1,0,.03,2.05,1,3.79,1,4Z"/><path class="cls-11" d="M259.17,284.81c-1.08-1.23,4.64-6.35,5.98-6.99.15,1.95-1.6,6.56-2.97,7.57-.32.23-2.91-.46-3.01-.58Z"/><path class="cls-42" d="M203.16,349.82c.66-3.52,1.97-7.78,3.56-10.99.34-.69.75-3.76,2.44-2,.51.53-4.07,8.93-4,13.99h-1l-1-1Z"/><path class="cls-66" d="M238.16,340.82c-.03,1.59-2.89,5.43-2.01,8-4.2-2.17-.85-7.15,1.01-10-.39,1.05,1,1.89,1,2Z"/><path class="cls-71" d="M290.16,336.83c.23,1.47-1.74,1.32-2.79,1.68-3.14,1.08-6.87,2.22-10.2,2.3-.23-1.47,1.74-1.32,2.79-1.68,3.14-1.08,6.87-2.22,10.2-2.3Z"/><path class="cls-53" d="M271.16,333.82c.4.36-1.29,6.99-4,5.98.82-1.6.86-8.78,4-5.98Z"/><path class="cls-25" d="M254.16,285.82c-2.64-.39-9.28-.33-12,0,2.67-1.67,9.13-1.7,12,0Z"/><path class="cls-6" d="M372.16,159.82c1.12,1.31.45,1.65-2,1l-.96,1.02c-3.18-1.5-6.53-2.49-10.04-2.52,2.04.21,2.85,1.25,1,2.06v15.78l-1,.66c.32-2.66,1.24-2.54,2,0-1.73-3.85-1.65-12.95,0-17,.3-.49.64-.93,1.08-1.19,1.64-.95,24.44,11.46,26.44,13.61,1.09,1.17,1.11,13.99-.52,15.58l-.26,6.2c-1.64,3.7-25.11,17.7-27.45,16.17-.65-.42-3.2-6.92-1.28-7.36-1.18-2.61,2.86-.99,3.46.14.13.25-4.63-2.28-4.46-3.14-2.47-.96,1.14,12.98,6.09,9.94l.91,1.06c1.41-1.33,1.92-.77,1,1l.05,1.27c2-1.39,3.99-2.15,5.95-2.27,5.79.53,5.63,2.42,8.51,2.99,3.52.69,7.46-.56,11.52.48,11.56,2.97,19.89,16.7,20.95,28.05.48,5.11-1.1,13.97.68,18.25.89,2.14,9.78,5.86,12.34,7.24l-1,2c-.29.83-.82,1.32-1.67,1.38l-10.42-4.97c-5.34,30.8-45.32,74.92-76.79,48.91-1.67,7.02-8.06,8.31-19.16,3.86l-4.37,1.22c-2.35,5.66-4.54,7.19-6.6,4.6-1.41,1.33-1.92.77-1-1-.55-.47-.97-.88-.89-1.05,1.72-3.64,3.74-1.49-.82.69-.27.13-.75-.19-1.29-.64-2.29.58-2.9.19-1.81-1.16l-4.19-.84c-1.34,2.35-2.43,1.68-2-1-2.17-3.44.35-7.54,3.92-8.7l-1.92-1.3c-1.41,1.33-1.92.77-1-1-3.87-3.5,5.15-5.73,8.35-3.33,7.67,9.43,2.51-5.23-5.1-1.59-8.81,4.95-17.83,9.77-27.05,14.46l-3.21-.54c-2.1.7-2.76.37-2-1l-.39-2.35c7.53-1.74,7.57-6.35.12-13.83l.28-2.82c-1.87.79-2.54-.07-2-2-2.41-.47-.63-4.05,1-5-.32-3.02,6.61-18.52,8.87-18.73,1.98-.18,3.12,1.03,3.56,2.83l8.92,27.56c1.33-.9,2.34-.94,3.64.33,1.57-.86,2.05-3.16,6.32-2.19l.68-.81c.67-5.78,11.22-2.46,14,1,1.88-1.29,2.44-.74,1,1,1.21,1.47,1.88,3.43,2.02,5.87,4.1-5.69,8.51-7.18,13.25-4.49-2.93-7.05-2.55-14.27-1.54-21.66l-.73-1.72c-1.63,1.33-1.97.66-1-2-1.47-4.06.98-10.31,5-12,1.27-.81,1.6.19,1,3l1.04.96c-2.37,5.06-2.16,7.22.63,6.48,4.28-15.72,10.08-29.62,21.37-41.74-3.1-2.57-6.64.77-10.62,10l-2.42.3c-1.27.82-1.6-.18-1-3-.97-5.55,2.31-12.81,7-16,3.27,5.17,2.75.17,3,0l6.8-4.73c1.16-4.56-3.38-17.27-6.8-20.27-2.67.17-2.28.04-1-2-.55-.96-.51-1.81.25-2.54-4.87-.11-6.36-5.15-1.5-6.72-2.57.05-3.82-.86-3.75-2.74-.76-.38-1.18-2.29-2-3,.38-1.13.94-1.11,2-1,.55.39,6.93,3.13,7.45,2.99,2.13-1.51,1.39-4.42,2.66-6.43.67-1.06,2.38-1.32,2.66-1.78,2.93-4.93-5.48-26.38,8.5-23.57,3.48.7,5.78,3.78,7.73,4.78Z"/><path class="cls-19" d="M371.16,210.82c.08.48.54.96,1,1-3.08,1.71-7.75,5.49-11,4.5,1.49-1.09,3.45-2.65,5-3.5,1.37-.76,3.61-1.26,5-2Z"/><path class="cls-64" d="M349.16,201.82c.63-.28,3.7-1.21,3.98-1,.34,6.8,9.9,21.32,1.78,25.27-1.88.92-5.52.57-5.76.73,5.08-6.28-2.76-15.15-4-22-.89-1.17.11-1.84,3-2,.36-.16.67-.85,1-1Z"/><path class="cls-22" d="M343.16,187.82c1.15.58,6.46.44,7,2.51.66,2.57-3.84,2.32-4,2.5-1.92,2.12,3.5,4.31,6.47-.05,3.33-4.88-1.14-12.14,9.07-11.02,5.05.55,2.71,4.07,1.79,4.1-1.86.07-4.18-1.55-6.33-1.05-.02,2.87-.09,7.5-1.55,9.96-.55.93-6.6,4.86-7.45,5.05-2.84.63-10.01-.22-10.9-3.69-.79-3.07,4.83-5.56,5.9-8.31Z"/><path class="cls-52" d="M370.16,244.82c-2.05-1.69-3.04-4.31-.25-5.49,2.62-1.11,24.16,12.06,28.18,14.59,5,1.02.99,13.07-.56,17.45-5.84,16.45-19.59,34.96-38.23,36.68-13.23,1.22-21.91-14.72-16.13-25.23,8.69.23,17.84-.3,26.02-3.48,1.88-.73,2.69-2.27,4.03-2.97,3.18-1.64,7.99-.15,7.78-6.82-3.56-8.18-7.56-16.47-10.83-24.74Z"/><path class="cls-37" d="M394.16,230.82c8.3,2.64,10.19,15.01,9.81,23.15-1.04,21.98-16.48,49.99-38.98,55.87-7.54,1.97-18.14,1.25-20.83-7.03-3.63-2.41-4.71-9.63-4-14,1.45-3.41.01-6.67,3-6-3.84,9.07,3.55,23.27,13.62,23.96,21.56,1.47,43.24-30.86,42.22-50.81l-28.36-16.13c-2.74-.79-.95,3.78-.48,4.98l-1.5-.97-.5.97c-2.57-.37-3.05-1.38-1-3,1.58-4.54,1.82-2.76,6-2.01l-1-1.99c1.46-1.52,3.58-1.37,6.37.44l19.34,11.83c-.94-15.72-14.21-23.16-27.4-13.93l-2.31-.34c-.82-.79-1.53-1.48-1.93-2.6-.49-1.17.43-1.04.93-1.4,3.66-1.74,7.66-3.07,12-4,3.5-2.42,13.47-1.12,15,3Z"/><path class="cls-70" d="M396.16,229.82c26.25,20.26-7.27,90.86-44.03,81.53-4.97-1.26-6.58-3.81-8.97-7.53-.74-1.61-.59-1.94,1-1,11.47,15.32,34.89.57,43.83-10.67,10.84-13.64,23.16-48.84,6.17-61.33-1.11-1.98.26-1.67,2-1Z"/><path class="cls-58" d="M372.16,237.82c-.53-.27-3.84-1.84-4-2,9.37-8.72,24.35-7.71,29.49,5.01.69,1.71,3.96,11.82,1.02,11.96-1.16.06-16.93-10.5-19.84-12.14-2.27-1.28-4.76-1.85-6.67-2.83Z"/><path class="cls-65" d="M353.16,253.82c1.83,3.38,2.13,9.91,5.61,11.89,3.82,2.17,6.62,2.11,7.37-2.41,3.07-2.6,5.36,9.89,6.1,11.9-.11.69-2.35,1.36-3.08,1.62-1.86-.42-1.61-1.11,0-2,0-1.91.59-1.99-1.47-2-4.55-.02-11.19,2.63-16.53,3-11.37,2.86-9.75-2.58-6.96-10.65,1.19-3.44,5.28-14.1,8.96-11.35Z"/><path class="cls-47" d="M340.16,245.82c1.22-2.46,7.08-12.66,9.03-13.54,2.45-1.1,6.67.9,5.86,3.86-.23.83-8.69,11.06-10.31,13.76-1.83,3.06-4.09,7.29-5.44,10.56s-5.2,18.87-6.71,19.22c-1.09.26-3.79-1.37-5.43-.88-.65-3.53,1.82-6.16,3-8.99,1.58-7.94,5.28-17.79,10-24Z"/><path class="cls-43" d="M325.16,280.82c.43.23,1.77-.63,2.05.58.83,3.54-.47,10.4.06,14.81.46,3.84,2.59,6.87,2.88,10.61-3.39.28-5.88-3.05-9.33-1.87-1.59.55-4.23,6.92-8.66,5.88.1-2.37-1.42-5.8,0-8,4.21-7.2,8.54-14.53,13-22Z"/><path class="cls-62" d="M367.16,241.82c.32.79.55,1.86,1,3,1.38,3.5,10.07,25.1,9.97,26.51-.04.62-1.67,2.05-3,1.02-1.52-1.17-11.01-30-14.44-35.56-2.12-3.44-4.72-5.69-7.53-8.47,8.89-3.64,11.5,7.27,14,13.5Z"/><path class="cls-38" d="M370.16,160.82c2.29,1.11,19.01,10.96,19.51,11.99,1.44,2.97.26,16.14-.51,20.01-1.17.16-1.5-1.17-1-4,.2-1.99.26-14.17-.16-14.84-9.27-3.28-17.07-11.96-26.84-13.16v17h-2v-18.5c0-3.55,9.51.78,11,1.5Z"/><path class="cls-2" d="M282.16,307.82c-.26.25-2.48.28-3.09-.59-1.17-1.66-1.78-7.86-3.7-11.12-3.49-5.91-9.16-5.54-2.71-14.27,1.55.05,11.11,24.4,9.49,25.98Z"/><path class="cls-28" d="M389.16,192.82c-.19.95-.03,1.94-.43,3.03-1.42,3.84-17.48,11.98-21.94,14.14-.9.44-1.4,1.73-1.63,1.83-1.03.48-5.17,1.45-5.92.93-.67-3.66-2.61-7.9-3.05-11.48-.39-3.21,1.82-.51,1.97-.45,1.62,1.18,1.95,2.18,1,3,.67,1.99.51,4.68,2.62,5.95,3.43,1.06,21.24-11.83,25.16-14.15-.46-2.37,1.1-5.65,1.21-6.8l1,4Z"/><path class="cls-56" d="M375.88,219.55c-.48.49-10.74,5.88-12.07,6.44-4.16,1.74-2.15-4.28-.2-6.22.83-.82,7.25-4.14,8.51-4.5,4.35-1.24,6.71,1.29,3.75,4.28Z"/><path class="cls-63" d="M351.16,275.82c-2.79,1.61-10.64,2.6-9.01-1.99l-1.99.52c1.58-8.51,4.86-16.94,10.5-23.52.31,1.4,2.15,2.37,2.5,3-2.12-.46-2.19,1.13-2.99,2.46-2.34,3.83-6.81,13.73-7.03,18.04-.13,2.54,5.99,1.65,8.02,1.5Z"/><path class="cls-68" d="M378.16,184.81c-9.88-1.77-5.27-8.71-5.99-15.99,8.74,1.02,5.48,9.62,5.99,15.99Z"/><path class="cls-20" d="M364.16,163.82c4.3,1.74,6.17,2.31,6.08,7.5-.02,1.09-.78,8.21-1.09,8.51-.54.54-5-.22-5-1.51v-14.5Z"/><path class="cls-49" d="M379.16,195.84c.45.64-.2,2-.97,2.52-2.15,1.44-14.18-5.59-16.75-7.28-1.4-.92-2.15-2.33-1.26-3.25.71-.74,18.4,7.17,18.99,8.01Z"/><path class="cls-15" d="M385.01,174.98c.47.74.29,8.63.16,10.36-.12,1.52.78,2.86-1.51,2.5-5.46-.86-3.54-10.19-2.48-14.02.35-.24,3.61.81,3.83,1.16Z"/><path class="cls-54" d="M319.16,311.82c2.38,2.13-7.35,5.03-8.21,5.28-4.47,1.26-9.12,2.04-13.78,1.71.28-1.69,1.95-1.79,3.22-2.27,1.94-.74,18.05-5.36,18.78-4.71Z"/><path class="cls-21" d="M359.66,192.84c.84,0,12.27,7.57,14.48,8.48-1.39,1.98-3.2,1.77-5.27,1.31-.9-.2-10.46-5.77-10.66-6.36-.42-1.25.62-3.44,1.45-3.43Z"/><path class="cls-24" d="M277.15,310.82c-3-2.26-2.63-6.27-5.14-9.35-2.36-2.9-6.93-3.51-5.85-8.64,7.89,1.26,9.76,11.31,10.98,17.99Z"/><path class="cls-54" d="M368.16,261.81c-2.82,2.73-8.6-13.08-8.82-14.75-.24-1.85-.35-3.02,1.33-4.23l7.49,18.99Z"/><path class="cls-51" d="M369.16,274.82c0,.67,0,1.33,0,2-3.12,1.08-26.38,5.68-27.01,3.49-.67-2.34,2.16-1.41,3.5-1.49,8.05-.48,15.91-1.18,23.51-4Z"/><path class="cls-60" d="M355.16,246.82c3.2,4.96,5.74,11.16,6.99,16.99-2.66.55-1.72-.67-2.48-1.97-1.54-2.62-4.61-12.2-5.51-13.03-1.31-.79-.47-2.12,1-2Z"/><path class="cls-3" d="M396.16,229.82l-2,1c-3.64-2.67-10.62-3.68-15-3-1.61.21-2.28-.13-2-1,7.56-2.01,12.76-1.81,19,3Z"/><path class="cls-1" d="M296.16,310.82c2.22-1.25,7.68-.69,6.01,3-5.35-.36-9.06.94-8.01,7-1.29,1.12-1.96.12-2-3,.34-1.15,3.34-6.63,4-7Z"/><path class="cls-48" d="M344.16,302.82l-1,1c-3.51-5.47-3.03-5.69-4-12-.59-2.26-.26-3.26,1-3,.42,4.31,1.33,10.43,4,14Z"/><path class="cls-74" d="M358.16,200.82c3.14,1.24,6.28,2.43,9,4.5-.6.99-3.37.61-4.29.29-1.34-.46-3-3.67-3.7-1.8-.24-.72-1.49-1.61-1-3Z"/><path class="cls-8" d="M379.16,227.82c-3.19.5-7.62,3.89-10.72,4.84-.83.26-1.39.08-1.28-.84,2.52-1.81,7.01-4.21,10-5l2,1Z"/><path class="cls-5" d="M354.16,248.82c-.28-.26-2.08.55-1.99-.49,2.19-2.41,3.2-9.39,6.99-8.01-2.68,1.86-3,3.84-4,6.5-.19.52-1.05,1.16-1,2Z"/><path class="cls-35" d="M331.16,315.81c-.79.73-5.84-1.14-5.99-2.98,1.86-1.03,7.95,1.16,5.99,2.98Z"/><path class="cls-7" d="M339.16,291.82c-.33-2.17-1.9-4.97-.99-8h1.99c.13,1.64-.16,3.36,0,5-.34.8-1.52,1.5-1,3Z"/></svg>