<?xml version="1.0" encoding="UTF-8"?><svg id="drinking-fountain" xmlns="http://www.w3.org/2000/svg" viewBox="0 0 512 512"><defs><style>.cls-1{fill:#fff;}</style></defs><path d="M254.32,50c.15-1.01,1.18-3.26,2.23-3.85l53.29-29.73,59.54,34.78.99,4.76-.08,261.88,55.58,32.62c3.93,3.86,2.47,15.83,1.95,21.04l-212.08,122.03-124.72-72.22-6.18-4.82c-1.06-2.33-1.02-18.84.47-20.5l169-98c2.03-7.81-1.36-16.44,1.07-24.99l-1.07-72.5c-22,7.1-35.69,28.82-61.04,17.54-16.8-7.48-44.15-24.51-60.27-34.73-7.65-4.85-16.02-9.73-19.17-18.83-2.26-6.53-2.34-26.14-1.52-33.48.77-6.91,3.47-8.65,8.69-12.31,9.69-6.79,22.04-11.25,31.83-18.17l.32-12.35c-5.96-4.74-10.55-9.38-8.36-17.7,1.77-6.74,11.34-9.72,17.55-8.57,2.38.44,14.98,7.13,17.33,8.75,3.85,2.65,6.06,8.29,5.65,12.85,4.94-1.26,8.84-5.36,13.76-6.73,5.25-1.46,14.25-1.71,19.72-1.25,13.59,1.16,23.45,10.76,35.52,15.99,1.34-12.78-1.8-29.18,0-41.5ZM308.08,23.67l-43.74,25.33,51.48,29.42,45.48-25.42-47.93-28.04c-1.74-1.09-3.18-1.65-5.29-1.3ZM313.32,374.5V85c-15.17-8.14-30.05-18.99-45.33-26.67-2.43-1.22-4.8-3.01-7.67-2.83v38.5l41.36,25.64c2.65,2.14,3.38,5.08,3.69,8.31.8,8.37.84,26.75-.05,35.05-.53,4.99-2.58,8.5-6.67,11.33-10.24,7.1-26.93,12.95-36.3,20.7-.76.63-1.59,1.09-1.84,2.16l-.17,144.78.91,2.09,52.07,30.43ZM319.32,374.5l45-25.5V58.5l-45,25v291ZM154.03,68.71c-3.89,1.12-4.55,6.2-2.97,9.56,1.34,2.84,7.82,4.82,10.73,6.23,2.47-1.7,1.07-4.75,1.76-7.26.54-1.95,3.92-4.55,3.67-6.11-.56-3.45-10.62-3.16-13.2-2.42ZM174.05,74.63c-7.2,1.04-7.81,15.88-2.21,16.9,10.29,1.86,9.32-17.93,2.21-16.9ZM298.03,123.78l-70.69-40.8c-19.17-4.4-31.02-.97-45.47,10.52-.39.31-8.04,3.82-4.07,3.98,7.09-3.41,16.57-11.45,24.26-12.75,4.96-.84,19.3-.8,24.08.44,18.96,11.5,41.22,21.25,59.49,33.51,7.51,5.04,12.39,9.59,2.61,16.22-22.99,10.36-46.29,29.15-68.87,39.13-6.74,2.98-13.53,3.4-20.76,1.68l-72.33-42.66c-1.48-2.2-1.57-5.97-.02-8.13,3.64-5.06,23.71-11.14,28.07-17.42-1.66-.27-2.95.47-4.39,1.1-4.02,1.78-28.75,15.79-29.88,18.13-2.04,4.21.71,6.27,3.93,8.6,21.22,15.32,50.68,25.99,72.29,41.71,6.9,2.96,14.47,2.84,21.46.36,9.08-6.98,79.8-42.59,81.47-47.58.57-1.69,0-4.65-1.17-6.05ZM153.32,116.5l-22.98,12.5,19.65,12.27,46.79-24.82,35.78.32,38.27,21.36c.87,0,13.48-6.72,14.87-7.75,4.36-3.24-1.18-5.88-4.07-7.68-13.07-8.16-29-16.92-42.63-24.37-16.28-8.9-25.52-13.33-44.03-4.69-2.64,1.23-15.76,8.39-17.2,9.8-4.29,4.2,1.54,13.99-2.45,19.56-6.18,8.61-23.89,5.74-22-6.5ZM159.32,91.5v22.5c0,1.33-1.61,2.85,0,5.75,17.07,8.61,11.44-12.15,11.56-22.32l-11.57-5.93ZM264.31,141.51c-9.59-3.18-24.74-16.95-33.72-18.79-8.06-1.65-31.69-.89-38.94,2.61-11.48,5.53-22.76,14.01-34.33,19.66l45.72,26.27,12.16-1.38,49.11-28.37ZM209.32,214.5c5.63.69,10.23-2.06,15.02-4.48,24.03-12.15,46.8-27.65,70.45-40.55,1.62-1.71,3.98-2.99,4.49-5.51,1.13-5.56,1.69-17.43,1.08-23.02-.16-1.5-.1-2.5-1.54-3.43l-83.23,46.75-6.28.23v30ZM203.32,184.5l-8.71-1.79-76.29-44.21v22.5c0,3.9,8.72,11.68,12.08,13.92,17.44,11.61,41.54,24.78,60.25,34.75,3.86,2.06,8.29,4.92,12.67,4.83v-30ZM254.32,305.5l-161,92.02,121.57,71.98,203.42-115.01-.61-2.05-47.39-26.93v26.5l-51.05,29.95-3.42.64-58.88-33.24c-.81-.52-2.65-2.71-2.65-3.35v-40.5ZM422.32,359.5l-203.35,115.9-.63,10.1,202.39-116.1c2.95-2.12,1.19-6.68,1.6-9.89ZM211.07,474.75l-120.74-70.25c.39,3.24-1.35,7.74,1.6,9.89l118.91,70.09c2.78.86,1.64-8.31.23-9.74Z"/><path class="cls-1" d="M254.32,305.5v40.5c0,.64,1.84,2.83,2.65,3.35l58.88,33.24,3.42-.64,51.05-29.95v-26.5l47.39,26.93.61,2.05-203.42,115.01-121.57-71.98,161-92.02Z"/><polygon class="cls-1" points="319.32 374.5 319.32 83.5 364.32 58.5 364.32 349 319.32 374.5"/><path class="cls-1" d="M313.32,374.5l-52.07-30.43-.91-2.09.17-144.78c.25-1.06,1.08-1.53,1.84-2.16,9.37-7.76,26.06-13.6,36.3-20.7,4.09-2.83,6.14-6.34,6.67-11.33.89-8.31.85-26.68.05-35.05-.31-3.22-1.04-6.17-3.69-8.31l-41.36-25.64v-38.5c2.87-.17,5.24,1.61,7.67,2.83,15.28,7.68,30.16,18.53,45.33,26.67v289.5Z"/><path class="cls-1" d="M153.32,116.5c-1.89,12.24,15.82,15.11,22,6.5,3.99-5.57-1.84-15.35,2.45-19.56,1.44-1.41,14.55-8.57,17.2-9.8,18.51-8.64,27.76-4.22,44.03,4.69,13.63,7.45,29.56,16.21,42.63,24.37,2.89,1.8,8.43,4.45,4.07,7.68-1.39,1.03-14.01,7.75-14.87,7.75l-38.27-21.36-35.78-.32-46.79,24.82-19.65-12.27,22.98-12.5Z"/><path class="cls-1" d="M308.08,23.67c2.11-.35,3.55.21,5.29,1.3l47.93,28.04-45.48,25.42-51.48-29.42,43.74-25.33Z"/><path class="cls-1" d="M209.32,214.5v-30l6.28-.23,83.23-46.75c1.45.93,1.38,1.93,1.54,3.43.61,5.58.05,17.46-1.08,23.02-.51,2.51-2.88,3.8-4.49,5.51-23.66,12.9-46.43,28.39-70.45,40.55-4.79,2.42-9.39,5.17-15.02,4.48Z"/><path class="cls-1" d="M203.32,184.5v30c-4.38.09-8.81-2.77-12.67-4.83-18.71-9.98-42.8-23.14-60.25-34.75-3.36-2.24-12.08-10.02-12.08-13.92v-22.5l76.29,44.21,8.71,1.79Z"/><path class="cls-1" d="M264.31,141.51l-49.11,28.37-12.16,1.38-45.72-26.27c11.57-5.66,22.85-14.14,34.33-19.66,7.25-3.49,30.89-4.25,38.94-2.61,8.98,1.84,24.12,15.61,33.72,18.79ZM215.08,139.77c-4.82.18-14.96,5.12-18.3,8.7-9.51,10.17,8.65,16.76,17.03,16.05,3.13-.27,17.27-6.54,19.46-8.56,10.08-9.31-10.89-16.46-18.19-16.18Z"/><path class="cls-1" d="M422.32,359.5c-.4,3.22,1.35,7.77-1.6,9.89l-202.39,116.1.63-10.1,203.35-115.9Z"/><path class="cls-1" d="M211.07,474.75c1.41,1.43,2.55,10.6-.23,9.74l-118.91-70.09c-2.95-2.15-1.21-6.65-1.6-9.89l120.74,70.25Z"/><path class="cls-1" d="M298.03,123.78c1.16,1.4,1.73,4.36,1.17,6.05-1.67,4.98-72.39,40.6-81.47,47.58-6.99,2.49-14.56,2.61-21.46-.36-21.61-15.72-51.07-26.39-72.29-41.71-3.22-2.32-5.97-4.39-3.93-8.6,1.13-2.33,25.86-16.35,29.88-18.13,1.44-.64,2.72-1.38,4.39-1.1-4.36,6.28-24.43,12.35-28.07,17.42-1.55,2.16-1.46,5.92.02,8.13l72.33,42.66c7.23,1.72,14.02,1.3,20.76-1.68,22.58-9.97,45.89-28.77,68.87-39.13,9.78-6.62,4.9-11.18-2.61-16.22-18.27-12.26-40.53-22.02-59.49-33.51-4.79-1.25-19.12-1.28-24.08-.44-7.69,1.3-17.16,9.34-24.26,12.75-3.98-.16,3.67-3.67,4.07-3.98,14.46-11.49,26.3-14.92,45.47-10.52l70.69,40.8Z"/><path class="cls-1" d="M159.32,91.5l11.57,5.93c-.12,10.17,5.51,30.92-11.56,22.32-1.61-2.9,0-4.42,0-5.75v-22.5Z"/><path class="cls-1" d="M154.03,68.71c2.58-.74,12.64-1.03,13.2,2.42.25,1.56-3.14,4.16-3.67,6.11-.69,2.51.7,5.56-1.76,7.26-2.92-1.42-9.4-3.4-10.73-6.23-1.58-3.36-.92-8.44,2.97-9.56Z"/><path class="cls-1" d="M174.05,74.63c7.11-1.03,8.09,18.76-2.21,16.9-5.61-1.01-4.99-15.86,2.21-16.9ZM170.56,88.27c9.8,4.81,8.72-15.2,1.46-10.6-3.29,2.08-2.93,7.35-1.46,10.6Z"/><path d="M215.08,139.77c7.29-.27,28.26,6.87,18.19,16.18-2.19,2.02-16.33,8.29-19.46,8.56-8.38.71-26.54-5.88-17.03-16.05,3.34-3.58,13.48-8.52,18.3-8.7ZM214.06,145.73c-2.15.37-14.13,6.37-13.72,8.25,6.62,8.39,20.34,3.99,26.96-2.01,4.05-3.66-9.29-6.93-13.23-6.24Z"/><path d="M170.56,88.27c-1.47-3.25-1.83-8.52,1.46-10.6,7.26-4.6,8.34,15.41-1.46,10.6Z"/><path class="cls-1" d="M214.06,145.73c3.94-.69,17.28,2.57,13.23,6.24-6.62,5.99-20.34,10.4-26.96,2.01-.4-1.87,11.58-7.87,13.72-8.25Z"/></svg>