<?xml version="1.0" encoding="UTF-8"?><svg id="fire-hydrant" xmlns="http://www.w3.org/2000/svg" viewBox="0 0 512 512"><path d="M318.86,147.56c2.34,2.27,6.29,7.76,6.95,10.93.89,4.31,1.23,18.87-.25,22.97-.39,1.07-6.31,12.16-6.83,12.8-2.19,2.7-7.32,2.78-8.42,6.3-.64,2.06-.78,21.77-.3,24.21s4.35,3.55,6.23,4.98c6.56,5.01,20.38,17.91,21.63,26.05.43,2.78-.37,6.52.31,8.8.37,1.23,3.38,3.4,4.34,5.48,3.54,7.65-1.83,18.16-9.91,20.1-1.49.36-3.16-.1-4.6.31-.3.09-5.08,3.25-5.24,3.52-.4.67-.65,4.44-1.25,6.12-.95,2.65-4.1,9.86-5.98,11.55-1,.9-3.74,1.43-4.01,2.93-.15.86.72,2.21.58,3.4-.48,3.98-2.39,7.86-1.32,12.19,9.76,4.18,17.98,12.62,18.84,23.57,1.56,19.82-.41,28.87-17.78,39.06-10.33,6.06-18.79,10.29-30.6,12.88-3.65.8-9.93.8-12.88,1.86-.99.36-1.01,1.6-1.68,1.99-4.44,2.55-12.23,3.2-17.19,1.91-3.31-.86-4.46-2.98-6.67-3.84-6.75-2.64-18.07-2.16-26.1-5.46-3.36-1.38-4.95-3.7-7.48-5.14-8-4.53-23.89-11.34-26.02-21.66-.83-4.04-.61-21.92.16-26.17.66-3.66,2.93-6.7,5.27-9.45,2.52-2.96,10-7.65,9.57-11.23-.23-1.87-7.9-1.91-8.81-7.73-.28-1.76.4-6.35-.15-7.21-.18-.28-1.93-.55-2.65-1.19-7.38-6.4-.91-11.89-1.77-13.68-.29-.6-8.25-7.2-9.84-9.07-1.99-2.35-4.65-7.54-6.35-9.08-1.26-1.15-3.25-1.37-4.8-2.92-3.07-3.06-5.14-9.24-4.56-13.54.36-2.66,2.18-3.99,2.6-5.82.71-3.13-.12-7.53.23-10.99.91-8.86,6.85-20.47,16.04-22.88-.89-2.83-3.1-3.49-4.25-6.61-.88-2.4-1.2-9.67-1.47-10.1-.17-.27-4.19-2.04-5.43-3.34-7.59-7.97,2.17-23.89,11.31-22.58,2,.29,5.06,2.53,6.64,2.54.35,0,3.54-1.9,3.65-2.08.2-.35-.65-2.63-.67-3.72-.25-14.13-2.25-23.48,9.91-32.93,1.93-1.5,7.18-3.74,8.18-4.79.6-.63,2.53-6.26,3.56-8.01,3.13-5.3,7.27-10.69,12.1-14.55,2.85-2.28,10.78-5.82,12.25-7.38,1.21-1.28,1.14-3.43,2.41-5.3,2.05-3.03,5.65-3.45,7.01-4.91,1.06-1.13.9-3.77,2.1-5.61,4.02-6.2,22.69-6.06,24.94,1.02.43,1.35.04,3.36.63,4.27.33.5,4.22,1.69,5.63,2.78,3.23,2.5,3,5.87,4.88,7.74s8.79,5.04,11.93,7.7c5.33,4.51,9.79,10.91,13.12,17.03.84,1.54.89,3.75,1.95,5.06,1.2,1.49,7.8,4.45,10.3,6.88ZM248.38,98.85c1.12,1.83,9.92,2.44,12.18,2.19,11.84-1.29,5.36-7.95-4.03-7.53-2.18.1-10.3,1.84-8.15,5.34ZM267.92,101.75c-6.55,2.42-14.35,3.73-20.32-.7.23,1.55-.37,3.75-.03,5.14.73,3.05,23.7,5.53,20.36-4.43ZM244.08,103.85c-5.34,1.53-8.35,6.58-3.03,10.39,7.4,5.31,23,4.88,31.01,1.11,7.57-3.56,6.55-9.53-1.33-11.5-.36,2.21,1.03,4.28.58,6.49-1.16,5.75-14.46,5.91-18.98,5.24-7.92-1.16-9.05-3.99-8.25-11.73ZM267.92,109.46c-.34-.28-4.62,1.84-6.02,2.04-2.82.39-7.94.29-10.68-.42-1.71-.45-2.81-1.65-4.34-1.97,2.17,4.91,11.78,4.39,16.18,3.54.58-.11,6.31-2,4.86-3.2ZM233.55,115.07c-16.47,7.78-24.53,21.31-27.25,39-.29,1.9-.38,11.08-.79,11.48-.16.16-1.61.08-2.14-.31-2.19-1.59.58-16.84,1.44-20.02-17.79,9.02-17.45,23.82-.92,34.23,25.86,16.3,86.47,17.07,110.65-2.7,13.54-11.07,10.22-23.72-4.54-30.83.47,4.12,3.34,16.11,1.31,19.19-.55.84-.87,1.37-2.01,1.14-.98-6.34-.92-12.77-2.32-19.07-3.1-13.94-12.7-26.4-25.73-32.11-.93,11.85-18.53,13.27-27.73,12.65-7.45-.5-19.63-3.61-19.96-12.65ZM277.73,115.06c-10.81,8.08-29.42,7.8-40.31,0-1.3,2.49.54,4.51,2.51,5.91,7.62,5.39,26.74,5.33,34.54.28,2.35-1.52,3.79-3.22,3.26-6.2ZM321.2,174.66c-3.35,2.93-6.59,5.84-10.5,8.08-27.51,15.7-83.6,16.06-110.04-2.18l-7.78-6.24c7.94,11.3,22.67,16.91,35.74,19.65,24.39,5.12,67.98,3.84,87.68-13.34.79-.69,5.62-5.15,4.89-5.97ZM323.31,178.17c-20.91,19.7-55.57,23.28-83.07,20.33-17.59-1.89-36.95-7.65-49.09-21.02-.57,5.22,5.23,9.75,9.25,12.49,26.77,18.18,83.68,17.85,111.22,1.39,4.98-2.98,10.38-7.25,11.7-13.18ZM178.87,185.19c-8.39-.84-15.43,11.68-8.76,17.52-.55-3.86-.47-5.78,1.14-9.37,1.89-4.2,4.39-5.3,7.62-8.15ZM180.27,220.94c-3.34-10.24.05-20.14,6.33-28.38.68-.9,7.65-6.4,3.83-7.38-1.33-.34-6.94,4.73-8.04,5.97-6.42,7.27-10.61,22.82-2.12,29.79ZM180.97,188.69c-5.87.31-9.53,8.2-7.7,13.31l2.67-6.08,5.04-7.23ZM183.09,220.94c3.52,2.28,2.7-5.95,2.88-7.28.55-3.96,2.11-8.6,3.99-12.14s8.06-8.3,3.91-11.38c-6.71,3.35-12.03,14.64-12.24,22.03-.04,1.29.98,8.46,1.46,8.77ZM188.69,218.84c1.61-2.26,14.25-7.07,14.62-8.16.31-.91.3-9.38-.02-10.31-.36-1.05-4.38-3.13-5.14-4.66-6.48,5.55-10.02,14.62-9.46,23.13ZM206.22,200.61v10.52c18.07-1.5,33.46,17.26,38.06,33.11,4.67,16.09,2.41,36.44-14.2,44.39-5.13,2.46-10.91,3.43-16.14,5.59,17.97,12.23,44.62,13.09,65.34,8.55,7.5-1.64,14.63-4.04,20.89-8.55-10.76-6.39-25.94-11.29-30.96-23.71-9.46-23.39,12.12-54.71,37.99-46.75v-23.14c-4.45,1.3-8.75,3.35-13.17,4.71-3.47,1.06-8.91,1.36-11.91,2.78-1.93.91-.75,5.19-7.53,5.19-5.56,0-5.32-3.42-6.99-3.62-3.16-.37-22.04-.54-24.43.04-.81.2-1.51,4.02-7.06,3.49-5.85-.56-4.46-4.44-5.44-5.48-.22-.23-5.04-.8-6.23-1.14-6.15-1.77-12.04-4.34-18.22-5.97ZM293.86,202.02c-15.49,3.3-31.39,5.14-47.32,4.19-8.88-.53-17.49-3.16-26.31-3.85,21.65,6.05,47.4,6.5,69.3,1.28,1.13-.27,3.96-.5,4.33-1.62ZM227.95,286.14c23.04-10.39,17.86-43,4.19-59.22-6.89-8.18-18.41-16.3-29.42-11.58l9.32,4.34c20.19,12.25,30.36,46.59,15.92,66.47ZM222.35,287.55c21.67-19.65,4.79-67.29-24.54-69.41-.37,2.09.55,1.11,1.64,1.48,22.43,7.52,33.57,36.72,27.28,58.65-1.08,3.76-2.82,5.91-4.38,9.28ZM205.52,293.16c10.73-3.69,16.95-6.95,19.42-18.78,3.41-16.28-3.56-37.04-16.61-47.48-7.83-6.26-15.04-5.84-24.16-2.41-.74.28-1.68.29-1.79,1.36.99,0,2.01-.07,2.98.18,24.25,6.1,36.6,48.26,20.16,67.13ZM313.5,232.15c-8.72-6.5-14.19-10-24.77-4.78-17.75,8.76-27.28,35.55-11,50.02.7.62,6.71,5.76,6.32,2.81s-2.08-6.64-2.13-9.87c-.26-16.99,13.22-38.02,31.58-38.18ZM190.89,295.16c1.8,2.84,10.2-1.31,12.2-3.38,13.15-13.58,6.83-41.98-4.92-54.73-13.4-14.52-28.59-10.99-32.86,8.53-.4,1.83-2.15,9.85-.05,10.37.52.13,4.88-1.64,5.48-2.13,1.93-1.58,2.14-5.84,5.68-8.34,11.12-7.87,21.35,8.94,22.08,18.59.6,7.89-1.94,16.55-11.21,16.47-.59,3.15,2.75,4.55,3.35,7.52.37,1.84-.22,6.33.26,7.1ZM320.5,237.78c-15.35-8.72-29.92,7.29-33.83,21.2-2.65,9.43-2.99,20.64,5.45,27.17,1.78.14.79-.25.51-1.22-5.63-19.59.78-36.49,19.31-45.56l8.56-1.59ZM326.12,244.77c-10.21-9.86-24.59,2.68-29.36,12.36-4.29,8.71-6.07,22.69,1.01,30.37.7.76,7.82,6.24,6.61,3.21-.42-1.06-1.95-2.51-2.64-4.38-6.14-16.67,5.72-40.82,24.38-41.57ZM187.29,277.73c8.15.1,9.12-9.11,8.23-15.59-1.33-9.69-12.67-22.93-20.85-11.06,10.42-3.46,16.3,9.95,15.42,18.59-.34,3.39-2.34,4.97-2.8,8.06ZM317.01,286.85c-.34-.34-4.94-.02-7.6-3.97-9.05-13.44,10.34-37.31,21.3-24.11.35.42,3.44,6.8,4.88,4.24.38-.68-.29-5.42-.54-6.49-3.44-15.03-17.99-8.85-25.05-.16-6.16,7.58-10.08,21.87-4.82,30.73,1.54,2.59,8.21,7.65,10.77,4.66.54-.63,1.4-4.57,1.05-4.91ZM178.88,275.63c5.3-2.67,8.56-1.7,8.45-8.78-.13-8.7-6.12-17.63-14.77-10.51,5.66,4.59,8.45,12.18,6.31,19.28ZM174.67,276.33c1.83.19,1.97-.98,2.14-2.41.74-6.35-1.37-16.06-9.15-15.81,6.37,4.09,9.3,10.68,7.01,18.22ZM327.52,260.2c-2.66-3.99-8.54-1.72-11.57.71-6.23,4.99-9.4,19.31-.35,22.43-4.92-9.15,1.25-22.78,11.92-23.14ZM164.64,261.72c-6.24,1.85.1,16.53,5.31,15.22,5.54-1.4,2.25-17.45-5.31-15.22ZM333.82,266.53c-4.77-2.35-7.69-5.93-12.62-1.06-5.97,5.9-6.36,17.65,3.51,19.28-3.27-4.84-.56-9.6,2.35-13.78l6.76-4.44ZM337.1,284.51c3.87-3.89,6.37-14.59-2.17-13.06-9.38,1.68-8.05,23.33,2.17,13.06ZM180.27,278.44c-.29-.27-6.2,2.32-7.71,1.41.14,3.77,3.48,6.62,5.96,9.11-.13-2.37,3.47-8.89,1.74-10.52ZM319.81,291.05c2.03.36,2.98-1.18,4.19-2.45l-3.49-1.75-.7,4.2ZM187.99,300.88v-10.87c0-.12-.69-2.05-1.4-1.75l-.04,2.48,1.43,10.14ZM305.78,295.27c-4.82.93-8.91,4.57-13.55,6.43-21.26,8.52-52.96,8.07-73.88-1.4-3.1-1.4-5.95-5.06-9.34-3.98,1.07,2.4,4.72,4.36,7.01,5.61,20.03,11.06,52.34,10.99,73.61,3.46,5.73-2.03,12.36-5.34,16.16-10.13ZM319.1,295.97c-2.68-1.16-6.04,3.07-3.15,4.2,2.12.82,2.82-2.8,3.15-4.2ZM204.81,297.37v28.4c0,.92,2.59,1.28,3.51,1.05v-13.67c0-3.15,3.64-4.57,6.52-3.71,1.89.56,5.4,6.11,5.4,7.92v40.32c0,.2-2.56,1.3-2.85-1.06-.17-1.43.77-3.65.78-5.57.03-5.31-1.11-10.49-.74-15.81-2.17,1.65-3.97,1.04-6.3,0v15.08c0,1.21-2.8,1.21-2.8,0v-12.27c-4.88-.36-3.93,8.89-3.34,12.11,1.27,6.95,13.58,14.35,19.79,16.67,17.17,6.4,45.91,6.67,62.97-.19,5.26-2.12,20.15-10.66,20.15-17.01v-24.19c-.59-.04-3.51.52-3.51.7v24.54c-4.82.48-2.11-7.09-2.07-10.13.05-3.86.32-7.89-.74-11.6-1.3.54-1.14,2.29-2.43,3.52s-5.21,2.11-5.32,2.52c-.59,2.17-.09,13.59.01,16.78.08,2.52,2.32,9.24-2.41,5.22-.59-7.59,1.43-15.47-.37-23.13-3.12,2.21-5.67,3.1-9.1.7.46,7.63-.63,15.96-.03,23.51.16,1.98,2.56,4.54-.33,4.56-1.68.01-2.3-1.71-2.48-3.15-.81-6.21-.15-17.23-.01-23.92.03-1.22,1.21-3.63-.29-3.79-1.17-.12-5.06,1.62-7.37-.03v31.9c0,.74-1.99,1.34-2.8,1.05v-36.81c0-.25-2.42-3.82-2.84-4.17-3.17-2.57-8.32-.89-9.59,2.94-.08,13.12-.86,26.42.51,39.44-3.16-.09-3.31-1.9-3.53-4.52-.68-8.01-.85-25.15.03-32.99.44-3.95,2.17-6.59,5.83-8.19,5.68-2.48,5.68.46,9.51,1.16.97.18,2.08-.46,3.11-.26,2.81.56,5.52.94,8.18,2.04,2.38-10.02,15.86-13.81,14.04.7,10.18-1.62,6.23-7.51,8.97-14.51,1.79-4.59,6.56-6.35,5.04-12.13-2.51,2.23-4.75,4.24-7.69,5.97-22.26,13.06-65.48,13.48-87.44-.23-1.03-.64-7.48-6.27-7.93-5.75ZM202.01,298.07l-10.52,1.06c1.06,2.16,2.66,3.31,3.2,5.91s-.15,5.39.3,7.26c.08.34,2.97,2.04,3.83,3.34,1.57,2.35,1.06,5.32,3.19,6.97v-24.54ZM187.71,304.45c-2.95.96.16,5.56,2.03,5.53,1.46-.03,2.25-6.93-2.03-5.53ZM305.09,314.9c2.37-1.15,2.19-4.11,2.09-6.31-2.72,1.1-2.14,3.86-2.09,6.31ZM212.87,311.43c-2.28.16-2.51,12.93-.67,13.29.24.05,4.29-1.54,4.54-1.75,2.51-2.07-.45-11.77-3.87-11.54ZM304.38,321.91c3.98-.47,2.29-3.63,2.09-6.3-1.39.32-2.44,5.9-2.09,6.3ZM193.96,317c-2.15.45-1.12,6.51,2.07,5.6,2.72-.78-.14-6.01-2.07-5.6ZM290.29,317.07c-3.28-2.24-15.57,10.41-1.53,10.28,3.54-.03,2.45-8,1.53-10.28ZM217.43,326.82c-1.38-1.27-8.07,7.02-.03,6.27.68-2.26.59-4.01.03-6.27ZM298.77,326.83c-2.33-.1-4.81.53-6.3,2.45,2.63,3.47,5.5,1.07,6.3-2.45ZM310.69,333.83v16.48c0,3.01-5.5,8.45-7.7,10.56-.97.93-3.18.96-1.76,2.41,9.19-1.09,9.81,12.23-.07,12.55-6.79.22-7.64-3.07-7.64-9.04-4.24,2.32-9.24,3.89-13.94,4.99-2.73.64-15.49,2.16-16.16,2.64-1.28.9.34,3.89.27,5.3-.29,5.1-8.09,5.79-11.9,4.25-4.53-1.83-2.35-6.21-2.79-10.18-10.18.02-21.37-2.49-30.51-7-.89,1.71.01,4.15-.34,5.96-.68,3.54-13.2,4.95-14.06-1.37-.32-2.35-.21-5.87,1.87-7.31,1.55-1.07,4.23-.75,5.17-2.18-4.44-1.96-8.42-7.48-9.05-12.34-.38-2.9.54-7.13-.2-9.61-.21-.7-3.27-3.83-3.81-3.93-1.81-.31-9.33,7.78-8.66,8.33,4.87-1.53,11.09-.95,11.28,5.26.04,1.19-.5,5.18-1.11,5.97-1.49,1.95-12.77,2.69-12.28-2.45-.93-1.16-.75.84-.72,1.41.29,6.22,3.95,10.76,8.43,14.72,24.76,21.85,81.83,22.08,110.34,7.96,9.03-4.47,20.68-13.4,20.78-24.44-1.19-.08-.62,1.54-1.35,2.5-2.03,2.65-11.13,2.08-12.33-.38-.3-.62-.87-5.04-.81-5.88.39-5.4,7.64-5.74,11.68-4.99-.31-2.33-11.62-11.31-12.62-10.17ZM197.1,349.25c1.92-2.67-9.49-4.12-6.97-.04.56.91,6.38.87,6.97.04ZM321.91,347.16c-1.2.04-7.03-.49-7,1.05.03,2.18,8.32,2.9,7-1.05ZM197.09,352.06c-1.83,2.01-7.45-.3-7.7,0-1.66,2.01,7.94,3.87,7.7,0ZM325.41,364.68c-3.67,3.98-6.85,7.61-11.4,10.68-29.15,19.63-97.63,19.89-123.24-6.09l-4.89-5.63c1.9,5.7,6.33,10,10.99,13.55,27.43,20.91,90.37,20.88,117.97.41,4.27-3.17,9.09-7.68,10.57-12.91ZM214.63,366.09c-.2-.21-5.08-.12-5.84.12-3.77,1.19,1.38,3.62,4.68,2.57,1.14-.36,1.62-2.22,1.16-2.69ZM304.38,368.18c1.72-2.41-6.6-2.5-7.01-2.09-.16.16-.08,1.62.31,2.14.9,1.22,6.27.55,6.7-.05ZM326.11,370.29c-4.45,5.24-8.94,9.31-14.95,12.74-31.63,18.06-97.89,17.96-123.56-10.61-.52-.58-.99-1.33-1.03-2.12-1.78.7-.01,4.76.59,6.08,11.68,25.55,69.3,27.74,92.82,23.87,15.86-2.61,44.17-11.09,46.12-29.95ZM215.33,371c-2.89,1.1-5.48.5-8.41.34,2.14,2.39,6.67,2.63,8.41-.34ZM305.08,371c-3.05.97-5.41.35-8.41.34,2.23,2.15,6.54,2.45,8.41-.34ZM259.5,377.29c2.06-3.26-6.58-3.77-7-1.73-.62,2.95,6.34,2.78,7,1.73ZM260.2,380.11c-2.85,1.19-5.52.44-8.41.34,2.06,1.9,4.37,1.97,6.89,1.26,1.24-.35,1.83.22,1.52-1.6ZM265.12,405.36c-2.95-.68-6.11.76-8.76.75s-5.23-1.19-8.43-.76c-.97.13-2.02.35-1.03,1.39,1.65,1.74,17.01,3.06,18.23-1.38Z"/><path d="M241.28,364.68c-.13-1.8.66-3.44.73-5.23.31-8.89.94-23.1-.03-31.58-.75-6.57-7.82-10.71-11.77-4.06,0,11.15-.48,22.39-.18,33.54.05,1.93,1.91,4.81-1.01,5.23-.89-.7-1.52-1.29-1.74-2.47-.84-4.4-.72-31.7.02-36.4,1.41-8.88,16.02-7.45,17.41,4.24,1.27,10.67-.76,23.36.06,34.26-.31,1.8-1.66,2.74-3.48,2.47Z"/><path d="M262.83,135.56c2.71-.49,6.95-.58,9.27.91,6.21,4.01,10.98,29.66,11.27,37.1.16,4.04.02,7.58-4.35,9.03-2.5.83-14.61,2.22-17.09,1.91-2.27-.29-3.23-1.55-4.22-3.51l-.27-40.32c.44-2.78,2.72-4.65,5.39-5.13ZM270.72,180.98c8.99-.57,10.42-.15,9.81-9.46-.49-7.49-4.47-28.52-10.48-32.99-2.06-1.53-3.41-1.58-3.51,1.34,3.2,13.42,4.34,27.31,4.18,41.11ZM267.92,181.68c.38-14.55-.26-29.5-4.55-43.47-5.03,1.99-2.86,8.34-3.13,12.99s-2,26.51.02,29.37c1.46,2.06,5.31.79,7.66,1.11Z"/><path d="M242.42,134.22c2.02-.14,4.37.91,5.48,2.61,2.6,3.96-.55,19.35-1.01,24.87-.41,4.98,1.77,21.6-5.3,22.05-3.38.21-12.86-1.73-14.03-5.54-1.05-3.43.6-13.05,1.31-17,1.12-6.3,5.91-26.47,13.55-26.99ZM243.15,136.99c-3.87.13-6.79,7.63-8,10.86-1.9,5.06-7.15,26.23-4.44,30.02,1.21,1.7,10.35,4.15,12.03,2.1,1.86-2.26,1.76-20.15,2.06-24.58.25-3.77,3.11-15.74.27-17.84-.53-.39-1.25-.58-1.91-.56Z"/><path d="M284.55,127.83c6.05-1.34,13.85,10.23,16.23,15.02,2.82,5.66,7.27,22.02,5.55,27.82-.84,2.82-9.33,8.05-12.49,6.46-2.63-1.32-2.41-12.59-2.97-15.96-.94-5.59-3.16-11.88-5.31-17.13-1.66-4.06-9.51-14.34-1.02-16.22ZM285.25,130.59c-4.35,1.22,1.32,8.65,2.42,11.35,2.9,7.14,4.85,14.32,6.1,21.95.33,1.99.23,10.25,1.91,10.75,1.41.42,7.62-3.39,7.98-5.24,1.49-7.7-2.87-21.4-6.88-28.15-1.72-2.9-7.89-11.68-11.54-10.65Z"/><path d="M226.38,127.85c2.51-.67,4.68.03,5.48,2.61,1.1,3.57-4.61,12.26-6.14,16.37-1.72,4.64-2.93,9.5-3.87,14.36-.56,2.92-.94,14.18-3,15.23-2.83,1.44-10.13-4.09-10.91-6.63-1.85-6.07,2.15-20.8,4.96-26.67,2.08-4.36,8.77-14.02,13.49-15.27ZM227.05,130.62c-6.49,1.65-13.53,16.81-15.02,22.86s-3.83,14.27,1.55,18.37c2.24,1.71,4.21,3.22,4.59-.32,1.3-12.17,2.69-19.81,7.35-31.21.78-1.92,4.56-7.63,3.5-9.15-.62-.82-1.03-.8-1.97-.56Z"/></svg>