<?xml version="1.0" encoding="UTF-8"?><svg id="linknyc" xmlns="http://www.w3.org/2000/svg" viewBox="0 0 512 512"><defs><style>.cls-1{fill:#fdfdfe;}.cls-2{fill:#2b2b2c;}.cls-3{fill:#050505;}.cls-4{fill:#010101;}.cls-5{fill:#09090a;}.cls-6{fill:#282726;}.cls-7{fill:#1c1c1d;}.cls-8{fill:#030303;}.cls-9{fill:#232223;}.cls-10{fill:#060506;}.cls-11{fill:#2c2b2c;}.cls-12{fill:#000001;}.cls-13{fill:#030203;}.cls-14{fill:#020202;}.cls-15{fill:#1e1e1f;}.cls-16{fill:#262525;}.cls-17{fill:#181717;}.cls-18{fill:#040404;}.cls-19{fill:#2a2929;}.cls-20{fill:#282828;}.cls-21{fill:#fefefe;}.cls-22{fill:#232322;}.cls-23{fill:#3a383a;}.cls-24{fill:#0b0a0a;}.cls-25{fill:#0c0c0d;}.cls-26{fill:#fcfcfc;}.cls-27{fill:#252525;}.cls-28{fill:#2d2b2d;}.cls-29{fill:#363638;}.cls-30{fill:#fdfdfd;}</style></defs><path class="cls-27" d="M175.28,447.06c1.99.5,3.98,1.04,5.91,1.71s3.84,1.34,5.6,2.28c24.34,12.93,48.61,26.02,72.73,39.33l-.41-4.33c-6.45-2.75-12.62-6.07-18.52-9.96l-1.31-3.03c-1.32-1.3-.77-1.58,1-1l1.64-1.39,19.77,10.29c3.4-1.68,6.6-3.64,9.59-5.9.28-.87.62-.86,1,0,4.45-.35,2.41,5.22-.65,7.08-5.38,1.74-7.68,4.29-6.89,7.66,9.56-5.64,19.34-10.89,29.33-15.75h4.21c1.66-.66,1.93-.61,1,1-5.27,2.89-35.17,20.85-38.11,20.54-28.15-15.2-56.59-29.94-84.63-45.34-1.24-.68-1.95-2.03-2.26-2.2l1-1Z"/><path class="cls-16" d="M338.28,453.06c-12.67,8.02-25.88,14.8-39,22l-1-1c.53-.88,1.09-1.73,1.76-2.49,2.69-3.07,30.15-18.51,34.23-19.27.99-.18,2-.23,3.02-.24l1,1Z"/><path class="cls-1" d="M344.28,73.06c1.42.75,2.54,1.56,1.25,2.79-24.59,13.34-49.67,26.41-75.25,39.21-1.9,2.88-3.54,1.56-5-1-37.09-18.42-73.75-37.75-110-58-.28.87-.62.86-1,0v-1c.57-.26,2.01-1.43,3-2,2.47-.1,3.47-.77,3-2,22.99-13.25,46.68-25.8,70.34-37.78,38.18,19.39,75.51,40.35,113.66,59.78Z"/><path class="cls-30" d="M262.28,475.06c1.46.03,2.98-.03,4.57-.19,1.8-2.71,3.19-2.52,4.43.19,1.75,2.93-8.67,7.93-9.49,7.96-1.84.06-18.27-9.25-21.51-10.96-25.8-12.62-51.1-26.67-76-41-1.1-1.01-2.07-3.6-2-5,0-1.47.36-3.48,1.93-4,32.18,17.38,65.39,34.98,97.92,51.81l.15,1.19Z"/><path class="cls-30" d="M163.28,432.06c25.96,12.41,51.22,26.38,76,41,6.95,3.8,13.52,8.55,21.01,11.49,1.27,1.23,2.18,9.28-.48,8.49-27.81-15.99-56.42-30.57-84.53-45.98-2.49-1.36-15.03-7.51-15.74-8.25-1.74-1.8-1.19-6.33-1.25-8.75.57-.63,4.02,1.48,4.99,2Z"/><path class="cls-22" d="M240.28,472.06l-1,1c-25.2-13.78-50.66-27.48-76-41l1-1c25.59,13.16,50.56,27.56,76,41Z"/><path class="cls-1" d="M337.28,452.06c-12.4,7.42-26.28,14.99-39,22-11.39,6.28-23.76,11.42-34.51,18.99-4.88-11.37,4.92-9.03,8.6-14.47,1-1.48.1-2.19-.1-3.53-2.61-.63-2.56-1.2,0-2,11.05-7.39,22.46-14.53,35-19,10.78-7.11,22.36-13.41,34-19,1.45,1.77,1.51,11,.81,13.31-.66,2.17-3.16,2.71-4.81,3.69Z"/><path class="cls-21" d="M297.28,456.06c-.82.44-2.83,2.78-4.7,3.8-4.42,2.41-8.88,4.78-13.29,7.2V120.06s16.99-10,16.99-10l1.07,3.38-.07,342.62Z"/><path class="cls-26" d="M155.28,56.06c35.27,19.09,71.6,38.76,109,59,1.61-.46,5.83,1.16,3.53,2.93.29,95.82-.09,194.12-.61,290.91-.09,16.48.08,32.94.33,49.26.08,4.96.37,9.82.75,14.7,1.34,2.07-4.06,3.32-5.01,1.2-33.28-16.21-66.28-33.88-99-53-3.52-1.96-10.6-4.65-11.06-8.44.79-118.8-1.31-237.99,1.06-356.56h1Z"/><path class="cls-4" d="M154.28,55.06c.87.28.86.62,0,1l1.09,13.2c-.08,114.37-.14,228.76-.18,343.15,1.97,2.68,4.81,4.71,8.53,6.1l.56,2.55c-1.01,1.35-1.67,3.02-2,5,2.56-.22,3.57,3.24,2,5,1.32,1.3.77,1.59-1,1-3.15.65-3.93,2.45-2.33,5.38l14.08,7.23.25,2.39c1.33,1.41.77,1.92-1,1-3.43-1.88-15.79-6.17-17.49-9.01-.86-1.43-.86-10.54-.32-12.31.82-2.66,5.23-2.55,4.81-5.67-2.39-.53-8.82-3.28-9.07-5.48l.08-360.53c.6-.13,1.59.19,2,0Z"/><path class="cls-15" d="M263.28,474.06c.93,1.27.44,1.51-1,1l-96.92-51.59c-1.47-1.77-3.03,1.52-3.08,2.59-.28-2.35-.33-3.97,2-5,30.54,17.01,63.91,35.04,95.38,50.12,1.44.69,2.95,1.25,3.62,2.88Z"/><path class="cls-19" d="M265.28,114.06l-1,1c-35.49-18.63-70.96-37.36-106.37-56.18-1.4-.75-3.16-.4-2.63-2.82,37.33,16.04,73.29,41.68,110,58Z"/><path class="cls-6" d="M160.28,66.06l-.72.44c.14.32.72.47.72.56,3.41,4.69,2.98,16.7,2.06,22.82l-2.06,2.18c0,.18-1.04,1.58-1.07,3.38-1.61,75.97,1.41,152.14,0,228.14l2.07,2.48c.99.79,1.64,1.69,1.97,2.69l-.8,83.95,97.37,51.33,1.45,3.03-1,2-102.04-54.67.03-348.83c1.18-1.87,1.86.44,2.01.5Z"/><polygon class="cls-21" points="161.28 326.06 260.79 379.05 261.28 467.06 160.45 413.91 161.28 326.06"/><path class="cls-21" d="M160.28,67.06l101,53.5v23.5l-101-52c.2-7.62.67-17.6,0-25Z"/><path class="cls-12" d="M260.28,469.06c-2.44-1.4-1.68-2.54,1-2l-2.01-2.66-.48-84.15-96.09-51.17c-.72-.76-1.19-1.77-1.41-3.02-1.7,1.51-2.55-.71-2.55-2.37-.15-76.31-.18-152.81.04-228.97.01-1.3.05-3.05,1.51-2.66l1.53-1.46c32.95,16.86,65.82,33.85,98.63,50.97l.84,2.49-2-2.44v-19.63l2-1.43-1.55,1.44c-32.65-17.29-65.32-34.6-98-51.91l-1.45-3.03c-1.95,1.02-2-1.44,0-1,9.17,3.61,19.22,8.89,28.04,13.46,21.81,11.28,47.93,23.9,68.62,36.38,1.4.84,4.7,2.46,5.17,3.83.44,88.62,0,177.25.12,265.88.03,22.71-.59,45.94,0,69,.1,4.01,2.39,11.07.58,14.49-.87,1.65-1.59.32-2.53-.03Z"/><path class="cls-21" d="M250.28,157.06v177.5c0,.12-1.42,1.95-2.04,1.07l-77.96-43.07V117.56c0-.62,2.03-2.09,3.04-1.07l76.96,40.57Z"/><path class="cls-14" d="M239.28,227.06c-2.77,2.9-11.75-12.09-13.48-14.01-8.02-8.85-18.69-14.4-30.9-12.88-4.3.54-10.71,5.43-12.46-.83-1.06-3.77,2.87-5.73,5.86-6.77,16.69-5.81,36.16,7.28,45.4,20.58,2.86,4.12,6.44,8.63,5.58,13.91Z"/><path class="cls-14" d="M190.41,210.2c.62-1,9.53-3.2,11.37-3.2,8.85,0,19.83,8.28,24.93,15.14,1.19,1.59,8.25,13.87,2.53,12.5-5.35-1.28-10.97-19.75-26.47-19.65-3.67.03-8.29,2.98-10.51,1.62-1.32-.81-2.65-5.12-1.86-6.41Z"/><path class="cls-8" d="M223.25,241.03c-2.87,3.76-9.4-8.45-13.4-10.04-6.12-2.44-9.9,4.13-11.93-3.14s10.13-5.1,14.67-2.6c3.27,1.8,13.29,12.34,10.66,15.78Z"/><path class="cls-13" d="M206.99,239.23c7.74-2.29,12.74,13.37,5.32,15.43-6.28,1.75-11.67-13.56-5.32-15.43Z"/><path class="cls-21" d="M347.28,76.06v353c-2.09,1.9-4.58,3.57-7,5-10.38,7.48-22.26,13.91-34,19-1.02,1.68-4.93,3.8-7,3l-1-.31c.21-115.35.1-230.68-.33-345.98l1.33-.7c11.03-7.59,24.96-15.49,38-21,.55-.92,1.27-1.03,2.1-.48.59,33.08,1.02,67.35-.1,100.48.68,42.32.81,84.69,0,127,.84,6.31.83,12.68,0,19,.86,2.1.79,5.8,0,8v78c.81,2.19.68,5.77,0,8-.52,1.47-.19,1.81,1,1-.66-114.21-.66-228.54,0-343-.22,2.63-1.03,2.73-3,1-12.83,7.46-25.83,14.46-39,21,.36,2.68-.09,2.92-2,1-5.46,3.76-12.14,7.25-18,10-.1,115.71-.18,231.63-.25,347.75,1.48,1.9-4.59,5.05-6.75,5.25,1.45,1.57-2.08,2.58-2.88,2.12-.53-.31-.73-10.7-.76-12.25.28-114.62.21-229.67-.21-345.16.19-.95,2.99-1.34,3.84-.71,24.33-13.73,49.25-27.35,74.77-40.86l1.23.86Z"/><path class="cls-17" d="M349.28,77.06v204c0,.67,0,1.33,0,2-.87,3.96-.85,8.03,0,12,0,1,0,2,0,3-.87,4.29-.85,8.71,0,13,0,6.65.01,13.35,0,20-.88,3.59-.85,7.41,0,11,0,1,0,2,0,3l-.99,83.34-1.01.66-2-.95c-.09-116.69-.04-233.39.17-350.12l1.83-1.93c-1.44.14-2.44-.86-3-3-4.94-1.29-9.72-3-14.36-5.14L230.58,15.14l-58.66,31.6c-3.67,1.94-7.66,3.17-11.64,4.32.51,1.6-.49,2.27-3,2,.99,2.86-.54,3.17-3,2-.38,2.69-1.24,2.58-2,0,.56-2.48,6.94-5.75,9.33-7.17,18.49-11.01,41.43-23.83,60.65-33.35,2.25-1.12,6.1-3.62,8.45-3.47,39.64,20.43,79.24,41.39,118.09,63.02l.49,2.97Z"/><path class="cls-24" d="M349.28,281.06V77.06c-.04,67.98.06,136.02,0,204Z"/><path class="cls-24" d="M338.28,453.06c-1.61.73-1.94.59-1-1l.19-2.35c3.59-1.86,4.41-6.13,2.47-12.83l1.35-1.82c-1.67.66-1.99.57-1-1-.14-3.23,4-6.11,7-5l2-84c-.06,28.16.04,56.34,0,84.51-.35,2.87-4.06,2.69-4.82,5.18-1.25,4.08,1.09,11.63-.68,15.31-1.14,2.38-4.2,2.17-5.5,3Z"/><path class="cls-24" d="M349.28,311.06c-1.7-3.21-1.67-9.99,0-13,0,4.32,0,8.68,0,13Z"/><path class="cls-24" d="M349.28,295.06c-1.7-2.87-1.67-9.33,0-12,0,3.99,0,8.01,0,12Z"/><path class="cls-24" d="M349.28,342.06c-1.71-2.54-1.66-8.66,0-11,0,3.66,0,7.34,0,11Z"/><path class="cls-28" d="M344.28,73.06c1.26.64,2.38-.42,3,3l-76,40c-1.43,1.07-1.95.52-1-1,22.58-12.81,45.94-24.29,68.67-36.82,1.44-.8,2.96-1.8,4.34-2.71,1.49-.99,3,.42.99-2.46Z"/><path class="cls-18" d="M270.28,115.06c.43.11.81.59,1,1l-2.49,1.98c-.9,6.7-.58,13.73-.56,20.56.15,60.26,1.14,120.53,1.05,180.96-.07,47-4.19,99.41-1.04,146.04.17,2.53,1.08,4.92,1.05,7.46.28.41,1.59-.97,1.99-1,1.72-1.22,2.33-.71,1,1,.16.46-.1,1.36,0,2h-1c-2.3-1.71-5.38,3.16-9,0,.1-.48.53-.93,1-1,1.15-.16,3.83.6,4.02-.58l-.53-356.44-2.49-1.98c-1.33-1.33-.8-1.36,1-1,1.54.68,3.44.61,5,1Z"/><path class="cls-11" d="M341.28,435.06c-11.14,6.66-22.62,12.77-34,19-1.65.65-1.92.6-1-1,10.99-5.94,23.29-12.66,34-19,.29.37.71.64,1,1Z"/><path class="cls-27" d="M279.28,120.06l2,.95v342.31c.01.81,11.47-5.31,13.82-8.1l2.18.83c.67-2.62,1.24-2.56,2,0,1.98-1.05,5.2-2.03,7-3l1,1c-11.64,6.36-23.33,12.7-35,19-.18-.51-.05-1.06-1-1l5.5-4,.46-344.56c0-1.56.16-3.11,1.04-4.44,1.41-1.33,1.92-.77,1,1Z"/><path class="cls-20" d="M299.28,109.06v347c-.42.22-1.58-.22-2,0-.8-.08-2-.39-2-.96-.63-112.28-1.16-228.68.07-340.95-.87-1.9-.56-3.26.93-4.09-.7-.29-.68-.63,0-1,.65-.36,1.35-.64,2-1,1.66-.67,1.93-.61,1,1Z"/><path class="cls-7" d="M340.28,429.06c-1.7.77-1.96.73-1-1-.33-2.31.02-5.5,0-8v-86c.85-6.29.85-12.71,0-19,0-42.31-.31-84.69,0-127,.42-33.51.76-67.51,1-102v343Z"/><path class="cls-8" d="M332.28,269.07c2.23,10.47-7.18,14.69-12.99,21.5,2.54,1.62,12.02-5.59,12.99-4.5-.14,1.79.53,4.55-.45,6.04-.73,1.1-21.44,8.32-24.54,9.95.19-9.21,9.9-14.44,14.99-21.5-2.36-1.73-14.34,6.38-14.99,5.5.1-1.87-.51-4.36.48-6.01,1.19-1.98,20.93-9.07,24.5-10.98Z"/><path class="cls-8" d="M332.28,240.07c2.26,9.88-7.71,13.85-12.99,20.5,2.45,2.19,12.58-5.07,12.98-4.5-.14,1.78.55,4.57-.45,6.04-.74,1.1-21.26,9.35-24.54,9.95-.96-9.52,10.32-12.97,14-20.49-2.57-1.82-12.77,5.93-14,4.49.26-1.6-.57-4.64.16-5.83s21.73-8.51,24.83-10.16Z"/><path class="cls-8" d="M323.84,203.68c-3.69,1.31-.44,1.77.88,1.33,2.76-.91,4.82-2.51,7.56-2.95-.2,1.39.49,3.77-.16,4.83-.71,1.16-21.82,9.18-24.83,11.16-1.85-7.85,3.26-8.23,8-12.48,2.48-2.23,4.99-4.83,6.99-7.5l-14.99,4.99c.26-1.59-.56-4.67.16-5.84.94-1.52,21.77-8.75,24.83-11.16,2.07,9.32-3.66,11.34-8.43,17.62Z"/><path class="cls-8" d="M333.28,213.07c.18,7.9-3.13,7.82-9.99,9.01,4.92,4.83,10.91,3.76,8.99,12.98-.82.93-8.1-5.27-10.35-4.84-2.71.52-10.56,13.41-14.63,14.84-2.17-9.25,5.91-12.49,10.99-18.5l-10.99,2.5c.14-1.78-.54-4.55.45-6.04.76-1.14,22.24-9.44,25.54-9.95Z"/><path class="cls-18" d="M323.02,324.27c13.57-2.69,12.32,17.67,2.76,22.77-5.37-5.69,4.07-7.43,2.33-13.27-2.52-8.45-20.5,4.53-15.74,11.65.82,1.23,2.32,1.51,2.87,2.17,4.79,5.68-5.97,8.73-7.75.75-2.25-10.14,5.59-22.11,15.52-24.08Z"/><path class="cls-8" d="M323.28,311.05c1.73,1.31,8.68.69,8.99,1.02.25.25.16,5.63,1,6.99-5.1.32-9.28-2.4-14.47-2.02-4.41.32-7.45,3.14-11.52,4.02-1.81-8.71,4.98-7.29,9.95-10.54s9.14-10.97,14.55-14.45c3.26,8.38-4.8,9.63-8.5,14.98Z"/><path class="cls-3" d="M307.28,162.06l24.51-10.99c.65,1.33.88,5.17.55,6.38-.28,1.03-18.4,6.78-19.6,8.57-2.37,3.51,3.19,13.86-5.46,14.04v-18Z"/><path class="cls-10" d="M332.15,180.93c-3.75.2-23.69,11.36-24.86,10.13,0-1.41-.23-2.92.19-4.3,1.2-3.89,20.38-9.37,24.31-12.69l.36,6.86Z"/><path class="cls-5" d="M340.28,86.06c-.27,32.85.32,65.75.07,98.62-.01,1.83-1.07,3.2-1.07,3.38l.08-98.57-2.08-1.43c-.87-.28-.86-.62,0-1,.98-.39,1.83-1.15,3-1Z"/><path class="cls-25" d="M339.28,420.06c-.19-25.98,0-52.02,0-78v78Z"/><path class="cls-23" d="M337.28,88.06l-38,21-1-1c12.38-6.89,25.93-15.77,39-21v1Z"/><path class="cls-2" d="M340.28,429.06c-9.12,5.46-19.03,11.64-29,14.99l28-15.99c.07.47.52.89,1,1Z"/><path class="cls-29" d="M296.28,110.06l.04,2.3-14.81,8.71-2.23-1.01-1-1c1.76-2.65,14.35-7.96,18-10v1Z"/><path class="cls-25" d="M339.28,334.06c0-6.32,0-12.68,0-19,1.67,5.37,1.68,13.55,0,19Z"/><path class="cls-9" d="M157.28,53.06c.9-.52,1.84-1.33,3-2l105.96,56.56c4.92,1.92,8.46-2.83,13.04-3.58l-101.99-55.5c-.41-1.72,5.74-4.71,7.32-5.66,5.58-3.36,44.11-25.01,47.1-24.82l103.57,55.5-1.03,1.96-58.95,32.05-6.44,2.47c-31.22-15.47-61.6-32.54-92.56-48.51-5.99-3.09-12.54-6.91-19.02-8.48Z"/><path class="cls-21" d="M333.28,75.05c-18.22,6.93-34.11,19.4-52.42,26l-99.29-51.75-1.28-2.23c14.97-6.52,28.38-16.35,42.98-23.54,2.7-1.33,6.35-3.92,9.28-3.33,30.08,16.93,61.16,32.09,91.41,48.68,3.01,1.65,7.04,3.67,9.33,6.16Z"/></svg>