<?xml version="1.0" encoding="UTF-8"?><svg id="parking" xmlns="http://www.w3.org/2000/svg" viewBox="0 0 512 512"><path d="M289.66,64.16l47.67,25c6.38,4.39,8.2,11.92,8.71,19.29,4.63,67.09-3.6,139.45,0,207.09-.81,12.31-7.28,22.89-15,32-43.43,25.09-87.94,57.9-132.37,80.63-1.99,1.02-5.49,3.21-7.4,3.6-8,1.64-18.23-4.75-25.3-8.25-11.31-5.61-29.7-13.52-31.72-27.28l-.31-212.79c.62-15.13,9.44-28.77,20.72-38.28l134.99-81.01ZM324,87.99c.39-1.79-.53-1.97-1.65-2.83-4.23-3.22-18.63-9.87-24.32-12.68-3.11-1.53-6.6-4.28-10.05-3.06l-126.92,76.14-1.06,2.43,35.08,16.56c43.01-25.42,85.37-52.13,128.91-76.56ZM325.72,91.23c-2.92.6-9.87,5.21-13.02,6.97-40.03,22.26-78.18,48.34-118.03,70.97-8.23,6.41-17.76,21.89-18.71,32.29v211.08c.13,10.11,8.56,19.24,18.72,13.64,44.82-27.94,91.82-52.92,135.32-82.68,5.64-7.33,10.86-15.51,12.05-24.95l-.04-214.05c-1.19-8.45-7.21-15.13-16.28-13.27ZM160,151.01c-.48-.52-3.75-1.09-4.96-.56-.94.42-8.97,8.52-8.03,9.54,3.93-2.03,8.23-3.96,11.73-6.71.59-.47,2.7-.7,1.26-2.27ZM167,155.99c.54-.8-2.89-2.92-4.35-2.78-1.16.12-18.37,10.74-19.67,12.27-.79.93-3.63,5.84-2.98,6.51l26.99-16.01ZM173,159.99c-.52-5.1-4.89-2.58-7.68-1.16-3.33,1.69-24.61,14.75-26.01,16.47-1.09,1.34-1.43,3.01-1.3,4.7l34.99-20.01ZM180,161.01c-1.44-1.57-5.21-.17-6.89.59-7.09,3.21-25.79,15.03-32.05,19.96-4.07,3.2-.88,5.62,2.91,3.91,10.41-8.45,23.32-14.24,34.15-21.89.66-.47,3.4-.93,1.88-2.58ZM187,165.01c-1.52-.13-2.85-1.09-4.43-.99-2.53.15-30.91,17.71-34.51,20.54-3.94,3.1-1.24,5.56,2.65,3.65l36.28-23.21ZM189.99,167.01l-37.97,23.49c1.06,1.46,1.67,1.6,3.43,1.48,1.5-.1,23.2-13.21,25.89-15.15,1.33-.96,9.87-8.61,8.66-9.83ZM178.99,181l-17.32,10.17c-3.67,1.4-3.15,5.73.65,4.67.66-.18,10.49-6.54,11.61-7.41,1.23-.96,6.67-5.68,5.06-7.43ZM174.99,191.01c-.67-.66-10.04,4.09-9.99,6.48.85,4.04,11.13-2.66,9.99-6.48Z"/><path d="M324.74,101.21c5.39-.5,10.01,3.95,10.28,9.27v206.06c-.66,7.31-3.65,14.16-8.05,19.94-42.01,28.15-86.98,52.2-129.93,79.06-6.22,3.83-12.78.2-13.11-6.98v-209.12c2.04-11.16,7.61-18.93,16.75-25.26,36.89-25.54,81.64-45.41,118.99-71,1.49-.69,3.48-1.83,5.06-1.98ZM324.75,105.19l-122.66,72.4c-9.15,5.3-13.68,14.65-15.13,24.87.71,69-1.22,138.26.97,207.11,1.15,3.74,4.5,4.31,7.79,2.65l126.22-75.78c4.52-3.7,8.58-12.11,9.1-17.9V112.45c.25-3.84-2.01-7.68-6.29-7.27Z"/><path d="M216,350v-138.5c1.4-1.7,3.32-2.7,5.09-3.91,13.49-9.28,37.49-23.93,52.04-30.96,8.97-4.34,17.39-7.28,26.37-.62,12.56,9.33,9.87,40.21,5.52,53.51-10.12,30.94-36.79,41-62.09,56.91-2.24,15.6-.08,32.01-1.11,47.89-.74,2.46-21.77,13.95-25.81,15.69ZM242,259c16.24-8.96,52.56-25.19,43.74-49.24-4.62-12.6-17.12-4.01-25.04.43-6.24,3.5-12.62,8.4-18.69,12.31v36.5Z"/></svg>