<?xml version="1.0" encoding="UTF-8"?><svg id="park-sign" xmlns="http://www.w3.org/2000/svg" viewBox="0 0 512 512"><defs><style>.cls-1{fill:#dcdbdc;}.cls-2{fill:#dfdede;}.cls-3{fill:#e1e0e1;}.cls-4{fill:#e9e9ea;}.cls-5{fill:#979699;}.cls-6{fill:#d6d5d7;}.cls-7{fill:#e0e0e0;}.cls-8{fill:#fafafb;}.cls-9{fill:#363539;}.cls-10{fill:#201f22;}.cls-11{fill:#dddddf;}.cls-12{fill:#232325;}.cls-13{fill:#d9d8da;}.cls-14{fill:#e4e5e5;}.cls-15{fill:#eeedee;}.cls-16{fill:#3e3c42;}.cls-17{fill:#3f3d3e;}.cls-18{fill:#333136;}.cls-19{fill:#e5e6e6;}.cls-20{fill:#e7e7e8;}.cls-21{fill:#d8d8d9;}.cls-22{fill:#e3e3e3;}.cls-23{fill:#f5f5f6;}.cls-24{fill:#f9f9fa;}.cls-25{fill:#434146;}.cls-26{fill:#2e2e33;}.cls-27{fill:#e2e2e2;}.cls-28{fill:#dfdedf;}.cls-29{fill:#e5e4e5;}.cls-30{fill:#4d4d50;}.cls-31{fill:#e3e4e4;}.cls-32{fill:#e4e4e4;}.cls-33{fill:#3d3b3e;}.cls-34{fill:#d2d3d6;}.cls-35{fill:#363739;}.cls-36{fill:#9ea0a3;}.cls-37{fill:#3c3c3f;}.cls-38{fill:#434347;}.cls-39{fill:#3b3b3e;}.cls-40{fill:#e5e4e4;}.cls-41{fill:#dedddf;}.cls-42{fill:#cacacc;}.cls-43{fill:#dfe0e1;}.cls-44{fill:#e5e5e7;}.cls-45{fill:#e5e5e5;}.cls-46{fill:#222124;}.cls-47{fill:#e4e4e3;}.cls-48{fill:#3c3c3e;}.cls-49{fill:#e6e4e5;}.cls-50{fill:#5d5959;}.cls-51{fill:#474547;}.cls-52{fill:#c6c5c6;}.cls-53{fill:#c6c6c8;}.cls-54{fill:#e0e0e1;}.cls-55{fill:#ddd;}.cls-56{fill:#e2e3e3;}.cls-57{fill:#e8e8e9;}.cls-58{fill:#3d3c3f;}.cls-59{fill:#2f2f33;}.cls-60{fill:#b4b5b9;}.cls-61{fill:#39373c;}.cls-62{fill:#353337;}.cls-63{fill:#454345;}.cls-64{fill:#252425;}.cls-65{fill:#e4e5e6;}.cls-66{fill:#d7d6d8;}.cls-67{fill:#353335;}.cls-68{fill:#d6d6d7;}.cls-69{fill:#424043;}.cls-70{fill:#2c2c31;}.cls-71{fill:#4f4d50;}.cls-72{fill:#3f3f41;}.cls-73{fill:#e2e3e4;}.cls-74{fill:#fafafa;}.cls-75{fill:#e2e2e3;}.cls-76{fill:#e3e3e4;}.cls-77{fill:#e1e1e3;}.cls-78{fill:#28292c;}.cls-79{fill:#e8e9ea;}.cls-80{fill:#e0e1e0;}.cls-81{fill:#d9d9db;}.cls-82{fill:#fefefe;}.cls-83{fill:#e7e6e7;}.cls-84{fill:#dddedf;}.cls-85{fill:#e6e6e7;}.cls-86{fill:#3f4147;}.cls-87{fill:#6c6b6c;}.cls-88{fill:#b7b7ba;}.cls-89{fill:#474649;}.cls-90{fill:#e3e3e5;}.cls-91{fill:#e4e4e5;}.cls-92{fill:#39373d;}.cls-93{fill:#e4e3e5;}.cls-94{fill:#212023;}.cls-95{fill:#fbfbfb;}.cls-96{fill:#f0f1f1;}.cls-97{fill:#323135;}.cls-98{fill:#ebebed;}.cls-99{fill:#7d7d80;}.cls-100{fill:#e5e5e6;}.cls-101{fill:#dadadc;}.cls-102{fill:#d7d7d8;}.cls-103{fill:#3a3b3e;}.cls-104{fill:#dad9db;}.cls-105{fill:#dadada;}.cls-106{fill:#dcdcdc;}.cls-107{fill:#424346;}.cls-108{fill:#e9e9eb;}.cls-109{fill:#cac9cb;}.cls-110{fill:#e8e8e8;}.cls-111{fill:#e1e0e2;}.cls-112{fill:#dadbdc;}.cls-113{fill:#fdfdfd;}</style></defs><path class="cls-10" d="M285.98,94.88c7.13-3.65,53.89-26.33,55.46-29.04,1.24-2.16.5-6.69,4.06-7.01,4.64-.41,29.79,16.45,34.32,20.7.36,1.96-17.73,30.36-20.42,34.27-5.47,7.93-8.47,16.06-18.74,8.24-20.08,11.54-41.78,20.76-61.52,32.51l-.13,111.81c.17,1.66,1.31,2.55,2.46,3.54,2.86,2.46,8.2,4.6,11.51,6.99,1.12,1.3.45,1.64-2,1-2.57,1.92-11.27-2.02-12-5,.65.32,1.31.66,1.86,1.14.79.69.44,19.44.14,20.93l-2,1.43c2.56-1.5,7.79,2.62,9.17,4.95l4.26,42.48,1.62,3.31c9.56,1.85,11.42,16.83,4.35,21.7l-24.86,12.4c-5.44,3.75-14.62,8.5-16.53-.34-1.43-1.5-.89-2.03,1-1,1.34-1.63,2.67-3.29,4-5-2.99.64-3.99-.36-3-3-.84-1.93.34-2.12,2-1,.54-.78.82-1.63.34-1.92l-10.17-5.64-.16-2.44c-2.33-1.34-1.67-2.37,1-2,2.81-4.78,5.77-8.75,8.88-11.9l.12-2.1c-1.47,1.33-2.02.75-1-1-1.17-1.59-.17-3.92,3-7-2.34,1.27-3.11.45-2-2l-.99-1.44c-2.4,3.68-4.74,5.16-7.01,4.44-1.41,1.33-1.92.77-1-1-.04-3.38-9.69,5.61-6,6,1.41-1.33,1.92-.77,1,1,2.13,2.29-2.34,7.46-5,6,.11,2.89-2.85,3.54-3.57.84l-1.43.16c-2.25,2.62-1.02,4.95,3.68,6.99l12.24,6.68.07,2.33c1.16,1.15.49,1.82-2,2,1.35,2.22-1.02,3.99-3,5,1.5,1.37.86,1.97-1,1-.39.67-1.09,1.61-1.61,1.42-6.25-2.23-20.99-7.72-18.3-15.69-3.15.45-4.02-.32-4.63-3.51-3.01.73-5.97,1.32-6.53-2.48-3.09.66-6.46-.84-3.93-3.74,9.53-3.3,18.86-7.3,28-12-1.84-.42-1.71-1.26,0-2-.67-1.32-1.38-2.75-1.32-4.27.26-6.7,1.54-26.66,3.87-31.33.98-1.97,6-5.13,8.45-4.9-.86.07-1.44-.3-2-.89-.64-.67-.34-17.65,0-18.51l2-2.09c-3.62,2.89-7.32,5.74-11.41,7.93-18.97,10.15-38.27,20.22-57.23,30.07-4.01,2.08-9.09,4.39-13.36,5-1.92,1.21-1.25,1.55,2,1,1.45-2.96,19.03-9.53,20.59-6.43.48.95,1.02,2.78.51,3.31-3.52,3.66-28.13,10.49-34.75,10.66-20.52,9.08-40.47,19.55-59.86,31.42,53.49,30.03,106.8,60.38,159.92,91.07,3.82-2.21,7.02-2.88,9.58-2.03,1.94-.55,2.61-.21,2,1,.59,3.13-7.31,7.4-10,6,2.19,1.41,2.34,2.04-.36,1.87-.65,5.9-.51,11.91.56,17.75,2.54-.57,2.46.58.8,2.38-1.24.28-2.4.9-3.7.25l-167.34-93.91.21-25.17,161.84-86.66v-101.5c-23.18,8.49-45,21.11-66.51,32.99-.89,13.13-8.8,7.48-15.81,2.82-3.67-2.44-17.04-11.36-19.22-13.78-1.12-1.24-1.54-1.71-1.55-3.52l25.09-43.06c2.25-1.42,8.39,3.63,12.03,1.07,20.07-10.83,40.76-20.49,60.98-31.01,1.91-.99,3.68-2.87,4.99-3.52-.13-3.27,6.92-1.75,5,2,2.26-2.78,4.6-4.11,7-4,1.06-2.41.82-3.76-2.03-3.53l.03-1.47c-1.38-.56-2.72-1.23-4-2l-2.18.91-3.82-5.91c-7.3-4.1-8.54-14.65,1-17,.52-1.96,1.41-1.93,2,0,2.07-.16,2.4.5,1,2,1.95-.12,5.81,2.04,6,4,3.2-1.38,4.58-.94,4.12,1.32,1.94.15,2.57.71,1.88,1.68.49,1.83-.5,2.45-1.87,3.14,1.79-.73,15.22-6.3,14.02-6.78-3.42,2.03-6.14,2.58-8.15,1.64-2.08.72-2.74.39-2-1,1.45-1.64,2.45-3.3,3-5-.8-.29-.79-.62,0-1-.44-2.75,3.68-5.22,6-4,.3-2.11.97-2.45,2-1-.28,2.57-2.17,4.78-2,4.99.8.99,5.31-.14,6.05,5.47.62,4.67-.49,6.98-3.05,10.54.38,1.11.35,2.37-.1,3.8-.15,2.89,11.12-3.01,7.18-3.64-2.22.62-2.91.23-2.08-1.16Z"/><path class="cls-49" d="M239.98,338.88c-.16.66-.1,1.34-.49,1.98-1.84,2.99-22.79,8.83-27.51,10.02-.68-.33-1.28-.66-2-1l-.18-1.36c9.48-3.61,19.4-7.3,29.22-10.33.23-.07.58.25.96.68Z"/><path class="cls-76" d="M177.98,428.87c-1.8.37-2.5-.86-3.44-2.05-1.14-1.44-11.44-24.86-10.55-25.94l4.22,3.27,9.77,24.72Z"/><path class="cls-76" d="M210.98,446.87c-2.04.26-2.7.07-3.89-1.6-1.35-1.88-7.21-17.41-8.32-20.68-.54-1.59-1.04-2.98-.77-4.72,6.89,6.39,8.49,18.58,12.99,26.99Z"/><path class="cls-85" d="M152.98,405.88c2.21,1.57,3.69,6.13,4,9-.09.92.51,2.74-.5,3-4.61-4.81-6.9-12.65-9.5-19-2.03-1.32-4.61-6.56-3-9,3.53-.64,7.6,12.63,9,16Z"/><path class="cls-14" d="M180.69,410.18l10.29,25.7c-2.36,2.45-6.98-9.92-7.46-11.03-1.54-3.54-4.87-11.08-5.54-14.46-.53-2.68,1.43-.81,2.72-.21Z"/><path class="cls-76" d="M137.98,394.88c2.35,1.87,4.1,5.85,4,9,.76,1.88.82,4.19,2,5.99-2.18.22-3.89-2.06-4.77-3.72-1.49-2.83-8.84-20.4-9.24-22.76-.1-.58-.26-1.65.51-1.5,3.85,3.19,5.43,8.43,7.5,13Z"/><path class="cls-100" d="M129.97,401.87c-2.17.3-3.32-1.7-4.2-3.29-1.14-2.07-9.63-22.75-8.79-23.7,1.23-1.39,3.09,2.16,3.54,2.95,3.8,6.58,6.31,16.86,9.45,24.04Z"/><path class="cls-91" d="M160.98,407.88c-1.38-3.46-2.48-7.07-4.01-10.49,1.7-1.71,3.56,1.65,4.21,2.79,3.91,6.86,5.67,17.13,9.8,24.2-3.81,1.18-4.88-5.1-5.99-7.51-2.58-1.19-4.07-6.03-4-9Z"/><path class="cls-77" d="M159.98,409.88c2.22,1.56,3.7,6.13,4,9-.11.6.08,1.35,0,1.99-2.25,1.77-5.31-6.57-5.99-7.99-2.48-.84-4.11-6.17-4-9-1.23-3.07-1.53-6.82-3.99-9.51.3-1.08,2.32-.53,3.02-.02,1.12.8,5.88,12.94,6.97,15.53Z"/><path class="cls-31" d="M116.98,394.87c-2.22.31-3.29-1.69-4.2-3.29-1.36-2.39-9.64-22.75-8.79-23.7,1.07-1.2,2.68,1.42,3.19,2.3,3.98,6.72,6.06,17.53,9.8,24.69Z"/><path class="cls-20" d="M138.98,392.88c-.47-1.18-2.51-6.33-1.99-7,3.35.72,3.66,3.32,4.99,6,2.24.53,4.11,6.32,4,9,1.49,3.81,2.78,8.06,4,11.99-2.46,2.59-6.54-9.96-7-10.99-2.32-1.74-4.1-5.95-4-9Z"/><path class="cls-76" d="M224.98,443.88c1.54.37,2.46,2.52,2,4,1.14,2.93,1.48,6.99,2.99,9.99-1.75.33-2.58-.83-3.41-2.08-1.48-2.22-8.87-20.62-9.53-23.48-.3-1.32.16-1.97,1.43-1.43,1.67.71,5.43,10.38,6.51,12.99Z"/><path class="cls-32" d="M225.98,441.88c-.38-1.11-2.24-6.73-2-6.99,2.01-.33,2.94,1.22,3.76,2.73,3.52,6.4,5.03,17.16,9.22,23.78-1.46,1.62-3.18-1.17-3.83-2.17-2-3.09-3.82-8.72-5.16-12.34-1.62-.67-2.49-3.23-2-5Z"/><path class="cls-22" d="M234.98,443.88c3.44,4.84,7.68,14.21,8.82,20.3.09.5-.29,1.09-.82,1.7-4.13.12-10.14-22.81-12.98-26.51,2.7-3.48,4.12,2.63,4.98,4.51Z"/><path class="cls-47" d="M122.97,397.87c-2,.42-2.31-1-3.23-2.26-1.07-1.46-10.6-23.71-9.75-24.74l3.78,2.71,9.2,24.29Z"/><path class="cls-27" d="M109.98,389.87c-2.3.27-2.6.2-3.79-1.7-1.33-2.13-10.08-23.32-9.21-24.28,1.08-1.19,2.67,1.42,3.19,2.3,3.83,6.49,5.79,16.92,9.8,23.69Z"/><path class="cls-31" d="M136.98,405.87c-2.23.31-3.28-1.69-4.2-3.29-1.25-2.19-9.64-22.75-8.8-23.69.76-.85,2.99,1.09,3.2,2.29l9.8,24.69Z"/><path class="cls-45" d="M203.97,443.88c-7.85-6.18-8.38-18.51-12.99-26.99l4.77,3.72,8.22,23.27Z"/><path class="cls-79" d="M247.98,449.88c.82-.45,1.9-.42,1.93.21.22,4.81,3.09,10.72,5.84,14.98.42.65-.01,1.33-.77,1.81.26.78,2.16,6.84-.49,6.01-.42-.13-3.06-4.98-3.51-6.01-3.54-5.19-7.74-14.63-7-21,1.34,1.03,3.26,2.52,4,4Z"/><path class="cls-110" d="M212.98,427.88c1.04,1.12,9.7,22.44,10.02,24.5.24,1.53.02,1.74-1.5,1.5-1.33-.65-5.56-11.56-6.51-13.99-1.78-2.12-8.09-14.09-2-12Z"/><path class="cls-56" d="M102.97,386.87c-2.49.28-3.59-2.19-4.51-3.98-2.92-5.74-6.23-15.64-6.48-22.01,1.5.25,1.92,1.84,2.49,3,3.22,6.67,5.57,15.96,8.5,22.99Z"/><path class="cls-57" d="M183.97,431.87c-2,.32-2.94-1.22-3.77-2.72-3.5-6.39-5.55-16.56-9.23-23.26,2.19-.22,3.89,2.06,4.77,3.72,3.23,6.1,5.24,15.69,8.23,22.26Z"/><path class="cls-93" d="M196.97,439.88c-6.29-6.68-9.52-18.19-11.98-27,6.55,6.25,9.24,18.26,11.98,27Z"/><path class="cls-85" d="M208.98,428.88c2.45,2.06,4.47,8.37,5,12,.96,2.67,1.71,7.09,1.99,10-6.21-6.79-7.58-18.17-11.98-26.51,2.38-1.56,4.3,2.94,4.99,4.51Z"/><path class="cls-75" d="M237.98,441.88c3.01,1.88,2.83,4.22,4,7,.84.24,1.54.53,1.76,1.04,1.33,3.01,7.09,17.24,5.58,19.07-.16.2-.7.09-1.34-.11-2.72-2.01-1.95-2.52-3-5-.82-.41-1.52-.88-1.81-1.52-1.21-2.71-7.17-17.25-7.17-18.57,0-1.47.7-2.95,1.98-1.91Z"/><path class="cls-38" d="M243.98,445.88c1.5,6.64,4.27,14.83,7,21l-1.01,3c-1.89.53-1.64-.74-1.99-1,1.88-.86.49-3.23.04-4.53-1.77-5.1-3.95-10.48-6.04-15.47l1.01-4c1.11-.17.93.96.99,1Z"/><path class="cls-9" d="M237.98,441.88c-2.1.98-.37,3.08.14,4.36,2.35,5.84,4.42,11.88,6.86,17.64-.63.55-1.19,1.98-2,2-1.79-7.33-4.89-15.15-8-22l1.01-3c1.88-.53,1.68.81,1.99,1Z"/><path class="cls-64" d="M251.98,449.88c.36,4.27,3.09,10.38,5,14,.05,1-.02,2.01,0,3h-1.99c-1.11-3.28-5.49-13.98-7-17,1.88-1.18,2.41-1.46,4,0Z"/><path class="cls-11" d="M251.98,449.88c3,2.77,4.8,9.98,5,14-2.58.54-2.04-1.25-2.71-2.74-1.17-2.6-2.77-5.83-3.6-8.45-.6-1.9-1.79-3.21,1.32-2.81Z"/><path class="cls-107" d="M212.98,427.88c-3.02-.43-2.1,1.08-1.53,3.02.78,2.61,2.45,6.24,3.53,8.98l-1,1c-1.05-2.93-3.61-8.81-5-12,1.21-2.27,2.11-3.03,4-1Z"/><path class="cls-81" d="M95.97,383.88c-4.81-2.22-4.21-6.41-3.98-10.99,1.44-.23,1.3,1.69,1.73,2.75,1.02,2.55,2.14,5.49,2.25,8.25Z"/><path class="cls-69" d="M157.98,412.88c-.99.27-.91,1.16-1,2-1.99-2.65-2.76-6.01-4-9l1-2c1.06,2.64,2.75,6.41,4,9Z"/><path class="cls-63" d="M146.98,398.88l-1,2c-.98-2.5-2.8-6.59-4-9,.54-.53,1.36-1.88,2-2,.2,3.18,1.82,6.12,3,9Z"/><path class="cls-51" d="M142.98,401.88l-1,2c-1.18-2.93-2.68-6.1-4-9l1-2c1.14,2.87,2.72,6.1,4,9Z"/><path class="cls-30" d="M164.98,416.88c-1.04.27-.84,1.19-1,2-2-2.64-2.75-6.03-4-9l1-2c1.12,2.81,2.71,6.2,4,9Z"/><path class="cls-50" d="M227.98,446.88l-1,1c-.33-.86-1.35-2.45-2-4l1-2c.49,1.42,1.37,3.31,2,5Z"/><path class="cls-99" d="M168.98,317.88l2,1c-1.64.54-3.54,2.68-6,1.99.44-2.28,2.72-2.29,4-2.99Z"/><path class="cls-97" d="M250.98,96.88c1.13.63,4.33.61,4.94,1.09.18.14-1.26,3.21,1.06,3.91.21.99,1.54,1.66,4,2,2.76,1.45,4.65,1.41,2,5-1.86-.48-4.19.85-7,4-1.04-.24-1.33-3.82-5-2v-14Z"/><path class="cls-113" d="M269.98,100.88c1.05-.52,6.52-2.5,6.99-2l-.99,202c-1.49,2.1-6.45,5.39-9,5-.12-.12-1.36.27-1.76-.18-1.31-1.5-.22-34.62-.24-39.82.84-5.62.86-11.38,0-17,0-1.33,0-2.67,0-4v-51c.06-6.98-.08-14.02,0-21,.93-16.98,1.53-35.6-.87-52.84,1.8-6.01,1.73-12.42,1.17-18.54.02-.44,4.09-.83,4.7-.62Z"/><path class="cls-82" d="M263.98,363.87l1.19-47.3c.51-1.69,17.03-10.94,18.28-10.69,1.49.29,2.26,9.28,2.52,11.51,1.36,11.4,1.16,23.16,2.49,34.56-.69,1.56-23.47,12.91-24.48,11.93Z"/><path class="cls-23" d="M236.98,350.88c3.2-.91,3.73.68,4.45,3.35,2.79,1.93,5.82,3.33,9.09,4.19l.46,2.46c3.05,1.72,10.18,7.3,13.26,6.83,1.47-.22,22-10.54,24.1-11.97,3.41-2.34,2.21-6.5,8.15-1.87l-26.13,14.88c-2.67,2.57-7.65,1.69-9.38,2.12-3.39.11-6.9-.5-8-4-2.46-1.34-18.36-10.59-19.03-11.47-1.97-2.57.4-3.41,3.03-4.53Z"/><path class="cls-24" d="M297.97,357.88c.15,2.51.38,5.05-2.03,6.46-9.24,3.42-19.14,11.74-28.03,14.97-1.35.49-2.49.79-3.94.55-.16-2.51-.36-5.03,2.01-6.48,9.55-3.54,19.18-10.88,28.27-14.73,1.25-.53,2.29-1.05,3.71-.78Z"/><path class="cls-96" d="M266.98,88.88c.31-1.66,2.39-2.39,4-2,1.68-.81,7.07-4.03,7.49-4.03,1.59,0,4.36,2.81,3.5,4.02-.55.77-15.07,5.83-17.32,7.8-4.4-3.57-11.21-5.27-15.67-8.3-1.99-1.36.97-2.87,1.98-3.11,2.31-.54,8.78,5.63,11.79,6.43,2.12.57,2.72-.38,4.22-.82Z"/><path class="cls-78" d="M264.98,97.88c1.69.05,2.69.72,3,2,.42.1,1.21,1.05,2,1-.56.28-3.99,2.43-4.05,2.67-.2,21.97.4,43.98.12,65.95-.02,1.82-1.07,3.2-1.07,3.38v-36.99c-1.4-.01-1.6,4.69-1.62,5.66-.07,3.5,2.84,7.32-2.38,6.32,3.8-3.71-.46-3.13-1.05-6.52-.29-1.67,2.88-1.59,3.1-5.04.14-2.23-2.36-1-2.04-1.92.74-2.17,3.76-.22,3.99-.5.56-.68-.41-11.34,0-13.5l-2,1.5c-.51-.07-.84-.74-1-2,.11-1.39-1.42-3.85.01-6l2.98,3.99c-.45-4.88.68-10.75-.03-15.48-.34-2.28-1.43-2.46-1.95-3.52-2.03-.59-2.12-1.49,0-2,.63.38,1.37.61,2,1Z"/><path class="cls-40" d="M277.98,301.88c3.09-1.52,6.21-.64,3.95,1.45-2.13,1.96-14.92,8.61-17.45,8.61-1.59,0-12.27-5.57-14.19-6.87-4.58-3.09-2.48-3.94,2-2,5.47,2.36,8.72,6.88,14.69,4.81,2.31-2.77,7.19-6.01,11-6Z"/><path class="cls-44" d="M245.98,342.88c-.68.58-3.35,2.7-3.99,2-.39-4.92,4.85-6.99,8.02-10.47,1.46-1.6,2.46-3.49,3.95-5.05.75-.79,9.98-10.95,9.04-5.96-.53,2.82-8.52,11.02-11.02,13.49-.8,2.32-3.68,5.35-6,6Z"/><path class="cls-98" d="M252.98,337.88c1.24-1.22,7.98-7.76,8.51-7.99,3.07-1.32.17,4.11-.51,4.99-2.1,2.71-13.9,15.12-16.45,17.05-.63.47-1.21.91-2.03.97l-.51-3.02c2.26-1.16,3.28-4.28,5-6,1.13-2.6,3.36-4.94,6-6Z"/><path class="cls-15" d="M257.98,317.88c1.55-1.65,2.32-4.9,4.98-1.51.09,2.3-17.02,17.35-19.48,20.5-1.27-3.95,3.95-8.18,6.5-11,1.37-3.09,5-6.36,8-8Z"/><path class="cls-90" d="M248.98,324.88c-1.41,1.37-3.41,2.77-4.99,4-.86-4.63,7.96-13.78,11.44-16.05,4.96-3.22,3.67,1.27,1.55,4.05-.88,2.85-5.19,6.77-8,8Z"/><path class="cls-54" d="M264.98,97.88c5.46-2.96,10.75-6.81,16.99-8-1.23,6.27-10.14,5.78-13.99,10-.72-.17-2.07.44-2.79-.2-.49-.43-.1-1.74-.21-1.8Z"/><path class="cls-41" d="M251.98,358.88c-2.72-5.64,6.97-9.55,9-14,.81.58,2.05.56,1.61,2.05-1.23,4.27-7.59,8.89-10.61,11.95Z"/><path class="cls-78" d="M264.98,244.88c-.03-16.98-.15-34.02,0-51v51Z"/><path class="cls-7" d="M255.98,168.88c2.13,1.27,7.63-5.84,7.02-1.49-.57,4.06-5.99,7.45-8.53,10.48-4.04,1.67,1.14-7.33,1.51-7.99-.86-.29-.85-.62,0-1Z"/><path class="cls-21" d="M259.98,230.88c1.59-3.72,4.73-1.66,3,2-1.89,3.45-7,7.28-9.99,10-1.19-3.94,4.09-9.68,6.99-12Z"/><path class="cls-111" d="M260.98,250.88c1.77,1.88.27,3.4-2,2-1.05,1.78-3.22,3.19-5,4-4.09-4.82,6.15-10.01,8.99-13,.2,2.04-.9,5.4-1.99,7Z"/><path class="cls-43" d="M252.98,291.87c-2.37-2.76,7.25-11.27,9.98-12,1.4,1.76-8.66,13.55-9.98,12Z"/><path class="cls-1" d="M260.98,250.88c2.78-.6,2.42,1.6,1.8,3.3-.32.88-7.58,8.39-8.32,8.69-3.31,1.37-.23-4.07.51-4.99.4-1.58,1.73-3.25,4-5,.87-.75,1.25-.89,2-2Z"/><path class="cls-29" d="M262.98,182.88c-.29.62-.63,1.53-1,2l.37,1.58c-2.45,1.97-5.25,4.11-8.37,6.42-2.01-2.34-.71-3.94,1-6,.44-2.8,9.05-10.65,8-4Z"/><path class="cls-45" d="M262.97,265.88c1.88,2.12-8.11,10.59-9.98,11.99l.21-4.79,9.78-7.2Z"/><path class="cls-90" d="M262.97,272.88c1.98,1.94-8.18,10.7-9.98,11.99-.66-3.64,4.09-8.35,6.69-10.76,1.11-1.02.64-1.8,3.29-1.24Z"/><path class="cls-13" d="M261.98,177.88l.56,1.42c-2.46,2.16-5.32,4.36-8.56,6.58-3.65-4.25,6.25-9.57,8.5-13,1.22,1.06.25,3.87-.5,5Z"/><path class="cls-3" d="M252.98,269.87c-1.9-2.07,8.12-10.61,9.98-11.99,2.09,3.26-9.02,13.05-9.98,11.99Z"/><path class="cls-104" d="M262.98,225.88c-.26.58-.67,1.64-1,2,1.43,1.27-1.61,2.06-3,2-1.84,1.64-3.94,3.03-5.5,5-1.68-2.46,3.57-8.49,5.5-10,2.49-4.09,5.36-4.55,4,1Z"/><path class="cls-73" d="M260.98,215.88c.46.13,1.44-.32,1.86.14.54.59,0,2.07.14,2.86.16,2.41-1.61,4.74-4,4-1.78,1.74-4.05,3.41-5.99,5-.35-2.51.48-4.13,1.99-6-1.16-1.11,3.26-4.52,4.95-5.74.27-.2.65-.25,1.05-.26Z"/><path class="cls-55" d="M262.97,201.88c1.9,2.07-8.12,10.61-9.98,11.99-2.09-3.26,9.02-13.05,9.98-11.99Z"/><path class="cls-2" d="M262.98,189.88c-.42.85-1.38,2.27-2,3,1.85.7-5.88,6.81-6.4,6.8-2.02-.06-2.47-1.03-1.6-2.8.5-.91,1.34-2.24,2-3,.43-2.84,9.08-10.61,8-4Z"/><path class="cls-66" d="M252.98,248.87c-1.9-2.07,8.12-10.61,9.98-11.99,1.6,3.24-8.87,13.21-9.98,11.99Z"/><path class="cls-29" d="M254.98,200.88c-2.04-.66,5.97-6.79,6.51-6.76,2.05.1,2.4.98,1.49,2.76-2.17,3.69-6.74,6.67-9.5,10-1.26-1.4.64-4.82,1.5-6Z"/><path class="cls-84" d="M252.98,298.87c-1.9-2.07,8.12-10.61,9.98-11.99,1.6,3.24-8.87,13.21-9.98,11.99Z"/><path class="cls-101" d="M244.99,319.88c-1.24-3.12,6.04-11.4,8.47-11,1.55.25,1.37,1.2.52,2.5-1.74,2.67-6.5,6.2-8.99,8.5Z"/><path class="cls-105" d="M252.98,219.88c-.36-2.32,6.75-10.26,8.51-10.99,3.98-1.65-.78,5.16-1.51,5.99.19,2.22-4.8,6.58-7,5Z"/><path class="cls-88" d="M262.98,96.88c.13.6-.19,1.61,0,2-2.24.15-12.72-5.6-13.01-6.51-.64-2.03,1.16-1.62,2.32-1.31,2.31.63,8.25,4.34,10.69,5.82Z"/><path class="cls-6" d="M260.98,103.88c-.53.51-2.13.77-2.96,1.51-2.01,1.77-1.59,4.31-5.03,3.49-1.17-1.15,3.09-6.41,3.99-6.99.27-.18,3.27-1.02,3.46-.99,1.29.79,1.67,1.91.54,2.99Z"/><path class="cls-80" d="M262.98,297.88c-.12,3.96-1.45,5.3-4,4-1.07.66-2.18,1.15-3.49,1.01-2.76-.22,6.31-8.19,7-9,1.08.63.32,2.82.5,4Z"/><path class="cls-78" d="M257.98,159.88c.62-9.82-1.29-20.44,1-30,.15,7.92.99,20.2.06,27.61-.19,1.53-.52,1.48-1.06,2.39Z"/><path class="cls-106" d="M262.97,352.88c.95.97-4.8,10.69-7.99,7.99-1.19-1.01,6.85-9.15,7.99-7.99Z"/><path class="cls-52" d="M262.98,162.88c-1.83,2.08-4.75,2.38-7,6-.15.24.14.75,0,1-1.59-.25-2.87,2.48-3-.51-.18-3.94,1.73-2.12,3.96-4.03,1.39-1.19,2.09-2.58,3.04-3.47,2.33-4.14,4.66-3.79,3,1Z"/><path class="cls-37" d="M260.98,192.88c2.8,1.77,4.19.28,2,4,1.34-5.14-6.84,2.43-8,4-2.92-1.82-4.08-.22-2-4-1.14,5.07,6.48-2.22,8-4Z"/><path class="cls-35" d="M261.98,177.88c3.11,1.64,2.21,2.42,1,5l-1.5-2c-1.47,2.25-5.03,4.23-6.5,6-.3-.37-.7-.65-1-1,1.19-3.11,6.59-5.9,8-8Z"/><path class="cls-72" d="M261.98,184.88c3.06,1.62,2.27,2.41,1,5l-1.5-2c-1.55,2.28-4.91,4.17-6.5,6-.3-.37-.7-.65-1-1,1.49-3.28,6.1-5.6,8-8Z"/><path class="cls-71" d="M275.98,300.88c.17,0,1.27,1.12,2,1-3.46,1.7-7.17,4.67-11,6-.12-.56.19-1.8,0-2,1.86-1.28,7.11-5.02,9-5Z"/><path class="cls-68" d="M242.97,362.88c.45,4.54-3.17,5.48-6.99,4.99.27-3.5,3.84-5.59,6.99-4.99Z"/><path class="cls-78" d="M262.98,297.88c.85,5.79,2.32,13.51-4,4,1.49-.91,2.76-2.74,4-4Z"/><path class="cls-81" d="M255.98,112.88c.68-3.44,8.19-10.94,7-4-1.1,1.49-5,4.45-7,4Z"/><path class="cls-39" d="M257.98,317.88c-2.6,2.77-5.68,5.44-8,8l-1-1c1.8-1.74,6.86-6.51,8-8l1,1Z"/><path class="cls-102" d="M245.65,366.03c5.57-1.51,1.79,5.68-2.15,4.85-2.99-.63.69-4.45,2.15-4.85Z"/><path class="cls-60" d="M271.98,80.88l2.99.49c-1.57,1.47-4.15,3.58-5.99,4.51-1.01.5-3.18,1.86-3.99.5l6.99-5.5Z"/><path class="cls-48" d="M260.98,215.88c-1,2.65-4.59,4.26-6,6-.5-.53-1.91-1.42-2-2,2.09-.4,5.55-3.36,7-5,.38.21.74.93,1,1Z"/><path class="cls-19" d="M250.98,368.88c6.4-1.06,1.04,5.42-3,5,.95-2.15,1.44-3.17,3-5Z"/><path class="cls-112" d="M237.97,362.86c-.19.25-4.97,2.32-5.99,2.01-.93-.83,2.87-4.85,3.51-4.99,1.54-.35,3.15,2.08,2.48,2.98Z"/><path class="cls-78" d="M262.98,225.88v-3c-.98,1.05-3.4,1.53-4,2l.97-1.5-.97-.5c1.21-1.19,1.95-3.33,4-4,.63,3.29,1.36,4.01,0,7Z"/><path class="cls-36" d="M254.98,81.88l.61-.95c2.91-.03,5.33,2.59,7.39,4.46l-2,.49c-2.08-1.1-4.47-2.14-6-4Z"/><path class="cls-78" d="M264.98,265.88c-.02-5.65.01-11.35,0-17,1.68,4.64,1.68,12.29,0,17Z"/><path class="cls-86" d="M252.98,337.88c-1.99,1.95-4.02,4.02-6,6l-1-1c1.54-1.31,4.28-4.29,6-6l1,1Z"/><path class="cls-42" d="M244.99,312.88c.05-2.23-.05-7.21,3.48-5.99s-2.42,5.49-3.48,5.99Z"/><path class="cls-109" d="M261.98,374.88c1.16,4.5-1.04,4.36-4,5-.27-2.76,1.17-4.83,4-5Z"/><path class="cls-103" d="M258.98,252.88c.11,2.88-2.92,3.66-4,5-.29-.37-.7-.65-1-1,.55-2.79,4.17-3.28,5-4Z"/><path class="cls-87" d="M262.98,121.88c.14,1.66,1.03,5.91-2,4.99.04-2.34.82-4.71,1-6.99.98.27.93,1.15,1,2Z"/><path class="cls-78" d="M259.98,161.88c.15-2.05,1.69-4.27,3.99-4,.09,2.15.46,3.34-.99,5v-3c-.15-.17-2.6,1.63-3,2Z"/><path class="cls-78" d="M261.98,227.88c2.92,1.55,2.43,2.4,1,5,.45-3.14-.29-4.17-3-2l-1-1c.95-.85,2.7-1.67,3-2Z"/><path class="cls-89" d="M288.06,96.04c.67,2.42-5.5,5.4-7.18,3.64-4.16-2.09-1.03-2.24.1-3.8.56,2.05,3.66-.32,5-1l2.08,1.16Z"/><path class="cls-95" d="M258.98,118.88c.43,3.23-.07,7.55,0,11-.05,10.04-.38,20.04-1,30-.59,1-1.12,1.74-2.26,2.2l-73.58,36.96c1.6,19.46-19.94-4.89-27.23-7.59-2.93-3.24,1.98-5.66,3.07-7.56,2.3-.88,1.92.06,1,2,6.08,3.55,12.02,7.53,17.84,11.92.79-1.17,1.71-2.38,2.77-3.62,25.14-11.15,49.17-23.67,72.1-37.55.37-2.9,1.45-30.85-.59-30.51l-69.17,35.21c-1.82,1-3.59.52-4.68-1.34-1,2.38-2.42,3.34-4.27,2.89-1.48,1.06-1.81.39-1-2,.51-.8,9.29-17.88,10.01-11.43l1.49,5.41,68.51-35.98c1.91-3.65,4.65-3.48,7,0Z"/><rect class="cls-85" x="274.78" y="84.15" width="74.23" height="3.13" transform="translate(-5.06 150.26) rotate(-26.88)"/><path class="cls-44" d="M253.98,113.88c3.15,2,.95,4.09-2,3l-66.51,33.99-.03-3.03,68.53-33.97Z"/><path class="cls-43" d="M175.97,146.88c.71.81-.69,3.31-1.17,4.32-3.96,8.44-13.45,23.19-19.01,30.99-1.13,1.58-2.6,5.04-4.81,4.68-.57-2.08.67-2.72,1.46-4.03,6.07-10.19,13.69-24.43,20.36-33.64.46-.64,2-3.65,3.17-2.32Z"/><path class="cls-78" d="M253.98,113.88c1.94-.14,4.75,3.17,5,5-2.22-1.63-4.6-.76-7,0v-2c1.09-.88,2.35-1.36,2-3Z"/><path class="cls-34" d="M347.97,61.88c.62.62-.46,3.98-1.49,3.97-3.87,0-1.09-6.56,1.49-3.97Z"/><path class="cls-74" d="M348.98,121.87c-.73-.8,2.81-5.9-1.33-5.85l-68.67,33.85c.6-10.94-.81-22.69-.05-33.54.82-11.6,2.72-10.8,12.02-15.98,18.36-10.23,38.07-18.43,56.59-28.41l2.44-8.07,25.36,15.12c.97.51,1.67,1.14,1.67,2.34-.01,3.33-22.21,31.63-24.21,37.86l-3.82,2.67Z"/><path class="cls-94" d="M282.98,124.88c.92-.58,1.41.01,1.45,1.76l.55,12.24,67.46-34c1.87-2.31,13.7-18.44,13.52-19.74-.1-.74-11.99-7.6-12.73-7.67l-62.27,31.65-1.98-1.24c-1.56.83-2.64.93-2-1,17.75-9.94,36.06-18.85,53.96-28.54,2.39-1.3,5.67-1.8,7.78-3.22,1.67-1.12,3.25-4.09,3.83-4.23,1.01-.25,16.57,10.51,17.43,11.5.91,1.05,1.18,1.44,1.04,2.92s-14.74,24.38-16.02,25.15-3.44-1.15-4.94-.1l-62.05,32.07c-8.62,2.84-3.85-12.25-5.03-17.55Z"/><path class="cls-59" d="M288.98,107.88c1.33,1.35.84,2.55-1.47,3.62-.86,8.5-.98,17.11-.35,25.82l-2.17,1.56c-2.06-2.17-.68-8.22-.96-11.58-.11-1.28-1.03-2.29-1.04-2.42-.24-5.78-1.61-14.97,4-18l2,1Z"/><path class="cls-82" d="M288.98,107.88l64.69-32.87c1.75,1.83,13.77,8.27,14.2,8.99.26.44.22.83.15,1.34-.25,1.69-12.9,20.27-14.66,21.42l-65.38,32.7c-1.69.52-1.72.78-3-.57,1.03-5.95-1.79-24.6.96-28.57.59-.85,2.33-1.45,3.04-2.43Z"/><path class="cls-100" d="M172.98,162.88c.5,5-4.14,12.19-7.13,16.68-1.56,3.85-3.85,5.96-6.87,6.32-.26-.65.05-1.67-1-2,4.53-7.87,9.11-15.36,14-23l1,2Z"/><path class="cls-12" d="M172.98,162.88c.87-1.4,3.32-5.53,4.51-5.99,2.74-1.06.18,3.83,2.94,2.96l70.24-35.76c1.91-.03,2.95,1.6,3.28,3.33.56,2.92.35,28.59-.49,30.45-3.58,3.41-8.98,6.17-13.46,8.54-19.47,10.27-39.72,19.39-59.32,29.42-1.69.7-1.43,4.79-1.71,5.06-1.14,1.07-16.68-11.26-18.98-12.56-1.02-.58-.73-1.74-1.02-2.44,5.8-6.92,9.28-15.44,14-23Z"/><path class="cls-82" d="M251.98,155.38l-74.58,40.56c-2.03.11-15.08-9.19-15.18-10.55,3.86-3.31,11.33-20.62,13.96-22.38.48-.32,2.11.68,3.49.12,22.58-9.2,45.46-25.42,68.11-34.94,1.07-.45,4.19-2.01,4.19.19v27Z"/><path class="cls-17" d="M278.98,62.88c-1.06-.12-1.61-.12-2,1-.27.45-.56.86-.95,1.11-1.82,1.12-10.92-7.11-12.05-9.11.88-.81,2.09-1.24,3-2,1.57.28,11.21,7.51,12,9Z"/><path class="cls-70" d="M262.98,336.88l-4.97,6.49,1.97.51c.32.33.62.73,1,1l.66,1.26c-3.85,3.95-7.06,8.2-9.66,12.74-.41.41-.61,1.45-1,2-2.47-1.39-9.3-3.61-11.02-5.49s.38-5.15-2.98-4.51c2.44-1.04,3.46-.21,5-1,.8-.26,1.51-.16,2.09.39l14.82-15.65,2.08.26c.5.53,1.91,1.42,2,2Z"/><path class="cls-67" d="M260.98,370.88c-1.04.26-1.61.88-2,1q-3.77,3.22,0,0c.17-.13,2.95,2.79,3,3-.72,1.89-2.3,3.96-4,5-.44.09-.84.56-1,1-4.26-2.03-6.47-4.08-10-6,.35-.27.82-.59,1-1,3.05-1.81,4.05-3.48,3-5,.61-.71,1.37-1.3,2-2,2.26,1.23,6.12,1.49,8,4Z"/><path class="cls-108" d="M262.98,336.88c.17,1.14-2.18,5.92-3,7-2.63,3.47-8.8,6.82-10.97,11.53-2.43,1.12-3.79.8-2.88-1.88.58-1.71,13.93-15.42,16.85-16.65Z"/><path class="cls-26" d="M271.98,79.88v1c-.37,2.22-2.39,4.08-6.05,5.58-.15.11,2.85-2.16,3.05-.58l2,1c-1.45.69-1.65,1.32-4,2-1.84-1.32-3.99-1.94-6-3-.84-2.74-4.71-3.95-6-4-.66-.8-.9-.37-1-2,0-.11,1.13-1.29,1-2,7.26,3.45,8.94,5.86,17,2Z"/><path class="cls-28" d="M258.98,371.88c-1.33,7.32-10.52,5.41-3.51.95,1.59-1.01,2.37-.6,3.51-.95Z"/><path class="cls-46" d="M266.98,53.88c1.11,1.51.11,2.17-3,2-1.1,3.64-3.64,6.78-7.64,9.43,8.13,6.39,12.74,3.85,20.64-1.43-1.13-2.48,0-2.69,2-1,1.43,2.69,1.34,8.84,1,12-.65.36-1.37.62-2,1l-1.95-.38c-8.49,5.98-12.94,6.58-21.47.4l.42,1.98c2.14,1.92,1.78,2.65-1,2-.64.09-1.44-.14-2,0-3.7-3.32-1.12-6.39-1.09-9.61.02-2.75-1.84-4.66.03-7.69.36-.59,10.46-7.91,11.12-8.15,1.58-.59,3.28-.84,4.93-.55Z"/><path class="cls-65" d="M254.98,77.88c-1.16-.55-5.03-1.93-2.99-3.99,1.79-1.82,10.13,5.63,12.5,5.62,1.92,0,7.87-4.31,10.46-5.17,1.92-.64,3.49-1.41,3.04,1.54-1.84,1.11-4.32,3.2-6,4-1.15,1.3-5.03,3.85-6.61,3.97-.55.04-9.61-3.52-10.01-3.89-.56-.51-.54-1.31-.37-2.08Z"/><path class="cls-8" d="M276.98,63.88c-.21.61.42,2.07-.14,2.82-.38.5-10.9,4.91-11.52,4.96-1.4.12-12.3-5.57-12.32-6.28,3.63-3.26,7.38-6.19,10.98-9.5,5.22.19,8.11,6.8,13,8Z"/><path class="cls-5" d="M266.98,73.88c1.34-.31,1.62-.32,1,1-1.98.55-2,1.49-5.26.79-1.77-.38-10.98-4.42-9.25-6.78,3.95,1.91,9.53,6.35,13.51,4.99Z"/><path class="cls-53" d="M267.98,74.88l-1-1c3.45-1.18,6.37-4.06,9.99-5,2.17,2.18-7.88,5.69-8.99,6Z"/><path class="cls-64" d="M292.98,276.88l143.33,79.92c2,2.07,2.28,20.2,1.65,23.55-.69,3.67-10.42,8.08-13.95,10.05-49.61,27.58-103.15,55.82-154,81-3.17,1.57-6.6,3.7-10.02,4.48-3.46-5.53-2.41-15.71-1-22l1.74,1.22c-.3,2.37.01,15.12,1.08,15.29l171.15-89.71,2.02,1.2-2-1.15v-16.77l2-2.08-8.01,5.54c-52.09,28.36-103.89,55.5-155.4,81.42l-2.58-.95-2-1c3.84-3.01,7.75-5.98,12.06-8.29,50.15-26.88,100.95-54.08,151.12-79.59-43.26-23.92-87.49-49.06-130.71-74.28-3.15-1.84-5.85-4.34-8.47-6.84l2-1Z"/><path class="cls-82" d="M268.98,447.88c3.62-1.89,8.15-3.47,12.02-5.48,51.41-26.67,102.21-54.54,153.98-80.52v20l-175.51,91.99c0-4.17-1.67-16.9-.49-19.99.34-.89,8.36-5.14,10-6Z"/><path class="cls-82" d="M290.98,277.88c47.28,25.16,92.59,54.69,140.34,79.16l1.65,2.83c-10.36,5.03-20.83,10.1-31.02,15.49-44.87,23.75-89.52,49-134.98,71.52-2.52,1.25-8.1,4.46-10.27,3.85-53.39-32.19-108.85-60.94-162.72-92.36-.47-2.04.84-1.35,1.97-1.97,12.89-7.07,48.82-28.49,60.35-31.79,2.24-.64,3.77.39,4.94.04,9.98-2.91,19.74-6.91,29.73-9.78.03-1.93-4.19-.96-5.25-.75-4.3.88-10.29,3.31-14.74,4.76-2.05.6-2.72.27-2-1,4.9-2.69,10.18-5.55,14.74-8.02,22.2-12.01,44.65-23.84,67.26-34.98v21.5c0,2.96-6.68,3.13-7.79,8.21-.85,10.7-1.28,21.73-3.21,32.29l-.56,1.19-29.93,10.23.49,1.58c1.34-.35,2-.02,2,1,.19.09.45,1.55,1.65,1.88,3.36.93,24.02-9.04,25.34-7.88,1.45,1.27-1.74,2.63-2.46,3.03-4.75,2.7-11.01,4.11-16.19,5.85-1.55.52-2.86-.88-2.34,2.1l10.99-1.99-4.99,4.99c8.52-1.43,3.17,3.19,5.48,7.02,1.2,1.98,14.62,7.41,17.51,8.99,2.63-.64,5.05-.39,5.78,2.46,3.15.19,4.55,1.37,4.22,3.54,2.75,1.31,4.91,4.51,9.02,2.55,3.5-3.49,33.57-16.34,34.02-18.22.39-1.63.17-10.87-.53-12.34-1.88-3.89-7.91-.92-9.24-9.76l-3.72-40.28c-.07-2.77-7.55-4.8-7.55-6.45v-23.5c3.57.75,8.59,3.18,12,5Z"/><path class="cls-92" d="M239.98,336.88c-.11.62.14,1.42,0,2l-30,11c-.64-.3-5.39.21-3.02-2.52l33.02-10.48Z"/><path class="cls-4" d="M230.98,330.88c.23.07,1.12,1.21,4,2,.18.44.32.88.3,1.31-.06,1.87-31.22,10.85-35.3,11.69-1.1-.57-1.71-3.35-5.49-2.01l-.51-.99c12.45-3.89,24.78-7.89,37-12Z"/><path class="cls-18" d="M223.98,327.89c-4.77,4.03-13.27,6.15-19.48,8.01-5.33,1.6-11.03,3.82-16.51,3.97-.51-2.83.68-1.64,2.19-2.25,7.15-2.87,20.5-7.75,27.75-9.29,2.03-.43,3.99-.63,6.05-.44Z"/><path class="cls-25" d="M199.98,345.88l35-13c1.03.28,5.26-.16,3.02,2.52l-34.78,11.3c-1.29.36-2.18-.27-3.24-.82Z"/><path class="cls-61" d="M216.97,324.88c.45,2.55-.4,1.8-2,2.45-4.42,1.78-25.19,9.25-28.62,9.52-1.81.14-3.21.13-4.37-1.48,11.84-2.62,23.13-8.9,34.99-10.49Z"/><path class="cls-62" d="M193.98,325.88c3.71-1.27,10.98-4.05,14.48-4.04,1.98,0,1.61.1,1.52,2.03-10.06,1.54-19.96,7.8-29.75,9.77-1.09.22-6.39,1.2-3.26-1.76.09-.65.23-1.19.54-1.32,4.74-1.94,11.53-3.78,16.46-4.68Z"/><path class="cls-16" d="M230.98,330.88c-.64,1.92-2.44,1.96-3.97,2.53-10.4,3.88-22.06,8.11-33.03,9.47-.04-1.17,1.55-1.69,2.43-2.07,4.09-1.74,32.15-10.61,34.57-9.93Z"/><path class="cls-58" d="M197.98,317.87l-33.99,10.01c-.47-2.58.46-1.77,1.98-2.46,3.76-1.7,24.26-8.79,27.76-9.36,1.88-.31,3.59-.37,4.24,1.81Z"/><path class="cls-33" d="M173.98,330.88c-1.93-.34-4.69,1.27-4-1.99,9.9-1.06,21.34-8.34,30.57-9.95,1.21-.21,5.5-.15,3.43,1.92-.45.45-10.15,3.39-12,4.01-4.69,3.43-11.97,5.46-18,6Z"/><path class="cls-83" d="M191.98,324.88l2,1c-5.2,1.78-11.38,5.82-17,6-.16,0-1.69-.77-3-1,5.58-3.09,12.08-3.99,18-6Z"/></svg>