<?xml version="1.0" encoding="UTF-8"?><svg id="parking-meter" xmlns="http://www.w3.org/2000/svg" viewBox="0 0 512 512"><path d="M284.09,265.72c-.64,1.13,0,3.48-.45,5.04-1.7,5.99-4.56,8.95-9.84,12.18-2.29,56.28-.04,113.31-1.14,169.86-6.26,13.91-29.18,13.69-37.58,2-.53-18.6-.03-37.22-.16-55.83-.15-20.54.02-41.46,0-61.92-.02-17.62.13-35.24-.28-52.85-1.02-5.23-11.33-4.62-12.68-14.28-.38-2.75.64-7.37-.59-9.41-3.16-5.24-23.15-9.8-25.23-18.77l-23.3-93.7c1.01-9.92-1.35-22.2.27-31.8.94-5.54,11.68-39.2,14.21-43.79,1.5-2.72,5.13-6.54,7.61-8.39,4.1-3.05,28.43-18.37,31.88-19.12,4.33-.93,8.78-.7,12.73,1.38,21.53,14.37,47.22,25.24,68.63,39.37,6.95,4.59,11.18,8.26,13.62,16.38,6.43,21.4,9.17,46.38,7.82,68.66l-24.55,79.45c-1.68,4.98-19.6,13.06-20.99,15.51ZM228.6,50.71c-1.25.28-18.58,11.18-19.68,12.35-.8.85-1.85,1.2-.58,2.48l75.53,43.44c2.43.69,20.81-13.37,23.98-15.97-22.46-11.62-43.44-26.61-65.96-38.02-4.08-2.07-8.66-5.32-13.3-4.28ZM280.87,177.51l3.04-52.54c-.58-7.66-3.17-10.79-9.37-14.62-22.16-13.71-46.42-24.41-68.27-38.72-6.73-3.43-11.16-.96-14.17,5.61l-13.07,41.04.28,2.25,101.56,56.99ZM311.87,97.5c.53-.77-.85-2.92-1.49-2.96-1.5-.08-24.42,15.97-24.49,17.48-.04.92,2.77,2.27,3.96.98l22.01-15.5ZM314.87,99.52c-1.02-1.02-3.16.94-4.03,1.46-3.25,1.9-18.48,12.35-20.48,14.52-3.6,3.91-1.69,4.92,2.66,2.66,3.28-1.71,18.13-12.17,20.37-14.63.88-.96,2.42-3.07,1.48-4.01ZM316.87,105.52c-1.02-1.02-3.16.94-4.03,1.46-2.6,1.52-20.77,14.61-21.94,16.06-.86,1.07-1.66,3.72-1.02,4.47,1.01,1.19,22.73-17.2,25.51-17.97,1.25-.53,2.01-3.48,1.47-4.02ZM317.65,115.31l.22-3.79c-.88-1.25-23.5,16.11-25,17.49-1.09,1-5.47,4.84-3.99,6.5,1.2,1.34,25.64-19.12,28.77-20.2ZM318.87,118.52c-1.4-1.59-25.13,18.76-28.53,19.96l-1.45,5.04,29.34-20.91c1.05-.52.8-3.91.64-4.08ZM320.74,128.4c.77-1.15-.48-3.88-1.36-3.86-2.16.05-24.79,19.78-29.45,21.53-1.64,1.8-3.01,6.47.43,4.45,10.17-5.99,19.55-16.59,30.38-22.11ZM178.88,128.52v21.5l23.14,89.86c1.9,2.9,4.75,4.61,7.56,6.44,14.85,9.67,31.34,17.19,46.29,26.76,6.23,1.51,6.45-12.47,7-17.07.64-5.31.18-12.67,1.22-17.78,2.04-10,11.76-23.86,14.33-34.67,1.3-5.48,1.46-11.93,1.53-17.58l-101.08-57.47ZM321.87,131.52c-.74-.77-3.12,1.13-3.89,1.6-5.16,3.16-24.69,17.03-28.15,20.85-1.72,1.89-2.33,2.83-1.95,5.54,8.54-8.29,24.28-15.25,32.02-23.47.89-.95,3.07-3.39,1.96-4.53ZM322.87,138.52c-.87-.9-8,4.29-9.31,5.18-5.25,3.6-20.73,13.93-24.21,17.79-1.34,1.49-1.74,3.25-2.48,5.01,1.69.34,2.65-.82,3.9-1.59,7.17-4.46,23.83-15.94,29.59-21.41,1.61-1.53,2.97-2.35,2.51-4.98ZM286.89,174.52l35.53-24.96,1.45-5.04-34.92,24.57-2.06,5.43ZM323.87,152.52c-.63-.7-8.49,4.92-9.72,5.77-7.67,5.32-19.52,12.97-26.2,18.8-1.14,1-2.47,1.54-2.07,3.42,2.03,1.95,31.96-22.28,36.51-23.97,1.24-.55,2.02-3.42,1.47-4.02ZM285.88,191.51c1.39,1.63,32.05-22.78,35.47-24.02l2.51-4.98c-9.92,6.05-19.12,13.23-28.68,19.81-2.1,1.45-12.38,5.6-9.31,9.18ZM285.88,199.51c1.39,1.62,31.1-23.9,34.94-24.55,2.21-1.26,4.45-6.46.53-4.49l-34.54,24.48c-.88.82-1.35,4.07-.93,4.56ZM283.89,208.52c9.79-8.63,24.18-15.31,33.45-24.04,1.82-1.71,4.02-2.99,3.53-5.96l-35.03,24.46-1.95,5.54ZM315.52,193.16c1-1.08,3.28-4.22,1.86-5.64-6.23,5.25-13.32,9.32-19.82,14.18-2.54,1.9-21.19,14.75-18.67,17.82l36.63-26.35ZM314.87,197.52l-35.46,25.03c-2.52,1.67-3.59,4.21-4.53,6.96l36.49-26,3.51-5.98ZM270.88,239.51l39.04-27.45,1.95-5.54c-10.63,9.17-26.35,16.87-36.47,26.02-1.98,1.79-4.51,4.06-4.52,6.97ZM269.88,247.51l34.47-24.02c1.29-.92,6.72-6.51,5.51-7.98l-38.69,27.28-1.29,4.71ZM306.87,225.52l-36.98,25.51c-1.12.68-1.37,4.06-1.01,4.48,1.36,1.6,30.99-23.04,34.48-24.01l3.51-5.98ZM267.88,263.51l30.47-21.02c2.11-2.39,5.97-4.25,5.52-7.97l-33.48,24.01-2.5,4.99ZM300.87,244.52l-31.35,21.14-2.64,4.85,31.34-21.15,2.65-4.84ZM276.87,271.52c-5.59,2.02-12.26,9.21-18.4,8.94-5.21-.23-29.45-17.24-30.58-15.94.09,2.89-.83,5.83,1.44,8.05.92.9,17.04,10.35,18.88,11.12,4.05,1.7,8.25,2.78,12.63,1.28,1.53-.53,17.94-11.5,16.03-13.45ZM247.88,289.53c-4.67-2.09-8.14,1.09-7.99,5.98.67.73,5.16-2.71,6.1-3.42,1.11-.83,2.49.01,1.89-2.57ZM267.88,288.53c-2.42-1.92-22.68,15.67-26.71,17.27l-1.28,4.72c2.59-1.54,5.4-2.91,7.9-4.59,1.77-1.19,21.89-15.97,20.09-17.4ZM239.88,302.51c1.3,1.3,15.93-9.53,15.97-10.49.23-4.93-13.74,5.65-14.5,6.48-.88.96-2.39,3.1-1.47,4.02ZM239.88,317.51c1.04,1.01,3.14-.93,4.03-1.46,3.39-1.99,24.43-17.5,23.96-20.02-.14-.73-1.73-2.13-2.49-.51-5.81,6.92-16.98,11.27-22.99,17.01-.94.9-3.86,3.67-2.51,4.98ZM265.39,302.52c-.55.12-7.08,6.25-8.62,7.39-4.27,3.18-11.88,7.47-15.27,10.73-2.54,2.44-2.05,5.4.89,3.91,4.34-2.19,19.59-13.53,22.98-17.03,1.46-1.5,3.76-5.83.01-5ZM266.55,314.21c1.21-1.41,1.73-4.75-.17-4.67-.57.02-7.03,6.26-8.59,7.39-4.16,3.04-12.91,7.85-15.95,11.05-3.6,3.79-2.95,5.97,2.07,3.07,3.96-2.29,20.07-13.87,22.64-16.84ZM239.88,340.51c.66.72,5.66-3.06,6.72-3.77,3.5-2.36,21.23-14.61,21.25-17.73.02-2.09-2.38-.84-3.29-.32-2.45,1.4-22.11,16.28-23.24,17.77-.73.96-2.33,3.08-1.44,4.05ZM266.87,325.52c-1-1.2-22.92,17.08-25.51,17.98-3.19,4.24-1.72,5.05,2.55,2.55,3.61-2.11,20.14-13.87,22.29-16.46.79-.95,1.11-3.53.66-4.08ZM266.87,332.52c-3.34,3.2-27.56,18.48-26.99,21.48.35,1.85,1.35,1.15,2.52.56,2.73-1.37,22.52-15.76,23.53-17.49.92-1.58,1.17-2.73.94-4.55ZM239.88,362.51c.78.82,4.7-2.11,5.72-2.77,3.32-2.14,20.61-14.35,21.58-16.51.64-1.43-.3-2.34-.32-3.71-6.33,7.37-18.82,11.89-25.02,18.46-1.38,1.46-2.38,2.22-1.96,4.53ZM239.88,370.51l24.48-17.01c2.22-1.2,5.17-7.14.99-5.03-7.86,3.96-15.69,13.52-24.18,17.33l-1.29,4.71ZM239.88,377.51c1.17,1.25,26.41-17.3,27.3-19.28.64-1.44-.3-2.34-.32-3.71-6.26,6.91-19.09,12.21-25.02,18.46-1.38,1.45-2.38,2.23-1.96,4.53ZM266.87,362.52c-6.88,6.55-18.89,11.9-25.36,18.13-2.54,2.45-2.05,5.4.89,3.91,3.45-1.74,20.1-13.83,22.52-16.49,1.72-1.89,2.33-2.83,1.95-5.54ZM266.66,374.31l-.28-4.79-24.54,18.46-1.96,4.53c1.54,1.62,23.76-16.65,26.77-18.21ZM239.88,400.51c1.54,1.64,23.23-16.71,26.07-18.42l.92-4.57-25.69,18.28-1.29,4.71ZM239.88,407.51c1.07,1.01,3.14-.94,4.03-1.46,3.27-1.89,20.68-14.68,22.01-16.99.92-1.59,1.18-2.71.94-4.55l-24.91,18.58c-.88.69-2.78,3.75-2.08,4.41ZM266.87,392.52c-1.03-1.19-22.18,18.16-25.7,18.28l-1.29,4.71c1.82.25,2.9-1.28,4.29-2.2,4.87-3.23,17.88-11.95,21.24-15.76,1.07-1.21,2.34-4.02,1.46-5.03ZM239.88,422.51c.78.82,4.7-2.11,5.72-2.77,3.35-2.16,18.96-13.31,20.33-15.67.92-1.58,1.17-2.73.94-4.55l-25.02,18.47-1.96,4.53ZM266.87,407.52c-.95-1.23-22.2,17.83-25.51,17.98-2.18,1.41-2.19,5.69,1.05,4.06,2.91-1.46,20.48-14.25,22.52-16.5,1.18-1.3,3.04-4.13,1.95-5.54ZM266.59,419.22c1.16-1.35,1.07-3.43-.21-4.7-5.98,7.18-18.65,12.25-24.54,18.46-1.38,1.45-2.38,2.23-1.96,4.53.86.92,8-4.3,9.31-5.18,3.87-2.6,14.82-10.11,17.4-13.11ZM266.87,422.52c-.95-1.23-22.2,17.83-25.51,17.98-2.18,1.41-2.19,5.69,1.05,4.06,2.91-1.46,20.48-14.25,22.52-16.5,1.18-1.3,3.04-4.13,1.95-5.54ZM266.87,430.52c-.69-.8-3.47,1.61-4.3,2.19-4.57,3.17-16.92,11.54-20.19,14.81-1.28,1.28-2.65,3.07-2.49,5,.88.89,7.42-3.91,8.72-4.77,3.9-2.6,15.09-10.11,17.61-13.14.79-.95,1.11-3.56.66-4.08ZM240.88,458.51c1.38,1.4,8.79-4.17,10.31-5.18,2.82-1.88,16.7-11.9,16.66-14.32,0-.55-1.69-2.12-2.5-.54-6.12,5.37-13.37,9.31-19.79,14.23-1.14.88-6.61,3.86-4.68,5.81ZM266.87,445.52c-.8-.94-18.31,13.15-19.97,14.5,1.21,1.55,1.25,1.49,3.02,1.06,1.57-.38,14.83-9.72,15.94-11.08.87-1.07,1.65-3.72,1.01-4.48ZM255.88,461.51c4.59.16,11.95-3.47,10.99-8.99l-10.99,8.99Z"/><path d="M190.88,140.52l5.4,1.1,36.69,21.32c1.43,1.9-.24,9.57-.13,13.13.24,7.88,1.52,15.22.04,23.44l-2.32-.16c-13.13-7.9-27.21-14.53-39.67-23.33v-35.5ZM209.88,180.52v-21.5c0-.27.93-.93.83-1.85-.29-2.54-11.25-6.15-13.33-8.63l-1.55,2.49c2.57,5.72-.61,18.01,1.55,22.49.56,1.17,12.01,7.56,12.51,6.99ZM218.88,185.52v-24.5c0-.65-2.14-1.92-3-1.5v26h3ZM227.88,165.52l-4-1v24.5c0,1.06,2.84,1.9,4,1.5v-25Z"/><path d="M220.58,219.73c18.65-5.49,28.94,31.22,9.81,29.85-13.46-.96-21.68-26.35-9.81-29.85ZM224.63,225.68c-8.99,1.54-1.1,19.37,6.27,17.43,8.56-2.25,1.58-18.78-6.27-17.43Z"/><path d="M269.63,160.25c-2.13,2-6.57,1.33-8.98,0l-69.31-39.68c-1.87-2.05-2.56-3.57-2.4-6.41.17-3.09,7.95-30.64,9.36-31.73,1.21-.95,2.51-1.15,4-.91,25,12.9,49.3,27.3,73.63,41.47,2.13,2.41,2.17,4.85,1.89,7.91-.35,3.69-6.35,27.64-8.17,29.36ZM207.87,92.52c-.92-1-11.53,6.72-9.99,9.99.58.65,7.98-5.22,8.56-5.93.8-.95,2.26-3.15,1.43-4.06ZM271.87,135.52c-.39-2.94,2.33-6.18.02-8.51-18.02-9.24-35.02-20.74-52.99-30.01-1.46-.75-5.5-3.59-6.02-.94-.17.88,1.25,8.15,1.97,8.98,16.46,7.77,31.87,18.86,48,27,1.45.73,8.03,4.44,9.02,3.48ZM207.87,99.52c-10.53,2.43-19.97,21.13-3.99,6.5,1.87-1.71,4.48-3.54,3.99-6.5ZM207.49,106.6c-.78.12-12.58,8.63-12.59,9.41-.11,5.58,14.95-6.84,14.96-8,0-.42-1.34-1.57-2.37-1.41ZM211.58,110.69c-1.06.16-10.69,7.65-10.68,8.33,0,.14,1.74,1.94,1.98,2.05.83.37,11.97-8.3,11.98-9.05.02-1.1-2.07-1.51-3.28-1.33ZM220.88,114.53c-1.45-.09-2.45-1.01-4.02-.61-1.25.32-10.99,8.27-9.97,9.59,2.85,3.69,11.49-6.96,13.99-8.98ZM222.55,116.67c-.72.19-8.01,7.32-8.67,8.35-.84,1.28-1.08,2.17.52,2.5,3.18.66,8.18-7.25,11.48-8.51-.09-2.04-1.5-2.82-3.33-2.34ZM218.88,130.51c2.44,2.39,10.61-7.19,12.97-8.49-.85-.95-2.74-2.6-4-2.04-.48.22-6.9,6.33-7.74,7.24-1.02,1.1-1.8.64-1.24,3.29ZM236.87,123.52c-1.96-1.92-9.31,5.13-10.75,6.7-1.02,1.1-1.8.64-1.24,3.29,1.96,1.92,9.31-5.13,10.75-6.7,1.02-1.1,1.8-.64,1.24-3.29ZM229.88,136.51c3.03,2.28,12.93-7.69,12.98-8.49.07-1.19-2.33-1.78-3.98-1-.77.36-10.17,8.45-9,9.5ZM244.55,129.67c-1.21.32-11.81,9.89-7.15,10.84,1.71.35,7.98-7.7,10.48-8.51-.09-2.04-1.5-2.82-3.33-2.34ZM253.88,133.53c-2.64-3.42-13.2,7.46-12.99,8.47,1.18,5.81,11.98-6.79,12.99-8.47ZM246.88,146.51c2.02,2.03,12.35-7.67,11.99-9.48l-4.02-1.05c-.64,2.48-10.24,8.24-7.97,10.53ZM264.88,139.53c-2.55-3.52-12.93,7.65-12.98,8.49-.36,6.4,13.56-7.81,12.98-8.49ZM268.87,141.52c-1.09-1.19-12.19,9.92-10.99,10.99,4,1.94,12.84-8.95,10.99-10.99Z"/></svg>