<?xml version="1.0" encoding="UTF-8"?><svg id="ped-ramp" xmlns="http://www.w3.org/2000/svg" viewBox="0 0 512 512"><defs><style>.cls-1{fill:#fac807;}.cls-2{fill:#1a1807;}.cls-3{fill:#f9c508;}.cls-4{fill:#171507;}.cls-5{fill:#f9c809;}.cls-6{fill:#151406;}.cls-7{fill:#e6c83b;}.cls-8{fill:#f9c808;}.cls-9{fill:#f9c407;}.cls-10{fill:#f7c50a;}.cls-11{fill:#161407;}.cls-12{fill:#f3d334;}.cls-13{fill:#151306;}.cls-14{fill:#f9ca08;}.cls-15{fill:#fec700;}.cls-16{fill:#161406;}.cls-17{fill:#fec801;}.cls-18{fill:#f8c808;}.cls-19{fill:#151205;}.cls-20{fill:#f8c60c;}.cls-21{fill:#f9c90b;}.cls-22{fill:#f9c609;}.cls-23{fill:#f7c60c;}.cls-24{fill:#fec701;}.cls-25{fill:#161306;}.cls-26{fill:#fdc904;}.cls-27{fill:#f9c80b;}.cls-28{fill:#f9c60b;}.cls-29{fill:#151305;}.cls-30{fill:#141206;}.cls-31{fill:#15140b;}</style></defs><path class="cls-31" d="M288.81,146.68c2.22-.12,4.75.92,6.7,1.93l119.52,71.73c2.8,3.07,2.76,17.34,2.23,21.81-.33,2.82-1.67,4.25-3.82,5.93-66.58,38.55-132.22,78.7-199.14,116.66l-3.18-.49-121.66-73.34c-2.32-3.15-2.96-25.16,1.57-28.5l193.22-114.28c1.28-.58,3.2-1.37,4.56-1.44Z"/><path class="cls-15" d="M408.25,223.74l-194.67,114.02-118.08-70.14c-.31-1.27,2.17-2.29,3.07-2.92,7.05-4.97,16.81-10.01,24.46-14.54,50.47-29.94,100.87-60.73,151.97-89.53,4.61-2.6,12.69-8.66,17.55-6.78l113.71,67.79,2,2.11Z"/><path class="cls-24" d="M411.25,229v12.38c0,.22-1.81,1.81-2.3,2.2l-192.7,113.68v-13.12c0-1.17,17.32-11.05,19.75-12.5,55.67-33.36,111.66-66.81,168-99,2.24-1.28,4.8-2.95,7.25-3.62Z"/><path class="cls-17" d="M205,340.75l4.53,2.68c.49.8.71,11.47.22,11.79-.57.38-3.32-1.25-4-1.73-29.59-17.29-59.35-34.83-88.73-52.64-2.78-1.68-23.02-13.12-23.02-14.48v-12.38c18.41,10.63,36.73,21.47,54.98,32.4,17.1,10.24,40.81,22.54,56.02,34.35Z"/><path class="cls-12" d="M205,340.75c.73.2,5.25,1.96,5.25,2.25v13.5c-1.61-.04-3.49-1.59-4.5-3l3.75.75c-.29-2.98.4-6.52.06-9.4-.09-.81-3.36-3.17-4.56-4.1Z"/><path class="cls-13" d="M216.09,295.93c8.13-.88,19.16,5.92,13.25,14.79-3.68,5.52-14.66,6.04-19.8,2.62-9.08-6.03-2.48-16.43,6.55-17.41Z"/><path class="cls-6" d="M215.3,208.93c16.04-2.69,22.43,16.41,6.4,19.14-18.31,3.11-21.75-16.56-6.4-19.14Z"/><path class="cls-4" d="M324.05,231.43c19.83-3.43,22.33,22.04.55,19.33-12.9-1.6-13.12-17.16-.55-19.33Z"/><path class="cls-30" d="M288.84,166.17c19.96-2.15,19.83,23.66-2.29,19.16-11.78-2.4-10.66-17.76,2.29-19.16Z"/><path class="cls-2" d="M244.25,203.25c-9.15-9.11,7.4-21.66,18.87-13.24,14.08,10.34-8.5,23.56-18.87,13.24Z"/><path class="cls-6" d="M178.55,274.18c19.59-3.39,21.81,20.63,2.09,19.32-14.73-.98-15.16-17.05-2.09-19.32Z"/><path class="cls-19" d="M324.05,187.93c15.53-2.65,22.4,13.91,8.61,18.36-18.1,5.84-25.3-15.51-8.61-18.36Z"/><path class="cls-16" d="M289.59,208.91c4.77-.38,11.7,2.38,13.58,7.04,6.05,14.98-27.86,17.92-24.63.71.77-4.11,7.27-7.45,11.05-7.75Z"/><path class="cls-16" d="M360.05,210.43c19.77-3.36,21.55,19.91,2.94,19.26-14.35-.5-17.17-16.85-2.94-19.26Z"/><path class="cls-25" d="M178.55,230.68c15.59-2.69,22.89,14.33,8.03,18.52-18.11,5.11-23.97-15.76-8.03-18.52Z"/><path class="cls-11" d="M253.61,230.67c17.43-.97,19.69,21.67-1.73,19.33-14.23-1.55-12.62-18.53,1.73-19.33Z"/><path class="cls-29" d="M231.25,264.25c-5.27,12.42-30.35,9.28-24.75-6.75,6.39-9.76,26.47-6.36,24.75,6.75Z"/><path class="cls-29" d="M250.55,274.92c20.69-3.82,22.31,20.13,3.61,19.35-15.13-.63-16.15-17.04-3.61-19.35Z"/><path class="cls-13" d="M286.54,253.17c5.28-1.08,12.84-.25,15.84,4.82,9.76,16.51-28.43,19.9-23.7,1.57.71-2.74,5.21-5.85,7.86-6.39Z"/><path class="cls-13" d="M141.81,252.43c5.47-.93,11.86-.15,15.19,4.7,8.13,11.82-14.86,20.02-22.5,9-3.99-5.76,1.23-12.66,7.3-13.69Z"/><path class="cls-7" d="M231.25,264.25c-.24-13.14-16.86-15.41-24.75-6.75,3.4-9.73,25.68-7.51,25.54,4.95-.01,1.27-.6,1.33-.79,1.8Z"/><path class="cls-20" d="M216.83,301.14c8.8-1.19,12.5,8.07,2.83,8.89-11.04.93-11.78-7.68-2.83-8.89Z"/><path class="cls-28" d="M216.05,214.18c10-1.82,13.35,8.32,2.85,8.87-9.37.49-10.79-7.43-2.85-8.87Z"/><path class="cls-3" d="M324.8,236.68c12.25-2.52,13.65,10.37.56,8.84-6.65-.78-7.3-7.45-.56-8.84Z"/><path class="cls-14" d="M288.8,171.42c11.47-1.99,13.26,11.5-.76,8.65-6.63-1.34-5.26-7.61.76-8.65Z"/><path class="cls-26" d="M247.96,199.55c-3.94-4.23,5.52-9.15,10.99-6.12,8.99,4.97-5.58,11.95-10.99,6.12Z"/><path class="cls-10" d="M179.3,279.43c11.74-2.1,13.04,8.91,2.82,8.88-8.25-.02-10.74-7.46-2.82-8.88Z"/><path class="cls-27" d="M324.8,193.18c11.16-2.3,13.35,8.69,2.83,8.88-8.12.15-10.77-7.25-2.83-8.88Z"/><path class="cls-22" d="M289.58,214.15c9.31-1.28,12.23,8.92,1.94,9.33-9.24.37-10.86-8.11-1.94-9.33Z"/><path class="cls-9" d="M362.99,215.01c9.61-.28,10.25,9.89,0,9.44-9.12-.39-8.95-9.18,0-9.44Z"/><path class="cls-23" d="M175.23,242.28c-4.53-5.31,8.76-9.51,12.94-4.34,4.97,6.14-8.93,9.04-12.94,4.34Z"/><path class="cls-5" d="M261.05,243.06c-3.9,4.25-17.88.77-13.07-4.84s17.89-.42,13.07,4.84Z"/><path class="cls-1" d="M224.3,259.19c.89.95,1.19,3.28.83,4.53-1.36,4.71-16.96,3.81-13.75-3.21,1.65-3.6,10.45-3.94,12.92-1.32Z"/><path class="cls-18" d="M261.02,281.72c4.39,5.17-6.55,10.04-12.5,5.39s7.61-11.15,12.5-5.39Z"/><path class="cls-8" d="M289.58,257.64c10.38-1.41,11.5,9.82,1.37,9.53-8.71-.24-10.09-8.35-1.37-9.53Z"/><path class="cls-21" d="M144.84,256.91c10.36-.84,12.16,10.42-.99,8.85-7.79-.93-6.38-8.25.99-8.85Z"/></svg>