<?xml version="1.0" encoding="UTF-8"?><svg id="public-restrooms" xmlns="http://www.w3.org/2000/svg" viewBox="0 0 512 512"><defs><style>.cls-1{fill:#f8f8f9;}.cls-2{fill:#535556;}.cls-3{fill:#545456;}.cls-4{fill:#f3f4f5;}.cls-5{fill:#5b5b5d;}.cls-6{fill:#f7f7f8;}.cls-7{fill:#363636;}.cls-8{fill:#515255;}.cls-9{fill:#5a5b5e;}.cls-10{fill:#5b5d5f;}.cls-11{fill:#5a5b5d;}.cls-12{fill:#18181a;}.cls-13{fill:#535558;}.cls-14{fill:#eaeced;}.cls-15{fill:#5b5c5e;}.cls-16{fill:#f6f6f7;}.cls-17{fill:#5d5c61;}.cls-18{fill:#e5e5e4;}.cls-19{fill:#1e1e1e;}.cls-20{fill:#313232;}.cls-21{fill:#f8f9f9;}.cls-22{fill:#f6f8f8;}.cls-23{fill:#595b5e;}.cls-24{fill:#53555a;}.cls-25{fill:#555458;}.cls-26{fill:#5c5b5e;}.cls-27{fill:#58585c;}.cls-28{fill:#f7f8f8;}.cls-29{fill:#0a0b0b;}.cls-30{fill:#060606;}.cls-31{fill:#5e5e62;}.cls-32{fill:#020202;}.cls-33{fill:#565659;}.cls-34{fill:#525457;}.cls-35{fill:#262727;}.cls-36{fill:#5c5e62;}.cls-37{fill:#e9e9e9;}.cls-38{fill:#f8f8f8;}.cls-39{fill:#e6e5e4;}.cls-40{fill:#fefefe;}.cls-41{fill:#555659;}.cls-42{fill:#dce0e0;}.cls-43{fill:#f6f7f7;}.cls-44{fill:#f6f7f8;}.cls-45{fill:#1c1d1d;}.cls-46{fill:#5d5c60;}.cls-47{fill:#606164;}.cls-48{fill:#57575a;}.cls-49{fill:#595a5c;}.cls-50{fill:#39393a;}.cls-51{fill:#fefdfe;}.cls-52{fill:#d6d7d7;}.cls-53{fill:#5b5b5e;}.cls-54{fill:#f7f8f9;}.cls-55{fill:#fdfdfd;}</style></defs><path class="cls-12" d="M171.15,133.06l2,.7v195.56s1.17.37,1.17.37c16.12-9.99,32.6-19.46,49.25-28.55,1.11-.61,2.36-.97,3.63-1.32s2.62-.58,3.95-.76c1.64-.69,1.93-.6,1,1,.15,2.4-1.45,4.21-4.79,5.44l-.3,170.82c3.36,4.26,7.82,7.42,13.4,9.48l.69,2.26c.84-1.51,1.51-1.18,2,1l1.23-2.68c1.32-1.24,21.34-13.5,22.66-13.49.86,0,1.56.58,2.11,1.17.38-2.7,1.24-2.58,2,0-.71,1.42-1.39,1.94-2.64,2.84-2.38,1.71-23.52,13.97-24.94,14.17-4.78.69-15.94-8.88-20.42-11.51v-173.5l-51.7,28.81c-4.78-4.32-23.72-11.46-26.3-15.81-.54-1.43-.68-2.47,1-2,3.21-.19,4.21.81,3,3,1.85-1.92,2.29-1.66,2,1,2.01-1.46,3.34-.79,4,2,1.52-2.76,5.96.25,5,3,.25-.72.58-.69,1,0,3.75.98,5.09.65,4-1-.69-1.44-.09-2.83,1.8-4.17l-1.8-.83c-5.66,1.27.18-7.14,4-5,1.06-1.87,1.16-5.54-1.53-5.03l1.53-1.97c-2.31-.4-2.64-2.4-1-6-.61-.3-.6-.63,0-1-1.38-1.5-.76-2.08,1-1,.91-2.03,1.3-4.96-1-6-2.91-.24-2.91-2.57,0-7-.7-.21-.66-.55,0-1-2.06-1.83-1.69-2.46,1-2,.82-1.72,1.35-4.62-1.14-4.6l.14-1.4c-1.22-1.43-.63-1.95,1-1,1.02-1.79,1.17-5.34-1.33-5.1l1.33-1.9c-.88-.25-.86-.58,0-1,.9-1.78,1.17-4.38-1.35-4.25l1.35-1.75c-.88-.25-.86-.58,0-1,.89-1.97,1.31-5.52-1.53-5.03l1.53-1.97c-.88-.25-.86-.58,0-1,.72-1.79,1.48-4.84-1.24-3.88l.24-2.12c-1.56-1.63-1.22-3.63,1-6-1.11-.07-1.11-.74,0-2-.89-.19-.86-.52,0-1,.86-1.78,1.34-4.65-1.21-4.65l.21-1.35c-2.05-1.88-.44-4.21,1-6-1.02-.22-1.02-.88,0-2-2.56-.67-2.89-2.67-1-6-.63-.22-.59-.56,0-1-2.17-.9-1.84-2.9,1-6-1.41-.14-1.41-.81,0-2-2.81-.22-2.37-4.17-1-6v-1c-1.34-1.44-.73-2.01,1-1,.83-2.01,1.51-5.55-1.25-4.87l.25-2.13c-1.36-1.39-.74-1.96,1-1,.19-2.18-.14-4.18-1-6-1.38-1.49-.75-2.08,1-1,.83-2.01,1.51-5.55-1.25-4.87l.25-2.13c-1.22-1.43-.63-1.95,1-1,1.05-1.88,1.16-5.53-1.53-5.03l1.53-1.97c-2.15-.24-2.49-2.24-1-6-.6-.3-.59-.63,0-1-1.38-1.5-.75-2.09,1-1,.91-1.88,1.44-5.53-1.21-5.65l.21-1.35c-1.22-1.43-.63-1.95,1-1,1.08-1.86,1.11-5.3-1.45-5.35l1.45-1.65c-3.17-.71-1.44-4.18,1-5-2.05-.11-2.38-1.11-1-3,1.28-3.14.81-4.91-1.41-5.32l1.41-2.68c-2.62-1.01-1.37-2.76,1-3,1.52-.85,1.86.15,1,3Z"/><path class="cls-35" d="M146.15,133.06c1.68.05,1.91,1.36,2,3,.31-.47.64-.46,1,0,1.62,2.36-1.11,6.03-3,8,2.54-.75,2.76.05,1,2,1.72.39,2.05,2.06,1,5,1.81-1.42,2.38-.85,1,1,.33,2.06-.67,4.39-3,7,2.54-.75,2.76.05,1,2,2.27,1.78.81,3.41-1,5,2.56-.85,3.23-.18,2,2,.71,1.88.04,3.88-2,6,2.55-.74,2.76.05,1,2,1.62,1.65,1.13,3.93-1,5,2.57-.61,3.24.05,2,2,1.26,1.81.6,3.81-2,6,2.51-.62,3.1-.64,2,2,1.22,1.98-.37,3.93-2,5,2.44.24,3.11.91,2,2,.92,2.2-.06,4.64-2,6,1.68.56,1.68,2.23,0,5,1.71.33,1.71,1.33,0,3,2.44-.99,2.72,0,1,2,1.99,1.54,1.36,4.21-1,5,2.46.32,3.13.98,2,2,1.24,2.3-.22,4.44-2,6,2.54-.75,2.76.05,1,2,2.55,1.49.65,3.4-1,5,2.51-.62,3.1-.64,2,2,.07,1.88.07,3.88,0,6h1c.83,2.36-.17,4.7-3,7,2.47-.61,3.14.05,2,2,.22,2.22.22,4.22,0,6,1.65-1.05,1.99-.74,1,1,.58,1.98-.42,3.98-3,6,2.46.33,3.13.99,2,2,1.16,1.84.49,3.84-2,6,2.54-.75,2.76.05,1,2,1.98,1.34.9,4.26,0,6,1.47-1.02,2.02-.56,1,1l.92,1.87c-1.08,1.61-1.78,2.8-.92,4.13h1c.18,2.45-.49,5.11-2,8,1.44-1.31,2-.73,1,1,1.09,1.94.43,3.94-2,6,.9-.31,1.9.06,2,1,.16,2.21.49,4.21,1,6,1.89-1.29,2.44-.74,1,1,1.04,1.94-2.58,5.59-4,7-.08.38-1.06,1.23-1,2-.67-1.12-1.44-1.72-1.07-3.39V117.46c-.47-1.67.58-2.39,1.07-3.39.59,6.07-1.28,13.29,1,19Z"/><path class="cls-29" d="M272.15,275.06c.62-.18,1.09.54,1,1-.15.74-.99,1.42-1.07,3.39-2.68,63.02,2.09,128,.14,191.22.45,1.67-.55,2.36-1.07,3.39l-1-.18-.2-194.14c-1.72-1.77-1.99-3-.8-3.68-.87-2.86,1.46-3.4,3-1Z"/><path class="cls-40" d="M333.15,31.06l-.17,1.08c-52.76,31.68-105.73,63.07-158.91,94.17-2.12,2.88-4.33,2.46-5.92-.25-4.52-.1-6.51-1.12-8-5-2.3-1.27-9.9-5.07-11.02-6.48-.92-1.16-1.4-.82.05-1.99L308.44,17.83c3.36-1.99,6.47.62,9.38,2.06,2.19,1.08,15.89,8.89,16.17,9.8.18.6-.83,1.24-.84,1.37Z"/><path class="cls-8" d="M168.15,126.06l-1,1c-5.85,2.3-11.27,5.83-16.26,10.59l-1.74-1.59h-1c-1.28-2.01-.05-4.05,3.68-6.12-2.11,1.54-3.97,2.66-5.68.12.01-.66-.07-1.35,0-2,2.13-2.62,4.63-4.91,7.5-6.88l2.5.88c.9-.34,3.34.71,4-1,2.41,1.33,6.12,4.11,8,5Z"/><path class="cls-4" d="M146.15,130.06c6.15-.23,8.52-8.54,15-6.99,2.23,1.91-12.62,10.94-13,12.99h-2c-.09-.99.08-2.01,0-3s-.02-2.02,0-3Z"/><path class="cls-19" d="M273.15,276.06c-1.25.66-1.72.21-1-1,.89-1.13,1.8-2.24,2.81-3.24s2-1.96,3.15-2.7c17.38-11.14,35.06-21.87,52.86-32.31,2.23-1.41,4.56-6.29,4.98-8.84l.21-193.43c-.8-.48-1.48-1.31-2.02-2.49-1.88,1.36-2.49.76-1-1-4.11-2.57-14.14-8.61-21.45-11.89-53.64,30.74-107.12,62.24-160.45,94.5l8.78,5.06.11,2.33c2.21,1.52-2.9,2.19-4,1-3.61-1.11-6.94.89-10,6,1.99.23,1.9,1.23,0,2,2.65.96,2.65,2.05,0,3l-1.16-.38c-.62-6.15-.77-12.54.16-18.62.79-1.63,2.15-2.88,3.66-3.84L310.13,14.47l3.71.35c5.07,5.07,21.74,10.64,25.38,15.67.93,1.28,1.09,2.48.99,4.01l-.5,195.61c-1.05,3.42-2.95,6.94-5.62,9.38l-60.94,36.56Z"/><path class="cls-14" d="M156.15,122.06c-3.73,1.41-5.91,6.24-10,6,.58-5.18,6.12-12.42,10-6Z"/><path class="cls-42" d="M146.15,121.06v-4.99c6.14.97,6.14,4.02,0,4.99Z"/><path class="cls-40" d="M243.15,489.06l-1-1.23v-192.44c-.3-.41-.52-.79-.42-1.02.65-1.45,25.23-17.18,26.81-17.09.27.02.54.26.79.58,1.02,64.37,1.08,130.97.81,195.5,0,.24-.44.47-1,.7-4.61,2.1-23.9,14.89-26,15Z"/><path class="cls-51" d="M241.15,488.06c-4.23-1.31-15.47-7.16-16.05-11.45l.26-172.35c2.44-1.11,4.56-2.76,6.79-4.2,1.19-1.98,9.23-6.83,10.1-5.45l-.1,192.76-1,.7Z"/><path class="cls-7" d="M269.15,276.06l2.07,3.41-.07,194.59c-.6.12-1.59-.19-2,0l-.48-195.99c-4,4.57-24.54,12.55-25.5,17.51l-.02,193.48c-.4.02-1.39-.81-2-1v-193c-3.02,1.54-6.16,3.17-9,5l-1-1c12.5-7.33,25.34-15.46,38-23Z"/><path class="cls-54" d="M168.15,294.06c-6,5.54-12.33,10.54-19,15-.74.1-1.86,1.29-2.99,1-.3-2.44.08-5.28,1.99-7,5.58-5,13.3-11.06,20-16-.01,1.04-.22,6.7,0,7Z"/><path class="cls-6" d="M169.15,225.06c-5.95,6.26-13.55,12.26-21,17h-2c-.53-3.68,0-3.94,2-6l-.21-1.53c7.05-4.82,13.79-9.97,20.21-15.47,0,.57.98,3.62,1,6Z"/><path class="cls-1" d="M169.15,277.06c-.11.5-.74.71-1,1l.28,1.68c-6.81,5.42-13.9,10.53-21.28,15.32-2.35-2.84-.29-5.97,2-8l19.42-15.72c.83-.41,1.95,4.71.58,5.72Z"/><path class="cls-6" d="M170.15,144.06c.12,1.77-1.02,3.61-1,5l-.05,1.61c-7.1,5.21-14.28,10.6-21.55,16.17l-1.39-.78c-.32-1.34.15-3.86,1-5,.11-.78.29-1.47.74-1.86,2.59-2.23,20.27-17.33,21.38-16.55l.88,1.41Z"/><path class="cls-16" d="M147.15,176.06c-.26-.54-.43-.99-.31-1.09,2.35-2.05,19.35-16.1,20.63-16.43,2.95-.76,2.79,3.35,1.68,5.52-.04.18-.85.57-1,1-2.07,3.03-19.13,17.03-20.85,16.63-.41-.1-.78-.34-1.15-.63-.33-1.42-.32-4.16,1-5Z"/><path class="cls-1" d="M169.15,210.06c-6.38,6.31-14.1,12.28-21.69,17.52l-1.31-.52c-.24-2.17.11-4.68,2-6-.89-.65-.5-1.29,1.15-1.92l18.85-15.08c1.61,1.61.94,3.95,1,6Z"/><path class="cls-1" d="M169.15,156.06c-.11.5-.75.71-1,1,1.2.85.81,1.5-1.19,1.97-6.26,5.5-12.88,10.65-19.63,15.52-.18.13-.64-.12-1.19-.49-.5-3.59-.1-3.86,2-6-.2-.74-.31-1.38-.04-1.62,2.14-2,19.2-15.8,20.46-16.16.9-.26,1.92,4.82.59,5.78Z"/><path class="cls-1" d="M168.15,218.06c-5.4,5.4-13.74,13.4-20.5,16.76-.3.15-.86-.23-1.5-.76-.33-1.39.16-3.8,1-5-.47-.57-.46-.99.08-1.37,6.95-4.96,13.51-10.16,20.2-15.49.59-.47.97-.73,1.73-.14-.01,2.43-1,5.36-1,6Z"/><path class="cls-21" d="M169.15,269.06c.06.32-.04.67,0,1,.3,2.37-.12,2.99-1.24,1.83-6.22,5.61-12.81,10.67-19.76,15.17-3.5.9-2.26-4.22,0-6,1.64-1.93,19.16-16.84,20.5-16.8,1.13.03,1.47,3.99.5,4.8Z"/><path class="cls-54" d="M169.15,172.06l-.1,1.63c-7.2,5.02-14.35,10.41-21.45,16.17l-1.45-.79c-.5-2.13.59-4.45,2-6l-.51-1.31c7.15-4.95,13.98-10.18,20.51-15.69,1.75,1.59.74,4.03,1,6Z"/><path class="cls-54" d="M169.15,262.06c.05.33-.04.67,0,1,.4,2.47-.03,3.07-1.28,1.81-6.76,5.67-13.66,10.74-20.72,15.19-1.71-2.06-1.24-3.81,0-6-.27-.56-.45-1.03-.32-1.14,2.11-1.9,20.43-16.8,21.8-16.67,1.22.12,1.52,4.91.52,5.81Z"/><path class="cls-22" d="M169.15,187.06c-.05.19-.85.57-1,1l-.06,1.6c-6.84,4.79-13.69,9.87-20.53,15.24l-1.41-.85c.26-3.52-.83-3.38,2-6-.05-.65-.02-1.21.27-1.45,2.64-2.18,18.95-15.1,20.17-15.45s1.69,4.8.56,5.91Z"/><path class="cls-38" d="M168.15,233.06c-1.35,2.83-19.34,16.95-20.81,16.65-.42-.09-.81-.34-1.19-.65-.6-2.47,1.19-5.43,3-7,6.11-5.5,12.78-10.5,20-15-.08,2.02.73,4.68-1,6Z"/><path class="cls-1" d="M146.15,209.06l1.57-4.2c1.35-1.49,18.7-15.24,19.9-15.62,1.47-.47,2.16,3.45,1.52,4.82-.25.4-.7.66-1,1,.33.56.55,1.08.43,1.51-.37,1.28-18.34,14.16-21.18,15.95-.23.14-.7-.1-1.25-.46-.14-.9.04-2.02,0-3Z"/><path class="cls-44" d="M170.15,129.06c.08.17.02.68,0,1-.06,1.06-1.02,2.6-1,3,.18,2.6-.34,3.48-1.54,2.62-6.35,5.64-12.84,10.77-19.46,15.38-.47.09-1.73,1.42-1.99,1l.99-6c.1-.67.26-1.26.64-1.63,3.19-3.01,17.42-15.19,20.44-15.92.67-.16,1.39.11,1.92.54Z"/><path class="cls-28" d="M169.15,179.06c-.11.5-.75.71-1,1,.34.54.58,1.05.47,1.46-.34,1.25-19.35,15.3-20.64,15.46l-1.83-.92c-.75-3.05.47-3.46,2-5-.17-.78-.24-1.45.04-1.7,2.59-2.25,19.11-15.71,20.39-16.1.87-.27,1.88,4.78.56,5.8Z"/><path class="cls-54" d="M148.15,251.06c-.37-.68-.62-1.23-.49-1.34,2.07-1.85,18.48-15.01,19.69-15.28,2.93-.66,2.91,2.46,1.8,4.63.02.33,0,.67,0,1-5.84,6.47-13.94,12.38-21,17-1.52-.32-2.14.91-2.05-1.52.07-1.82.95-3.17,2.05-4.48Z"/><path class="cls-16" d="M169.15,202.06c-.02.07-.71.67-1,1-2.09,2.67-18.98,16.97-20.63,16.78l-1.37-.78c-.32-1.34.15-3.86,1-5-.27-.57-.44-1.04-.32-1.14,2.34-2,19.65-15.77,20.9-16.2,2.64-.92,2.43,3.34,1.42,5.34Z"/><path class="cls-1" d="M168.15,248.06c.39.49.67.96.6,1.37-.22,1.27-19.37,15.02-20.59,15.46l-2.01-.84c-.89-3.67,1.09-4.24,3-6,5.46-6.17,12.87-11.91,20-16-.19,2.53.7,3.66-1,6Z"/><path class="cls-1" d="M169.15,254.06c.06.32-.04.67,0,1l-.14,1.7c-7.17,4.92-14.31,10.15-21.42,15.7l-1.44-.4c-.28-2.5.42-4.15,2-6-.25-.6-.42-1.09-.28-1.21,2.53-2.09,19.4-15.57,20.69-15.71,1.37-.15,1.53,3.76.59,4.92Z"/><path class="cls-54" d="M169.15,300.06c-.05.19-.85.56-1,1-6.21,6.02-13.3,12.07-20.08,17.07l-1.92-1.07c.24-1.22-.23-2.34.52-3.94.71-1.51,2.4-2.1,3.48-3.06,1.86-3.37,18.14-16.46,19.21-15.24.79.89.53,4.11-.21,5.24Z"/><path class="cls-21" d="M148.15,296.06c3.89-4.37,8.67-8.27,14.33-11.71,6.19-6.52,8.42-6.61,6.67-.29-.03.46-1,1.41-1,2-.15.37-.34.71-.6.95-3.9,3.52-15.96,14.29-20.08,15.34-.39.1-.84-.06-1.31-.29-.54-2.06.64-4.48,2-6Z"/><path class="cls-28" d="M169.15,308.06c.35,2.63-.08,3.23-1.3,1.78l-13.8,10.38c-.15,1.21-1.12,1.5-2.9.85-.63-.36-1.5-.61-2-1-.64-.75-.99-1.7-.4-2.21,6.25-5.45,12.84-10.96,19.4-15.79,1.75,1.59.74,4.03,1,6Z"/><path class="cls-52" d="M169.15,315.06c-.32,1.06-4.26,2.94-4.98,4.51l.98.49c.68,2.43-.99,4.43-5,6-.28-.1-3.38-2.22-5-3l-2.35-1.9c-.11-.98,13.71-10.71,15.77-11.86.77-.43,1.97,4.82.58,5.76Z"/><path class="cls-33" d="M168.15,188.06c2.86,1.43,2.65,3.33,1,6l-1.49-3.99c-6.76,6.53-16.07,11.48-21.51,18.99-.07-1.61-.12-3.4,0-5,8.25-3.31,14.3-11.37,22-16Z"/><path class="cls-24" d="M169.15,262.06c-.22-1.48.62-3.93-.5-5l-21.5,17c-.2-.64-.94-1.45-1-2,8.51-4.02,15.11-11.82,23-17,.25,1.83,2.58,5.2,0,7Z"/><path class="cls-10" d="M169.15,156.06c.22-1,.3-4.17-.5-5-5.83,6.19-14.75,11.13-20.5,17-.48-.56-1.87-1.44-2-2,8.77-3.43,14.99-12.11,23-17,.02,1.43,2.71,5.33,0,7Z"/><path class="cls-49" d="M169.15,179.06c.22-1,.3-4.17-.49-4.99-6.17,5.8-14.65,11.11-20.51,16.99-.48-.56-1.87-1.45-2-2,8.58-3.58,14.93-12.19,23-17,.24,1.83,2.58,5.2,0,7Z"/><path class="cls-15" d="M168.15,180.06c2.73,1.02,2.91,5.1,1,7,.23-.91.29-4.21-.49-4.99-6.06,5.57-14.63,10.54-20.51,15.99-.48-.56-1.86-1.44-2-2,2.44.22,4.14-1.28,5.91-2.59,3.59-2.65,13.53-10.46,16.09-13.41Z"/><path class="cls-53" d="M169.15,141.06c-.88-.42-2.07-.89-2.78-.37-4.88,3.56-9.62,7.39-14.24,11.28l-2.98.09c.16-.65-.45-1.1-1-1l21-18c.13,2.62,2.58,4.41,0,8Z"/><path class="cls-48" d="M168.15,195.06c2.73,1.02,2.91,5.1,1,7,.23-.91.29-4.21-.49-4.99l-21.51,16.99c-.21-.65-.91-1.42-1-2,6.66-4.21,16.81-11.13,22-17Z"/><path class="cls-31" d="M168.15,248.06c2.43.91,3.06,4.12,1,6-.21-1.16.61-3.37-.49-3.99-5.16,5.43-16.02,10.75-20.51,15.99-.48-.56-1.86-1.44-2-2,2.37.48,3.05-.93,4.51-1.98,3.68-2.65,15.35-11.06,17.49-14.02Z"/><path class="cls-2" d="M168.15,157.06c2.73,1.02,2.91,5.1,1,7,.2-.84.76-5.92-1.49-4.99l-20.51,16.99c-.2-.64-.92-1.44-1-2,6.4-4.11,17.07-11.35,22-17Z"/><path class="cls-46" d="M168.15,233.06c2.43.91,3.06,4.12,1,6-.08-1.49.99-4.5-1.49-3.99-4.51,5.82-15.24,10.9-19.51,15.99-.48-.56-1.86-1.44-2-2,8.48-2.82,14.55-11.27,22-16Z"/><path class="cls-47" d="M168.15,278.06c2.57,1.08,2.91,3.85,1,6,.09-1.28.86-4.58-1.49-3.99-4.21,6.51-15.01,10.99-19.51,15.99-.29-.37-.7-.64-1-1,6.15-5.82,15.49-10.71,21-17Z"/><path class="cls-25" d="M169.15,269.06c-.21-1.16.61-3.37-.49-3.99l-20.51,15.99c-.29-.37-.7-.64-1-1l22-17c.18,1.51,2.52,4.52,0,6Z"/><path class="cls-9" d="M168.15,294.06c.06.08,1.75-.38,2.02.64.35,1.31.36,4.68-1.02,5.36.23-.91.29-4.21-.49-4.99-6,5.13-12.6,9.79-18.51,14.99.18-.61-.53-1.07-1-1,6.06-5.09,12.06-11.17,19-15Z"/><path class="cls-13" d="M170.15,144.06c-1.86-1.57-2.28-.08-3.5.97-6.4,5.45-12.49,11.33-19.5,16.03-.2-.64-.94-1.45-1-2,3.66-5.1,8.64-9.45,14.94-13.07,2.8-3.32,5.49-4.96,8.06-4.93.11.77.92,1.79,1,3Z"/><path class="cls-36" d="M169.15,277.06c.22-1,.3-4.17-.5-5-5.3,5.14-11.44,9.22-17.02,14.02-.86.74-2.24.76-2.49.97h-1l21-17c.25,1.83,2.58,5.2,0,7Z"/><path class="cls-34" d="M168.15,302.06c-5.17,6.8-14.79,10.62-19,18-.8-.62-2.22-2.17-3-3,1.27.05,2.49-.21,3.54-.95,6.12-4.36,11.77-11.18,18.46-15.05v1Z"/><path class="cls-11" d="M168.15,166.06c-1.04,1.72-2.48,3.21-3.99,4.51-4.27,3.67-12.58,8.71-16.01,12.49-.47-.55-1.88-1.46-2-2,8.51-2.73,14.35-11.58,22-16v1Z"/><path class="cls-26" d="M168.15,219.06c-5,7.27-14,10.82-20,17-.48-.56-1.87-1.44-2-2,8.13-3.45,14.77-10.89,22-16,0,.33,0,.67,0,1Z"/><path class="cls-17" d="M169.15,242.06c-6.4,5.25-13.95,10.45-20,16-.16-.43-.57-.91-1-1l21-17c.02.66.05,1.35,0,2Z"/><path class="cls-5" d="M169.15,210.06c.02.66,0,1.33,0,2l-22,17c-.2-.64-.94-1.45-1-2,8.75-3.64,14.7-12.51,23-17Z"/><path class="cls-23" d="M168.15,287.06c-5.32,5.57-11.72,9.97-17.51,15.03-.86.75-2.25.76-2.49.97-.96.08-1.69.16-2-1,8.18-3.68,14.41-11.25,22-16,0,.33,0,.67,0,1Z"/><path class="cls-27" d="M168.15,204.06l-20,17c-.48-.56-1.87-1.44-2-2,2.34.43,3.04-.84,4.53-1.97,3.98-3.04,14.78-10.92,17.47-14.03v1Z"/><path class="cls-3" d="M169.15,315.06c.24-.8.28-4.27-.49-4.99-4.2,3.46-8.53,6.82-12.61,10.42-1.22,1.08-2.95-.27-.89,2.57-1.59-.76-2.34-1.05-4-2l18-13c.24,1.83,2.58,5.2,0,7Z"/><path class="cls-46" d="M169.15,227.06c-6.07,4.33-11.86,9.17-17.53,14.01-.84.72-2.2.76-2.47.99h-1l21-17c0,.66.03,1.34,0,2Z"/><path class="cls-37" d="M165.15,320.06c6.75-5.14,4.67,2.62,0,5,.41,2.07-.92,2.41-4,1-.35-.01-.76.08-1,0,.09-1.68,3.55-4.9,5-6Z"/><path class="cls-39" d="M165.15,325.06c.23-.04,1.82,1.64,3.99-1v7s-7.99-5-7.99-5c1.8.08,2.78-.79,4-1Z"/><path class="cls-43" d="M169.15,141.06c-3.91,5.45-17.16,13.84-23,18-.44-3.89.72-4.68,3-7,5.42-5.52,13.7-10.55,19.51-15.99,1.11,1.07.28,3.51.49,4.99Z"/><path class="cls-43" d="M167.15,127.06v1c-6.15,5.93-12.75,11.48-19.8,16.65l-1.2-.65c-.32-2.74,1.04-6.13,3-8,.22-.21,1.68-.22,2.5-.96,3.66-3.33,10.34-11.03,15.5-8.04Z"/><path class="cls-41" d="M170.15,129.06c-2.37-.49-3.05.93-4.51,1.99-6.45,4.63-11.98,10.46-18.49,15.01-.2-.64-.94-1.45-1-2,5.99-1.5,16.42-14.99,21-16,1.08-.24,2.45-.21,3,1Z"/><path class="cls-55" d="M334.15,32.06c1.15.19,3.83-.62,4.02.58l-.26,195.68c-1.14,3.75-2.49,7.79-5.84,10.16-20.32,11.5-40.05,24.74-59.92,36.58-.6.36-1.99.4-3,1-7.9,5.88-16.2,11.31-24.89,16.29-3.57,2.95-7.94,5.18-13.11,6.71-18.6,10.91-37.82,20.87-56.06,32.44l-3.94.56v-199s.12-4.36.12-4.36c52.82-32.07,111.35-67,162.88-96.64Z"/><path class="cls-20" d="M334.15,32.06c-2.45,2.94-6.42,4.85-9.7,6.8-50.02,29.69-100.06,59.36-150.28,88.72l-3.02,5.48-1-3c-.84-.26-.82-.59,0-1-1.11-.3-2.11-.64-3-1-.87-.28-.86-.62,0-1-1.32-1.34-.75-1.78,1-1,1.04.49,2.58.72,3.69.24L333.15,31.06c-.03.93.24.88,1,1Z"/><path class="cls-40" d="M181.15,136.06l147-87v179.5l-144.99,86.03-2.01-2.53c-3.32-57.51,2.49-118.16,0-176Z"/><path class="cls-50" d="M180.15,135.06c1.19-2.15,25.3-16.16,29.69-18.81,34.35-20.66,69.01-41.18,103.64-61.36,5.31-3.1,10.92-6.74,16.67-8.83v183.5l-147,87.5c-2.95.79-3.59-3.51-2-5,.91-.51,1.87-.92,2.62-.16l142.31-84.44,2.07,1.1-2-.69V51.77l2-2.71-1.31,3.1c-47.89,28.34-95.76,56.67-143.62,85l-2.07-1.1c-1.06,1-1.05.42-1-1Z"/><path class="cls-45" d="M181.15,136.06c2.59,10.03,3.47,20.49,2.64,31.38-1.25,45.24-1.2,90.44-1.08,135.67,0,3.05-.74,6.04-1.56,8.96.13,2.32-.72,3.82,2,5l-2.99,1c-1.32-10.14-.98-20.31-1.05-30.54-.23-36.03.36-72.71,0-108.92-.07-7.01-1-39.87,1.04-43.54l1,1Z"/><path d="M307.15,160.06v-30l-2.83,1.67-.26,82.74c-.66,4.17-4.14,10.84-9.19,9.44-.71-.2-2.72-2.01-2.72-2.35v-40.5c-2.63-.78-2.84,2.63-3,4.49-1.01,11.71,2.11,30.45-.21,40.8-1.48,6.6-10.79,7.42-10.79,5.71v-83c-3.49-1.15-3.57,2.37-3.88,5.62-.62,6.4,1.54,20.31-.39,24.61-1.47,3.27-7.73,6.99-7.73,3.27v-38c0-.67,2.85-6.39,3.56-7.44,3.87-5.65,30.75-23.11,37.36-24.63,4.9-1.13,8.13-.24,9.02,5.13.93,5.67.89,30.13,0,35.88-.82,5.27-3.56,7.58-8.94,6.56Z"/><path d="M198.15,218.06c-2.32,5.71-8.51,9.88-8.02.54.27-5.16,6.37-30.42,8.29-35.76.86-2.38,2.63-5.87,4.29-7.71,1.98-2.21,23.75-15.48,26.19-15.9,3.95-.67,5.09,2.03,6.45,5.14,1.81,4.15,6.95,21.14,7.57,25.45.91,6.31-4.46,11.22-8.54,7.01-1.75-1.81-4.74-17.29-6.24-20.76l-2,2.49,14.08,40.82-11.91,7.34c-1.58,10.73,1.67,25.4-.39,35.61-1.21,6.02-8.77,8.7-8.77,5.23v-36.5c-1.89.82-3.58,1.27-4.01,3.49-1.96,10.2,1.65,25.96-.19,36.81-.26.88-4.1,4.94-4.84,5.25-.96.4-3.96-.34-3.96-.54v-37l-13,4.99c2.61-7.46,3.91-15.4,6-22.99.73-7,2.27-13.9,4.63-20.72.52-.8-4.63,17.8-5.63,17.72Z"/><path class="cls-30" d="M247.15,123.56c.42-2.49,4.62-4.26,6.99-4.5.15,2.88.89,5.54,1.05,8.45,2.1,38.65-1.68,79.21-.03,118.06.05,4.56-4.03,6.81-8.02,7.48V123.56Z"/><path class="cls-32" d="M292.86,94.28c18.43-4.25,5.37,26.9-6.96,24.63-10.21-1.88-.88-22.82,6.96-24.63Z"/><path class="cls-32" d="M225.91,139.3c6.25,6.23-6.56,26.37-15.74,22.25-10.58-4.75,7.07-30.89,15.74-22.25Z"/><path class="cls-18" d="M198.15,218.06c-.18-2.39,5.68-25.81,6.93-28.57,3.96-8.78,2.27,3.41,1.58,6.57-1.85,8.47-5.22,16.7-7.5,25,.52-1.14-.98-2.69-1-3Z"/></svg>