<?xml version="1.0" encoding="UTF-8"?><svg id="spray-showers" xmlns="http://www.w3.org/2000/svg" viewBox="0 0 512 512"><path d="M299.76,75.69c-7.04,3.21-14.56,7.03-12.01,16-3.72,1-1.22-3.92-2-4.99-3.34,1.25-6.18,3.68-9.99,3l-4.52,120.01c1.7-39.77-1.56-79.79,3.6-119.37-7.22-2.07-14.91-9.34-12.43-17.47.63-2.05,5.22-7.79,7-9.03,3.36-2.33,10.33-2.9,15.03-4.97,9.85-4.34,25.49-13.31,35-19,5.02-3.01,8.76-6.29,13.49-9.51,12.04-4.28,20.22,13.25,14.08,22.08-1.7,2.44-5.76,2.99-5.94,4.73-.11,1.07,2.98,9.74,3.42,12.29,2.38,13.61,3.79,29.86,4.31,43.69,1.49,39.28-1.15,79.55-.11,118.93l6.05,2.61v-52.52s2.01-1.48,2.01-1.48v54.5c27.08,15.81,56.36,28.05,83.69,43.31,15.42,8.61,23.57,13.41,28.81,31.19,8.48,28.8,11.72,70.56-16.8,89.19-40.24,20.3-79.24,43.44-119.67,63.33-31.38,15.44-55.31,15.46-89.48,15.52-24.43.04-47.38.02-70.21-9.87-38.34-16.6-75.8-41.49-114.02-58.98-29.29-18.16-27.19-65.09-17.34-93.73,3.7-10.76,11.07-16.86,20.37-22.63,25.17-15.64,54.33-28.1,80.23-42.77,2.89-2.66-.71-5.53,4.48-2.48l25.96-14.08v-39.5c-6.91-.51-6.89,4.92-10.49,8.01-3.29,2.83-8.64,3.11-10.55,4.47-1.6,1.14.24,4.33-2.96,3.5l1-3.98c-10.23-.65-16.43-12.01-10.44-20.94,5.19-7.73,10.01-6.6,17.16-8.84,5.16-1.62,38.85-19.84,43.63-23.37,2.39-1.76,3.04-4.4,5.26-5.74,11.42-6.89,22.07,7.56,17.63,18.62-2.68,6.68-23.58,9.67-29.24,15.76v42.5c6.27-2.72,15.05.72,13.01-9,2.25.16.37,5.39.98,6,.46.46,11-.34,13.01,0,.28-3.29-1.1-6.15-1.06-9.46.01-1.03.43-4.58,2.05-4.54v14h6s.49-9.01.49-9.01c1.24.01.06,9.01.51,9.01h35v-27h2v27c4.18,1.65,5.18-1.94,5.51-2.01,2.26-.47,1.16,1.36,1.7,1.74,2.14,1.5,22.42-.56,26.79.27V75.69ZM342.75,48.68c2.12-4.8-1.1-13.03-6.99-12.98l4.56,5.93,2.43,7.05ZM334.46,40.98c-1.01-.89-2.13-1.19-3.39-.55l-45.31,23.27,4.01,9.99,3.71-.78,41.81-23.18c2.76-2.03,1.3-6.87-.83-8.74ZM339.65,57.81c-2.73-1.86-18.15,4.15-18.86,8.4l-.03,155.48c10.14-.75,18.01,5.92,27,8.99-.51-29.48.68-59.06.05-88.54-.43-19.9-.66-41-3.18-60.82-.43-3.34-3.45-22.49-4.98-23.53ZM284.76,80.69c1.2-6.04-2.48-13.26-8.99-13.99l8.99,13.99ZM314.5,318.44l.25-250.75c-2.93,2.32-8.97,3.29-9.05,7.44l.54,242.56c1.32,2.2,6.5,2.21,8.25.74ZM276.77,84.69c6.05-3.87-3.99-18.36-8.01-10.01,6.49-1.37,8.2,4.75,8.01,10.01ZM217.75,163.68c2.15-5.15-1.02-12.41-6.98-12.99l3.87,4.62,3.12,8.36ZM160.77,179.7l5.49,9.96,43.47-23.51c4.4-2.8,1.2-11.65-3.97-10.05l-45,23.6ZM150.77,184.67c.1.12,1.62.16,2.39,1.08,1.96,2.34,5.48,10.91,6.1,10.92,3.27.06,1.29-15.07-7.99-13.99-.88.1-.66,1.8-.5,1.99ZM187.52,384.44l.24-199.75c-1.34,1.19-8.39,3.56-8.8,4.19-.45.7-1.15,7.68-1.24,9.26-3.46,59.48,2.73,122.27,0,182.1-.2,4.53,6.82,7.12,9.8,4.2ZM153.76,199.69c.97-5.71-2.65-12.48-8.99-11.98,1.21,2.26,3.98,2.75,5.46,5.03,1.99,3.05.29,7.3,3.53,6.96ZM142.77,192.7c-1.05,1.08,2.33,6.95,3.49,6.97,3.78.08-.71-9.85-3.49-6.97ZM213.53,227.03c-1.89-.78-3.83-.24-5.77-.34v7c-2.25-.16-.37-5.39-.99-6-.43-.42-11.36.97-12.06,1.44-1.95,1.31-.53,8.98-.93,11.56,8.76-3.53,17.05-8.2,27-6.99v-6.01c-2.27-.79-4.97.83-6.57.89-.47.02-.37-1.42-.66-1.55ZM227.71,226.75c-.18-.17-4.78-.24-4.95-.06-.25.25.45,5.55-1,7h7c-.3-1.19-.8-6.69-1.05-6.93ZM263.76,226.69h-31.5c-3.37,0-2.57,4.64-2.5,7h34v-7ZM270.76,226.7c-6.38-.17-5.11,2.81-5,8h5.01s-.01-8-.01-8ZM272.76,233.69h27c-.27-1.42.51-5.16-.11-5.9-2.11-2.51-22.35.36-26.9-1.11v7ZM347.76,247.69c-.4-3.08,1.08-8.2-.98-10.51s-23.92-11.55-26.02-9.49l.12,7.89,26.88,12.11ZM354.6,240.85c-.17-.26-5.48-2.54-5.83-2.15.53,2.87-.74,7.97-.07,10.39.1.36,6.72,2.86,7.06,2.6-2.16-2.63-.06-9.09-1.16-10.83ZM220.77,239.69c-3.41.11-6.86-.3-10.26.25-1.95.31-16.1,6.16-16.58,6.92-.99,1.58.37,9.3-.15,11.84,1.63-1.4,12.44-5.54,12.82-6.16.96-1.53.04-6.02-.83-7.83,3.9-.92,1.24,6.63,2.9,7.52,2.58-.44,9.86.8,11.51.43,2.26-.5-.31-10.42.59-12.97ZM228.77,239.67h-6.02s.01,13.04.01,13.04h6.02s-.01-13.04-.01-13.04ZM263.76,239.69h-34v13h34v-13ZM270.77,239.67h-5.02s.01,13.04.01,13.04h5.02s-.01-13.04-.01-13.04ZM299.76,239.69h-27v13h27v-13ZM172.76,240.7c-.63-.71-16.19,7.57-17.01,8.48-.91,1.01-1,2.24-1,3.51h-.98c.84-4.01-4.63-.51-6.53.98-6.38,4.97-12.61,6.64-20.36,10.65-17.97,9.29-37.36,19.13-54.79,29.21-10.49,6.06-19.96,10.51-24.37,22.63-5.57,15.31-9.38,34.99-.38,49.46,10.44,16.78,48.01,32.97,66.4,42.6,29.56,15.49,68.44,39.26,101.53,41.47,28,1.87,72.4,1.74,98.7-7.28,41.91-23.57,91.88-43.17,132.1-68.9,25.82-16.52,25.93-33.64,17.82-61.43-2.38-8.14-5.39-14.5-12.1-19.9-10.95-8.81-36.45-20.02-50.01-26.99-12.01-6.18-30.56-17.37-42.31-21.69-1.25-.46-2.27-1.08-3.71-.78l1.98,10.51,75.49,39.51c4.92,4.12,7.98,8.87,10.03,14.97,3.6,10.71,7.94,31.86,4.27,42.29-3.92,11.13-11.17,15.75-20.76,21.24-28.8,16.49-61.25,33.08-91,48-17.55,8.8-36.41,19.03-56.48,20.52-27.46,2.03-69.58,2.53-94.41-8.66-35.21-15.86-69.89-38.37-105.04-54.96-21.64-14.9-20.71-34.23-13.61-57.44,4.07-13.29,10.51-16.7,21.85-23.15,14.88-8.46,30.84-15.74,45.99-23.76l1.69-7.06,1.48,4.99,34.52-18.48c2.06-2.31.58-7.43.98-10.51ZM346.6,253.85c-.76-1.22-22.53-11.68-25.83-12.15.53,2.55-.83,10.25.16,11.84.72,1.15,22.59,11.61,24.37,12.14,1.87.55,1.32-.31,1.47-1.46.2-1.51.25-9.7-.16-10.36ZM354.75,270.69c.53-7.5,4.02-13.4-5.98-15,.52,2.52-.83,10.29.15,11.84.18.28,4.92,1.93,5.83,3.16ZM172.76,257.69c-1.47-1.5-23.07,12.54-26.96,13.53-2.07,1.16-2.13,3.26-2.04,5.47l-.99-3.01c-1.51,0-2.91.63-4.23,1.27-15.09,7.38-44.35,21.63-57.1,30.9-6.91,5.03-8.71,10.79-10.65,18.84,20.8-12.33,42.58-22.99,63.66-34.83,2.39-1.35,4.35-3.4,6.42-4.58,2.82-1.6,9.62-3.41,12.3-5.48,1.25-.97.5-2.77.62-4.11l1.48,2.99c2.27-2.15,16.45-7.74,17.34-9.15.99-1.56-.37-9.31.16-11.84ZM193.76,367.69v17.5c0,2.14-6.82,5.49-9.49,5.59-2.99.1-11.51-2.64-11.51-5.59v-27.5c-11.34.27-22.19,7-27.5,17-1.31-4.82,6.64-11.06,10.59-13.41,3.58-2.13,16.83-5.27,16.97-6.16.23-1.41.88-6.58-1.55-6.43-7.9.47-15.47,4.47-22.42,7.6-1.67.75-3.2.87-1.07-1.07,7.64-4.09,16.04-7.93,24.99-7.51v-24c-14.13-2.23-28.35.42-42,3.99,5.1-4.87,14.14-3.88,20.5-5.99h21.5v-14.5c0-.11-1.39-1.5-1.5-1.5h-16c-.96,0-4.13,3.02-3.5-.99,7.31-.93,13.7-.51,21,0v-29l-37.29,19.94-1.72,6.05-1-3.99c-1.74.81-3.6,1.34-5.35,2.14-8.41,3.87-50.17,25.81-54.08,30.91-2.15,2.8-5.8,12.45-6.16,15.93-.81,7.82,8.49,19.98,14.91,24.21,17,11.22,39.62,18.96,57.22,29.79l1.48-.48c-2.87-3.36-5.9-7.85-6.75-12.24-.36-1.88-1.41-6.16,1.75-5.26-1.18,7.55,2.92,12.05,7.05,17.53.66.88-.11,1.83.59,2.51,2.92,2.82,42.59,22.62,48.7,25.13,31.52,12.95,93.99,9.15,125.03-5.31,25.66-11.95,53.47-27.8,78.66-41.34,9.48-5.1,34.52-16.72,40.49-23.51,2.23-2.53,6.69-9.19,6.47-12.38-.26-3.73-9.26-25.12-11.96-28.16-4.44-5.01-14.07-7.74-20.07-10.93-17.97-9.54-35.94-19.11-53.96-28.54v14c-4.15.71-.97-5.27-1.01-7.49-.08-5.09-1.18-9.5-6.99-9.5l.99,8.99-3,.02c-.8-2.73,1.45-10.11-.23-11.75l-25.77-12.26v14l15.01,4.5c-.07,2.41-13.37-4.13-15.01-2.5-1.95,8.52,5.69,7.29,11.8,9.75,1.51.61,2.71-.59,2.19,2.25l-13.99-4v15c0,.53,8.93,1.4,10.01,3.51.33,2.63-1.12.91-2.48.46-2.51-.82-4.65-2.45-7.53-1.97v18.5c0,6.97-21,6.82-21-1v-19.5c-1.24-.23-11.93,4.71-12.01,2.5,3.54-2.18,7.83-3.39,12.01-3.5v-15l-13.01.5c3.73-2.1,8.79-1.7,13.01-2.5v-23h-27c-.33,4.64.94,9.64-1,13.99l18.99-.98c.43,1.01-2.33,1.99-2.49,1.99h-17c-2.89,0,.4-5.75.56-7.49.47-5.13-.17-8.85-6.06-7.51-.88.84,1.95,8.14-1.99,7-.26-.93.34-6.99,0-6.99h-34c-1.26,4.29,2.47,11.85-1,14v-14c-1.43-.26-6-.03-6,1.5v17c0,3.29,7.21-2.04,8.47-2.53,3.26-1.25,7.06-2.57,10.53-2.96-1.75,3.27-9.85,3.23-11.51,5.98-1.56,2.59.72,8.72-.49,12.01,7.31-2.91,13.9-8.04,21.99-8.99l-22,11.49v22.5c-1.76.22-.95-2.26-1-3.49-.18-4.29.89-13.65.01-16.86-.26-.95-1.94-.58-2-.67-.35-.5,1.54-1.62,1.79-2.71.63-2.8-.45-9.95.19-13.26l-5.64,3.45-.22,58.91c.3,1.47,5.52,3.01,5.86,2.63l1-4.99c-1.36,7,5.18,7.58,9.74,10.77,2.21,1.55,8.09,4.88,6.78,7.22-5.05-3.54-9.5-8.06-15.51-9.99v15h-2v-17c0-.3-5.26-.79-5.99-1l-1,8.99c-.41-1.91.6-9.08-.11-9.9-.43-.5-7.71-1.42-8.91-2.6l9.01.5v-58c-8.01,2.46-13.56,9.09-19.99,14-1.43-1.5,4.99-5.72,5.44-6.95.56-1.5-1.26-6.75-.45-9.05,4.33-1.2-1.32,6.29,2.51,6.99,3.46.63,7.08-8.1,5.49-10.99l1,6.99c1.2-1.2,4.92-2.09,5.52-2.97.7-1.01.87-17.75.33-19.4-.76-2.31-3.92-1.61-5.86-1.64v8c-3.02-1.02-.32-8.01-3.5-8.03-6.31-.04-13.47,4.26-18.52,7.74l-.05,89.68c.36,1.31,9.38,1.64,10.06,4.6l-10-1.99c-1.7,9.56,3.53,7.89,9.32,11.18,5.26,2.98,9.74,7.9,9.71,14.31,0,1.99-.1,1.61-2.03,1.51,1.42-9.04-8.88-16.57-17-17ZM439.75,321.69c-.42-9.01-2.73-18.6-10.08-24.41l-72.9-38.59c.54,3.53-1.24,11.02.98,13.51l73.35,37.65,4.08,3.92,4.58,7.9ZM42.77,370.69c.16,10.09,6.97,24.25,15.06,30.43,39.32,18.89,78.5,44.36,118.26,61.74,30.37,13.28,111.6,12.54,142.35,0,41.34-22.98,85.04-42.39,126-66,14.78-8.52,21.77-18.39,24.34-35.66l-12,12c-42.74,22.66-86.81,50.25-130.8,70.2-30.5,13.83-81.14,13.59-114.7,11.28-27.91-1.92-51.89-16.53-76.19-28.81-23.2-11.72-52.44-25.38-73.99-39.01-7.64-4.83-12.2-9.71-18.32-16.17Z"/><path d="M221.76,204.69c-3.05.47-1.63-.75-1.95-2.52-1.74-9.69-1.69-19.85-4.04-29.47,2.18.75,2.3,3.87,2.71,5.78,1.85,8.57,1.85,17.59,3.27,26.21Z"/><polygon points="228.76 332.69 228.76 314.69 230.72 329.34 228.76 332.69"/><path d="M354.76,125.69l2.05,14.45c-.66,6.36.74,13.88-.05,20.07-.23,1.82.34,1.62-2,1.48v-36Z"/><path d="M265.76,178.69h-2v-25.5c0-.88,1.86-3.63,1.01-5.5h.99s0,31,0,31Z"/><path d="M355.76,109.68c-2.91.44-1.76-.57-1.99-2.49-1.1-9.42-1.62-19.03-2-28.5l1.87,8.61,2.11,22.38Z"/><path d="M267.76,108.7c-.83,6.37-.47,13.02-1.12,19.37-.1,1.02-.4,4.7-1.87,4.62.54-6.99.12-15.72.99-22.51.18-1.38.75-3.13,2-1.48Z"/><path d="M165.76,408.7c18.91,5.58,41.3,5.33,56.99-8.01,1.89,2.01-7.53,7.12-8.78,7.71-12.68,5.89-31.71,7.35-44.82,2.41-1.27-.48-3.07-.21-3.39-2.1Z"/><path d="M332.26,383.69c7.35-.75,15.68-4.53,22.99-6.02l-6.52,3.48c-15.94,4.99-31.55,5.59-47.96,2.53,1.24-2.94,7.32,0,8.5,0,7.18,0,16.1.7,23,0Z"/><path d="M244.76,379.7c3.24,18.23-12.83,31.51-28.99,34.99-.55-3.04.9-1.54,2.35-2.09,12.38-4.71,25.11-12.51,25.72-27.42.1-2.41-2.75-6.26.91-5.48Z"/><path d="M292.26,359.69c-6.27-.64-15.73-3.83-21.56-6.46-.7-.32-3.01-.56-1.43-1.56,14.51,6.24,28.9,6.65,44.48,6.03.06.93-5.2,1.99-5.49,1.99-5.04,0-11.16.49-16,0Z"/><path d="M326.26,343.69c6.8-.93,15.2-5.38,20.99-9.01.44,1.73-2.6,3.48-3.8,4.2-11.54,6.94-25.77,7.06-38.69,5.8-.64-4.01,2.53-.99,3.49-.99,5.4,0,12.98.68,18,0Z"/><path d="M367.76,352.68c10.48-7.84,20.3-16.89,20.49-30.98,2.88,2.53.24,8.96-1,11.99-2.86,6.94-11.96,17.16-19.49,19Z"/><path d="M262.77,417.69l8.4-9.09,4.46-7.54,3.12-15.36c2.85,12.98-4.99,25.52-15.98,31.99Z"/><path d="M392.76,355.68c5.28-6.14,11.73-11.32,13.94-19.55l2.05-10.43c2.47,10.99-4.39,21.17-12.48,28-1.12.95-1.63,2.42-3.5,1.99Z"/><path d="M193.26,399.69c3.02-.47,8.42-3.77,11.49-5,3.03,3.02-13.53,6.58-14.77,6.72-4.71.54-12.2,1.04-15.22-2.71,1.46-.62,2.9.99,3.5.99,4.41,0,10.99.62,15,0Z"/><path d="M407.77,361.69l9.19-11.3,3.29-6.71,2.5-9.99c.91,10.77-5.52,22.75-14.98,27.99Z"/><path d="M232.76,419.7c-7.89,6.45-21.06,6.82-30.99,6.98.15-1.43,4.41-1.72,5.62-1.87,8.99-1.12,16.77-1.36,25.38-5.11Z"/><path d="M159.76,341.7c.24,1.44-1.74,1.36-2.78,1.69-4.37,1.4-8.77,2.07-13.19,3.82-5.22,2.06-9.71,5.7-15.02,7.47,8.01-7.72,20.22-11.29,30.99-12.98Z"/><path d="M355.77,337.69l8.52-12.97,1.46-11.02c3.36,8.88-2.07,19.73-9.98,23.99Z"/><path d="M111.76,333.7l-13.01,8.48-9.98,11.51c2.95-9.31,13.45-18.06,22.98-19.99Z"/><path d="M266.76,386.7c-.52,10.45-5.54,18.93-13.99,24.99,2.14-5.13,7.07-7.63,9.54-12.95,1.64-3.55,1.73-5.96,2.48-9.55.36-1.72-1.1-2.98,1.96-2.5Z"/><path d="M366.76,337.7c-5.45,7.53-14.16,11.7-22.99,13.99-.52-2.85.7-1.64,2.19-2.25,3.62-1.47,7.03-2.55,10.47-4.58,3.85-2.28,6.42-5.56,10.33-7.16Z"/><path d="M162.76,394.71c-.51,3.6-5.2-.75-6.4-2.12-3.53-4.01-7.4-12.87-2.09-16.9.07,4.15-1.49,7.47.25,11.74.89,2.18,5.74,6.78,8.24,7.27Z"/><path d="M250.76,293.7l-9.52,7.97-7.47,11.02c1.14-8.47,9-16.38,16.99-18.98Z"/><path d="M283.76,310.7c.12,2.39-2.28,3.37-2.8,5.72-1.52,6.76,3.89,10.02,7.81,14.27-4.38-.5-9.17-6.84-9.83-10.74-.43-2.52,2.7-11.46,4.83-9.24Z"/><path d="M346.76,361.7c-5.52,4.93-15.86,5.54-23,5.98,1.29-3.04,5.46-1.73,8.23-2.26,5.04-.97,9.83-2.49,14.77-3.72Z"/><path d="M317.77,335.69c-.49-3.03.76-1.6,2.43-2.02,7.4-1.87,11.97-3.32,17.56-8.98-2.67,7.36-12.85,10.41-19.99,10.99Z"/><path d="M349.76,304.68c-1.22,1.23-6.78-5.51-8.06-6.43-3.38-2.4-8.39-3.09-10.94-6.55,3.54-1.46,20.55,11.41,19,12.98Z"/><path d="M291.76,415.7c1.1,1.16-5.72,6.17-6.66,6.82-3.62,2.52-8.05,4.99-12.33,6.16,2.34-3.64,7.88-4.46,11.32-7.16,1.32-.23,6.63-6.92,7.67-5.82Z"/><path d="M279.76,302.67c-.31.37-4.98,2.3-6.99,4.52-2.9,3.21-3.15,5.11-4.05,8.98-.38,1.65,1.17,3.01-1.95,2.51.03-8.24,5.61-14.32,12.5-17.99.85-.13.59,1.86.49,1.97Z"/><path d="M247.76,319.69c-1.91.1-2.03.48-2.03-1.51.02-5.77,3.19-12.32,8.02-15.49.55.63-4.95,7.84-5.52,9.97-.64,2.38-.57,4.61-.48,7.03Z"/><path d="M266.76,338.68c-5.39-1.94-11.31-8.08-10.99-13.99l3.58,5.91,7.41,8.08Z"/><path d="M388.76,368.7c-4.19,3.87-10.34,8.1-15.99,8.98l11.34-7.15,4.66-1.83Z"/><path d="M297.76,346.7c.28,1.67-2.47,1.12-3.49,1-4.07-.49-10.89-2.7-13.5-6l16.99,5Z"/><path d="M121.75,379.69c-1.66.27-1.11-2.46-1.03-3.53.32-4.35,2.13-10.1,6.03-12.47-1.75,5.32-5.66,10.01-5,15.99Z"/><path d="M312.76,398.69l15.46-2.05,3.55.55c0,.34-3.28,1.5-3.51,1.5h-15.5Z"/><polygon points="128.76 317.7 113.77 323.68 124.06 318.49 128.76 317.7"/><path d="M375.75,325.68c-2.38-1.25.04-6.03.05-8.45,0-2.29-1.65-4.96-1.03-7.54,1.69.01,1.9,3.32,1.99,4.49.31,3.85.17,7.8-1.01,11.5Z"/><path d="M219.76,358.68c-4.02-1.7-8.06-3.64-11.99-5.54-.68-.33-3.81-.82-2-2.45.6-.54,13.18,5.65,13.99,7.99Z"/><path d="M254.76,386.69c-1.23,1.62-1.81-.02-2-1.48-.38-2.96.26-6.47.01-9.51,2.59.45,2.33,10.53,1.98,10.99Z"/><path d="M236.76,383.7c.17,4.27-.96,9.76-4.98,11.99-.09-2.39,2.19-3.34,2.78-5.71s-1.2-7.11,2.2-6.29Z"/><path d="M281.76,292.7c-2.4,2.98-7.36,4.88-11,5.98,2.09-3.36,7.11-5.61,11-5.98Z"/></svg>