<?xml version="1.0" encoding="UTF-8"?><svg id="subway-entrance" xmlns="http://www.w3.org/2000/svg" viewBox="0 0 512 512"><defs><style>.cls-1{fill:#f1f1f1;}.cls-2{fill:#80807f;}.cls-3{fill:#bcbcbd;}.cls-4{fill:#efeeee;}.cls-5{fill:#f8f8f9;}.cls-6{fill:#dfe0de;}.cls-7{fill:#fafafb;}.cls-8{fill:#fdfdfe;}.cls-9{fill:#d8d9d9;}.cls-10{fill:#080708;}.cls-11{fill:#c0bebf;}.cls-12{fill:#878788;}.cls-13{fill:#8f8f8f;}.cls-14{fill:#f7f7f8;}.cls-15{fill:#9c9c9c;}.cls-16{fill:#393a3b;}.cls-17{fill:#d8d8d9;}.cls-18{fill:#939392;}.cls-19{fill:#f5f5f6;}.cls-20{fill:#d1d0d2;}.cls-21{fill:#9a9a9a;}.cls-22{fill:#aaacad;}.cls-23{fill:#c5c5c6;}.cls-24{fill:#818281;}.cls-25{fill:#7a7a7a;}.cls-26{fill:#e4e4e4;}.cls-27{fill:#f6f6f6;}.cls-28{fill:#f2f2f3;}.cls-29{fill:#b2b0b0;}.cls-30{fill:#f4f4f4;}.cls-31{fill:#d5d5d4;}.cls-32{fill:#eeefef;}.cls-33{fill:#e1e1e0;}.cls-34{fill:#f0f0f1;}.cls-35{fill:#ecedef;}.cls-36{fill:#eff0f0;}.cls-37{fill:#f8f9f9;}.cls-38{fill:#010102;}.cls-39{fill:#edecec;}.cls-40{fill:#d8d8da;}.cls-41{fill:#ccc;}.cls-42{fill:#f1f2f2;}.cls-43{fill:#ededee;}.cls-44{fill:#c4c4c6;}.cls-45{fill:#d3d3d4;}.cls-46{fill:#e6e7e9;}.cls-47{fill:#9a9b9c;}.cls-48{fill:#dbdcdc;}.cls-49{fill:#adaeaf;}.cls-50{fill:#ababae;}.cls-51{fill:#9b9b9b;}.cls-52{fill:#c1c2c6;}.cls-53{fill:#eceded;}.cls-54{fill:#f1f1f2;}.cls-55{fill:#0aa142;}.cls-56{fill:#f9f9f9;}.cls-57{fill:#f0f0f0;}.cls-58{fill:#262727;}.cls-59{fill:#cbcccb;}.cls-60{fill:#f9f8f9;}.cls-61{fill:#828281;}.cls-62{fill:#838281;}.cls-63{fill:#fafafa;}.cls-64{fill:#5c5d60;}.cls-65{fill:#d7d8d8;}.cls-66{fill:#878586;}.cls-67{fill:#f8f8f8;}.cls-68{fill:silver;}.cls-69{fill:#adafb1;}.cls-70{fill:#a2a2a1;}.cls-71{fill:#757677;}.cls-72{fill:#f7f7f7;}.cls-73{fill:#fefefe;}.cls-74{fill:#90908f;}.cls-75{fill:#838485;}.cls-76{fill:#f2f2f2;}.cls-77{fill:#dbdbda;}.cls-78{fill:#8e8d8f;}.cls-79{fill:#f5f5f5;}.cls-80{fill:#929192;}.cls-81{fill:#f3f3f4;}.cls-82{fill:#f6f7f7;}.cls-83{fill:#080608;}.cls-84{fill:#aaabab;}.cls-85{fill:#f3f3f3;}.cls-86{fill:#797a7a;}.cls-87{fill:#fbfbfb;}.cls-88{fill:#fcfcfc;}.cls-89{fill:#f0f1f1;}.cls-90{fill:#b9b9bb;}.cls-91{fill:#cccccd;}.cls-92{fill:#b6b5b8;}.cls-93{fill:#adabac;}.cls-94{fill:#c8c8c8;}.cls-95{fill:#09a143;}.cls-96{fill:#d3d3d3;}.cls-97{fill:#afafaf;}.cls-98{fill:#eee;}.cls-99{fill:#d3d3d5;}.cls-100{fill:#8b8d90;}.cls-101{fill:#fefdfe;}.cls-102{fill:#c7c6c6;}.cls-103{fill:#f4f3f3;}.cls-104{fill:#cfcfd1;}.cls-105{fill:#858688;}.cls-106{fill:#eaeaeb;}.cls-107{fill:#fdfdfd;}</style></defs><path class="cls-38" d="M255.11,469.77c-7.34,4.57-19.66,15.16-26.61,17.79-1.67.63-3.09,1.41-4.95.75L5.31,387.07c.27-4.8-1.66-15.71.95-19.28l50.03-31.22,2.54-3.71-.04-120.04c1.16-8.52,9.61-15.36,9.79-16.32.24-1.23-1.04-4.94-1.05-7.31-.19-36.61.24-73.24.12-109.85-11.34-3.46-6.75-9.71-9.45-15.81-2.38-5.39-10.21-7.08-11.75-18.25C38.93-9.49,122.03.18,107.26,48.8c-2.42,7.97-8.58,10.94-10.26,14.74-1.31,2.97-.09,6.47-1.55,9.7s-6.97,3.66-6.59,7.77l136.27,55.72c3.09,1.48,17.19-7.57,18.11-9.45,2.56-5.25-1.02-14.68,4.14-24.61,10.38-19.99,37.48-21.91,52.15-5.45,8.33,9.35,5.17,8.53,18.1,14.4,49.47,22.47,101.49,41.03,151.58,61.66,4.93-4.75,14.03-1.94,18.93,1.59,2.65,1.91,2.52,7.36,2.08,10.57-.38,2.76-2.45,1.92-3.19,3.06-2.68,4.12.52,18.96.64,24.34.49,22.9-.5,45.87-.02,68.77,1.13,5.87,13.99,6.74,17.47,10.65.58,1.75,1.34,15.1.59,15.22-1.15.18-1.83-.39-1.88-1.45.63-6.33-.6-9.26-3.7-8.77.36,3.5-.62,4.13-3.75,2.5-3.22,1.4-3.79-.26-1.25-2.5-1.93-4.92-4.81-4.7-6.93.29-68.84,41.98-140.76,87.91-206.51,132.07-2.91,3.64-24.95-7.76-25.98-9.28-.88-9.47-1.64-18.88-2.27-28.24l-135.78-60.3c-7.41,2.98-13.01,6.85-17,13.73-2.04,1.71-15.13,9.24-17.41,9.81-4.2,1.06-23.35-6.69-25.51-11.3-14.55,7.6-28.66,16.16-42.34,25.68,70.04,31.13,139.7,63.11,208.97,95.96,8.71-4.86,17.23-10.17,25.56-15.92l2.7,1.23c3.02-1.19,4.27-.77,3.75,1.25.84,1.56,1.1,3.03-.42,3.87l-21.23,13.47c-4.44,2.17-6.32,5.78-4.28,9.46l20.51-12.91,2.91,1.11c3.23-1.39,3.8.23,1.25,2.5Z"/><path class="cls-10" d="M255.11,469.77l-1.25-2.5c6.52-5.52,13.08-11.07,20.25-15.73,74.87-48.64,149.94-97.07,225.69-144.33.48-.31.98-9.74.31-9.95.96-.47,1.55-2.04,3.74-1.24l1.24,11.24v-14.99c2.12,2.37,2.01,17.17.03,19.39-83.9,51.83-166.33,105.96-250.02,158.11Z"/><path class="cls-73" d="M252.61,451.02c-4.74,2.99-25.58,17.44-28.77,17.03-70.6-31.93-140.11-66.29-211.23-97.05-.45-2.26,1.11-3.1,2.57-4.28,11.99-9.71,30.52-17.21,43.07-26.94,3.48-1,.55,3.5,2.62,5.13.99.78,19.7,8.62,20.8,8.39.99-.21,16.91-9.26,17.68-9.91,2.01-1.69,1.97-3.96,4.01-5.99,1.5-1.49,12.79-8.55,14.32-8.29l136.69,60.75c1.37.62,1.73,1.62,1.98,3.02.75,4.15.42,25,1.46,26.67,4.27.48,17.54,8.85,20.2,8.71,4.52-.24,25.42-16.7,30.94-20.27,54.93-35.55,110.27-70.84,165.76-105.49,5.6-3.5,15.18-5.17,12.89-12.74l10.63,3.74c1.14.64-2.93,3.63-3.14,3.76l-6.88,5.84c-75.95,47.82-151.7,95.98-227.24,144.46l-8.38,3.45Z"/><path class="cls-73" d="M256.24,347.39c.88,1.03-.37,11.11.12,13.63-1.79,1.74-17.11-6.57-20.91-7.21-4.13-.69-8.23.21-12.13-.37-6.09-.91-13.72-5.73-21.66-7.09-10.61-1.83-22.27-3.43-33.13-5.61-4.1-.82-10.51-5.5-15.65-6.85-7.15-1.88-11.33-.04-16.53-.85-5.46-.85-13.57-7.94-18.2-8.25-4.94-.33-11.58,7.46-16.77,8.74.56-4.04-1.43-11.43,1.22-14.39l82.59-49.91,5.44-.67,63.94,21.15c-.03,9.75,3.62,22.44.28,31.67-2.16,5.96-13.76,4.27-12.31,17.81.94,8.73,12.17,6.41,13.71,8.21Z"/><path class="cls-101" d="M298.87,408.52c.5-4.51-1.6-10.33,1.83-13.79l171.36-108.72-1.41-86.9,11.96-8.09c.32,8.94-.37,17.98-.04,26.93.75,20.5,4.05,51.57,1.36,71.26-.19,1.37-.12,2.72-1.23,3.77l-178.42,114.08-5.41,1.45Z"/><path class="cls-107" d="M500.11,297.27c3.68-.72,2.53,1.95,2.52,4.33-.02,2.6.71,5.59-1.28,7.53-83.42,51.22-164.57,106.18-247.49,158.14-4.76,2.98-20.73,13.84-24.4,14.98-3.02.94-2.12-8-1.86-9.37.85-4.45,24.78-15.39,28.76-20.62,58.79-39.81,118.8-78.16,178.91-116.07,19.74-13.23,40.11-25.38,61.09-36.43,1.22-.78,2.51-1.89,3.75-2.5Z"/><path class="cls-95" d="M269.78,90.08c41.01-6.84,45.05,58.86,2.34,54.56-33.85-3.41-30.59-49.85-2.34-54.56Z"/><path class="cls-107" d="M223.65,472.47c.31.5,1.56,12.1-1.63,11.02L13.8,386.71c-6.37-2.29-5.02-7.57-4.93-13.18l214.79,98.94Z"/><path class="cls-55" d="M73.57,11.34c35.57-4.38,43.78,49.74,8.31,54.57-39.11,5.33-41.96-50.43-8.31-54.57Z"/><path class="cls-88" d="M298.87,383.52c-1.29-8.77,1.53-5.03,5.4-7.39,3.63-2.21.54-8.32.87-8.77.18-.25,5.5-2.34,5.81-2.37,2.53-.2,3.56,4.38,9.62.87,6.58-3.81-2.16-10.92,8.27-13.6-2.24,6.23,9.93,4.78,11.08.35.61-2.34-1.86-9.48,5.77-9.16.52.02,1.74,5.92,8.68,1.21,3.79-2.58.21-5,1.29-7.37,1.94-4.26,6.63-1.18,10.03-1.2,9.68-.04,3.31-6.68,6.88-10.71,4.15-4.69,7.7,3.14,14.41-1.85,5.14-3.83.92-5.81,2.4-8.74.92-1.83,4.99-3.06,6.35-5.01-.12,3.97-.39,5.82,4.73,4.77,8.63-1.78,3.98-10.68,8.39-12.97,3.72-1.93,6.04,4.93,12.47.03,5.33-4.06-1.25-7.06,3.29-10.45,4.93-3.67,4.29,3.37,10.54,1.82,7.06-1.75,3.59-9.18,6.19-11.34,5.82-4.82,4.59,2.32,9.11,1.71,6.69-.9,5.51-8.18,5.9-8.59.97-1.03,7.78,2,8.75,1.25-1.85-6.6-8.77-4.65-9.92-11.94-2.56-16.21,1.82-38.1-.17-54.96.31-2.64,8.63-6.2,11.33-8.08-1.02,7.8,1.05,15.59,1.32,23.07.48,13.33,1.67,37.76,0,50.12-.19,1.37-.14,2.71-1.21,3.79l-167.59,105.52Z"/><path class="cls-73" d="M98.87,212.28c-.16-7.56-1.53-11.78-8.81-14.59l-1.19-45.41,63.74,26.89-53.74,33.11Z"/><path class="cls-73" d="M265.11,275.4c-.29.96-3.47,2.66-4.68,2.9-19.63-3.22-38.5-12.02-57.82-17.29,16.77-11.09,35.15-24.55,52.91-33.95,1.36-.72,9.59-5.73,9.59-1.66v50Z"/><path class="cls-107" d="M274.81,307.57c4.18,4.02,0,102.45,1.54,115.96l-14.82-6.42c-2.6-36.29-1.07-72.85-1.34-109.28-.01-2-2.5-7.15,1.22-6.26.77.18,12.87,5.5,13.4,6.01Z"/><path class="cls-107" d="M77.44,229.94l1.41,118.58-14.82-6.42c-2.84-39.37-.83-79.08-1.41-118.58l14.82,6.42Z"/><path class="cls-107" d="M295.11,301.02v113.75c-5.66.96-9.84,6.43-15,7.5v-115c0-.82,13.04-6.51,15-6.25Z"/><path class="cls-8" d="M282.61,159.77v119.38c0,2.75-13.75,2.75-13.75,0v-120.62c4.27,2.16,9.14,1.04,13.75,1.25Z"/><path class="cls-8" d="M96.36,223.52v36.88c0,1.03-9.89,7.55-5.61,16.86,1.56,3.39,5.88,2.14,6.75,8.2,2.26,15.86-1.45,36.08.12,52.44.14,2.74-14.27,10.18-15,9.36-.51-29.77.64-59.64.04-89.42-.12-5.99-3.67-23.07-.04-27.44,1.87-2.26,10.47-6.02,13.74-6.89Z"/><path class="cls-73" d="M298.86,213.52l63.76,28.11c-6.02,2.07-18.91,14.14-24.36,14.25-7.23.15-30.28-14.88-39.4-16.12v-26.25Z"/><path class="cls-88" d="M482.61,176.04l-184.99,116.23,1.25-6.86c57.97-36.08,116.06-71.96,173.31-109.18,3.44-2.53,6.77-1.2,10.43-.19Z"/><path class="cls-83" d="M495.11,297.27l1.25,2.5c-79.78,51.13-159.41,102.7-240,152.5l-3.75-1.25c80.54-50.68,160.55-106.15,242.5-153.75Z"/><path class="cls-87" d="M71.36,79.77l6.25,1.26c-1.32,2.06-2.23,2.84-2.57,5.54-2.22,17.45,1.8,39.59.07,57.58.72,3.91,6.48,5.03,9.86,5.76.46,15.5,2.58,31.23,1.45,46.79-.37,5.11-.89,8.04-6.93,7.85-5.47-.17-8.12-3.9-8.12-9.15v-115.62Z"/><path class="cls-37" d="M486.35,181.03c1.36,1.39-.3,3.01-1.53,4.12-15.75,14.26-45.07,25.25-62.61,38.6l-124.6,78.51c-3.12-3.46,14.79-13.65,17.6-15.51,54.34-36.06,111.5-68.13,165.97-104.03.93-1.06,4.47-2.41,5.17-1.69Z"/><path class="cls-63" d="M295.1,201.03l.21,62.92c1.28,3.71,16.1,6.74,16.03,8.95-3.39,2.27-12.98,10.09-16.68,9.48-1-.16-1.38-2.78-2.61-3.86-2.04-1.81-5.42-2.3-5.66-5.64,1.51-19.98-2.08-42.96-.1-62.55.58-5.74,3.31-7.67,8.81-9.3Z"/><path class="cls-37" d="M463.86,176.04l-3.21,2.51c-22.29-7.41-44.47-17.04-66.39-26.06-28.52-11.74-56.71-24.39-85.33-35.92l-2.57-5.54,157.48,65.01Z"/><path class="cls-82" d="M455.11,181.04c.7.93-.73,3.34-2,3.61-.97.21-7.52-2.36-9.23-3.02-46.02-17.71-90.58-39.42-136.78-56.75l-.73-3.85,148.74,60.01Z"/><path class="cls-42" d="M257.61,284.76c-4.88.3-9.45-1.55-14.02-2.85-32.5-9.23-63.84-23.09-96.26-32.5-2.67-.78-9.44-2.97-11.63-2.84-5.31.29-29.11,19.25-36.22,21.95-3.39,3.4-3.85,5.08-.63,8.74-5.63,1.04-6.11-4.56-4.34-8.71,1.97-4.64,35.6-21.97,42.25-25.95l116.17,38.72,4.67,3.45Z"/><polygon class="cls-32" points="263.86 158.51 171.98 122.27 81.36 83.53 173.45 119.56 263.86 158.51"/><path class="cls-67" d="M81.36,103.52c13.93.13,9.4,13.97,12.51,23.74,1.79.3,1.69-2.17,2.11-3.48,1.32-4.1,2.16-8.5,2.91-12.73.56-.48,7.46.84,7.46,1.22v31.25c-1.16-1.28-5-.99-5-1.25v-18.75l-3.76,15.01c-8.78.23-7.53-11.1-8.76-17.5-2.99,1.34-.24,11.55-1.24,12.5-.72.69-6.24-.3-6.24-1.88v-28.12Z"/><path class="cls-35" d="M457.61,291.02c-40.38,27.69-83.2,51.95-123.86,79.27l-34.89,20.72,2.57-4.29c51.76-31.43,101.89-65.59,153.67-96.95,2.6-1.05,3.43-.63,2.5,1.25Z"/><path class="cls-63" d="M173.86,262.28l-72.49,44.98c-.75-8.46.12-5.08,5-6.82,6.66-2.38,1.32-5.74,3.6-8.84,4.24-5.76,7.3-.39,10.65-.54.72-.03,6.64-2.39,6.85-2.69.81-1.14-3.42-10.38,4.72-10.98,2.85-.21,2.18,3.47,3.73,3.73,1,.17,5.91-1.29,6.7-1.96,2.86-2.44-.75-7.48,3.24-10.54,3.67-2.81,5.04,1.14,8.58,1.26,6.48.21,7.78-4.54,6.92-10.11l12.5,2.52Z"/><path class="cls-14" d="M310.07,196.09c.27.37-3.14,4.85,3.1,7.58s7.01-2.64,7.74-2.71c10.53-1-.86,11.33,13.63,10.21,2.26-.18,1.65-2.35,2.69-2.6,9.7-2.4,1.99,6.16,8.17,9.04,7.1,3.3,7.18-1.35,8.04-1.56,8.91-2.15,4.46,4.44,6.51,6.95,5.69,6.96,10.27-2.06,14.39-.63,2.31.8,5.32,11.4.2,11.17l-75.69-32.53c-.77-6.31,8.9-8.06,11.2-4.91Z"/><path class="cls-67" d="M310.11,129.77v62.5c-11.23-4.16-6.72-5.11-7.4-13.14-.72-8.43-4.35-45.89,2.4-50.08,1.69-1.05,3.28.82,5.01.73Z"/><path class="cls-89" d="M361.35,212.27l-7.55-2.09-1.19-61.66c3.62-.22,7.99,1.82,8.72,5.65,1.43,7.51.17,25.06.08,33.78-.03,2.97-1.34,5.65-1.35,8.64-.01,4.43,2.58,10.55,1.29,15.69Z"/><path class="cls-88" d="M298.87,244.78c4.31.96,33.67,12.53,33.72,14.37-3.34,2.28-12.41,10.07-15.81,10.34-.85.07-14.67-5.47-15.81-6.19-4.26-2.7-1.22-13.67-2.1-18.52Z"/><path class="cls-5" d="M248.86,217.29c-17.17,14.26-38.01,23.92-56.3,36.8-2.47,1.9-14.65.12-14.92-2.43,6.32-9.76,6.24-.73,6.88-.56,11.83,3.2,7.93-10.13,11.39-11.24,2.95-.94,7.32,2.73,11.71.54s-.42-11.16,8.18-11.85c.53-.04-.47,3.22,4.81,2.42,10.79-1.64,3.69-9.53,8.26-11.82,5.24-2.63,4.88,1.61,5.84,1.85,8.94,2.23,6.51-6.8,14.16-3.72Z"/><path class="cls-27" d="M343.86,143.52v61.25c-2.01.89-7.5-1.4-7.5-3.12v-59.38l7.5,1.25Z"/><path class="cls-63" d="M377.61,218.52c-.42.42-7.5-.87-7.5-1.25v-61.25c1.74-.71,7.5,1.95,7.5,3.12v59.38Z"/><path class="cls-27" d="M320.11,134.77c2.5.11,7.5,1.48,7.5,4.38v57.5c0,2.61-7.5-.19-7.5-.62v-61.25Z"/><path class="cls-67" d="M171.36,346.02c5.36,1.83,11.24,2.13,16.6,4.03,21.23,7.52,42.98,21.69,64.72,29.03,3.52,1.15,4.11,3.4,3.67,6.94l-87.49-38.74c-1.21-1.26-.38-1.68,2.5-1.25Z"/><path class="cls-67" d="M387.61,223.52v-61.25c2.71,1.66,6.99,2.1,7.5,5.62-1.18,15.67,1.55,33.44.07,48.83-.53,5.46-1.57,7.23-7.57,6.8Z"/><path class="cls-63" d="M286.36,192.27v-34.38c0-1.1,5.34-3.54,6.07-5.18l3.92-11.69c-1.05,8.38,4.3,40.49,0,45.61-1.12,1.34-7.77,5.08-9.99,5.63Z"/><path class="cls-56" d="M100.12,223.52l1.56-7.19c19.51-11.39,38.17-25.29,58.53-34.74l3.62,2.55-63.71,39.37Z"/><path class="cls-37" d="M177.62,246.02c-.41-4.84-3.43-56.05-.62-56.26,3.98-.31,6.48,1.73,6.93,5.57,1.63,13.84-1.36,30.86-.06,45.08-.56,2.91-3.92,4.05-6.25,5.61Z"/><path class="cls-60" d="M167.61,197.27v51.25c-3.09-.5-6.85-.93-7.52-4.36-1.14-5.83-.83-34.72-.05-41.34.54-4.58,3.18-5.49,7.57-5.55Z"/><path class="cls-102" d="M107.61,108.52c49.85,20.45,100.36,39.65,149.98,60.64,2.11.89,6.49,2.37,7.51,4.35-2.83.36-5.25-.63-7.84-1.52-48.86-16.73-102.64-42.02-150.91-62.22-1.66-1.66-1-1.7,1.25-1.25Z"/><path class="cls-56" d="M147.6,161.02c-7.19-.66-4.26-5.07-6.93-8.69-1.13-1.54-8.31-4.85-9.31-3.81-.88.92,2.7,5.37-6.25,3.74.67-4.01,7.35-26.8,9.46-27.46,3.39-.52,5,2.27,6.16,4.96,1.37,3.18,7.82,29.97,6.86,31.25Z"/><path class="cls-81" d="M403.86,169.77c2.16.23,6.61,1.19,7.33,3.29.83,2.42.53,36.33-.46,37.95-.85,1.38-6.87,5.12-6.87,1.88v-43.12Z"/><path class="cls-85" d="M172.6,186.03c1.95,1.72-7.65,7.24-8.84,8.02-20.65,13.46-42.65,25.29-63.64,38.22-.73-4.51,3.27-6,6.34-8.02,16.91-11.18,42.95-28.43,60.74-36.76,1.81-.85,3.18-1.91,5.41-1.46Z"/><path class="cls-79" d="M371.36,276.02c13.61,2.52,7.35,11.3,7.43,20.58.05,6.29,1.82,11.9,1.32,18.17-.73.77-8.74-1.78-8.74-3.12v-35.62Z"/><path class="cls-106" d="M182.61,267.25c-9.94,2.9-77.67,50.57-81.24,47.51-2.16-1.85,1.64-2.74,2.34-3.23,23.86-16.69,51.67-30.35,76-46.58l2.9,2.3Z"/><path class="cls-34" d="M151.36,207.27v35c-1.55.15-6.72-.47-7.32-1.43-.48-.76-1.41-15.43-1.48-17.88-.2-7.52-.94-15.67,8.8-15.69Z"/><path class="cls-76" d="M199.9,233.32c-.21.33-6.85,3.17-7.29,2.69,2.75-11.9-1.43-23.77-.07-35.68.52-4.54,3.34-5.82,6.32-2.45,1.53,1.73,2.02,33.87,1.03,35.43Z"/><path class="cls-30" d="M446.36,214.77v33.75c-1.75.11-7.13-.29-7.55-2.08-.65-2.79-.11-28.16.87-29.28s4.94-2.66,6.68-2.39Z"/><path class="cls-56" d="M121.36,148.52c-10.7.69-.65-22.7-7.54-26.87-1.39-.84-3.69-.24-4.66-.89-2.02-1.34-2.42-6.51,2.56-5.77.85.13,15.25,6.09,15.92,6.64,1.37,1.14,1.76,5.06,1.23,5.64-.71.76-5.81-1.7-7.49-1.24v22.5Z"/><path class="cls-54" d="M117.61,227.27v20.62c0,1.27-7.53,6.92-10,5.62v-20.62c0-1.22,7.9-6.03,10-5.62Z"/><polygon class="cls-26" points="368.86 237.26 299.7 209.79 298.87 206.02 368.86 237.26"/><path class="cls-46" d="M256.35,221.03c.75,3.4-1.04,2.13-2.48,3.08-14.23,9.42-29.18,18.74-43.87,27.43-4.6,2.72-9.51,6.68-14.89,6.97.71-2.16,3.1-3.3,4.84-4.52,12.46-8.78,28.98-18.8,42.28-26.47,4.26-2.46,9.36-6.07,14.13-6.48Z"/><path class="cls-72" d="M396.36,281.02c-10.85.54-7.21-11.56-7.51-19.36-.08-2.25-2.97-8.54.58-9.13.83-.14,6.93,1.86,6.93,2.87v25.62Z"/><path class="cls-57" d="M412.61,288.52c-3.28.65-7.5-4.22-7.5-6.88v-23.12c1.74-.71,7.5,1.95,7.5,3.12v26.88Z"/><path class="cls-76" d="M421.36,203.52v-26.25l6.96,2.5c-1.25,8.41,5.18,21.84-6.96,23.75Z"/><rect class="cls-61" x="363.86" y="153.52" width="2.5" height="67.5"/><path class="cls-72" d="M117.61,263.52v18.75c0,.48-7.58,3.53-8.75,3.75v-18.12c0-.67,6.9-5.4,8.75-4.38Z"/><rect class="cls-24" x="365.11" y="263.52" width="2.5" height="67.5"/><path class="cls-98" d="M338.86,303.52c2.22,1.09,7.5,2.79,7.5,5.62v19.38c-.92-.27-7.5-.87-7.5-1.25v-23.75Z"/><path class="cls-19" d="M133.86,217.27v20.62c0,.93-5.89,5.12-7.5,4.38v-20.62c0-.93,5.89-5.12,7.5-4.38Z"/><rect class="cls-74" x="332.61" y="284.77" width="2.5" height="66.25"/><path class="cls-63" d="M388.86,283.52c2.81,1.92,7.19,1.02,7.58,4.33.84,7.06,1.89,20.46-7.58,20.67v-25Z"/><path class="cls-78" d="M418.86,298.52h-2.5c.91-1.73,0-3.21,0-4.38v-61.25c0-.22,1.69-1.97,2.5-1.88v67.5Z"/><path class="cls-66" d="M316.36,199.77h-2.5v-67.5h1.24c-.77,1.96,1.26,4.7,1.26,5.62v61.88Z"/><path class="cls-11" d="M301.36,373.52l-2.55-11.82c1.11-16.28-1.3-34.03-.01-50.12.2-2.53.3-7.04,3.84-4.91.29,1.09-1.28,2.1-1.28,2.47v64.38Z"/><path class="cls-43" d="M208.86,203.52c.44-.44,5.82.44,6.77,1.11,1.36.96,1.11,15.17.08,17.61-1.42,3.38-6.85,5.66-6.85.65v-19.38Z"/><path class="cls-27" d="M126.36,256.65c.21-.64,6.71-5.27,7.49-4.37-1.62,8.5,5.56,22.43-7.49,22.49.91-4.67-1.24-14.26,0-18.12Z"/><path class="cls-27" d="M305.11,337.27v-18.75c2.01-.21,5.9.77,6.89,2.48.9,1.56,3.02,18.51,0,18.72l-6.89-2.46Z"/><path class="cls-96" d="M256.36,374.76c-7.28-.26-13.82-5.34-20.84-7.27l-31.65-15.21c4.78-.61,9.08,1.78,13.34,3.52,10.41,4.26,25.89,10.57,35.46,15.79,1.39.76,3.39,1.38,3.69,3.17Z"/><path class="cls-57" d="M305.11,342.27c13.15-1.03,11.68,18.34,0,20v-20Z"/><path class="cls-56" d="M355.11,284.77c9.35-.98,6.05,8.75,6.26,15.61.06,2,2.7,7.43-.66,8.14-1.19.25-5.6-2.49-5.6-3.13v-20.62Z"/><path class="cls-14" d="M328.86,322.27c-.4.42-4.8-.59-5.52-1.12-1.02-.75-1.28-17.31-.57-19.35.74-2.14,4.28-2.24,6.09-3.28v23.75Z"/><path class="cls-92" d="M318.86,362.27l-2.48-.6c3.17-4.05-.02-8.67-.07-12.58-.04-3.05,1.42-5.73,1.4-8.69-.09-12.71-2.41-28.63-1.36-41.26.12-1.47.38-5.61,2.51-5.62v68.75Z"/><path class="cls-62" d="M385.11,303.52c-.48,2.6-.89,5.1-1.25,7.5-2.07-1.3-1.25-4.74-1.27-6.86-.16-12.99-1.89-37.11.07-48.71.25-1.48.74-2.96,2.43-3.18-.05,17.06.11,34.19.01,51.25Z"/><path class="cls-56" d="M345.1,279.77c-.84,6.15.73,12.67.95,18.5.24,6.68-6.06,2.32-6.95-.61-1.32-4.36-2.17-21.19,6-17.89Z"/><path class="cls-63" d="M322.61,324.77c1.5.93,4.86,1.24,5.68,2.44,1.02,1.47,1.03,17.2-.02,18.85-1.9,2.98-5.66-1.39-5.66-1.91v-19.38Z"/><path class="cls-2" d="M433.86,282.27l-1.24-61.24c1.54-2.03,2.26.02,2.5,1.85,1.32,10.3.02,25.93,0,36.9-.5,7.61-.92,15.11-1.25,22.5Z"/><path class="cls-87" d="M422.61,287.27v-22.5c2.76,1.29,7.23,1.83,7.4,5.53.04.87-1.15,11.8-1.34,12.39-.55,1.69-4.43,3.48-6.05,4.57Z"/><path class="cls-103" d="M355.11,311.02c1.2.32,5.78,1.03,6.1,1.4.39.45,1.27,10.55,1.23,11.79-.11,4-3.94,6.79-7.33,8.06v-21.25Z"/><path class="cls-7" d="M378.85,257.28l1.25,17.49c-.35.37-8.53-2.18-8.8-3.32-1.53-6.37-.64-14.61,7.55-14.17Z"/><path class="cls-70" d="M400.11,241.02c2.2-.28,1.19,2.82,1.25,4.36.84,20.18.6,40.51,1.24,60.64-.8.09-2.49-1.66-2.49-1.87v-63.12Z"/><path class="cls-13" d="M347.61,146.02c2.2-.28,1.19,2.82,1.25,4.36.48,11.65-.32,23.4-.05,35.06.19,8.29,2.43,17.4,1.3,26.22-.29,2.28.43,2.02-2.5,1.85v-67.5Z"/><path class="cls-84" d="M351.36,274.77v67.5c-2.2.28-1.19-2.82-1.25-4.36-.5-12.06.34-24.24.05-36.31-.19-7.92-2.39-16.49-1.3-24.97.29-2.28-.43-2.02,2.5-1.85Z"/><path class="cls-12" d="M187.61,242.27v-48.75c5.18,2.38,1.13,8.32,1.25,11.88.36,10.55,2.51,21.79,1.3,32.55-.21,1.88-.26,3.87-2.55,4.33Z"/><path class="cls-26" d="M288.85,281.03c3.36,3.39-6.77,7.23-9.34,7.52-3.96.45-15.97-1.13-16.9-5.67-1.32-6.42,5.8.83,7.42,1.33,7.94,2.48,18.13-3.88,18.81-3.18Z"/><path class="cls-18" d="M381.36,161.02c2.2-.28,1.19,2.82,1.25,4.36.4,9.57-.24,19.23-.05,28.81.16,8.14,2.16,15.94,1.19,24.84-.13,1.23-.54,4.7-2.39,4.49v-62.5Z"/><path class="cls-51" d="M332.61,139.77v66.25c-2.2.28-1.19-2.82-1.25-4.36-.59-14.14.45-28.41.05-42.56-.09-3.24-1.2-6.36-1.36-9.89-.12-2.49-1.39-10.75,2.56-9.44Z"/><path class="cls-45" d="M291.36,148.53c-6.44,10.47-26.01,10.07-32.5,0,11.06,5.15,21.44,5.15,32.5,0Z"/><path class="cls-48" d="M66.37,203.53c3.85.79,4.81,3.24,9.34,3.77,2.76.33,6.82.24,9.48-.58,1.6-.5,8.77-7.75,7.42-1.34-1.45,6.91-25.48,9.1-26.23-1.84Z"/><path class="cls-28" d="M428.85,226.03l-.64,16.26c-1.14-.68-5.05-.97-5.45-1.43-1.08-1.23-2.08-18.36,6.08-14.84Z"/><path class="cls-40" d="M92.61,71.03c-6.01,8.63-20.99,7.85-28.74,1.86,10.14.18,18.8,1.75,28.74-1.86Z"/><path class="cls-68" d="M451.36,269.15c.02,1.79,1.77,4.99-.01,8.12h-1.24s0-66.24,0-66.24h1.25c.13,19.36-.17,38.76,0,58.12Z"/><path class="cls-75" d="M171.36,249.77v-56.25h1.25v46.88c0,2.01,3.92,7.45-1.25,9.38Z"/><path class="cls-99" d="M256.35,327.28c3.22,3.45-6.81,5.41-7.51,9.36-.79,4.45,6.9-.08,7.51.64v4.99c-21.17,1.07-2.89-18.08,0-14.99Z"/><path class="cls-98" d="M232.61,139.76c2.55-2.25,8.44-6.89,11.24-8.13,3.71-1.64,4.97,2.23,1.9,5.67-3.56,3.98-8.33,4.48-13.14,2.47Z"/><path class="cls-20" d="M288.86,291.03c-7.52,9.29-19.5,5.05-27.5-1.25,5.05-.34,11.01,3.77,15.62,3.77,3.9,0,7.66-3.27,11.88-2.52Z"/><path class="cls-103" d="M361.35,269.77c-.13,3.1.23,6.3,0,9.4-.12,1.67.89,3.81-1.85,3.08-6.81-1.81-6.64-14.68,1.84-12.48Z"/><path class="cls-3" d="M107.61,108.52l-1.25,1.25c-7.17-3-14.67-5.59-21.69-8.94-.91-.44-8.01-2.8-5.8-4.81,1.16-1.05,25.34,11.11,28.74,12.5Z"/><rect class="cls-50" x="398.86" y="167.27" width="1.25" height="51.25"/><path class="cls-104" d="M86.36,214.77c3.2-1,4.04-.58,2.5,1.25-11.2,6.03-14.13,1.29-24.99-2.52-.32-2.2,2.87-1.28,4.08-.95,10.13,2.73,7.27,2.92,18.41,2.22Z"/><path class="cls-25" d="M203.86,201.02c3.73-.99,2.62,3.07,2.56,5.68-.21,9.4-.77,17.01-.58,26.84.04,1.89.61,3.09-1.98,3.73v-36.25Z"/><rect class="cls-64" x="137.61" y="213.52" width="2.5" height="25"/><path class="cls-4" d="M143.87,264.77c-.76-8.63-.61-17.15,7.55-6.89,0,2.87-5.09,5.86-7.55,6.89Z"/><polygon class="cls-21" points="415.11 173.52 417.69 189.15 415.11 208.52 415.11 173.52"/><path class="cls-59" d="M276.35,304.77c-.66.84-20.18-8.7-17.48-11.24,4.28,1.88,11.66,4.21,15.36,6.51,1.78,1.11,3.33,3.2,2.12,4.74Z"/><path class="cls-36" d="M444.89,253.76c.74,1.17.46,6.48,1.47,8.51-8.64-.34-8.03-1.92-7.49-9.99.42-.44,5.52.69,6.02,1.48Z"/><path class="cls-1" d="M428.67,246.23c.51.57.51,6.8,1.43,8.54-7.22,1.13-9-2.09-6.91-8.81.74-1.51,5.28.06,5.47.27Z"/><polygon class="cls-33" points="437.62 193.52 437.62 183.53 446.33 187.9 437.62 193.52"/><path class="cls-49" d="M171.36,346.02l-2.5,1.25-22.49-9.99c8.93.35,16.77,5.93,24.99,8.74Z"/><path class="cls-71" d="M105.11,234.77v20.62c0,.22-1.69,1.97-2.5,1.88v-22.5h2.5Z"/><path class="cls-91" d="M96.35,216.03c2.71,2.62-12.62,10.06-14.99,9.99-2.83-2.74,14.18-10.77,14.99-9.99Z"/><rect class="cls-80" x="155.11" y="203.52" width="1.25" height="41.25"/><path class="cls-39" d="M338.87,342.27l.6-11.24c8.85,2.56,6.79,8.44-.6,11.24Z"/><path class="cls-105" d="M140.11,276.02c-4.53-2.55-2.03-10.03-2.35-14.22l2.35-10.78v25Z"/><path class="cls-65" d="M295.1,293.53c.67,2.95-3.38,3.96-5.41,5.2-1.47.89-10.1,5.48-10.83,4.79-2.59-2.43,14.16-9.86,16.24-9.99Z"/><path class="cls-77" d="M77.6,227.27c-.41.53-10.73-5.53-11.91-6.2-.9-.51-4.86-2.2-3.07-3.79,1.15-1.02,18.19,5.81,14.98,9.99Z"/><path class="cls-53" d="M412.61,241.02c.31.31.31,7.56-.61,8.75-2.38-1.67-7.56-2.91-6.85-6.78.41-2.25,6.96-2.47,7.46-1.97Z"/><path class="cls-16" d="M256.36,368.51l-23.74-9.97c7.87,1.1,17.73,5.04,23.74,9.97Z"/><path class="cls-41" d="M313.85,299.78c2.41,2.25-9.52,9.29-9.98,8.74-1.31-3.72,8.13-10.46,9.98-8.74Z"/><path class="cls-86" d="M433.85,181.03c-.87,4.87,2.34,13.17-2.48,16.24.39-4.59-.58-9.94-.02-14.4.23-1.82.95-3.88,2.5-1.85Z"/><path class="cls-52" d="M455.11,289.77c4.25-2.57,8.65-7.19,13.75-7.49-2.24,4.54-7.44,6.12-11.25,8.74l-2.5-1.25Z"/><path class="cls-44" d="M298.86,193.5c-3.06-.47-10.22,8.36-12.49,6.26-2.01-1.86,8.62-7.94,9.93-8.23,1.55-.34,2.29.6,2.57,1.96Z"/><path class="cls-29" d="M435.11,259.77c-.02,9.56.03,19.18-.01,28.74-2.26.07-1.2-4.65-1.24-6.24-.19-7.03-.92-15.94,1.25-22.5Z"/><path class="cls-97" d="M105.11,296.02h-1.25v-21.88c0-.87-2.82-3.14,1.25-4.38v26.25Z"/><path class="cls-94" d="M406.96,291.08c.38-.05,5.61,2.29,5.62,3.07-7.95,9.88-9.41-2.57-5.62-3.07Z"/><rect class="cls-47" x="121.36" y="258.52" width="1.25" height="27.5"/><path class="cls-9" d="M445.1,276.01c-.19.26-5.86,1.66-6.24,1.26v-6.24c1.93-.59,7.69,2.95,6.24,4.98Z"/><path class="cls-6" d="M252.6,139.78c3.55,3.6-6.82,6.16-8.74,4.98.3-2.5,7.44-6.3,8.74-4.98Z"/><polygon class="cls-26" points="312.6 316.02 306.36 314.77 311.99 308.53 312.6 316.02"/><rect class="cls-100" x="121.36" y="223.52" width="1.25" height="22.5"/><path class="cls-15" d="M222.61,225.4c-.04.22-2.33,2.89-2.52,1.23l2.52-19.36c-.73,5.4,1.01,13.09,0,18.12Z"/><path class="cls-22" d="M446.35,267.29c3.44,3.5-10.46,3.12-7.49-2.51.27-.29,7.21,2.23,7.49,2.51Z"/><path class="cls-93" d="M385.11,303.52c-.03,5.82.04,11.68-.01,17.49-2.33-1.22-1.27-7.56-1.24-9.99s-.85-6.14,1.25-7.5Z"/><path class="cls-17" d="M232.61,211.04l-6.24,3.73c-.77-6.89.67-5.25,6.24-3.73Z"/><path class="cls-90" d="M328.85,289.78c2.65,2.93-3.91,5.89-6.24,4.99-1.16-2.68,5.42-5.89,6.24-4.99Z"/><path class="cls-23" d="M412.6,256.02c-1.06.94-7.38-1.8-7.47-3.12-.26-3.67,9.96.9,7.47,3.12Z"/><path class="cls-31" d="M428.85,259.79c.19.23-.08,1.7,0,2.47-12.35-.4-3.63-6.85,0-2.47Z"/><path class="cls-69" d="M86.36,214.77l8.75-3.74c-1.02,2.81-3.92,3.73-6.25,4.99-.28-1.15-1.48-1.31-2.5-1.25Z"/><path class="cls-3" d="M376.35,317.28v1.85c-1.32,1.96-2.68,2.18-4.99,1.89v-3.74s4.99,0,4.99,0Z"/><path class="cls-58" d="M140.11,144.76c-3.93,3.07-7.57-6.65-3.12-8.73.55,1.08,3.48,8.45,3.12,8.73Z"/></svg>