<?xml version="1.0" encoding="UTF-8"?><svg id="balloons" xmlns="http://www.w3.org/2000/svg" viewBox="0 0 512 512"><defs><style>.cls-1{fill:#343639;}.cls-2{fill:#d8d6d5;}.cls-3{fill:#29292b;}.cls-4{fill:#d4d7d9;}.cls-5{fill:#bfbfbe;}.cls-6{fill:#f5f4f5;}.cls-7{fill:#2e2e32;}.cls-8{fill:#2f2e33;}.cls-9{fill:#f4f4f5;}.cls-10{fill:#eaebea;}.cls-11{fill:#d8d8d9;}.cls-12{fill:#e3e3e3;}.cls-13{fill:#f5f5f6;}.cls-14{fill:#040405;}.cls-15{fill:#ebecec;}.cls-16{fill:#161717;}.cls-17{fill:#333336;}.cls-18{fill:#2e2e31;}.cls-19{fill:#28292b;}.cls-20{fill:#efefef;}.cls-21{fill:#e4e4e4;}.cls-22{fill:#313132;}.cls-23{fill:#ebebeb;}.cls-24{fill:#f2f2f3;}.cls-25{fill:#d9d9d9;}.cls-26{fill:#f4f4f4;}.cls-27{fill:#2e2d2f;}.cls-28{fill:#dbdbdd;}.cls-29{fill:#323234;}.cls-30{fill:#25272a;}.cls-31{fill:#c4c2c3;}.cls-32{fill:#f0f0f1;}.cls-33{fill:#f2f2f4;}.cls-34{fill:#cbcbcc;}.cls-35{fill:#eff0f0;}.cls-36{fill:#ebecee;}.cls-37{fill:#ececed;}.cls-38{fill:#353637;}.cls-39{fill:#2e2f30;}.cls-40{fill:#b7b8ba;}.cls-41{fill:#212122;}.cls-42{fill:#111214;}.cls-43{fill:#c3c4c4;}.cls-44{fill:#c5c4c4;}.cls-45{fill:#f0eff0;}.cls-46{fill:#323235;}.cls-47{fill:#dddcdf;}.cls-48{fill:#c4c4c6;}.cls-49{fill:#d9d7d9;}.cls-50{fill:#e8e8e9;}.cls-51{fill:#151618;}.cls-52{fill:#737173;}.cls-53{fill:#38383d;}.cls-54{fill:#e7e7e7;}.cls-55{fill:#343436;}.cls-56{fill:#0b0c0c;}.cls-57{fill:#d7d7d7;}.cls-58{fill:#3a3a3d;}.cls-59{fill:#353538;}.cls-60{fill:#f1f1f2;}.cls-61{fill:#373838;}.cls-62{fill:#333335;}.cls-63{fill:#363837;}.cls-64{fill:#dcdddd;}.cls-65{fill:#f0f0f0;}.cls-66{fill:#101012;}.cls-67{fill:#cdcdcf;}.cls-68{fill:#f3f4f4;}.cls-69{fill:#f4f4f6;}.cls-70{fill:#dddddc;}.cls-71{fill:#2d2d2f;}.cls-72{fill:#aaa9aa;}.cls-73{fill:#2f2f31;}.cls-74{fill:#d9d9d7;}.cls-75{fill:#b3b1b4;}.cls-76{fill:#242528;}.cls-77{fill:#edeeef;}.cls-78{fill:#c0c0c2;}.cls-79{fill:#3c3d40;}.cls-80{fill:#2f2f32;}.cls-81{fill:#353536;}.cls-82{fill:#eeeeef;}.cls-83{fill:#efeff0;}.cls-84{fill:#f2f2f2;}.cls-85{fill:#e9eae9;}.cls-86{fill:#353539;}.cls-87{fill:#b8b9b9;}.cls-88{fill:#f5f5f5;}.cls-89{fill:#ababab;}.cls-90{fill:#f3f3f4;}.cls-91{fill:#858588;}.cls-92{fill:#313134;}.cls-93{fill:#ececee;}.cls-94{fill:#343537;}.cls-95{fill:#151617;}.cls-96{fill:#e5e7e7;}.cls-97{fill:#303133;}.cls-98{fill:#3c3b3c;}.cls-99{fill:#bcbaba;}.cls-100{fill:#323135;}.cls-101{fill:#adabaa;}.cls-102{fill:#ededed;}.cls-103{fill:#323336;}.cls-104{fill:#eeedf0;}.cls-105{fill:#d3d3d3;}.cls-106{fill:#2f2e32;}.cls-107{fill:#ebe9e9;}.cls-108{fill:#dcdcdd;}.cls-109{fill:#2e2e30;}.cls-110{fill:#2f2e30;}.cls-111{fill:#a6a6a8;}.cls-112{fill:#121315;}.cls-113{fill:#f2f3f4;}.cls-114{fill:#2c2d2f;}.cls-115{fill:#565554;}.cls-116{fill:#616160;}.cls-117{fill:#eaeaeb;}.cls-118{fill:#131416;}</style></defs><path class="cls-56" d="M278.39,77.75c-2.13-.24-2.24-.13-2,2-2.66-2.07-4.75-5.22-6.25-9.43-37.38-45.88-83.55,6.77-61.81,51.7l-.94,2.73c-2.25-1.01-2.8.53-5-1,1.18-2.51.51-.77.41-.85-6.49-5.84-7.73-31.21-5.36-39.89.05-3.28-13.57-3.4-16.12-3.11-23.27,2.65-35.52,25.63-31.85,47.43,6.53-5.02,13.05-9.87,21.37-11.85,5.36-1.27,15.5-2.69,18.55,2.29-2.27-.23-4.71.15-7,.01v.98s4,1.01,4,1.01l-2.58,1.76c-55.93.39-47.57,81.26-2.76,94.06l1.34,2.19h-3s1,2,1,2c-1.37,2.71-7.7.44-10-.79-17.63-9.37-24.1-22.17-31.96-39.36-28.75,27.56-1.18,79.68,35.32,81.32l1.64,1.83-7.99,1.99c2.47.43,6.16-.6,8.35,0,.96.26.58,1.94.66,2,.47.35,1.74-1.55,2.75-1.88,1.62-.52,1.92.79,2.23.89-.67,2.02-2.04,4.08-4,5-.3-.06-1.89-1.71-2-2-.24-.62.37-2.57-.04-2.93-.34-.3-6.3,0-8.2-.33-35.12-6.24-60.18-55.46-36.73-85.22,1.67-2.12,9.65-8.46,9.81-9.11.3-1.25-1.08-11.07-.71-14.79.66-6.64,6.27-17.1,6.44-20.1.25-4.43-2.75-12.89-2.56-19,.94-29.79,28.34-50.42,57.04-39.94,13.39-38.5,66.46-40.21,77.96.42Z"/><path class="cls-95" d="M293.39,265.75l-36.25,74.31.25,4.69c-3.42.97-.94-3.02-3-4l-1.02-.7c11.6-25.61,23.83-50.97,36.69-76.1l2.33-.2c.3.58.24,1.52,1,2Z"/><path class="cls-42" d="M225.39,337.75c1.27-.08,2.25,2.26,1,3l-1,2-41-69c.49-.16,1.5-1.47,2-2l3.18,3.09c13.42,20.22,25.36,41.19,35.82,62.91Z"/><path class="cls-9" d="M186.39,119.75c17.25,2.11,32.55,21.71,33.02,38.59.11,3.81-2.58,3.14-6.02,3.42-.12-1.31.14-2.7,0-4-1.32-.25-1.65,1.09-1,4-1.08,4.02-3.91,4.06-6.53,6.97-8.25,9.15-13.4,22.09-13.54,34.52-.03,2.94,1.97,10.77.94,12.38-.42.66-9.28,2.27-10.86,2.13-16.16-1.42-32.25-22.12-37.04-36.46-9.89-29.6,6.04-65.82,41.04-61.54Z"/><path class="cls-9" d="M180.39,219.75c1.6.41,3.07,1.4,5,1.01l-2,7.99c1.75.36,5.66-.61,6.86.15.76.48,5.22,16.39,5.13,17.31-.55,5.68-14.49,15.7-19.99,16.55-9.6,1.49-22.25-5.02-29.47-11.03-22.37-18.63-31.74-56.19-6.02-75.95,5.73,15.92,13.19,31.73,28.81,40.16,4.34,2.34,7.32,2.69,11.68,3.82Z"/><path class="cls-26" d="M189.39,117.75c-16.16-4.45-30.1,2.53-40.99,14-7.19-26.8,10.46-56.57,40.37-53.87,1.75.16,7.72,1.3,8.96,2.03,3.36,1.99.72,6.03.62,9.3-.42,13.1.67,20.06,4.85,32.24.58,1.69,2.69,2.55-.81,2.3-4.53-3.16-6.79-5.37-13-6Z"/><path class="cls-9" d="M279.39,236.75c.78.18,2.11-.41,2.83.14.35.27,2.28,6.39,3.35,8.18,1.68,2.84,7.51,7.46,7.82,8.19,1,2.42-5.06,1.53-5.05,4.98,0,1.81,3.05,3.58,4.06,5.51l-38,77c-.43-.2-1.77.27-1.99,0-1.78-2.23,13.11-48.25,14.99-54.99,2.92-16.35,7.31-33.16,12-49Z"/><path class="cls-26" d="M195.39,251.75l1.95-.63c10.18,26.08,19.98,54.57,28.99,81.92.37,1.12.28,2.39.05,3.71.63,1.68.62,1.92-1,1-13.07-21.91-27.02-43.57-39-66,5.34-5.72-.81-4.97-1.92-7.58s3.73-3.91,5.93-5.91c2.67-2.42,3.16-4.08,4.99-6.51Z"/><path class="cls-26" d="M198.39,248.75c.48-2.48,2.5-10.04,5.49-10.01.63,0,7.2,9.01,7.51,10.01l.9.29c4.51,19.95,9.66,40.79,15.44,62.52l.66,7.18c1.76,6.98,3.13,14.01,5,21,1.14,3.11.8,4.44-1,4l-1-1-1.32.28c-10.75-30.02-21.24-60.21-31.46-90.56-.92-.64-1-1.88-.22-3.71Z"/><path class="cls-68" d="M214.39,249.75c4.84,3.25,8.78,6.39,15,7.01-5.77,9.82-3.5,6.72,3,8.99.2,1.14.73,1.85,1.6,2.13,1.31,19.27,2.11,38.56,2.4,57.87-.03,1,0,2,0,3,.86,4.15.52,7.15-1,9-2.86-6.42-3.37-13.3-5-20-7.32-22.06-13.29-45.95-17.61-68.3l1.61.3Z"/><path class="cls-113" d="M277.39,236.75c.53.17.95.32.93.4-2.27,14.46-6.82,31-10.9,45.15-.07.23-.5.35-1.03.45-4.12,12.16-7.49,24.65-11,37-2,1.99-2.12-2.33-1-4-.83-6.72-.27-13.74,1.67-21.06,2.95-18.35,6.13-36.99,9.81-55.13.07-.36.71-.6,1.52-.81.36-1.83,1.61-3.71,1.01-6,2.64,2.13,5.72,3.18,8.99,4Z"/><path class="cls-66" d="M231.39,342.75c-1.29,1.88-1.23,3.08-3,1-.84-2.42-1.5-4.75-2-7-10.95-26.81-18.19-55.24-28.25-82.3-.59-1.58-.34-3.21-2.75-2.7,2.42-3.21,2.28.69,3-3l33,94Z"/><path class="cls-118" d="M267.39,238.75c-3.94,19.97-12.81,58.24-13,77-.28.87-.62.86-1,0,.06-.99-.02-2.01-.01-2.99h-.98s-1.01,3.99-1.01,3.99c4.62-23.29,9.23-49.5,12.53-72.99.21-1.53,1.4-4.01-.53-5.01.88-1.25,1.06-3.58,2.99-4l1.01,4Z"/><path class="cls-112" d="M214.39,249.75c-1.62.65-.24,3.23.09,4.4,5.83,20.99,10.78,42.43,15.91,63.6-2.04-1.28-2.17-1.67-2,1-4.65-18.4-9.66-36.76-14.32-55.18-1.11-4.37-1.55-11.18-2.68-14.82,1.54-.37,1.99.32,3,1Z"/><path class="cls-51" d="M232.39,265.75c.8.28.65,1.99,1.5,2.01s.75-1.7,1.5-2.01c.2,3.82-.28,7.72-.04,11.54.08,1.3,1.04,2.61,1.04,2.96v19c0,4.29,1.04,10.24,1,15.5-.02,2.48-.89,7.43-1,11l-4-60Z"/><path class="cls-16" d="M279.39,236.75c-2.26,16.73-7.5,32.83-12,49l-1-3,11-46c.58.14,1.41-.14,2,0Z"/><path class="cls-63" d="M212.39,161.75c-.37-1.94-3.45-13.44-3-13.99,1.53-1.85,2.14,1.3,2.46,1.98,1.46,3.17,1.19,4.88,1.54,8.01-1.69.69-.71,2.92-1,4Z"/><path class="cls-72" d="M228.39,343.75c-.38-.45-1.6-2.34-2-3-.35-.58-.39-1.98-1-3l1-1c.71,1.75,4.19,5.8,2,7Z"/><path class="cls-26" d="M276.39,79.75c3.89,14.03,1.03,39.38-9,50.5-1.91,2.11-14.85,14.32-16.64,15.36-17.33,10.05-35.97-5.76-43.35-20.85-10.61-21.7-8.58-57.13,15.06-69.44,22.1-11.51,47.42.96,53.94,24.44Z"/><path class="cls-39" d="M272.38,98.76c-1.42,11.08-4.49,21.4-10.77,30.72-1.64,2.44-3.31,5.45-6.22,6.28,2.77-6.5,7.44-11.57,10.17-18.32,2.43-6.01,2.66-11.06,4.33-16.71.52-1.77.2-2.35,2.48-1.96Z"/><path class="cls-14" d="M278.39,77.75c1.77,6.25,3.14,14.57,3.01,21,26.03-23.91,64.63-7.21,67.04,27.46.89,12.8-1.57,24.92-8.03,35.98,42.14,29.14,8.48,99.39-39.01,94.57-.57,2.03,1.75,5.44.58,7.04-2.17,2.95-7.05-2.08-8.58,1.96-1.31.7-1.64.03-1-2-5.79.57-8.58-7.66-1.98-10.68-4.92-4.36-8.59-9.81-11.02-16.32-.56,1.92-1.46,1.95-2,0l-1.93,1.56c-3.07-1.82-5.76-1.68-8.07.44h-4c.6,2.61-1.39,5.61-3.13,7.52l-13.97,10.35c.54,23.05.11,46.13-.87,68.81.39,9.73,1.66,7.1,3.79-7.92l2.18-.77c.53-5.8,3.68-7.69,2-1,.92,2.91,1.1,7.78-1,10,.02,2.24.35,2.91,1,2-.26-2.77-.29-6.43,2-8,.89-12.56,3.75-26.72,11-37,1.01-.51,1.35.49,1,3l1.57,1.79-15.24,51.6.67,1.62,1.52-.44c.2,2.16.69,3.64,1.48,4.44l48.84,27.16.18,58.14c-.32,1.31-19.02,10.43-21.94,12.29-7.55,4.83-6.01,4.71-14.82,8.18-6.75,2.66-17.28,11.73-24.01,13.06-2.15.42-3.04.1-4.98-.58-6.74-2.35-16.43-11.02-23.01-12.98-2.26-.67-5.5.17-7.59-1.17-1.17-.75-1.22-3.18-2.69-4.55-4.37-4.05-17.87-8.76-23.3-12.7-4.67-3.38-1.69-4.83-1.61-9.3.24-14.27-.87-28.11-1.12-42.02-.04-2.14.04-4.33.72-6.37,1.75-5.25,16.24-10.22,21.35-13.15,3.5-1.4,4.02-.14,1,2l-1.8,3.16c-1.71.73-13.09,7.12-12.54,7.61,2.05,1.8,19.13,10.55,20.66,10,1.24-.45,15.72-10.12,16.8-11.23-6.88-1.65-9.69-5.92-7-12.66-3.22-1.39-6.26,0-9.22,1.44l-1.9-1.33c-2.15.75-2.81.41-2-1,2.81-1.6,6.74-5.05,9.67-6.83,4.35-2.63,12.23-3.27,8.33-9.17-.75-2.13-.41-2.8,1-2,1.46-.69,2.24,1.58,2,3,1.04-.52,2.04-.86,3-1,1.3-1.33,1.47-.78,1,1,.57.5.9,1.83,1,4,1.77-1.15,1.74,2.55,1.71,2.37-.86-2.38-.76-4.17.29-5.37-1.57-.31-2.24-1.98-2-5-4.2-5.53-6.63-14.12-5-21-.69-3.85.1-4.77,2-1l2.44,1.7c1.45,6.04,2.31,12.14,2.56,18.3l.96.33c.34,5.57.32-6.69.04-9.33-2.57-1.12-2.57-1.87,0-3-.37-4.08-.04-7.75,1-11l2.04,3.14-.04-50.5c-1.66.08-3-.47-4-1.64-.89,4.77-1.92,4.64-3,0-5.32,3.6-10.96-1.29-6.29-7.3-6.02-1.54-9.93-4.44-11.71-8.7-1.17,1.51-2.27.39-3-1l-2.09.33-5.85-7.96c-1.23,3.8-2.91,6.34-5.06,7.64,1.4,2.72.4,3.72-3,3,.61.63,1.22,1.52.87,2.22-2.26,4.51-5.94,6.96-10.03,9.43,5.17,1.87,6.01,9.06.16,8.35.83,2.7.72,3.32-2,2-4.49,1.47-13.43,2.03-9-5,1.06-1.11,1.72-.44,2,2,2.7-1.71,4.04-3.38,4-5l-2.22-.12c-2.2,2.94-3.45,2.81-3.73-.37-3.87.42-6.67.03-8.39-1.17,2.62-.62,5.4-1.07,8.34-1.34,1.34-2.3,3.71-4.14,7.11-5.53,13.54-7.71,11.51-13.82,6.19-26.63-7.2,1.28-8.02-1.85-5.84-7.95-1.79-.23-2.54-.95-2.47-2.89-3.67-2.04-3.01-2.71,2-2,1.48-2.16,4.53-3.35,9.14-3.55-3.86-18.98,3.32-43.06,20.86-52.45-.78-3.23-.45-4.56,1-4,4.91,4.46,4.61.27,3.47-4.25-3.74-14.81-13.74-27.88-29.1-31.52l-1.37-2.24c-10.1-1.47-3.33-3.53,3-2,2.69-4.02,13.17,1.6,13,6l1.7.32c.22-2.42,1.32-2.19,3.3.68l2.47.43c6.38,12.01,21,25.3,35.53,20.63,5.75-1.85,20.02-15.22,23.15-20.45,7.41-12.37,8.85-29.4,6.34-43.4l1.51-2.21c-1.08-3.55-.24-5.66,2-2Z"/><path class="cls-69" d="M251.39,316.75c-.92,4.66-2.14,13.08-3.47,17.03-.52,1.56-1.55,3.33-3.53,2.96.62-4.26-.94-8.28-1.05-12.44-.19-7.51,1.03-15.7,1.08-23.01.11-15.01-.17-30.03-.05-45.05.4-2.1,11.32-8.23,14.05-10.95,1.68-1.68,3.54-4.51,4.96-6.54,1.84-1.55,2.79-.39,2.36,1.88l-8.98,49.89c-1.04,8.99-2.83,17.73-5.38,26.22Z"/><path class="cls-102" d="M352.39,179.75l.48,3.48c-21.78,19.19-43.08,38.51-63.89,57.94l-2.59-1.42c-.37-1.33,0-3.43.93-4.57,9.47-7.62,18-16.37,27.07-24.43l.1-1.36c11.22-9.24,23.13-19.2,34.03-29.67l2.87-.97c.23.39.86.69,1,1Z"/><path class="cls-54" d="M235.39,265.75c1.05-.44,5.56-1.43,6-1v73c-2.5.19-1.71.24-1.97-1.5-1.05-7.06-1.96-14.34-2.02-21.5-1.48-4.16-2.35-11.41-1-15.5-.5-.08-.88-.17-.89-.3-.16-1.95-1.09-17.43-.44-18.05.34-.33.82-.51,1.33-.65-3.72-.45-2.77-11.45-1-14.5Z"/><path class="cls-88" d="M354.39,184.75c.3,1.01-.25,2.85,0,4l.2,1.26c-21.27,18.39-42.21,37.15-62.8,56.28l-1.4-.54c-.25-.36-.76-.62-1-1-.04-1.37-.29-2.64-.75-3.81,21.25-19.47,42.84-38.61,64.78-57.43l.97,1.24Z"/><path class="cls-13" d="M355.39,195.75l.03,1.41-56.9,50.79c-.69,2.3-1.73,2.89-3.13,1.79-.4-.33-2.3-.31-3-1l-.71-2.44c19.03-17.93,39.53-36.03,59.89-53.58,1.06-.91,2.4-1.49,3.82-1.98.52,3.06-.1,3.86,0,5Z"/><path class="cls-26" d="M356.39,201.75l-2.33,4.02c-17.24,14.9-34.38,30.85-49.85,46.28-.62.61-1.07.58-1.81-.3-.41.26-3.35.97-4,1-1.64-.48-1.53-3.25-.23-4.47l51.71-46.33c1.79-2,3.96-3.39,6.52-4.2.06,1.32.01,2.67,0,4Z"/><path class="cls-26" d="M355.39,209.75c-.11.56-.81,1.32-1,2l-1.95,3.77c-13.94,11.53-27.91,23.99-40.65,36.75l-1.4-.53c-1.64,1.37-3.77,2.53-6,2l-.69-1.18c16.46-16.15,33.27-31.95,50.45-47.4,1.15.49,1.57,2.01,1.25,4.58Z"/><path class="cls-32" d="M316.39,90.75c.79.41,1.95,1.47,1.95,2.22,0,2.29-29.55,28.37-33.35,31.27.57,1.17-.63,1.67-3.59,1.5-1.13.69-6.37,2.62-6.99,1.99-.46-2.14,1.67-2.62,2.99-3.99l-.67-1.19c11.08-9.01,22.99-19.98,32.05-30.28l4.63-1.53c.96.12,2.1-.16,3,0Z"/><path class="cls-7" d="M354.39,184.75c-1.96-.02-2.78,1.35-4.02,2.48-16.72,15.27-34.41,29.63-51,45.01-3.42,3.17-9.34,7.9-9.99,12.51-.88-1.38-.86-2.33-1.39-3.65-.27-.67-1.55-1.11-1.61-1.35,4.97-.46,8.39-6.31,11.99-9.51,15.27-13.62,32.36-26.94,47.03-40.97,2.6-2.48,7.04-5.7,6.99-9.51.75,1.69,1.46,3.22,2,5Z"/><path class="cls-8" d="M355.39,190.75c-14.36,13.13-29.63,25.38-44.01,38.49-5.24,4.77-11.56,10.54-16.52,15.49-1.19,1.19-2.45,2.13-2.47,4.03-1.21-1.19-1.27-1.95-2-3l64-57c.14.65.9,1.42,1,2Z"/><path class="cls-45" d="M353.39,216.75c-1.58,3.84-4.15,7.03-7,10l.43,1.47c-7.99,6.54-15.58,13.57-22.76,21.07l-2.67.45c-2.57,2.07-5.08,2.77-8,4-1.11.91-1.86-.08-1.81-1.36.11-2.7,34.12-32.1,40-36.23.68-.48,1.24-.25,1.81.58Z"/><path class="cls-24" d="M322.39,92.75c1.34.42,2.05,1.68,1.56,3.05-10.81,9.4-21.32,19.16-31.52,29.28l-2.04.67c-.33-.05-.68.06-1,0-1.88,1.01-6.45.79-4.75-1.21,11.2-10.04,22.32-20.35,33.03-30.91.01-1.24.92-1.53,2.72-.88.67.02,1.34-.03,2,0Z"/><path class="cls-100" d="M356.39,197.75c-19.9,16.17-38.09,34.3-57.57,50.96l-.43,4.04c-3.12.16-1.37-1.66-3-3l60-54c.05.58.98,1.51,1,2Z"/><path class="cls-106" d="M355.39,209.75l-1-3.5-50,47.5c-.55-.13-1.44-1.52-2-2,2.14-1.36,8.17-8.98,10.99-11.51,14.3-12.87,29.04-25.27,43.01-38.49-.04,3.66-.4,4.91-1,8Z"/><path class="cls-90" d="M327.39,95.75c.88.29,2.4,2.57,2.53,3.17-10.77,8.23-20.86,17.44-30.27,27.6l-2.27.22c-1.28-.36-3.57.3-5,0l.65-2.34c10.14-10.15,20.84-20.41,32.35-28.66.67.02,1.34-.03,2,0Z"/><path class="cls-90" d="M332.39,99.75c.41.4.57,1.57,1,2-8.79,9.25-18.33,18.43-28.6,27.54l-1.4-.54c-.99-.07-2.02.1-3,0-.67-.17-1.28-.6-1.3-1.32-.06-2.39,24.17-23.29,28.91-27.19.37-1.47,1.84-1.63,4.39-.49Z"/><path class="cls-33" d="M337.39,104.75c.45.6.99,1.5.75,1.74-8.84,8.86-19.27,17.8-28.75,25.26-.71-.23-2.09.16-3,0-1.34-.51-2.11-1.73-1.25-2.99,9.43-8.89,19.25-17.97,29.25-26.01.19.19,1.45.3,3,2Z"/><path class="cls-104" d="M306.39,90.75c2.25.07,3.36.68,3.34,1.82l-32.11,29.69c-2.06.74-1.88-.8-1.23-2.51.7-1.68,2.93-5.88,4-7l-.18-1.49c7.34-5.17,14-11.27,19.99-18.31l5.19-2.2c.33-.03.67.02,1,0Z"/><path class="cls-65" d="M349.39,174.75l.61,3.14c-8.53,9.23-18.66,17.65-28.56,25.72-.43.35-1.19.31-2.04.15-1.95,1.13-1.56-.3-1-2,1.37-1.95,2.36-4.41,4-6l-.14-1.16c8.41-6.51,16.79-13.13,25.14-19.84h2Z"/><path class="cls-84" d="M339.39,107.75c.63,1.01.61,2.18,1,3l.56,1.3c-8.94,8.55-18.13,16.45-27.56,23.7-3.58-1.96-1.68-1.39-3-3,8.24-8.64,17.22-17.15,26.97-25.55l2.03.55Z"/><path class="cls-24" d="M342.39,112.75c.34.89-.32,3,0,4,0,.72-.08,1.42-.35,2.02-.7,1.53-22.74,22.19-24.39,22.29l-2.26-1.31c-.53-.52-1.81-.98-1.91-1.18-.46-.87.9-1.61.91-1.82,2.61-2.75,24.8-24.67,26.62-24.58.47.02.92.27,1.38.58Z"/><path class="cls-46" d="M353.39,216.75l-6.01,3.49c-10.14,10.24-21.17,19.51-32,29-.8.7-4.44,3.38-1.99,4.51-.22.09-.18,1.55-1.99,1l-1.01-3,44-40c-.43,1.56.08,2.37-1,5Z"/><path class="cls-65" d="M344.39,118.75c.35,1.23-.21,3.5,0,5,.17.45.31,1.06,0,1.36-6.2,5.97-15.51,13.95-22.26,19.43l-1.74.21c-1.35-.75-1.35-1.4-2-2-.54-1.68,1.07-3.73,4.81-6.14,6.4-6.08,12.87-12.11,19.34-18.12.53-.5,1.19-.29,1.85.26Z"/><path class="cls-27" d="M316.39,90.75c2.86.52,1.51,2.12,4,2l-35,32.5c.62,1.11,2.84.29,4,.5-1.87,2.25-5.6.54-8,0,3.96-2.42,30.34-27.2,34.03-31.5,1.05-1.22,2.54-1.63.97-3.5Z"/><path class="cls-20" d="M344.39,131.75c.07.59.06,1.11-.2,1.37-2.32,2.29-18.53,16.9-19.81,17.22s-2.7-.29-2.99-1.59c-.04-1.74-.03-1.72,1-3-.32-.52-.54-.94-.44-1.04,6-6.05,15.46-15.1,22.46-19.67.12-.08.52.26.99.71.23,2.64-1.03,4.89-1,6Z"/><path class="cls-110" d="M313.39,90.75l-36,33c-3.27-1.67-1.91-1.83-1-4-.15,3.51.5,1.62,1.98.48,10.68-8.21,19.52-19.36,30.02-27.98l-2-1.5c2.81-.17,3.33-.47,7,0Z"/><path class="cls-86" d="M351.39,178.75c-8.57,7.2-16.57,15.14-24.99,22.51-3.67,3.22-8.51,6.37-12.01,9.49-1.78-2.07.37-2.8,1-4,1.43-1.4,2.77-2.4,4-3,6.96-6.69,15.57-12.36,22.53-18.97,2.72-2.58,7.42-6.11,7.47-10.03,1.33.56,1.3,2.82,2,4Z"/><path class="cls-35" d="M346.39,170.75c.2.84-.46,2.3-1,3,.35.4.59.77.5,1-.53,1.35-20.13,18.29-22.03,18.87-.37.11-.9-.31-1.47-.88,1.21-4.68,2.53-5.74,6-9,1.89-2.7,11.49-12.82,14.23-13.71.87-.29,2.85.25,3.77.71Z"/><path class="cls-55" d="M327.39,95.75c3.39.16,1.19,1.31,2.28,2.7.4.5,1.92.53,2.72,1.3-3.38.22-7.42,4.21-10.01,6.49-6.28,5.52-13.89,12.39-19.51,18.5-1.13,1.23-2.5,2.06-2.48,4.02-2.64-.26-2.47-1.85-3-2,5.97-5.17,11.22-11.14,16.99-16.51,3.37-3.14,9.81-7.27,12.6-10.43,1.36-1.55,1.8-2.25.42-4.05Z"/><path class="cls-29" d="M322.39,92.75c2.77.13,1.55.87,3,3-10.84,10.46-22.9,19.82-33,31-.63-.13-1.42-.91-2-1,9.26-10.88,21.05-19.32,31.36-29.15,1.63-1.55,2.24-1.65.64-3.85Z"/><path class="cls-83" d="M345.39,133.75c-.02,1.33.03,2.67,0,4-.4,1.91-1.22,3.09-2.47,3.56-4.53,4.73-11.2,10.36-16.53,13.44-.98-.09-2.01.08-3,0-.22-1.31.21-2.02,1-2.99l-.68-1.25c6.94-5.6,13.75-11.38,20.44-17.36l1.24.61Z"/><path class="cls-1" d="M334.39,102.75c-7.84,9.57-18.9,16.26-27.03,25.5-1.08,1.22-2.52,1.66-.97,3.5-2.7-.46-1.53-.47-3-3l30-27c.33.33.67.67,1,1Z"/><path class="cls-103" d="M339.39,107.75l-29,25c-.31-.38-.26-.76-1-1l28-27c1.07,1.17,1.27,1.83,2,3Z"/><path class="cls-36" d="M296.39,92.75c1.55-.41,3.94,0,3.29,1.7-.45,1.17-17.65,16.16-18.99,16.21-.42.02-.86-.39-1.3-.91.23-6.53,11.55-14.43,17-17Z"/><path class="cls-10" d="M344.39,143.75c-.65,2.18-1.36,4.35-3,6-.57,2.42-6.05,6.64-9,8-.88.59-6.62,2.3-7,1.99.39-1.98,1.81-2.8,3-3.99,3.62-5.43,10.29-11.25,15.8-15.45.18-.14.7,2.8.2,3.45Z"/><path class="cls-59" d="M344.39,118.75l-26,24c-1-.92-2.02-2.03-3-3,2.27.37,3.05-.73,4.54-1.96,7.59-6.29,14.71-14.78,22.46-21.04.17.54,1.85,1.49,2,2Z"/><path class="cls-71" d="M346.39,226.75c4.6,2.51.87,3.03-2,5-4.82,5.84-10.33,11.32-17,15-1.48,1.59-1.41,5.59-6,3,6.84-5.5,18.9-16.64,25-23Z"/><path class="cls-73" d="M305.39,90.75c-7.39,6.45-14.68,12.95-21.52,20.01-.99,1.02-2.95,1.45-3.48,1.99-.47-.87-1.03-2.01-1-3,7.87-2.95,12.05-11.07,19.02-15.49l-2.02-1.51c4.35-2.05,4.55-1.55,9-2Z"/><path class="cls-17" d="M342.39,112.75l-28,24c.09-1.06-.6-.78-1-1l27-25c.28.58,1.75,1.35,2,2Z"/><path class="cls-85" d="M341.39,166.75c.37.25.59,1.66,1,2,.36.6.61,1.08.49,1.2-3.74,3.75-10.35,9.41-14.53,12.86-.18.15-.54.07-.96-.07-.93-.14-2.74.55-3.01-.51.02-.58,2.6-5.07,3.01-5.49-.38-1.24.71-2.39,3.25-3.47l7.5-7.16,3.25.63Z"/><path class="cls-92" d="M347.39,174.75c-7.34,6.85-15.08,13.27-22.5,20.04-.83.75-2.29.75-2.5.96-1.57-1.61-.2-2.23,0-3,2.61-.77,5.36-3.27,7.48-5.02,3.92-3.26,12.75-10.39,15.52-13.98l2,1Z"/><path class="cls-58" d="M345.39,125.75c-1.53.54-2.79,1.41-4.02,2.47-4.87,4.23-15.36,13.04-18.98,17.53-.41-.91-1.48-.71-2-1l24-21c.08.59.95,1.46,1,2Z"/><path class="cls-62" d="M344.39,131.75c.01.53,1.01,1.55,1,2-5.43,2.55-9.6,8.35-13.99,12.51-1.81,1.72-5.56,3.68-7.01,5.49-1.87-1.84-2.92.13-3-3,1.98,1.54,2.42.75,4.03-.44,6.4-4.72,11.94-12.81,18.97-16.56Z"/><path class="cls-12" d="M197.34,226.77c.32.24,3.07,6.61,3.04,7.37-.04.99-2.18,8.72-3.99,6.62-.42-.48-1.86-10.56-3.09-12.37.14-.85,3.66-1.9,4.04-1.62Z"/><path class="cls-94" d="M344.39,143.75c.2-3.32-.51-1.84-2-.5-4.59,4.14-9.68,8.15-14,12.5-.27-.99-1.15-.92-2-1l19-17c-.06,3.08-.21,3.35-1,6Z"/><path class="cls-49" d="M327.39,246.75c5.02-5.39,11.01-10.89,17-15-2.66,6.57-9.78,13.91-17,15Z"/><path class="cls-81" d="M346.39,170.75c-2.3-.41-3.29.21-5.06,1.44-2.77,1.93-10.05,8.84-12.94,11.56-.11-.48-.53-.93-1-1l15-14c1.44,1.21,3.72.85,4,2Z"/><path class="cls-96" d="M337.39,164.75c1.05,2.43-7.4,9.87-10.09,10.17-.26.03-.58-.49-.91-1.17,0-3.08,5.85-9.73,8.5-9.97,1.07-.09,1.79.76,2.5.97Z"/><path class="cls-38" d="M341.39,166.75c-4.24.16-7.62,5.14-10.52,8.01-1.02,1-2.94,1.44-3.48,1.99-.47-.89-1-1.99-1-3,4.75-.8,8.09-5.51,11-9,1.65.48,2.61,1.07,4,2Z"/><path class="cls-28" d="M295.39,224.76c-1.24,1.79-8.96,10.83-10.99,8.98-1.87-1.7,8-10.17,10.99-8.98Z"/><path class="cls-34" d="M341.39,153.75c-1.49,4.01-4.16,9.78-8,5,.57-1.98,9.49-11.03,8-5Z"/><path class="cls-67" d="M249.38,149.76c-1.44,7.19-3.01,10.25-6.99,2.01l6.99-2.01Z"/><path class="cls-48" d="M221.39,157.75c-.85-.93.87-3.2,1.35-4.14.52-1.01,2.84-5.34,4.13-4.85,4.06,1.54-4.4,10.17-5.48,8.99Z"/><path class="cls-43" d="M237.38,261.74c-.67.91-7.7,2-6.99-1.47.97-4.74,8.86-1.07,6.99,1.47Z"/><path class="cls-61" d="M341.39,153.75l-.5-2-7.5,7c-.3-.37-.65-.68-1-1,.51-.34,8.29-7.29,9-8,1.81,2.15.49,2.69,0,4Z"/><path class="cls-74" d="M181.39,265.75c7.15,2.22-.85,5.66-4,5-.27-2.76,1.17-4.83,4-5Z"/><path class="cls-108" d="M278.23,227.96c.22.14,2.63,4.36,2.16,4.79-1.3.22-7.09.22-6.98-1.49.06-.91,2.76-4.58,4.82-3.3Z"/><path class="cls-2" d="M193.38,224.75c-6.75,2.09-9.64-.35-2.64-3.91l2.64,3.91Z"/><path class="cls-78" d="M255.39,319.75c-.75,2.63-1.3,5.36-2,8-.81.76-1.14.1-1-2,.4-2.75.83-7.2,1-10h1c-.01,1.31-.47,3.32,1,4Z"/><path class="cls-11" d="M299.39,260.74l-6.98-2.49c3.04-3.45,5.96-1,6.98,2.49Z"/><path class="cls-40" d="M232.38,151.76c-.69,3.47-3.04,6.9-6.99,5.98.54-1.27,5.87-7.12,6.99-5.98Z"/><path class="cls-70" d="M240.38,156.75c-4.15.86-7.49-2.5-2.51-3.99,1.23,1.26,2.89,2.11,2.51,3.99Z"/><path class="cls-51" d="M236.39,328.75l.99,12c-1.85-.23-1.5-1.9-1.99-3,1.81-1.97.99-6.18,1-9Z"/><path class="cls-91" d="M253.39,327.75l-2.99,8c-.86-3.38,1.6-7.31,1.99-10l1,2Z"/><path class="cls-111" d="M224.38,146.76c.71.66-1.81,5.88-3.99,4.99-.74-2,1.75-7.1,3.99-4.99Z"/><path class="cls-4" d="M331.39,162.76c-.2,1.16-4.1,5.01-4.99,3.99v-3.99s4.99,0,4.99,0Z"/><path class="cls-75" d="M319.39,203.75c-1.09,1.05-1.96,3.08-3.51,3.98l-.49-.98c1.03-1.96,1.71-3.17,3-5l1,2Z"/><path class="cls-9" d="M227.15,161.01c48.93-7.14,58.76,60.75,23.57,86.57-37.19,27.29-71.86-40.64-45.31-73.31,5.27-6.48,13.31-12.03,21.74-13.26Z"/><path class="cls-114" d="M265.39,210.25c-.54,4.77-3.93,14.39-6.18,18.82-1.09,2.14-7.99,13.88-10.82,11.67,4.39-5.57,8.61-11.61,11.18-18.31.94-2.44,3.82-11.21,3.82-13.18v-15.5c.65-.08,2,1.33,2,1.5,0,4.68.5,10.55,0,15Z"/><path class="cls-9" d="M272.46,222.67c6.73-23.8.86-51.48-23.12-62.48,14.24-49.66,78.5-36.25,74.03,16.05-2.01,23.53-24.03,55.67-50.91,46.43Z"/><path class="cls-71" d="M317.38,174.76c-.68,12.76-7.29,28.67-17.98,35.99-.66-.7,6.54-9.32,7.52-10.97,4.77-7.94,5.92-14.14,8.33-22.72.47-1.69-.74-2.79,2.13-2.31Z"/><path class="cls-41" d="M207.39,358.75l2,1c.71,3.04-2.43,4.73-5,3,1.28-2.04,1.67-2.17-1-2,1.53-.88,2.91-1.38,4-2Z"/><path class="cls-9" d="M215.39,394.25c.06-.26,1.47-1.95,1.98-1.01,6.61,5.94,17.69,8.45,24.41,13.61,1.56,1.2,1.45,1.51,1.66,3.34,1.82,15.68-1.33,34.65-1.07,50.56-8.73-5.88-18.97-9.58-26.99-16.5v-50Z"/><path class="cls-26" d="M208.39,440.75c-.96,1-21.77-11.17-24-13.5v-50.5c8.34,2.34,16.51,7.98,24,12.5v51.5Z"/><path class="cls-26" d="M301.38,374.74c-8.24,2.49-15.33,8.37-23.27,10.86l-30.72-17.35c3.72-.22,24.78-4.28,17.74-11.25-4.32-4.27-13.32,1.47-17.74,1.26,2.1-3.76,5.89-6.94,6-11.51.78-.09,1.53.02,2.3.18,4.92,1.07,34.71,19.08,41,23.02,1.19.75,5.88,3.16,4.7,4.79Z"/><path class="cls-26" d="M209.39,359.75c5.49-2.52,8.18-4.1,14-.98-5.46,9.48,1.52,11.62,10,11.99l-21.31,14.23c-1.3.9-2.28.69-3.69.34-1.22-.3-21.99-10.83-21.99-12.08,5.83-4.14,11.53-7.27,17.98-10.5,1.94-.97,3.84-2.47,5-3Z"/><path class="cls-6" d="M241.38,375.76l4.96,17.58,6.04-2.12-4.98-14.47c5.48,4.62,15.83,7.49,20.93,11.56,1.17.93,2.41,1.64,2.06,3.43-8.24,1.58-17.63,10.74-25,12.6-1.77.45-2.06.33-3.69-.34-2.47-1.02-23.31-12.39-23.29-13.75,1.48-1.2,9.93-6.46,10.98-5.49l-3,6.49c3.42,2.29,3.77-2.76,5.76-5.27,1.07-1.35,2.49-2,3.25-3,.89-1.16,4.2-8.87,5.99-7.22Z"/><path class="cls-37" d="M276.39,445.75h-2v-56.5c-6.54-5.39-14.99-8.43-22.3-12.7-1.13-.66-4.62-2.22-4.19-3.81,9.67,4.78,20.27,9.66,28.49,16.51v56.5Z"/><path class="cls-117" d="M272.39,410.75c.41,2.02-1.13,4.27-2,6,.07.63.06,1.19-.22,1.51-2.91,3.33-22.2,23.46-23.82,23.03l-.96-2.54c.94-4.98,6.05-7.81,9-11-.19-.63-.28-1.19-.05-1.45,3.52-3.99,12.41-13.66,16.46-16.1.31-.18.9.11,1.58.55Z"/><path class="cls-93" d="M272.39,418.75c.32,1.6-1.03,3.64-1,5,.04,1.97-.98,3.2-2.26,4.5-5.69,5.74-11.46,11.48-17.23,17.15-1.64,1.61-3.18,2.93-4.89,4.34-.7.58-1.28.07-1.63-.99,0-2.05.8-4.39,2-6l-.82-1.13c8.05-7.97,16.12-15.89,24.23-23.76l1.59.89Z"/><path class="cls-77" d="M272.39,401.75c.48,2.03-.78,5.32-2,7,.43.66.73,1.22.58,1.4-3.44,4.23-12.84,12.87-17.24,16.77-.22.2-.74.06-1.34-.17-1.74,1.66-4.3,4.05-6.49,5.01-1.25-.94-.2-3.98.49-5.01-.39-2.53.05-3.45,1.31-2.76,7.77-7.77,15.58-15.42,23.45-22.94l1.24.71Z"/><path class="cls-32" d="M301.39,413.75v1.69c-5.36,6.22-11.55,12.84-18,17.31-6.87,6.89-6.02.75-2-4,5.37-7.44,13.32-15.83,20.83-22.23.19-.16.64,0,1.17.23.44,3.19-.27,4.56-2,7Z"/><path class="cls-83" d="M265.39,397.75c2.67-1.31,4.3-3.43,7-3.99l-2,5.99.83,1.06c-8.14,7.89-16.23,15.9-24.27,24.02-1.29.1-1.05-5.05-.56-6.08.18-.3.69-.65,1-1l-.39-1.56c6.43-5.89,12.56-12.03,18.39-18.44Z"/><path class="cls-15" d="M272.39,427.75c-.04,3.08-1.65,4.18-2,6-6.63,7.8-13.74,15.25-21.32,22.35-1.05,2.81-2.55,2.34-3.68-.35,0-1.19.88-2.72,1-4l.09-1.78c8.05-7.56,16.1-15.12,24.14-22.67l1.76.45Z"/><path class="cls-82" d="M303.39,386.75c.07,2.8-.61,3.91-2.04,3.34-6.74,7.13-13.67,14.09-20.79,20.88l-1.16-.22c-.24-1.85-.08-4.42,1-6l-.12-1.38c2.51-2.71,21.22-22.86,22.75-22.37s1.08,4.5.38,5.76Z"/><path class="cls-60" d="M303.39,402.75c-.1.46-.7,1.58-1,2l-.45,2.07c-7.18,7.09-14.37,14.07-21.55,20.93-3.85-4.61,3.35-9.08,6-12,4.3-6.11,10.44-13.18,16.3-17.97.94-.77,1.97,3.96.7,4.97Z"/><path class="cls-60" d="M280.39,412.75l-.18-1.41c7.53-7.29,14.93-14.69,22.2-22.18,1.69.35,2.02,4.16.98,5.59-.03.11-.93,1.91-1,2,1.4,1.39,1.34,2.39-.57,1.95l-15.16,15.26-1.26-.21c-.88.83-6.22,5.87-6.99,5-.04-1.54,1.19-4.87,1.99-6Z"/><path class="cls-82" d="M302.39,421.75c.15.58.22,1.1,0,1.36-1.16,1.36-8.8,9.81-9.47,10.01-.43.13-.96-.07-1.52-.37-2.37,2.29-7.73,7.9-10.52,8.99-4.25,1.65,2.81-7.19,3.52-7.99,4.77-6.47,11.93-12.9,18-18,1.82,3.55-.05,3.51,0,6Z"/><path class="cls-57" d="M279.39,402.75c-.88-6.6,10.37-16.75,15.48-21.02,1.74-1.46,10.95-8.88,7.52-1.98,1.29,1.41,1.37,2.34-.2,1.46l-21.57,21.81-1.22-.27Z"/><path class="cls-23" d="M271.39,440.75c-.42,2.07-4.9,6.59-7.45,8.93-.49.45-1,.43-1.55.07-3.07,2.76-7.39,6.02-11,8-1.2.66-2.31.74-3.34.24-.8-1.37,19.14-20.04,22.34-22.24.03.53.79,3.4,1,5Z"/><path class="cls-19" d="M272.39,401.75c-3.99.62-5.52,4.91-7.97,7.53-4.29,4.57-15.28,13.39-18.03,17.47-1.37-2.84-1.69-5.21,0-8l.5,5,23.5-24c.48.55,1.87,1.45,2,2Z"/><path class="cls-109" d="M302.39,379.75c2.61,1.31,3.01,4.82,1,7-.19-1.49.6-3.93-.5-5l-22.5,23c-.2-.64-.93-1.44-1-2l23-23Z"/><path class="cls-76" d="M272.39,427.75c-9.86,6.13-16.77,16.85-26,24-.47-.89-1-1.98-1-3,1.96.02,2.78-1.35,4.02-2.48,7.68-7.06,14.8-14.96,21.98-22.52.03,1.24,1.01,2.86,1,4Z"/><path class="cls-80" d="M303.39,394.75c.21-.84.77-4.72-1.49-3.99-1.87,1.54-2.83,3.79-4.49,5.52-4.31,4.5-14.03,12.28-17.03,16.47-.2-.64-.93-1.44-1-2l24-24c.33,2.52,2.11,6.28,0,8Z"/><path class="cls-97" d="M270.39,435.75c-5.87,7.24-13.24,13.13-19.5,20-1.35,1.48-2.82,2.21.5,2-1.59.88-2.96,2.14-4.98,2-.05-1.33-1.01-2.76-1.02-4,1.85,1.55,2.28.11,3.5-.97,7.49-6.59,13.65-14.8,21.5-21.03-.1.53-.04,1.39,0,2Z"/><path class="cls-30" d="M272.39,418.75c-1.96-.02-2.78,1.35-4.02,2.48-4.46,4.1-17.83,17.27-20.98,21.52-1.85-.93-2.41-1.85-2-4,1.55,1.56.23,2.72,2.5,1.01,8.2-6.2,14.06-16.86,22.5-23.01.49.54,1.89,1.44,2,2Z"/><path class="cls-21" d="M260.39,399.75c.43.22.81.47,1.05.82,1.12,1.63-12.66,14.37-14.7,15.79-.21.14-.73-.17-1.35-.62-.23-1.19,1.12-7.54,1.99-8.51,1.12-1.25,10.7-6.25,13.01-7.49Z"/><path class="cls-5" d="M211.39,391.75c.11-1-.13-2.04.51-2.94l2.55-2.5,21.94-12.55c-3.02,6.71-18.79,10.86-22.07,15.42-2.78,3.87.93,10.58-1.93,14.57-.61-3.65-.94-7.65-1-12Z"/><path class="cls-53" d="M303.39,406.75l-22,22c-.29-.37-.7-.64-1-1,3.15-3.24,5.97-7.3,8.97-10.53,3.33-3.57,10.71-9.26,13.03-12.47.2.64.92,1.44,1,2Z"/><path class="cls-107" d="M212.39,403.75c.06,14.32-.03,28.68,0,43-4.33-3.05-1.07-10.21-.95-14.46.35-12.7-1.44-28.42-.04-40.54,1.84,2.98.98,8.22,1,12Z"/><path class="cls-22" d="M265.39,397.75c-3.87,8.5-12.29,13.48-18,20-.48-.54-1.89-1.45-2-2l9.05-7.45,5.95-8.55c2.28-1.23,3.68-1.35,5-2Z"/><path class="cls-18" d="M302.39,415.75c-4.83,6.76-12.64,11.99-18,18l-1-1c5.04-5.06,14.18-13.59,18-19,.32.67.66,1.34,1,2Z"/><path class="cls-59" d="M302.39,396.75c2.58,1.08,2.9,3.84,1,6,.17-.73.34-3.57-.5-4-5.67,5.52-11.19,11.14-16.5,17l-1-2c3.61-3.41,14.69-13.79,17-17Z"/><path class="cls-3" d="M272.39,410.75c-6.84,3.92-12.62,11.18-18,17l-2-1c3.98-3.79,15.38-14.39,18-18,.49.54,1.89,1.44,2,2Z"/><path class="cls-50" d="M262.38,358.76c-1.02,6.19-9.39,4.34-13.99,5.99,1.31-5.85,9.04-6.45,13.99-5.99Z"/><path class="cls-105" d="M279.4,394.75c-1.4-6.67,5.35-8.38,9.98-11,1.22,1.32-8.45,9.99-9.98,11Z"/><path class="cls-64" d="M234.38,367.75c-2.68,0-6.95.51-8.99-1.5-5.63-5.54,8.76-4.02,8.99,1.5Z"/><path class="cls-79" d="M303.39,423.75c-1.77,3.84-5.19,6.89-8.56,9.33-.54.39-.55-1.63.56.67-2.43,1.43-2.48,1.74-4-1,3.6-3.48,6.65-8.19,11-11,.01.52,1,1.54,1,2Z"/><path class="cls-47" d="M295.39,433.75c-3.32.21-1.85-.52-.5-2,2.58-2.83,5.45-5.68,8.5-8-.04,5.17-3.77,7.51-8,10Z"/><path class="cls-25" d="M232.38,356.75c-1.16-1.29-9.03-4.2-6.99-6.99,2.23-3.04,8.11,3.94,6.99,6.99Z"/><path class="cls-98" d="M271.39,445.75c-2.46,1.08-4.79,2.75-7,5-.33.07-1.45-.82-2-1,2.87-2.58,5.33-6.98,9-9,.27,2.09,2.04,2.01,0,5Z"/><rect class="cls-44" x="240.38" y="363.75" width="3.02" height="7.01" transform="translate(-125.73 608.58) rotate(-89.91)"/><path class="cls-87" d="M271.39,445.75c-.84,1.22-5.56,4.71-7,5l5.58-6.92,1.42,1.92Z"/><path class="cls-31" d="M247.4,350.75l2.48-7.99c2.99,1.93-.44,6.77-2.48,7.99Z"/><path class="cls-115" d="M241.38,350.75c-1.52-.1-2-4.53-2.03-5.55-.05-1.76-.05-3.3,1.55-4.44l.48,9.99Z"/><path class="cls-52" d="M228.39,356.75c2.92,1.6,6.47,2.65,8,5.99-3.03-1.32-6.06-3.33-9-4.99-1.32-1.3-.76-1.64,1-1Z"/><path class="cls-89" d="M228.39,356.75l-1,1c-2.47-1.4-6.44-2.22-8-4.99,3.04.64,6.27,2.5,9,3.99Z"/><path class="cls-116" d="M248.38,389.75c-2.2-1.2-2.69-5.76-2.98-7.99,2.3,1.26,3.11,5.61,2.98,7.99Z"/><path class="cls-101" d="M235.39,344.75c1.05,4.77.72,10.01-2,3-1.15-2.84-.22-6.33,2-3Z"/><rect class="cls-99" x="240" y="343.46" width="8.96" height="1.52" transform="translate(-136.37 526.45) rotate(-80.19)"/><path class="cls-112" d="M235.39,344.75c-2.67-.47-2.04.63-2,3-.61-1.57-1.24-1.54-1-4,.05-.55,1.8-2.45,1-4,.36,1.33,1.62,3.27,2,5Z"/></svg>