<?xml version="1.0" encoding="UTF-8"?><svg id="trash" xmlns="http://www.w3.org/2000/svg" viewBox="0 0 512 512"><defs><style>.cls-1{fill:#1c1c1c;}.cls-2{fill:#202121;}.cls-3{fill:#1d1d1c;}.cls-4{fill:#1e1f1f;}.cls-5{fill:#1a1b1b;}.cls-6{fill:#8c8c8b;}.cls-7{fill:#242423;}.cls-8{fill:#1c1d1d;}.cls-9{fill:#1a1a1a;}.cls-10{fill:#1b1b1b;}.cls-11{fill:#222;}</style></defs><path class="cls-3" d="M391.38,278.28c-1.18,30.21-9.6,60.75-10.52,90.87,8.27,7.92-.52,11.58-1.29,15.57-.53,2.71,8.94,13.62,8.32,19.44-.27,2.54-7.86,17.56-9.62,21.19-5.99,12.32-3.72,12.79-18.01,10.31-20.73-3.6-43.12-11.44-63.3-14.55-8.89-1.37-19.72-.99-28.83-2.11-34.92-4.28-71.25-27.2-105-37.72-3.67-1.29-5-6.53-8.03-7.94-7.89-3.65-32.94-4.05-43.42-6.48-.94-.22-4.67-1.69-4.81-2.4-.23-1.13,4.69-20.04,5.58-22.3,2.72-6.95,10.24-12.64,12.7-18.24,1.01-2.3,4.82-28.24,4.69-31.1-.25-5.3-6.64-13.03-5.85-18.89l18.81-80.08c-.74-9.6-7.55-24.47-5.67-33.62.88-4.3,8.76-15.82,11.27-20.66,1.97-3.81,9.45-17.35,9.54-20.51.08-2.78-39.44-20.93-43.04-26.89,2.67-5.24,6.9-8.86,6.19-15.34,7.89-2.2,19.45-12.15,26.78-13.71,1.96-.42,2.44.16,3.94,1.13,2.42,1.56,19.02,16.16,20.05,17.89,3.51,5.9,2.17,15.15,4.13,20.82,1.7,4.93,16.76-.06,21.25-.38,10.39-.73,22.06.26,32.54.48l130.28,51.48c2.89.17,12.8-10.42,15.9-12.96,2.02-1.66,9.07-7.92,10.95-7.97,1.7-.05,17.24,11.1,18.96,12.94,1.38,1.47,2.13,2.46,2.45,4.54.59,3.82,1.96,24.53.61,26.45l-41.48,5.94c-1.23,1.25,9.36,23.99,10.73,27.69,6.45,17.48,12.19,38.49,13.23,57.14.96,3.24.92,6.73,0,9.98ZM170.8,104.61c-.89-5.43-1.77-14.21-4.56-18.88-.82-1.36-16.69-15.66-17.87-15.76-.57-.05-10.03,4.38-10.33,4.86-.91,1.46.66,7.62-1.35,11.13-3.45,6.01-14.63,3.69-4.1,10.48,3.26,2.1,27.11,16.18,28.75,16.14.61-.01,2.03-1.73.67-2.62-3.34-7.4-16.2-19.84-18.12-26.82-.52-1.9,1.14-1.88,2.36-1.35,4.34,1.86,15.46,22.74,20.08,26.83.95-5.28-3.22-10.34-4.7-15.27-.37-1.22-1.38-3.27.72-3.68,2.72-.53,4.43,7.6,5.3,9.65.61,1.45,1.71,4.79,3.16,5.31ZM133.88,77.68c-1.14-1.13-5.24,1.39-3.98,2.98,1.84,2.32,5.71-1.25,3.98-2.98ZM122.92,90.65c2.79-1.22,12.34-7.91,4.47-7.02-2.42.27-4.16,4.61-4.47,7.02ZM176.8,109.62c-2.37-1.46-14.96,6.22-12.97,7.97,5.59.33,10.05-3.75,12.97-7.97ZM230.2,109.61h-43.42c.37,1.82,1.96,1.87,3.46,2.03,9.54,1.05,18.42-.09,28.02,2.92,12.57,3.95,26.04,11.4,38.4,16.49,3.67,1.51,21.06,6.97,22.47,8.47,2.23,2.39-2.18,2.88-4.27,2.38-30.73-7.47-48.26-23.92-83.71-27.19-1.12-.1-3.59-.91-3.36.87l34.92,10.49,2.99,3.49c-13.74-.68-27.17-7.02-39.91-11.97l59.9,44.41c.66,3.85-1.9,2.77-4.58,1.57l-51.32-38.99,8.97,45.42c13.06,4.51,25.98,9.58,39.16,13.73,14.52,4.58,33.04,12.24,47.68,9.22,17.41-3.6,34.32-10.24,51.66-14.16l2.23-4.3c-8.79.65-17.63.64-26.44,1-12.71.52-27.18,2.38-39.93.99-1.97-.21-12.59-3.98-13.88-4.9-.86-.62-.86-2.8-.59-3.08,1.28-1.33,11.82,3.69,14.44,4.01,21.02,2.59,47.3-2.07,68.66-2.26l8.71-5.74-65.37-2.01c-2.47-.44-2.78-1.59-2.49-3.99l72.85,1.5c-32.12-13.02-64.52-25.31-96.79-37.94-6.65-2.6-23.2-11.38-28.46-12.46ZM169.82,121.58c2.35.29,13.5-6.04,10.97-8.97l-10.97,8.97ZM191.77,167.49c1.29-1.46-4.18-29.02-5.27-33.14-1.13-4.25-2.73-10.65-5.69-13.76l2.98,37.93c-.82-.14-2.68.22-2.97,0-1.07-.86-1.82-23.87-2.03-27.43l-1.97-7.49-10,35.92c3.73-.95,24.08,8.97,24.95,7.99ZM152.02,159.33c-2.22-3.79,12.67-29.59,12.79-35.75-1.5.23-1.86,1.88-2.51,2.97-6.72,11.32-11.81,23.86-18.91,35.02l-.5,3.28c12.63,55.34,25.82,110.57,42.81,164.7-4.48,5.9-8.25-8.38-9.62-12.14-5.2-14.31-8.63-29.32-12.98-43.91l-17.24-67.08-15.93,68.27c7.65,25.52,21.39,49.65,30.36,74.47,1.77,4.88,1.59,10.44-2.66,3.66-6.04-9.61-12.02-25.16-16.95-35.95-.95-2.07-4.35-12.17-4.83-12.65-1.54-1.57-1.76.15-1.96,1.5-.89,6.04-4.26,24.95-2.48,29.39.58,1.46,5.95,7.58,7.47,9.5,8.44,10.62,17.79,21.02,27.21,30.67,28.36,9.66,56.74,24.54,85.03,33.74,11.49,3.74,31.42,5.4,43.89,6.01,21.53,1.05,43.06-.97,64.42-3.03-.15,1.11.59,2.26-.59,3.08-3.48,2.43-27.99,4.2-33.87,4.89-1.83.22-1.61-.29-1.48,2l45.76,7.83,12.13-25.78c-7.73-1.95-17.59-3.03-24.96-5.54-1.37-.47-2.34.01-2.02-1.97.44-2.68,14.12-8.29,17.49-11.46,1.1-1.03,5.19-6.5,5.37-7.71.68-4.63-18.19-20.09-15.84-22.22,2.99-2.71,9.73,7.71,12.96,7.98l11.89-90.22c-2.16-21.5-7.41-41.66-15.12-61.74-1.27-3.31-7.15-18.88-8.71-20.23-1.16-1-2.45-.86-2,.98l18.94,81.38c-2.53.37-3.07-2.07-3.72-3.75-8.53-21.94-10.65-52.24-17.96-74.91-.54-1.68.44-2.63-2.26-2.17.29,11.79-.39,23.67-.05,35.47.45,15.17,2.82,30.69,3.08,45.83.23,13.33-3.18,26.05-2.03,39.46.41.56,9.88-7.55,11.24-8.22.91-.45,4.76-1.85,3.72.72-.91,2.25-33.75,25.83-38.6,29.27-5.69,4.03-14.29,10.91-19.92,14.01-4.22,2.32-6.23,1.12-2.87-2.87,11.56-9.29,27.04-17.18,37.91-26.96,9.03-8.12,4.38-10.03,4.53-19.43.09-5.75,3.08-13.35,3.07-18.97-.02-12.54-2.57-27.1-3.12-39.88-.68-15.75-.1-31.69-.96-47.44-2.61-.23-1.65-.13-1.96,1.5-2.85,15.24-3.41,30.23-7.3,45.62-.95,3.77-4.77,17.81-6.63,20.12-.92,1.14-1.88.54-3.06.62,2.38-11.12,6.49-21.52,8.66-32.75,2.06-10.64,3.79-23.12,5.02-33.91.12-1.09,1.15-3.41-.7-3.19-15.24,34.09-32.68,68.33-51.74,100.47-9.2,15.52-27.95,48.21-39.58,60.22-1.04,1.07-1.75,2.33-3.5,1.98l.75-4.73c25.9-39.52,49.35-80.58,71.09-122.54l-.48-1.47c-5.54,4.08-41.98,38.03-44.92,37.9-.76-.04-2.05-2.26-1.39-3.36,18.13-15.06,36.31-30.2,53.23-46.58l7.55-13.9c-1.12-.86-20.23,8.82-23.28,10.15-18.95,8.28-38.25,16.09-58.2,21.72-22.22-6.07-49.79-9.44-71.03-17.6-1.43-.55-4.57-1.74-4.18-3.78.41-2.16,2.53-.77,3.54-.59,16.95,3.06,35.07,9.91,52.33,13.56,19.19,4.06,20.11,3.7,38.45-2.49,15.94-5.38,47.51-16.41,61.06-24.78,1.67-1.03,3.51-2.3,4.3-4.18-22.95,5.87-44.52,17.72-68.08,21.74-4.85-2.53-39.33-9.19-40.71-10.79-.54-.63.13-3.59,1.58-3.9,1.76-.37,25.43,6.74,30.18,7.59,3.87.69,7.63,1.85,11.65,1.3,19.34-5.58,38.54-11.82,57.6-18.26,1.05-.35,3.02-.22,2.78-1.68-20.31,3.32-39.59,11.42-60.09,13.76-23.18-6.87-46.31-13.87-69.17-21.74-6.4-2.2-51.77-17.71-53.2-20.16ZM163.74,156.42c1.36-.94,10.08-30.52,9.06-31.84l-3.05,1.69-10.76,26.98c-1.19,2.76,3.15,4.28,4.75,3.17ZM397.36,147.55c-3.67-.29-8.13-7.5-10.92-6.55l-30.99,28.48,41.31-19.88.6-2.04ZM404.35,170.49c-.9-4.69-.26-11.12-.99-15.46-.68-4.06-5.91-2.31-4.97.89l5.95,14.58ZM399.37,173.47c-2.26-2.55-5.4-15.93-8.43-15.97-4.97-.07-19.87,11.83-26.49,12-.19,1.71,3.45,1.1,4.52,1.03,6.08-.42,12.37-1.33,18.42-2.03.04,1.4.38,2.59-.97,3.51-1.5,1.03-22.27,1.96-26.38,2.57-1.02.15-2.99.53-3.58,1.39,1.14,1.67,2.71,1.42,4.43,1.55,11.92.95,26.42-3.21,38.48-4.05ZM361.43,183.48c-6.33-1.61-10.77-7.58-11.47-13.98-4.58,6.75,1.73,12.93,8.2,14.75.94.26,3.53.97,3.26-.77ZM358.44,187.47c-7.95-.47-13.54-6.1-13.98-13.98-5.83,4.57,2.18,15.79,8.51,16.04,1.3.05,5.32-.22,5.47-2.05ZM147.86,363.1l-22.94-28.93c-6.26,8.29-8.94,16.78-10.99,26.94l25.94,2.99-12.99-9.46c-1.64-.96-.37-2.47,1.47-2.5,3.38-.05,17.95,12.34,19.5,10.96ZM374.27,390.19c-1.95-1.15-10.29,4.53-12.82,5.36.64,1.47,16.08,3.46,18.96,4.49l-6.13-9.84Z"/><path class="cls-6" d="M391.38,278.28c.12-3.2.18-6.8,0-9.98,1.66,2.02,1.71,7.77,0,9.98Z"/><path class="cls-10" d="M223.71,282.27c-1.05,1.08-7.54-2.81-8.9-3.57-22.38-12.56-25.11-21.73-36.53-43.31-8.29-15.67-18.44-34.44-25.29-50.56-.61-1.44-5.06-10.35-1.64-10.32,1,0,7.89,12.78,9.03,14.91,9.69,18.12,28.73,64.78,42.46,76.31,4.75,3.98,16.16,9.16,19.42,12.52,1.28,1.33,1.76,2.09,1.45,4.03Z"/><path class="cls-8" d="M353.45,331.18c.26.26-.09,5.69.13,7.35.7,5.25,2.55,10.89,2.9,16.06.62,9.17-1.8,18.37-2.03,27.48.72.81,10.66-5.21,12.7-5.76,1.31-.35,3.74-1.12,3.26,1.26-.87,1.21-2.06,1.93-3.29,2.7-6.45,4.08-33.1,18.35-39.36,19.53-1.74.33-3.5.3-5.25.23,3.34-5.8,25.17-11.65,27.42-15.98,2.99-5.77,1.45-19.63,3.55-26.37l-4.06-24.02c-.36-2.02,3.18-3.31,4.02-2.48Z"/><path class="cls-1" d="M338.49,382.08c.27.28.26,2.45-.59,3.08-2.3,1.68-18.46,5.92-22.59,7.17-6.47,1.95-54.64,15.81-56.66,13.7-.19-.2.12-2.18,0-2.98l79.85-20.96Z"/><rect class="cls-4" x="156.72" y="278.29" width="4.61" height="82.35" transform="translate(-148.93 139.15) rotate(-33.19)"/><rect class="cls-5" x="266.61" y="317.77" width="72.34" height="4.23" transform="translate(-136.74 348.64) rotate(-50.32)"/><rect class="cls-9" x="229.19" y="241.45" width="65.38" height="4.23" transform="translate(-79.48 136.9) rotate(-25.57)"/><rect class="cls-8" x="284.91" y="368.36" width="57.78" height="4.08" transform="translate(-130.42 174.61) rotate(-25.94)"/><path class="cls-7" d="M359.45,404.03c.4,1.16-.44,3.99-1.5,3.99h-50.4c-.68-1.89.64-3.99,2.5-3.99h49.4Z"/><path class="cls-2" d="M168.3,175.52c12.3,4.98,26.14,8.43,38.24,13.63,5.01,2.16,3.71,4.77-.84,3.88-6.04-1.18-30.23-10.09-35.87-13.07-1.09-.57-2.29-.87-3-2l1.48-2.44Z"/><path class="cls-11" d="M198.76,138.56c.97-.93,3.04.6,4,1.48,4.04,3.7,13.44,17.28,17.37,22.55,1.98,2.66,6.4,7.92,7.61,10.37,1.61,3.26-1.72,2.89-4.09,1.07-3.64-2.8-17.39-22.2-20.72-27.19-.89-1.33-5.36-7.15-4.17-8.29Z"/></svg>