<?xml version="1.0" encoding="UTF-8"?><svg id="camping-chair" xmlns="http://www.w3.org/2000/svg" viewBox="0 0 512 512"><defs><style>.cls-1{fill:#f4f3f4;}.cls-2{fill:#b9b8b9;}.cls-3{fill:#f3f2f1;}.cls-4{fill:#f5f4f3;}.cls-5{fill:#f5f4f2;}.cls-6{fill:#f2f2f1;}.cls-7{fill:#d9d9d9;}.cls-8{fill:#e7e6e8;}.cls-9{fill:#f3f3f2;}.cls-10{fill:#f7f6f4;}.cls-11{fill:#c2c2c3;}.cls-12{fill:#a0a0a0;}.cls-13{fill:#0f0e0e;}.cls-14{fill:#e8e8e7;}.cls-15{fill:#f3f2f2;}.cls-16{fill:#121212;}.cls-17{fill:#0d0c0c;}.cls-18{fill:#f1f0f1;}.cls-19{fill:#f3f4f4;}.cls-20{fill:#f2f1f1;}.cls-21{fill:#f4f2f1;}.cls-22{fill:#f4f2f2;}.cls-23{fill:#f2f2f2;}.cls-24{fill:#0e0d0d;}.cls-25{fill:#0f0f10;}.cls-26{fill:#f4f3f3;}</style></defs><path d="M387.52,384.3c-.35.56-10.6,5.44-11.85,5.71-6.43,1.42-13.07-5.32-19-8.04-13.5-6.18-28.09-10.9-42.02-16.01l-63.99,89.97c-8.66,10.24-27.28,12.37-35.41.46l-46.65-84.88c-10.55,4.47-21.15,9.02-31.59,13.77-6.64,3.02-22.74,12.48-28.26,13.75-4.96,1.14-16.85-3.99-17.15-9.06-.45-7.62,4.93-8.21,8.53-12.57,10.65-12.9,24.26-33.85,33.78-48.22,1.27-1.92,4.72-6.25,4.72-8.22,0-4.09-15.48-25.67-17.5-31.44-9.05-5.42-13.93-8.38-11.23-20.35.97-4.28,6.67-5.41,5.62-9.94l-23.05-75.05c-9.21-8.1-14.24-28.97-16.7-41.3-2.66-13.35.11-20.22,11.91-26.94,43.53-24.8,92.68-44.42,136.33-69.67,7.03-3.42,16.6-1.1,21.12,5.26,2.82,3.97,11.93,35,12.47,40.54.63,6.41-1.81,10.34-5.75,15.12,8.24,29.79,17.85,59.68,27.37,89.26l105.15,54.85c4.42,2.71,9.38,5.64,9.24,11.56-.23,10.39-11.95,11.37-18.32,16.7l-26.24,38.4,27.19,48.47c2.45,2.89,9.59,5.04,10.95,8.05.68,1.5.98,8.83.35,9.83Z"/><path class="cls-3" d="M249.69,215.46l2.11.07c38.05,19.34,75.95,38.93,113.7,58.79l.2,1.14c-.04.11,1.34,1.09-.54,1.84l-100.74,51.39-3.18.75-2.54-.98c-38.58-18.86-78.11-38.99-114.76-59.64l.76-1.36c33.86-18.74,70.03-36.13,105-52Z"/><path class="cls-3" d="M297.68,358.47l-.92,3.56-58.58,83.42c-2.21,1.84-6.48,1-9.33.84l-44.15-81.37c-.27-2.24.36-1.08,1.42-1.55,7.15-3.19,32.05-15.86,37.32-16.75,3.01-.51,6.53,1.53,9.76,1.81,7.74.67,14.88-1.41,21.02-6l43.47,16.03Z"/><path class="cls-3" d="M370.69,269.46l-3.09-.52c-30.5-15.39-60.46-31.55-89.91-48.48-.61-.3-.6-.63,0-1,6.02.52,14.09-7.7,19.25-6.84,25.77,14.2,52.74,26.35,78.43,40.66,5.56,3.1,17.45,6.94,9.29,13.63-4.49,3.69-8.75,4.87-13.96,2.54Z"/><path class="cls-20" d="M157.69,284.46c28.2,13.01,56.1,27.46,83,43,3.49,1.83,8.18,4.29,11,6.99-17.89,7.78-29.69-.8-45.02-8.47-24.18-12.1-47.58-25.86-71.98-37.54-.51-2.33.32-1.6,1.28-2.23,9.59-6.21,11.87-6.61,21.71-1.76Z"/><path class="cls-21" d="M322.61,306.52c.43,4.3,5.93,8.01,4.9,12.17l-18.48,25.66-34.34-12.91,1.28-2.22,46.64-22.69Z"/><path class="cls-3" d="M208.68,333.47c.62.82-2.94,2.52-3.62,2.86-9.84,4.99-20.72,8.63-30.78,13.2l-14.17-25.04c-2.07-2.38,5.49-12.04,6.89-11.92l41.68,20.89Z"/><path class="cls-9" d="M378.64,378.51c.59,1.96-1.11,4.98-3.26,4.77l-114.68-45.32c2.13-1.78,5.14-4.03,7.99-3.09l109.95,43.64Z"/><path class="cls-26" d="M219.68,342.44c-21.31,9.05-42.54,18.38-63.67,27.84-6.24,2.79-46.06,22.47-48.69,21.97-1.63-.31-3.85-3.62-2.03-4.88l106.42-47.39c3.47-1.93,7.51-2.34,7.98,2.46Z"/><rect class="cls-22" x="217.52" y="405.65" width="113.05" height="5.56" transform="translate(-217.66 396.36) rotate(-54.73)"/><rect class="cls-9" x="196.4" y="361.88" width="5.81" height="96.7" transform="translate(-172.73 146.41) rotate(-28.75)"/><path class="cls-10" d="M269.69,218.46c33.63,16.06,66.63,33.39,99,52,.9.49,3.96,1.95,3.98,2.5-1.3,2.13-3.2,1.22-4.98,1.5-39.07-19.04-78.02-38.88-116-60-.92-.47-2.58,1.12-2-1.99,1.8.08,3.47-1.06,5.28-.82,1.02.13,12.66,5.77,14.72,6.81Z"/><path class="cls-5" d="M256.69,329.46c.82,1.16,2.31,3.15-.52,3.03-3.08-.13-10.22-4.37-13.48-6.03-28.21-12.86-56.24-27.35-83-43-5.13-2.83-6.92-5.68-10-8-1.32-1.31-.76-1.71,1-1,2.65.64,5.25,1.41,7.62,2.62,33.1,16.79,66.3,33.85,98.38,52.38Z"/><path class="cls-22" d="M124.69,372.46l23.49-33.98c1.76,2.03,10.79,16.84,10.07,18l-33.56,15.98Z"/><path class="cls-26" d="M364.68,284.47l-44.15,63.87c-.73.42-4.71-.69-4.85-.9-.77-1.09,5.91-10.5,7.17-12.32,6.51-9.44,28.74-43.08,35.9-48.1.9-.63,5.19-3.18,5.94-2.55Z"/><path class="cls-19" d="M130.69,293.46l7.85,4.64,29.67,52.37c1.19,3.34-4.22,5.22-5.36,1.31l-32.15-58.33Z"/><path class="cls-15" d="M353.68,361.45l-28-10,11.01-17.99c1.62-1.1,14.99,25.84,16.98,27.99Z"/><path class="cls-25" d="M367.69,274.46c-1.23.2-1.41-.51-2,1l-116-60,2-1c38.81,19.7,77.78,39.17,116,60Z"/><path class="cls-23" d="M143.62,328.51c.33.21,1.41,3.96.59,4.88-8.84,11.58-16.24,24.45-25.13,35.96-3.88,5.03-6.4,9.06-13.39,10.1l34.93-50.33c.32-1.01,2.56-.9,3-.61Z"/><path class="cls-13" d="M258.69,328.46l-2,1c-35.17-18.58-70.95-36.19-106-55-2.58-.36-7.05-2.58-8-5,.72-.45,1.36-1.65,2-2,.64,1.7,2.24,2.1,3.64,2.85,36.63,19.67,73.89,38.19,110.36,58.15Z"/><path class="cls-17" d="M277.69,220.46c29.82,15.61,62.74,35.49,93,49l-2,1c-32.35-17.83-66.23-35.42-99-52l1-1c1.93-.83,5.45,1.5,7,3Z"/><path class="cls-1" d="M345.67,324.46l24.01,43.99c-1.65-.93-3.77-1.11-5.35-2.14-3.51-2.29-16.07-25.76-18.82-31.18-1.9-3.76-6.35-9.38.15-10.67Z"/><path class="cls-24" d="M242.69,326.46l-2,1c-27.48-14.39-55.21-29.3-83-43l2-1c26.72,14.77,55.68,29.1,83,43Z"/><path class="cls-14" d="M329.26,301.51c4.98-1.46,8.78,7.48,2.92,9.92-1.22-1.45-6.51-8.87-2.92-9.92Z"/><path class="cls-2" d="M277.69,219.46v1c-1.94-1.02-4.71-1.79-7-3-4.59-2.42-8.82-5.75-14-7.01l3.31-1.85,17.69,10.86Z"/><path class="cls-8" d="M160.68,308.47c.78,1.05-3.42,6.81-4.5,7.97-7.65-4.37,1.48-12.02,4.5-7.97Z"/><rect class="cls-12" x="123.41" y="273.96" width="1.56" height="16.99" transform="translate(-183.76 263.18) rotate(-62.68)"/><path class="cls-7" d="M343.68,295.47c-.15,1.2-3.57,6.35-4.99,4.98-2.77-2.65,2.38-5.71,4.99-4.98Z"/><path class="cls-11" d="M142.69,269.46c2.41,1.69,5.44,3.63,8,5l-1,1c-2.41-1.81-6.04-3.1-8.51-4.99l-.49-1c.6-.14,1.68.19,2,0Z"/><path class="cls-3" d="M261.61,201.36c-.34.46-8.1,3.14-9.61,3.92l-108.6,56.4c-3.26,1.41-8.76,1.44-10.5-1.94l-23.13-77.62,126.9-65.65,24.94,84.9Z"/><path class="cls-3" d="M213.69,61.46c.86-.38,1.46-.3,1.68.46l14.19,50.58-.87.95-109.99,56-14.89-54.88,106.34-54.2,3.54,1.07Z"/><path class="cls-6" d="M92.42,120.61c.56-.08,1.09-.3,1.66-.11l1.39,1.67,15.19,50.85c-.07,3.24-14.75,9.32-19.19,1.15-1.65-3.04-10.55-33.97-10.74-37.35-.34-6.12,5.48-15.35,11.68-16.2Z"/><path class="cls-6" d="M236.69,108.46l-14.99-52.57c3.58-6.27,14.9-6.34,18.83.21,2.04,3.4,11.06,35.19,11.07,38.99.03,6.52-8.88,12.85-14.92,13.37Z"/><path class="cls-26" d="M276.68,209.45l-5.73-1.26c-10.2-31.28-19.88-63.12-29.2-94.64l4.44-2.08,30.48,97.99Z"/><path class="cls-4" d="M104.64,184.5l26.04,89.95c-3.28-.12-5.88-2.73-6.78-5.71-5.34-27.4-19.8-56.05-25.05-82.96-.51-2.62,4.18-.95,5.8-1.28Z"/><rect class="cls-18" x="104.29" y="115.73" width="5.22" height="57.66" transform="translate(-36.57 36.2) rotate(-16.45)"/><path class="cls-6" d="M215.69,57.46c1-.86,2.68-1.08,3.99-1l14.83,50.77c1.06,3.8-1.48,3.86-3.82,5.24h-1.14s-14.38-51.24-14.38-51.24l.52-3.76Z"/><path class="cls-16" d="M230.69,112.46c-.64.38-1.35.64-2,1l-15-52c1-1.13.83-2.99,2-4l15,55Z"/></svg>