<?xml version="1.0" encoding="UTF-8"?><svg id="grill" xmlns="http://www.w3.org/2000/svg" viewBox="0 0 512 512"><defs><style>.cls-1{fill:#ecedec;}.cls-2{fill:#eceeed;}.cls-3{fill:#050505;}.cls-4{fill:#010101;}.cls-5{fill:#030304;}.cls-6{fill:#edeeee;}.cls-7{fill:#f4f6f5;}.cls-8{fill:#232323;}.cls-9{fill:#020203;}.cls-10{fill:#151415;}.cls-11{fill:#eaebea;}.cls-12{fill:#040405;}.cls-13{fill:#ebecec;}.cls-14{fill:#030303;}.cls-15{fill:#e8eae9;}.cls-16{fill:#e9eaea;}.cls-17{fill:#d0cfd0;}.cls-18{fill:#0d0c0d;}.cls-19{fill:#060506;}.cls-20{fill:#eff0f0;}.cls-21{fill:#ebeceb;}.cls-22{fill:#e5e5e5;}.cls-23{fill:#000001;}.cls-24{fill:#eeefee;}.cls-25{fill:#2f2f2e;}.cls-26{fill:#e2e3e3;}.cls-27{fill:#060606;}.cls-28{fill:#f2f3f3;}.cls-29{fill:#161417;}.cls-30{fill:#020202;}.cls-31{fill:#e7e7e7;}.cls-32{fill:#cfcfce;}.cls-33{fill:#dfe1e1;}.cls-34{fill:#0b0b0b;}.cls-35{fill:#121212;}.cls-36{fill:#eceded;}.cls-37{fill:#f0f1f0;}.cls-38{fill:#f2f4f4;}.cls-39{fill:#040404;}.cls-40{fill:#f3f4f4;}.cls-41{fill:#bdbdbc;}.cls-42{fill:#edeeed;}.cls-43{fill:#d9dbda;}.cls-44{fill:#b1b3b2;}.cls-45{fill:#fefefe;}.cls-46{fill:#0c0c0c;}.cls-47{fill:#f2f2f2;}.cls-48{fill:#e4e6e5;}.cls-49{fill:#e9eae9;}.cls-50{fill:#131313;}.cls-51{fill:#eaeceb;}.cls-52{fill:#0a0a0a;}.cls-53{fill:#ebedec;}.cls-54{fill:#fcfcfc;}.cls-55{fill:#d6d8d7;}.cls-56{fill:#f0f1f1;}.cls-57{fill:#dfe0e0;}.cls-58{fill:#f2f3f2;}.cls-59{fill:#0f0f0f;}.cls-60{fill:#161616;}.cls-61{fill:#e8e8e8;}.cls-62{fill:#ececec;}</style></defs><path class="cls-4" d="M90.31,179.92c11.27,8.21,24.21,14,35.99,21.51,1.49,1.81,1.15,6.01,1.31,8.7.1,1.69,2.18,3.2-1.3,2.79-10.77-7.25-24.83-12.23-35.58-19.92-2.24-2.8-2.1-10.24-.42-13.08Z"/><path class="cls-27" d="M129.31,226.92c-.49-4.05.34-8.84,0-13,5.96,1.51,3.37,8.39,4.25,13.24,1.05,5.79,3.87,13.04,6.94,18.06,2.19,3.59,5.38,5.94,6.8,9.7-8.95-4.08-16.83-18.27-18-28Z"/><path d="M239.31,276.92c4.7,2.79,9.45,5.7,14.02,8.71-.11,8.83-1.67,15.34.67,24.11.89,3.33,3.85,5.5,2.32,8.18-3.91-1.15-7.24-2.79-9.98-4.9l-.02-1.1c-7.64-4.42-15.34-8.64-23-13-3.67.21-7.51-.98-8-5-15.18-8.63-53.58-27.25-64-38-10.61-8.18-18.74-25.44-16.68-39.44,35.35,19.2,70.24,39.35,104.68,60.44Z"/><path class="cls-16" d="M193.31,253.92c1.47.56,2.37.95,1,2l.18,2.15c3.78,3.15,5.97,9.32,3.82,13.85,1.35-1.36,1.93-.74,1,1-2.03,1.14-2.72,1.42-5,2-.95.07-1.32-.05-1-1,.77-7.36-1.14-11.32-5.71-11.89l-1.29-2.11c-1.48,1.48-2.01.94-1-1,2.33-2.86,4.04-5.01,8-5Z"/><path class="cls-62" d="M199.31,272.92c-.32-.32-.78-.61-1-1,2.65-6.81.7-9.27-4.37-14.49l.37-1.51c-.41-.41-.61-1.45-1-2,7.53.02,11.7,10.01,9.8,16.31-.75,2.48-2.49,1.95-3.8,2.69Z"/><path class="cls-60" d="M194.31,255.92c4.43,4.49,11.93,9.72,4,16-2.45-4.39-.18-12.41-7.99-14.02l3.99-1.98Z"/><path class="cls-41" d="M186.31,259.92l.96,2.02c-3.79,3.88-1.16,11.21,4.61,9.9l1.43,2.08c.18.02.62.82,1,1-6.27,1.6-11.12-.25-11.93-7.61-.57-5.21.28-5.13,2.93-8.39.12.46.54.93,1,1Z"/><path class="cls-19" d="M186.31,259.92c1.75.27,3.54-.13,5.3.94,2.25,1.38,6.18,11.38,1.7,13.06-4.03-.4-6.42,1.01-8.76-3.73-2.18-4.41-1.09-6.69,1.76-10.27Z"/><path class="cls-32" d="M190.31,268.91c-1.12,1.04-4.74-.61-3.99-3.48,1-3.85,5.01,2.53,3.99,3.48Z"/><path d="M373.32,229.91c.63-3.26,1.77-6.04,2.03-9.46,2.23-28.97-1.72-60.75-.04-90.03-1.2-8.94-4.98-16.31-11.97-22.01,0-1.03,16.82-9.19,18.5-9.11,4.88.23,16.98,13.52,19.68,17.92,11.03,18,10.8,64.15,2.99,83.37-6.28,15.44-14.57,25.01-31.18,29.31Z"/><path d="M237.31,35.92c1.85-2.54,14.99-9.95,17.99-10.58,2.18-.46,21.27,10.6,21.84,12.24,1.37,3.97-.53,13.32-3.83,16.33,4.01-1.84,9.32,4.01,11.5,4,2.7,0,10.16-7.27,12.52-6.62l33.5,19.61c2.16,3.51-1.03,14.45-.51,15,.29.32,7.33,2.12,8.39,2.01,3.85-.37,10.37-6.41,13.88-5.85,1.41.23,22.25,12.65,24.69,14.39.9.65,1.47.71.51,1.45-2.93,2.26-11.48,5.82-15.47,8.01l-2.44.47c-41.5-22.96-82.35-46.45-122.56-70.47Z"/><path class="cls-14" d="M284.31,49.92c.21,3.36,1.27,7.7-4.41,3.89-2.79-1.87-.33-3.65-.5-6.39-.36-5.94-2.22-11.03.68-17.24,2.32-4.97,10.35-5.02,14.97-3.5,3.51,1.16,42.17,23.78,44.76,26.24,8.21,7.82,2.24,16.05,4.95,24.05.8,2.36,2.08,3.04,4.55,2.96-1.08,1.35-5.63,3.99-7.02,4.5-3.42,1.26-.98-6.22-.94-7.97.12-4.84-.17-9.71-.05-14.54-1.69-.33-2.08.38-2.75,1.74-.94,1.91-3.03,16.15-2.23,17.26l2.98-2c.16,1.47.34,6.87-1.48,6.98-.34.02-4.99-2.59-5.35-3.64-1.11-3.23.69-9-.37-12.63-1.9-6.5-34.91-21.11-41.3-26.7-1.87,3.39.64,5.57,2.51,7.98l-6.99,2.02c-.7-3.45.49-6.54.87-9.64.35-2.77-1.77.02-2.88-.36-2.93.26-2.26-8.72,1-6,14.18,5.91,27.83,13.15,40.98,21.71,3.17-.51,5.5-3.18,4.67-6.4-12.51-7.39-25.41-14.61-38.42-20.96l-.22-1.36c-12.38-2.3-10.08,15-8,20Z"/><path class="cls-34" d="M253.31,22.93c-3.63,2.52-11.44,7.97-15.27,9.22-2.69.88-4.94.97-7.73.76-.58-2.56.69-1.75,1.88-2.58,5.68-4.02,14.08-8.1,21.12-7.4Z"/><path class="cls-17" d="M292.31,29.92c.08,1.27-.92,1.6-3,1-1.01,1.47-2.35,3.14-4,5,.89.26.87.6,0,1-.12.25-1.77.49-2.06,2.56s1.05,3.17,1.06,3.44c.08,2.19-.16,4.48,0,7-3.13.55-1.82-1.56-1.98-3.47-.71-8.58-2.13-19.96,9.98-16.53Z"/><path class="cls-26" d="M292.31,29.92c6.64,1.88,37.91,19.91,43.94,24.56,2.36,1.82,3.54,3.16,3.06,6.43-3.51.55-3.12-6.49-6.36-5.92-.63.11-3.45,2.93-3.56,3.56-.33,1.9,3.32,3.47,3.91,4.87,2,4.7-5.6-2.58-6.08-2.93-12.39-8.89-28.51-16.11-41.91-23.59.1-.21-.04-.64,0-1,.39-2.7,4.38-1.36,6.39-.61l35.62,20.24.73-1.56-38.64-20.75-.1-2.32c.7-.21,1.67-1.45,3-1Z"/><path class="cls-30" d="M289.31,30.92l41,22.02c.61.82-1.85,6.23-4.04,4.6l-35.57-20.51-5.39-1.1c.03-.22-1.82-1.83.51-4.02,1.4-1.32,2.39-.65,3.49-.98Z"/><path class="cls-23" d="M236.31,36.92c40.46,22.26,80.74,44.93,120.82,67.99l2.18,3.01c8.2,5.41,12.85,13.77,13.88,23.62,2.97,28.45-1.75,61.68-.14,90.62-4.2,23.78-24.65,1.73-36.75-1.73,5.79,8.76,28.19,11.41,18.01,25.49-24.9,14.51-50.52,28.52-76.87,42.01-.47-.47-.91-.81-1.29-.75-5.8,1-14.95,1.92-18.84-2.26-4.03-1.53-12.71-6.62-17-9-33.49-18.52-67.89-37.98-101.37-57.62-7.95-2.14-12.14-8.99-10.51-17.42-13.32-6.26-25.69-13.58-37.11-21.96-.54-.46-1.11-1.93-1.91-2.5l2.58-2.33,77.07-40.96c9.23-1.8,26.8,14.04,36.26,16.8v-16c3.78-1.57,15.21-5.49,15.98-9.52.49-28.07-.89-56.35.71-84.29,2.4-9.11,7.82-5.57,14.31-3.19Z"/><path class="cls-58" d="M91.31,178.92c4.34,3.69,24.27,14.22,30.33,17.17,2.09,1.02,4.76,2.98,7.1,2.83l72.18-38.89,4.39-1.1c-.42,1.56-2.05,2.38-3.31,3.18-20.9,13.44-47.06,23.37-68.45,36.55-8.08,6.57-3.95,12.62,3.22,17.28,25.73,16.74,57.14,32.38,84.2,47.8,6.52,3.71,13.04,8.68,19.33,12.17l-1,1c-33.89-20.1-68.88-38.43-102.52-58.99-2.03-.27-1.3.09-1.49,1.47-1.52,10.96,8.52,28.78,16.01,36.51-2.07,1.84-2.89-.49-4-1-9.94-8.91-16.84-21.57-15.94-35.28.42,3.44-.27,5.87-2.06,7.28-3.08-4.16,1.64-10.87-3-14-.5-3.26-.96-6.62-1.36-10.09l-31.04-18.01c-2.02-.96-3.12-2.73-3.6-4.91.2-.34.75-.62,1-1Z"/><path class="cls-45" d="M95.32,177.9c-.14-.17-.4-2.16.62-2.05l74.13-39.77c3.09-.52,6.46,1.93,9.27,3.32,3.03,1.49,24.98,13.56,24.96,15.02l-74.73,40.31-4.29-.25-29.95-16.58Z"/><path class="cls-7" d="M332.31,225.92h-1c-8.4-3.2-7.71-2.18,2.05,3.07l.8,1.52c4.33,1.17,11.23,3.99,12.16,8.41,1.93.61-2.39,4.53-2.23,4.3.9-1.32,2.83-3.63,4.23-3.3-3.11-3.91-7.12-7.07-12.03-9.47l.03-1.53c-1.33-1.41-.77-1.92,1-1,9.12,4.75,22.5,9.03,7.32,18.82-20.28,13.08-46.74,22.67-67.77,35.23-6.53,2.08-13.43,1.07-19.55-1.55l-119.36-69.64c-4.62-3.99-2.38-6.16,1.44-9.26,9.91-8.04,56.83-32.59,69.56-37.44,8.67-3.31,12.93-2.53,21.24,1.46,29.1,18.38,59.85,34,89.41,51.59,4.22,2.51,9.63,5.09,12.7,8.8Z"/><path class="cls-44" d="M337.31,227.92l-1,1c-2.62.7-4.38-.36-5-3h1c3.59-2.15,3.95,1.45,5,2Z"/><path class="cls-5" d="M331.31,225.92c1.67.98,3.34,2,5,3,4.64,2.78,9.78,5.03,12.92,9.69.28,1.08-.79,1.09-.92,1.31-1.65,1.54-2.18,1.37-2-1-3.49-2.89-7.57-5.32-12-6.99l.96,4.93c-5,.83-34.12,19.42-35.96,18.58-.64-.29-5.49-3.39-2.97-3.99l35.96-18.55-.19-2.81-100.13-57.35c-7.28-3.8-12.55-7.97-21.41-5.06-18.67,10.29-37.26,21.07-56.24,30.76-4.7,2.4-9.88,5.6-15.02,6.47l21.32-13.16c15.46-6.89,30.48-17.28,45.65-24.35,11.59-5.4,13.72-4.21,24.69,1.35,32.38,16.39,68.7,38.56,100.33,57.17Z"/><path class="cls-9" d="M156.32,219.9c-.91-1.27.88-2.21,1.66-2.82,9.26-7.24,24.54-11.62,34.31-18.75,3.23-1.2,6.61.99,9.01,3.08l-38.66,21.3c-.49.09-6.11-2.54-6.31-2.82Z"/><path class="cls-30" d="M197.32,196.9l35.99-19.57c2.43-.5,5.18,1.47,6.99,3.08.04,2.6-31.6,17.27-35.98,20.11-2.9.96-3.84-3.56-6.99-3.62Z"/><path class="cls-9" d="M191.31,194.93c1.76,2.34-34.7,19.27-36.98,21.58-1.99,1.16-6.33-1.41-7.01-3.11-.73-1.82,1.16-1.53,1.96-1.97,11.25-6.13,22.81-11.68,33.79-18.31,3.04-1.11,5.4,1.33,8.24,1.81Z"/><path class="cls-14" d="M165.32,224.9c-1.38-1.63.53-1.74,1.28-2.22,10.71-6.93,25.01-11.77,35.72-19.35,1.5-1.33,7.97,2.22,7.98,3.09l-37.97,21.08c-.96.66-6.75-2.31-7-2.6Z"/><path class="cls-9" d="M188.32,191.9c-1.75-2.05,5.69-3.71,7.04-4.44,9.04-4.91,17.93-10.15,26.95-15.11,3.22-1.21,6.59.98,8.99,3.07l-34.97,19.1c-1.06,1.21-7.7-2.25-8.01-2.62Z"/><path class="cls-14" d="M297.31,257.9c-11.06,5.14-22.1,10.78-32.69,16.82-5.74,3.27-3.71,6.2-11.28-.3l38.9-21.03c1.81-.6,6.14,3.1,5.08,4.52Z"/><path class="cls-5" d="M289.3,250.94c1.34,1.62-3.28,3.53-4.33,4.14-8.23,4.82-17.82,9.03-26.34,13.67-1.97,1.07-5.72,4.38-7.24,4.72-1.33.29-5.57-1.98-6.08-3.06-.82-1.72,1.19-1.54,1.97-1.97,11.92-6.53,24.06-12.68,36.03-19.12.85-1.01,5.76,1.34,5.99,1.62Z"/><path class="cls-14" d="M218.31,211.91l-36.97,19.59c-2.56,1.07-5.28-.13-7.02-2.09l38-21.09c1.33-1.04,6.44,3.02,6,3.59Z"/><path class="cls-14" d="M207.31,200.93l33.95-17.57c4.1-1.57,9.92,1.4,4.74,4.76-9.7,6.3-22.94,10.49-32.61,17.35-1.76.76-6.5-3.98-6.08-4.54Z"/><path class="cls-14" d="M226.31,214.93c1.23,1.81-35.39,19.56-37.99,21.57-2.48.73-4.43-1.43-5.99-3.08,13.07-6.84,25.94-14.88,39.42-20.51l4.56,2.02Z"/><path class="cls-5" d="M190.31,236.93l38-19.62c1.24-.96,5.97,2.72,5.98,3.11l-36.97,20.07c-1.55,1.72-8.61-1.45-7.01-3.56Z"/><path class="cls-5" d="M229.31,259.93l38-19.59c2.27-.91,4.49.42,5.98,2.08l-37.74,21.32c-2.03,1.62-6.7-3.19-6.24-3.81Z"/><path class="cls-5" d="M250.31,228.93l-38.92,21.52c-2.03.38-3.76-1.7-5.06-3.03l35.94-20.06c3.18-1.58,5.21.71,8.04,1.57Z"/><path class="cls-14" d="M257.31,234.9c-11.11,5.15-21.84,11.14-32.7,16.81-2.98,1.55-2.97,4.12-7.33,2.78-3.72-1.15-3.82-2.73-.67-4.78,10.32-6.72,24.36-11.17,34.69-18.4,1.87-1.38,7.34,1.79,6.01,3.58Z"/><path class="cls-14" d="M276.81,244.27c1.14,0,5.73,2.7,3.47,4.12l-36.3,19.79c-2.64,1.54-4.98-.95-6.66-2.76l39.48-21.14Z"/><path class="cls-5" d="M198.31,241.93l36.96-19.59c3.94-1.25,8.52,1.67,3.73,4.78-10.24,6.65-24.42,11.08-34.7,18.38-1.88,1.39-7.32-1.77-5.99-3.57Z"/><path class="cls-5" d="M215.31,205.93l34.75-17.78c3.07-.83,5.38-.32,7.23,2.27l-34.74,19.32c-1.93,1.46-7.92-2.89-7.24-3.81Z"/><path class="cls-14" d="M266.31,238.91l-37.75,19.8c-2.69.9-4.64-.15-6.22-2.29l37.9-21.02c1.4-.48,6.67,2.71,6.07,3.51Z"/><path class="cls-5" d="M223.31,211.91c-1.03-1.49,7.71-4.31,8.68-4.81,8.87-4.62,17.49-10.01,26.31-14.78,3.88-.61,8.56,1.64,3.71,4.8-9.67,6.29-22.6,11.21-32.63,17.34l-6.07-2.55Z"/><path class="cls-5" d="M273.31,199.9l-35,18.6c-2.85,1.1-5.21-1.15-6.99-3.09l35.88-19c1.66-.77,6.77,2.54,6.11,3.49Z"/><path class="cls-5" d="M263.32,234.9c-1.36-1.65.53-1.73,1.28-2.22,9.65-6.24,23.06-10.38,32.67-17.32,1.78-1.48,7.02.37,7.02,2.06,0,2.29-30.79,16.27-34.74,19.33-.93.78-5.98-1.56-6.23-1.85Z"/><path class="cls-5" d="M328.31,231.9l-34.99,18.6c-2.83,1.3-4.23-1.36-5.99-3.09l34.98-19.09c1.88-1.36,7.31,1.74,6.01,3.58Z"/><path class="cls-5" d="M279.31,241.93c11.81-4.8,22.84-11.42,33.97-17.6,1.54-1.35,7.03.86,7.01,2.08-.04,1.95-30.28,15.83-33.94,19.06-2.86,1.32-7.07.16-7.04-3.54Z"/><path class="cls-12" d="M312.31,220.93c1.43,1.54-3.37,3.59-4.33,4.14-10,5.84-20.79,10.36-30.67,16.45-1.24.96-5.97-2.72-5.98-3.11l34.49-18.58c2.39-1.38,4.1.78,6.48,1.1Z"/><path class="cls-5" d="M240.32,221.89l2.07-3.4,32.67-17.4c10.25,1.91,2.86,5.12-2.07,8-8.93,5.22-18.95,8.75-27.68,14.44l-4.99-1.64Z"/><path class="cls-5" d="M296.3,211.94l-2.07,3.39-32.9,17.2c-1.24.96-5.99-2.74-6-3.12l35.98-19.11,4.99,1.64Z"/><path class="cls-5" d="M248.31,223.93c10.74-3.07,23.93-14.83,33.99-17.58,1.99-.54,7,.25,6.99,2.07,0,1.99-31.29,15.51-34.95,19.08-2.78,1.28-6.06-.35-6.03-3.56Z"/><path class="cls-39" d="M181.31,189.93c.65.91-.56,2.45-1.65,2.83l-34.32,18.75c-2.5.72-4.43-1.47-6.02-3.1l35.76-19.3c1.08-.68,6.02.52,6.23.81Z"/><path class="cls-12" d="M220.31,168.92c.21,2.51-2.95,3.72-4.69,4.8-9.38,5.81-19.8,10.14-29.3,15.79-2.84,1.29-4.23-1.36-6-3.1,3.84-1.09,6.83-5.21,10.99-2.5.39-.44-1.55-2.85-.04-3.48,9.86-3.07,18.27-12.38,29.05-11.51Z"/><path class="cls-3" d="M303.31,256.91c-1.2-1.55,32.08-17.02,33.98-19.58,2.27-.89,4.51.44,5.99,2.1.03,1.99-30.85,16.12-34.91,19.03l-5.07-1.54Z"/><path class="cls-3" d="M305.31,258.93c.47,2.31-3.45,3.44-5.12,4.37-7.19,3.98-23.36,13.79-30.15,15.84-2.72.82-4.9,1.04-7.72.77,10.64-9.17,25.33-13.68,37.3-21.26l5.7.28Z"/><path class="cls-29" d="M348.31,239.92c-2.85,4.73-17.64,12.08-23.32,15.18-15.15,8.26-31.17,15.06-45.95,24.05l-5.73.76,70.34-37.14,2.65-3.85c.5.41,1.42.6,2,1Z"/><path class="cls-37" d="M362.31,105.92c-1.05.58-2.05,1.27-3,2-38.43-25.33-84.73-45.03-123-71,.34-.32.72-.62,1-1l125,70Z"/><path class="cls-54" d="M238.31,156.92c1.33,1.41.77,1.92-1,1-.76-.45-5.07-2.08-3.99.49.87,2.06,5.36,2.46,4.99,5.51-4.61,1.81-12.58-4.99-15.5-4.99h-14.5v-17.99c1.57-.4,2.36.42,3.55.95,7.6,3.38,18.64,10.64,26.45,15.05Z"/><path class="cls-28" d="M335.09,219.11c.5,1.33.8,3.42-1.26,2.79l-95.52-55.98,4.72.77,92.05,52.41Z"/><path class="cls-48" d="M238.31,156.92c30.24,17.07,64.3,34.77,93.3,53.2,1.75,1.11,4.9,2.27,4.69,4.8l-90.67-50.82c-2.99-1.03-6.09-4.86-8.33-6.17l1-1Z"/><path class="cls-21" d="M335.98,171.06c1.47-.2,3.1,1.32,1.3,2.33l-31.02,16.99-3.94-.97,33.65-18.36Z"/><path class="cls-21" d="M330.31,166.92c1.25,1.13-1.56,2.69-2.3,3.19-5.8,3.91-22.63,12.98-29.15,15.86-1.85.82-1.82,1.7-3.54-.57l25.97-15.01c1.59-.55,7.81-4.56,9.02-3.47Z"/><path class="cls-11" d="M315.31,157.92c.35,2.03-1.29,2.85-2.66,3.83-8.01,5.72-21.15,9.36-29.3,15.75l-4.03-1.09,35.99-18.49Z"/><path class="cls-53" d="M263.31,128.93c-.23,1.5-1.89,1.86-2.98,2.51-6.76,4.04-23.39,13.68-30.1,15.98-.98.34-3.56-.14-3.92-.51-1.84-1.9,1.56-1.98,2.2-2.24,10.02-4.11,19.92-11.4,29.08-14.97,1.96-.76,3.64-.99,5.72-.77Z"/><path class="cls-42" d="M300.31,149.92c.48,2.33-3.44,3.44-5.12,4.37-8.81,4.89-18.22,8.77-26.54,14.56l-4.33.04c7.21-4.82,15.64-10.23,23.32-14.17,3.57-1.83,8.84-4.4,12.67-4.82Z"/><path class="cls-13" d="M249.31,159.91c9.92-7.14,21.88-11.61,32.28-18.22l3.7.73-32.3,17.76-3.68-.28Z"/><path class="cls-6" d="M310.32,194.91c-.56-2.68.71-1.72,1.97-2.48,8.03-4.82,22.1-13.42,30.31-16.73,1.94-.78,2.18-1.3,3.69.72-10.09,4.95-21.28,13.33-31.43,17.55-1.57.65-2.65,1.37-4.55.94Z"/><path class="cls-51" d="M353.31,179.92c.56,2.68-.71,1.72-1.97,2.48-7.37,4.43-16.29,9.23-24,13.04-3.16,1.56-6.3,3.83-10.02,3.47,1.61-2.16,4.96-3.83,7.33-5.16,6.48-3.65,17.63-10.51,23.95-13.05,1.61-.64,2.96-1.03,4.72-.78Z"/><path class="cls-24" d="M323.31,162.92c.55,2.66-.67,1.72-1.97,2.48-7.38,4.33-21.88,12.75-29.31,15.73-1.61.64-2.96,1.03-4.72.78-.55-2.66.68-1.72,1.97-2.48,7.76-4.57,17.94-10.16,26.01-14.03,2.62-1.25,4.84-2.96,8.01-2.48Z"/><path class="cls-21" d="M308.31,153.92c.55,2.66-.68,1.72-1.97,2.48-8.94,5.26-21.19,12.45-30.48,16.57-1.17.52-3.69,1.46-3.53-.55.15-1.79,27.97-14.55,31.26-17.72l4.72-.78Z"/><path class="cls-1" d="M278.31,138.91c-4.11,1.33-8.23,3.43-12.02,5.49-5.19,2.83-14.17,9.25-19.03,10.97-1.7.6-3.17.72-4.95.54,10.28-7.61,22.21-13.2,33.54-18.98l2.45,1.98Z"/><path class="cls-6" d="M293.31,145.93c-.23,1.48-1.89,1.87-2.97,2.51-7.38,4.38-16.32,9.08-24,13-2.8,1.43-5.78,3.47-9.02,3.47-.56-2.68.7-1.72,1.97-2.48,9.93-5.95,20.42-10.85,30.34-16.79l3.68.28Z"/><path class="cls-2" d="M270.31,132.93c-.28,1.28-1.65,2.12-2.67,2.82-4.03,2.77-24.25,14.1-28.39,15.61-1.69.62-3.16.75-4.94.55-.54-2.74.69-1.71,2.02-2.42,8.58-4.58,20.89-12.42,29.25-15.79,1.58-.64,3-.98,4.72-.77Z"/><path class="cls-49" d="M360.31,183.92c1.24,1.15-1.55,2.68-2.3,3.19-6.18,4.16-20.84,11.88-27.83,15.17-1.73.81-3.41,2.44-4.85.14,3.75-2.38,33.53-19.84,34.98-18.49Z"/><path class="cls-15" d="M255.31,123.92c1.75,1.46-1.33,2.2-1.88,2.58-6.28,4.43-18.27,10.46-25.46,13.67-1.37.61-3.12-.13-3.71.29-.71.5-.66,2.32-1.5,2.5-3.2.69-4.58-2.01-.68-3.87,1.99-.95,3.87-.11,4.64-.42.57-.24,4.18-2.52,6.29-3.54,2.93-1.41,21.12-12.2,22.29-11.22Z"/><path class="cls-33" d="M365.31,219.92c1.1.17,1.18,2.36,2,3-.43,1.29-1.31,3.37-2.66,3.84-6.64,2.29-20.58-7.65-26.32-11.34,1.88-2.54,1.62-.71,3.05-.08,6.04,2.63,22.65,16.42,23.93,4.58Z"/><path class="cls-47" d="M222.31,130.93c-2.1,6.28-6.73,9.78-13,5.98,1.19-2.37,11.43-7.15,13-5.98Z"/><path class="cls-57" d="M359.31,217.92l-1,1c-4.88-2.25-12.34-5.89-16.69-8.81-.76-.51-3.53-2.02-2.3-3.19.72-.68,15.56,7.75,17.74,8.8,1.25.6,2.08,2.12,2.26,2.2Z"/><path class="cls-43" d="M229.32,128.91l9.32-6.16,9.66-4.83c1.47,1.49-4.35,4.58-5.32,5.17-3.76,2.26-9.41,5.46-13.66,5.82Z"/><path class="cls-38" d="M228.31,132.91c-3.59.93-2.27-5.69-.49-6.99l.49,6.99Z"/><path class="cls-55" d="M362.31,197.93c-.93,2.25-4.79,3.19-7,2.98l7-2.98Z"/><path class="cls-40" d="M367.31,222.92c-1.48,1.55-2.15.55-2-3-.36-.05-2.24,1.24-4.3.87-1.53-.28-2.07-1.58-2.7-1.87-1.33-1.41-.77-1.92,1-1,.61.27,5.76,1.2,5.99,1,1.05-11.44-.99-23.32.56-34.98l-113.06-65.01c-1.08-2.57,4.02.48,4.5,0,.51-.5,3.33-11.94,3.71-13.8,2.48-12.22,1.06-22.44,1.25-34.75.05-3.13,1.29-5.74.93-8.77l-29.86-18.26c-1.95-1.64-5.01,1.64-5.01,3.08v78.5h-2V44.42c0-3.39,6.05-4.65,8.73-2.72l123.61,71.38c5.96,3.96,8.35,10.54,9.67,17.33-1.65,27.98,2.17,58.36.03,86.05-.14,1.77-.5,4.87-1.04,6.46Z"/><path d="M265.31,62.92c1.82-.16,3.17,1.07,4.66,1.84,30.18,15.78,58.58,35.43,88.84,51.16,2.36,1.88,5.69,6.82,6.28,9.72.95,4.68,1.08,17.06,1.27,22.73.28,8.04.98,23.59-.04,31.07-.19,1.38.55,1.73-1.48,1.46l-105.39-60.15,5.87-24.34v-33.5Z"/><path class="cls-45" d="M228.07,306.17c2.64,3.29,1.62,19.17,3.72,22.77.99,1.7,5.18,1.6,6.1,2.93,1.29,1.86-.7,4.34-.41,6.35.07.46,3.72,8.14,4.05,8.48.94.95,10.3,3.62,10.77,4.24-8.44,6.85-4.8,11.26-4.94,19.45-.12,7.19-4.83,16.74,4.95,18.04-4.65.95-6.22,2.53-6.6,7.47-.5,6.58,7.12,4.62,5.6,8.53-.35.9-3.52.42-4.54,2.48-.83,1.68-.36,4.28-.71,6.31-.19,1.13-1.41,2.25-1.44,3.22-.04,1.25,2.99,3.5.15,4.48-2.34.81-1.96-4.65-3.89-6.09s-4.95-.35-6.13-1.87c-1.44-1.86-.12-8.57-5.77-6.88-2.36.71-1.97,3.98-6.65,2.33-6.45-2.27-4.18-8.53-7.04-9.99-3.39-1.72-6.64,1.35-9.75-.19-3.41-1.68-1.92-6.42-4.24-7.81-2.91-1.75-6.11.87-8.32.36-.32-.08-5.39-3.18-5.64-3.4-1.44-1.26-1.23-4.08-3.06-5.02-1.45-.74-5.98,1-6.88-.55-.85-1.46,1.14-5.76-2.11-7.38-3.61-1.8-7.52,1.41-10.37.42-2.35-.82-1.37-6.86-4.63-8.41-4.02-1.91-11.56,1.9-16.04-4.09,2.06-4.04,1.76-13.84,5.63-16.32,3.1-1.98,7.82-.32,9.48-1.52,1.28-.93.5-3.38,1.13-4.36.2-.3,5.94-2.96,6.54-3.06,2.9-.49,7.78,2.21,10.32.4,1.82-1.3.04-5.83,1.86-7.13,2.65-1.89,11.56,1.69,13.56-2.44.9-1.86-.17-5.06,2.14-5.86,4.01-1.38,10.84,1.65,13.36.41,3.38-1.67,1.5-8.05,2-8.55.27-.26,5.16.55,7.43-1.07,1.22-.86,6.33-11.65,10.33-6.67Z"/><path d="M398.31,273.92c.66.15,1.78-.58,2.05.59.47,2.01.24,10.49-1.04,11.93-26.32,12.73-51.35,28.85-78.52,39.5-10.63,1.07-18.14-7.83-27.49-11.01-.74,1.01-1.5.7-2.26-.91l-9.84-5.76c-5.54-.37-5.13-15.98-2.68-16.08,8.39,4.55,16.56,9.47,24.51,14.77,13.23,7.4,15.6,7.88,30.04,1.47,21.46-11.58,43.2-23.08,65.23-34.5Z"/><path class="cls-4" d="M151.31,260.92l.92.89-22.32,107.69c-.93,3.06-5.03-.34-5.6-2.59-.92-.64-3.2-2.48-3.01-3.39l23.02-106.61c1.1-.81,5.71,3.36,6.99,4Z"/><path class="cls-4" d="M382.31,406.92c1.25,1.51-7.9,4.52-8.02,3.92-5.02-25.97-10.02-51.61-14.98-76.92-.59-2.83-4.19-20.31-3.89-21.35.41-1.45,7.11-5.44,7.68-1.94,5.2,31.41,13.8,62.25,19.55,93.52.26,1.41-.37,2.56-.34,2.77Z"/><path d="M255.31,305.92c-.92-6.4-.88-12.94-.28-19.37,7.79,1.54,15.52,1.65,23.17.32-.34,1.87-.22,3.73.35,5.56-2.56,4.51-3.18,13.31,2.99,16.03l9.91,5.87c1.41,1,.31,1.94-1.15,2.59-6.99,2.63-20.31,6.57-27.25,3.75-3.02-1.23-7.34-11.46-7.75-14.75Z"/><path class="cls-14" d="M123.31,367.92c5.11.87,9.31,8.12,11,13,.34.67,2.3,6.87,2.55,7.95,1.81,7.76,2.81,16.04-4.55,21.05-1.7.9-3.36,1.57-3.08-.54,4.34-13.38-2.16-26.58-10.92-36.46-.44-.35-.76-1.57-1.62-1.84l-8.88-4.17c4.18-3.69,11.43-2.03,15.51,1Z"/><path class="cls-39" d="M245.31,312.92c.66-.65,2.39.62,2.73,1.3,1,1.96,2.06,17.09,1.27,19.7-.53-.04-6.38-3.01-6.95-3.55-2.98-2.76-3.5-15.92-4.04-20.45,1.37,1.42,6.17,2.32,6.99,3Z"/><path class="cls-59" d="M255.31,318.92c4.66,3.11,1.43,11.97-4,14-.58-.01-1.04-.05-1.06-.18-.46-2.28-2.45-17.33-1.68-17.85s7.19,2.29,6.75,4.03Z"/><path class="cls-22" d="M256.31,317.92c-.19.33-.75.62-1,1-1.81-1.2-4.12-1.86-5.99-3l1.99,17c-.59.22-1.64,1.02-2,1-.26-3.54-2.21-19.52-4-21l1-1c3.3,1.91,7.8,2.94,10,6Z"/><path class="cls-25" d="M253.3,480.92c-4.83-2.79-9.05-3.57-6.98-10,5.47.7,9.92,4.2,6.98,10Z"/><path class="cls-52" d="M383.31,408.92c.71,4.52,2.78,5.45-2.63,7.9-1.52.69-2.86,1.74-4.37.1,1.18-5.74-.35-5.76,7-8Z"/><path class="cls-18" d="M263.31,471.92c1.57,6.75-2.53,7.19-7.99,8.99-.34-6.47,1.91-8.13,7.99-8.99Z"/><path class="cls-50" d="M371.31,410.92c2.3,1.27,4.37,4.87,2,7-4.08-1.67-8.34-3.9-7.99-9,1.29.74,5.23,1.57,5.99,2Z"/><path class="cls-35" d="M266.31,329.91c-3.29,1.3-10.25-5.49-7.99-7.99.89-.99,11.1,3.14,7.99,7.99Z"/><path class="cls-46" d="M250.31,340.91c-.46.52-10.65-4.31-7.98-7.99.36-.5,10.57,4.36,7.98,7.99Z"/><path class="cls-10" d="M275.31,323.92c2.42,2.38-5.84,6.81-7.99,5.98,1.03-1.35.57-4.34,1.6-5.1.87-.64,5.99-1.29,6.4-.88Z"/><path class="cls-8" d="M256.31,333.92c1.12,1.13-1.06,9.85-3.99,7-1.57-1.53,1.21-9.81,3.99-7Z"/><path class="cls-9" d="M355.31,246.92c2.21-1.22,4.41-2.73,7.03-1.58l37.79,21.75c1.06,2.95-.67,4.3-2.82,5.84-22.18,13.39-45.83,26.2-68.65,37.57-8.88,3.87-16.15,2.91-24.3-2.75l-20.49-12.71c-5.07-1.08-7.05-3.62-5.94-7.62,25.68-13.62,51.47-27.11,77.38-40.49Z"/><path class="cls-20" d="M355.31,246.92c-24.61,13.53-48.98,27.86-74.33,40.17l-2.43,2.32,1.5,2.56c10.44,4.28,23.19,16.08,33.54,19.17,8.98,2.68,15.15-1.92,22.74-5.7,20.57-10.23,40.17-22.7,60.98-32.52.17.42.57.9,1,1-15.57,9.28-31.81,18.16-47.98,26.52-10.78,5.57-25.72,16.24-37.74,12.7-4.44-1.31-32.97-20.69-34.27-19.22-3.12,14.75,6.82,13.26,14.99,21-.78,2.11-1.82,1.56-3,2,1.72-2.05.33-2.21-1.29-3.21-1.98-1.21-12.38-6.09-12.72-7.5-.97-4,.03-14.05,1.02-18.29-7.67,1.89-14.57,1.12-21.99-1.01.52,6.03-.74,13.13,0,19-1.25-4.82-1.74-13.67-1.08-18.56.29-2.2,1.86-1.22,3.08-2.44,7.23,2.75,15.38,2.62,22.71.21l74.29-39.21,1,1Z"/><path class="cls-45" d="M396.31,267.93c1.44,1.57-3.77,3.81-4.98,4.51-18.72,10.75-42.6,23.94-62,33-2.38,1.11-5.19,2.83-7.77,3.25-10.99,1.76-27.43-14.35-38.25-17.78l24.32-14.16,53.33-27.6,35.33,18.79Z"/><path class="cls-23" d="M153.31,261.92c.07.04.53-.82,1.62-.27s4.92,2.89,5.05,3.71l-13.67,65.56c22.03-10.77,43.64-22.87,64.99-34.99l3.9-.81c2.12,1.72,4.49,3.33,7.1,4.81-2.25,2.89-14.19,8.89-18.33,11.17-19.61,10.8-39.62,20.94-59.21,31.79-1.83,1.81-6.1,20.09-5.34,22.37l110.88,64.67,8.5-100.99c2.59,2.96,7.37,2.51,6.6,7.49-1.73,23.82-4.58,47.7-6.1,71.51-.62,3.55-.96,7.22-1,11,0,17.28-2.99,34.8-4.04,51.97-1.04.87-6.62-1.37-6.97-2.68-1.61-6.02,3.09-24.14.8-28.09l-109.31-64.19c-2.11-.21-1.04,1.76-3.48,3.99-1.91-1.6-7.62-8.65-6.73-10.69.12-.27.7-.34,1.42-.35l22.11-106.5,1.2-.45Z"/><path class="cls-62" d="M153.31,261.92l-22.8,107.77c-.25,3.58,3.8,6.69,4.8,10.23-.35.32-.69.64-1,1-.88-1.76-9.42-11.83-11-13l1-1c1.58,1.1,2.82,2.37,5,2l22-108c.67.33,1.34.65,2,1Z"/><path class="cls-36" d="M223.31,298.92c-.34.32-.71.63-1,1l-5.7-.27-72.29,39.26c-.35-2.02,1.29-2.85,2.66-3.83,18.78-13.34,46.35-22.28,65.67-35.33,1.4-.94,2.53-2.11,3.66-3.34l-5-.5c1.34-.76,2.79-1.06,4-2,2.74,1.56,5.31,3.47,8,5Z"/><path class="cls-4" d="M259.31,407.92c-.22,3.53.99,8.29-1,11,0-2.47-1.33-10.56-.99-11,.12-.15,1.42.09,1.99,0Z"/><rect class="cls-56" x="191" y="336.32" width="3.04" height="131.97" transform="translate(-252.09 367.15) rotate(-59.91)"/><path class="cls-4" d="M117.31,373.92c7.78,4.04,12.38,15.78,13.19,24.64.31,3.36.31,12.64-3.19,12.36-7.04,9.79-20.75-1.11-25.43-8.07-6.44-9.58-12.05-34.62,5.94-32.98,1.87.17,8.15,2.97,9.5,4.04Z"/><path class="cls-31" d="M118.31,372.92c10.78,8.58,15.02,20.84,12.65,34.16-.34,1.89-1.87,3.24,1.35,2.84-1.73,1.18-2.53,2.88-5,1,6.58-9.15-1.89-30.56-10-37l1-1Z"/><path class="cls-61" d="M107.03,380.12c10.8-3.18,19.87,19.55,12.3,23.31-11.43,5.67-22.19-20.4-12.3-23.31Z"/><path class="cls-14" d="M106.55,383.16c6.5-6.52,19.07,14.22,10.76,18.29-7.23,3.53-15.56-13.47-10.76-18.29Z"/><path class="cls-4" d="M358.31,335.92c6.69,24.35,11.77,49.73,16.41,74.28.05.27-1.65.35-2.41-.28-2.13-1.48-6.81-2.38-7.79-4.71-1.6-3.82-4.87-33.08-7.7-33.26l-88.58,48.41c-1.65,2.29-1.57,18.78-1.94,23.06-.46,5.27-1.51,10.74-1.98,16.02-.74,8.38,2.5,9.87-8.01,12.49l11.15-138.84c1.17.06,7.68-4.42,7.85-2.65l-6.01,77.49,85.83-45.15c1.41-6.51-10.36-44.16-8.72-46.72.2-.32,5.81-2.13,6.87-3.12l5.01,23Z"/><path class="cls-49" d="M359.31,333.92c1.29,6.2,3.39,12.53,4.69,18.81,3.95,19.02,7.98,38.05,11.32,57.19l6.99-3c.1.61.91,1.42,1,2,.09,1.74-1.28,2.98-4.13,3.73-.13,2.44-1.08,3.86-2.87,4.27-.65,3.14-2.28,1.29-3,1-1.35-2.39-2.01-4.72-2-7,.33-.31.77-.61,1-1,.28-.47,1.46-.74.81-2.15-5.15-23.91-9.61-47.97-14.81-71.85l1-2Z"/><rect class="cls-36" x="261.43" y="388.38" width="105.62" height="2.83" transform="translate(-146.68 194.25) rotate(-28.14)"/></svg>