<?xml version="1.0" encoding="UTF-8"?><svg id="sound" xmlns="http://www.w3.org/2000/svg" viewBox="0 0 512 512"><defs><style>.cls-1{fill:#070707;}.cls-2{fill:#111011;}.cls-3{fill:#121213;}.cls-4{fill:#f8f8f7;}.cls-5{fill:#010101;}.cls-6{fill:#010000;}.cls-7{fill:#151415;}.cls-8{fill:#f2f2f1;}.cls-9{fill:#030303;}.cls-10{fill:#f4f4f4;}.cls-11{fill:#fdfcfd;}.cls-12{fill:#f3f3f2;}.cls-13{fill:#dedddd;}.cls-14{fill:#1d1d1d;}.cls-15{fill:#060606;}.cls-16{fill:#020202;}.cls-17{fill:#0b0b0b;}.cls-18{fill:#f9f9f9;}.cls-19{fill:#f3f4f4;}.cls-20{fill:#dddddc;}.cls-21{fill:#fbfafb;}.cls-22{fill:#080808;}.cls-23{fill:#f8f8f8;}.cls-24{fill:#fefefe;}.cls-25{fill:#0c0c0c;}.cls-26{fill:#0a0a0a;}.cls-27{fill:#fbfbfb;}.cls-28{fill:#fcfcfc;}.cls-29{fill:#181918;}.cls-30{fill:#111010;}.cls-31{fill:#090909;}.cls-32{fill:#0e0e0e;}.cls-33{fill:#fdfdfd;}</style></defs><path class="cls-6" d="M132.82,136.99v31c4.82-2.86,10.01-6.51,16.03-4.53,15.41,10.95,36.07,18.23,51.32,28.67,1.66,1.14,2.83,3.88,3.23,3.94,4.18.62,18.19-13.43,24.67-8.88,29.28,17.39,60.05,32.42,89.41,49.63,3.3,1.93,16.33,9.07,16.33,12.67v36.5c7.66-2.11,11.43-8.61,20.28-6.77,2.41.5,4.17,2.85,6.72,2.77v-33.5c-6.42-6.51-26.21-11.57-28.53-20.47.47-18.31-2.24-39.59-.52-57.58,1-10.53,15.19-15.01,24.32-15.22,11.2,7.14,25.21,12.6,36.03,19.97,2.28,1.56,5.35,2.89,6.25,5.75l.24,45.35c-.48,2.12-13.27,18.54-15.27,19.73-3.59,2.14-9.51,2.02-13.38,4.12l-.18,37.19c.54,2.25,35.83,16.83,40.04,23.17.56.84,1.06,1.68,1.33,2.67,1.17,33.13.96,66.58.11,99.79l-3.73,4.27c-20.28,9.63-39.59,21.39-59.7,31.3-6.26,3.08-7.59,4.92-14.7,1.65-11.83-5.44-29.52-16.04-41-23-2.43-1.48-10.33-5.79-10.33-8.67v-21.5c-9.71,2.34-18.49,13.36-29.04,10.53l-97.32-54.68c-1.39-.49-4.65-5.69-4.65-6.35v-16.5c-6.36.12-11.48,7.53-18.02,5.55l-52.73-29.29c-2.6-1.64-3.92-4.75-4.27-7.73l.47-97.58c.85-2.13,2.42-3.48,4.22-4.78,10.49-7.58,26.61-13.13,38-20,1.96-1.18,4.9-2.33,5.34-4.66l-.17-37.84c-5.79-6.46-22.75-9.25-24.61-18.39l-.02-63.56c1.35-4.61,17.01-10.24,21.92-11.2l41.23,22.65,3.2,3.8-.1,48.01c-.55,1.63-13.29,17.1-14.93,18.07-3.14,1.86-13.86,4.88-17.53,3.97Z"/><path class="cls-13" d="M395.82,314.99v-8c.41.23,1.84-.02,2.9.56,8.57,4.74,1.65,5.14-2.9,7.44Z"/><path class="cls-24" d="M407.82,409.49c-.26,1.22-2.43,3.61-3.65,4.35l-60.87,32.13c-.32.1-1.48-2.34-1.48-2.48v-93c0-.76,2.57-3.84,3.65-4.35,18.84-8.75,36.75-19.43,55.33-28.66,1.29-.64,7.02-4.11,7.02-.98v93Z"/><path class="cls-17" d="M352.57,349.24c3.68,3.64-2.72,12.6-7.34,8.84s2.13-14,7.34-8.84Z"/><path class="cls-22" d="M345.07,439.76c-4.09-3.63,1.25-12.63,6.76-9.28s-2.17,13.36-6.76,9.28Z"/><path class="cls-31" d="M400.53,402.18c7.49-2.21,6.96,8.93,1.74,9.8-8.36,1.4-6.33-8.45-1.74-9.8Z"/><path class="cls-1" d="M398.06,322.23c1.29-1.3,6.15-1.99,7.32-.3,2.93,15.16-14.71,7.7-7.32.3Z"/><path class="cls-24" d="M345.82,284.99c.59-1.34,4-2,5.42-1.94.79.03,9.58,3.42,9.58,3.94v19.5c0,1.74,7.96,3.35,8.97-2.03.31-1.65-.54-11.49.54-11.48,8.98,3.75,17.04,9.33,25.49,14.01-1.29,1.35-2.69,2.7-4.2,4.03,2,.78,3.4,1.77,4.2,2.97.8.29.79.62,0,1-8.41,4.25-16.58,9.25-24.98,13.52-4.9,2.49-27.07,14.48-30.5,14.52-1.95.02-3.71-.85-5.42-1.64-10.96-5.1-33.75-17.68-43.47-24.53-.59-.41-1.19-.76-1.61-1.37l1.61-1.37,54.37-28.13c.95.7.85.26,0-1Z"/><path class="cls-26" d="M345.82,285.99c.04-.36-.1-.78,0-1,21.11.3-1.34,14.08,0,1Z"/><path class="cls-3" d="M295.92,313.09c1.22-1.96,10.18-1.14,8.83,3.3-1.49,4.89-11.83,1.52-8.83-3.3Z"/><path class="cls-32" d="M345.71,339.89c-1.22,1.98-10.19,1.13-8.83-3.29s11.8-1.51,8.83,3.29Z"/><path class="cls-26" d="M395.82,306.99c2.63.25,3.15,6.07,0,7-9.38,1.1-6.95-7.66,0-7Z"/><path class="cls-23" d="M337.82,446.99l-2.95-.55c-12.79-10.07-32.88-16.29-45.4-25.6-1.04-.77-3.65-3.35-3.65-4.35v-96.5c1.46-.29,2.46.34,3.71.79,7.98,2.87,24.91,13.27,32.96,18.04,2.42,1.44,15.33,8.6,15.33,10.67v97.5Z"/><path d="M334.82,441.99l-46-26.5v-90.5c1.45-.23,2.59.08,3.94.56,5.69,2.03,32.87,17.67,38.39,21.61,1.37.98,2.55,2.08,3.67,3.33v91.5Z"/><path class="cls-33" d="M305.56,379.17c15.96-3.19,29.78,32.77,15.31,37.38-17.43,5.56-30.8-34.28-15.31-37.38Z"/><path class="cls-9" d="M312.1,403.7c-4.26-3.49-6.43-17.2,3.46-12.94s5.01,19.88-3.46,12.94Z"/><path class="cls-21" d="M306.54,343.19c9.57-2.82,20.18,15.36,14.73,23.76-8.56,13.21-28.27-19.77-14.73-23.76Z"/><path class="cls-15" d="M310.44,350.07c4.89-1.61,10,7.33,6.46,11.5-5.96,3.3-11.13-9.96-6.46-11.5Z"/><path class="cls-24" d="M394.82,188.99v36.5c0,1.09-12.41,16.57-13.3,17.2-2.04,1.43-6.33.81-8.7,2.3v-57l22,1Z"/><path class="cls-33" d="M352.59,159.17c1.43-.19,2.68-.25,3.94.59,9.51,7.78,25.28,12.47,34.64,19.38,1.03.76,3.66,3.43,3.62,4.36-.13,3.19-20.34-.22-22.93-.05l-32.02-18.96c-.02-.69,11.42-5.15,12.75-5.32Z"/><path class="cls-8" d="M335.82,168.99c1.45-.22,2.59.07,3.94.56,2.93,1.06,25.79,14.24,27.07,15.93.45.59,1.99,3.63,1.99,4.01v55c0,.54-1.51,1.5-2.45,1.51-1.58.02-25.91-13.73-27.62-15.44-.85-.85-2.93-4.2-2.93-5.07v-56.5Z"/><path class="cls-5" d="M365.82,241.99c-1.46.26-2.45-.25-3.72-.78-3.64-1.53-16.27-8.96-19.62-11.38-1.37-.98-2.55-2.09-3.66-3.34v-52.5c9.54,1.67,18.19,9.21,27,13.5v54.5Z"/><path class="cls-10" d="M348.52,211.18c8.91-2.74,14.42,13.31,9.32,16.32-8.93,5.28-17.93-13.67-9.32-16.32Z"/><path class="cls-22" d="M350.44,215.07c6.39-2.1,9.6,12.12,1.4,8.41-2.97-1.34-4.63-7.35-1.4-8.41Z"/><path class="cls-12" d="M347.08,188.26c5.93-5.47,18.08,9.19,10.71,15.21-6.44,5.27-17.01-9.39-10.71-15.21Z"/><path class="cls-1" d="M350.44,191.07c5.04-1.65,9.15,7.54,3.76,9.87-3.8-.47-8.05-8.46-3.76-9.87Z"/><path class="cls-24" d="M197.82,196.98l-61.5,30.62c-17.62-8.47-34.7-18.1-51.48-28.11l37.49-20.51c2.04-.23,1.31.09,1.5,1.48.52,3.92-1.9,9.4,3.73,10.34,8.81,1.46,3.44-13.92,5.77-17.81.73-1.21,9.36-5.86,10.97-5.9,1.51-.04,3.74,1.08,5.2,1.72,12.22,5.45,28.69,16.09,40.99,23,.94.53,7.85,4.4,7.33,5.16Z"/><path class="cls-14" d="M133.98,218.15c5.37-3.4,13.84,5.14,5.09,6.68-5.63.99-8.03-4.82-5.09-6.68Z"/><path class="cls-25" d="M148.82,169.99c2.6,7.27-7.7,7.86-8.87,3.34s6.12-3.22,8.87-3.34Z"/><path class="cls-2" d="M92.47,196.14c6.17-2.04,11,5.19,3.87,5.93-6.58.69-7.16-4.84-3.87-5.93Z"/><path class="cls-25" d="M185.47,193.14c7.14-2.37,9.73,5.54,2.86,5.95-5.65.34-5.86-4.96-2.86-5.95Z"/><path class="cls-33" d="M150.82,323.99c-1.46,2.08-10.16,5.78-13,6v-95.5c0-3.33,12.78-9.59,13.99-8.5.04.99-.02,2,0,3-.3,31.67-.63,63.34-1,95Z"/><path class="cls-22" d="M150.82,323.99v-87.99c-1.68.14-1.04,2.49-2.4,4.09-7.17,8.4-13.06-7.44-2.87-8.96,3.8-.57,2.91,2.83,5.26,3.86l1.01-6c.79,30.82-.64,61.77.06,92.61.28,1.28-.57,1.7-1.06,2.39Z"/><path class="cls-15" d="M142.49,314.15c9.8-3.36,9.71,11.68-.15,9.87-4.43-.81-2.68-8.9.15-9.87Z"/><path class="cls-4" d="M132.78,329.97c-1.36.32-2.48-.24-3.68-.75-10.16-4.34-29.01-15.88-38.96-22.05-3.15-1.96-8.77-4.47-9.88-8.12l-.49-88.59,1.05-6.46,51.78,28.71.17,97.26Z"/><path d="M83.82,207.99l46.34,26.24c1.21,12.02.65,24.23.71,36.3.08,16.05,1.27,33.81,0,50.01-.17,2.21.07,5.19-3.09,4.02l-43.96-25.07v-91.5Z"/><path class="cls-33" d="M99.54,263.2c16.37-3.72,29.79,29.54,16.57,36.58s-30.3-21.28-20.15-34.15c1.04-1.32,1.89-2.04,3.58-2.42Z"/><path class="cls-9" d="M111.54,275.29c5.62,4.59,4.2,17.92-4.29,12.77-7.89-4.79-4.25-19.75,4.29-12.77Z"/><path class="cls-27" d="M100.51,227.19c13.99-4.27,24.66,26.36,10.8,26.36-11.54,0-19.85-23.6-10.8-26.36Z"/><path class="cls-15" d="M105.46,234.07c5.81-1.87,9.6,7.07,6.44,11.49-5.95,3.3-11.15-9.97-6.44-11.49Z"/><path class="cls-24" d="M161.82,74.99v37.5c0,1.02-11.34,15.46-12.29,16.2-1.96,1.54-7.13,2.44-9.71,3.3v-57h22Z"/><path class="cls-11" d="M161.82,70.99h-19.5c-3.42,0-5.87-3.53-8.16-4.84-9.36-5.36-19.16-9.98-28.34-15.66,3.64-.92,11.11-5.69,14.42-5.49,2.19.14,33.05,17.61,36.88,20.19,2.32,1.56,5.4,2.35,4.7,5.8Z"/><path class="cls-10" d="M102.82,54.99c1.06-1.1,22.92,11.16,25.67,12.83,5.43,3.3,6.74,3.86,7.37,10.63,1.2,12.97.78,34.82,0,48.08-.23,3.92.28,7.42-4.31,6.26-1.51-.38-22.9-12.39-25.07-13.96-1.37-.98-2.55-2.09-3.66-3.34v-60.5Z"/><path class="cls-5" d="M132.82,128.99c-1.46.26-2.45-.25-3.72-.78-7.25-3.06-16.37-9.69-23.28-13.72v-55.5c4.06,2.32,27,13.04,27,16.5v53.5Z"/><path class="cls-19" d="M113.06,74.23c6.13-6.13,18.56,8.55,12.32,14.81-7.33,7.34-17.7-9.43-12.32-14.81Z"/><path class="cls-26" d="M115.85,77.02c5.55-1.81,11.23,6.78,5.97,9.52-4.2,2.18-7.66-6.12-5.97-9.52Z"/><path class="cls-10" d="M115.55,97.14c7.76-2.08,15.91,15.21,7.56,17.69-9.21,2.74-15.94-15.45-7.56-17.69Z"/><path class="cls-26" d="M122.75,110.93c-5.19,3.65-10.95-11.22-3.83-9.45,3.63.9,6.08,7.87,3.83,9.45Z"/><path class="cls-20" d="M320.82,243.99c9.31,4.72,3.81,4.94-2,8-1.4-1.36-3.08-.76-5-2l1.37-1.99c2.56.77,4.1-.24,4.63-3.01-.01-.08.92-.67,1-1Z"/><path class="cls-24" d="M320.82,243.99c1.33,1.52.74,2.07-1,1l-2.14,1.15c-3.36-.88-4.64.41-3.86,3.85,3.17.11,4.83.77,5,2-19.34,10.16-38.92,19.91-58.06,30.46l-3.33.54-98.98-54.92-.62-2.06,61.32-33.19,6.11-1.79,95.56,52.97Z"/><path class="cls-29" d="M262.56,274.25c5.17,5.08-7.49,8.59-8.55,3.1-.77-3.95,6.24-5.37,8.55-3.1Z"/><path class="cls-7" d="M319.82,244.99c.19,1.26,2.14,3.18.04,4.54-1.47.95-4.27.34-6.04.46-2.07-1.34-2.45-2.31-1.9-4.91,2.63-1.04,5.38-1.79,7.9-.09Z"/><path class="cls-30" d="M228.72,198.9c-1.42,2.09-10.31,1.4-8.89-3.37,1.03-3.44,12.32-1.68,8.89,3.37Z"/><path class="cls-31" d="M166.55,223.16c6.11-.9,7.27,6.74.94,6.56-5.79-.16-6.31-5.77-.94-6.56Z"/><path class="cls-24" d="M259.82,402.99v-114.5l67.96-36.07c.62-.87,2.04.95,2.04,1.07v35l-46.9,26.1-1.29,75.71c-.78,2.57-17.96,11.5-21.81,12.69Z"/><path class="cls-31" d="M266.55,386.15c7.25-1.45,6.57,10.93-.23,10.94s-5.64-9.76.23-10.94Z"/><path class="cls-25" d="M327.57,258.24c4.17,4.12-3.81,12.72-7.76,8.27s2.93-13.06,7.76-8.27Z"/><path class="cls-15" d="M263.06,289.24c6.75-6.78,12.42,9.37,2.26,8.85-4.84-.25-4.41-6.69-2.26-8.85Z"/><path class="cls-28" d="M254.82,402.99l-99-55.5v-115.5c28.05,15.78,57.07,30.25,84.67,46.83,2.88,1.73,14.33,7.77,14.33,10.67v113.5Z"/><polygon points="251.82 397.99 158.82 345.49 158.82 237.99 251.82 290.49 251.82 397.99"/><path class="cls-18" d="M194.55,286.23c27.02-4.88,48.63,52.82,25.27,63.27-19.04,8.52-36.54-21.08-37.88-37.14-.77-9.25,1.64-24.15,12.6-26.13Z"/><path class="cls-16" d="M195.55,290.23c21.49-3.88,39.86,36.75,26.73,52.72-1.2,1.46-3.65,3.09-5.43,3.56-26.19,6.88-44.59-52.08-21.3-56.29Z"/><path class="cls-33" d="M197.53,295.2c17.84-4.02,33.49,36.96,20.01,45.01-13.29,7.95-26.37-14.76-27.62-25.83-.7-6.26-.06-17.46,7.6-19.19Z"/><path class="cls-5" d="M203.55,304.19c12.81-2.84,20.94,24.31,9.55,27.63-11.3,3.29-21.83-24.9-9.55-27.63Z"/></svg>