<?xml version="1.0" encoding="UTF-8"?><svg id="table" xmlns="http://www.w3.org/2000/svg" viewBox="0 0 512 512"><defs><style>.cls-1{fill:#d7d8d7;}.cls-2{fill:#efefef;}.cls-3{fill:#f6f6f7;}.cls-4{fill:#fcfcfd;}.cls-5{fill:#f0eff0;}.cls-6{fill:#f1f2f2;}.cls-7{fill:#c4c5c7;}.cls-8{fill:#020202;}.cls-9{fill:#f9f9f9;}.cls-10{fill:#e9eaeb;}.cls-11{fill:#f7f7f7;}.cls-12{fill:#fefefe;}.cls-13{fill:#efeff0;}.cls-14{fill:#dbdbdc;}.cls-15{fill:#f3f3f3;}.cls-16{fill:#fbfbfb;}.cls-17{fill:#fcfcfc;}.cls-18{fill:#b9babc;}.cls-19{fill:#bebec1;}.cls-20{fill:#dcdcdc;}.cls-21{fill:#efeeef;}</style></defs><path class="cls-8" d="M432.98,353.96c-.24-.88-1.99-2.01-3.07-1.09l-77.6,41.42c-6.99,4.18-12.18,8.06-13.22,16.78-1.14,9.59,2.02,35.58-.77,42.16-2.36,5.57-16.1,3.16-17.31-3.3,1.4-14.69-2.74-34.33,1.78-48.17,1.96-6,6.75-9.91,8.61-14.39,2.26-5.42,2.61-45.3,1.63-52.47-.15-1.1-.1-2.17-.98-3.02l-142.35-90.66c-4.52-1.7-9.21,1.19-15.09-1.9-5.01-2.63-2.76-5.57-3.82-9.18-.75-2.58-28.84-18.38-33.31-21.31-12.84,7.03-26.48,13.2-39.17,20.45-7.32,4.18-15.9,8.3-17.24,17.76-1.93,13.61,1.43,30.7-.3,44.7-3.33,7.33-16.91,4.11-17.84-2.74-1.22-9.01-.89-34.65.06-44.04,1.07-10.62,8.19-15.12,11.92-24.08l.07-49.94-1.01-1.99c-6.02-5.49-33.36-18.42-35.44-24.56-1.9-5.58-2.02-23.86,5.13-26.77l113.09-60.91c5.84-2.79,12.15-2.63,18.49-2.03,101.05,60.22,199.33,125.67,299.67,187.33,2.46,2.24,5.45,4.46,6.01,7.99s.54,20.3-1.05,22.84c-3.9,6.23-39.32,19.15-40.73,23.27l-.17,40.85c.59,3.08,10.14,5.5,11.77,15.23,1.34,7.99,1.15,33.36.24,41.78-1.28,11.8-18,3.87-18,1.98v-42Z"/><path class="cls-4" d="M163.72,58.69c2.55-.44,6.2-.52,8.77-.24,6.55.72,31.91,17.9,39.42,22.58,86.34,53.8,171.43,109.66,258.21,162.79,7.66,4.99,10.38,10.1,1.57,15.83l-112.67,59.33c-10.74,2.34-15.38-.17-23.95-5.11-53.53-30.88-107.51-68.63-160.17-101.83-40.76-25.69-84.01-50.44-123.83-77.17-12.69-8.52-11.29-9.97,1.24-17.59,29.56-17.95,70.33-39.37,101.65-54.35,2.94-1.41,6.61-3.7,9.76-4.24Z"/><path class="cls-4" d="M476.97,261.46c.1,5.1,1.2,9.73-4.3,12.19l-112.02,58.98c-13.5,6.21-24.11-2.63-34.99-9.36-46.96-29.08-93.08-59.7-139.77-89.23s-92.27-55.12-135.44-84.56c-6.55-4.47-9.78-5.66-8.47-15.02l100.91,62.58c63.13,37.61,123.98,81.67,187.17,118.83,10.68,6.28,17.63,11.19,30.62,6.79l116.28-61.21Z"/><path class="cls-9" d="M88.98,225.46l3.05-.44,37.94-20.13,4,1.07c-13.1,8.54-29.23,14.47-42.3,22.7-23.73,14.96-10.94,33.07-14.73,54.27-.58,3.22-3.97,4.25-3.97,2.03v-35c0-9.19,12-20.73,12-22v-52.5c.85.26,4,2.01,4,2.5v47.5Z"/><path class="cls-14" d="M77.98,172.46c2.37-1.03,4,1.43,4,3.5v47.5c-1.16.4-4-.44-4-1.5v-49.5Z"/><path class="cls-13" d="M69.98,285.46c-2.2-.78-2.77-2.36-3.05-4.45-1.11-8.12-.67-35.93,2.2-42.9,1.48-3.59,6.21-12.64,10.86-11.14-2.3,4.26-10.01,13.35-10.01,17.99v40.5Z"/><path class="cls-3" d="M119.98,196.47c.88,1.24-.85,2.23-1.65,2.83-1.95,1.48-16.1,9.1-17.35,8.14,2.33-2.56,8.61-13.48,10.98-14.52.62-.27,7.76,3.19,8.02,3.55Z"/><path class="cls-10" d="M126.98,201.47l-32.99,17.99c-.3-2.14-.01-2.63,1.61-3.88s25.81-13.84,27.7-14.39c1.58-.46,2.2.1,3.68.28Z"/><path class="cls-6" d="M91.99,211.46c.03-5.3,8.06-17.37,11.92-20.57,2.42-2,5.81-1.95,4.06,1.05-3.58,6.12-11,14.39-15.98,19.52Z"/><polygon class="cls-15" points="92.98 197.46 92.98 180.46 101.97 186.96 92.98 197.46"/><path class="cls-7" d="M76.98,289.46c3.87,3.17-12.57,3.93-9.48-1.02,2.57,3.08,9.09.7,9.48,1.02Z"/><path class="cls-1" d="M181.98,235.47c.47,4.77-6.69-.05-7-2l7,2Z"/><path class="cls-12" d="M350.98,338.46c17.77-1.6,32.37-15.31,48.68-21.84,1.71-.16,12.96,12.1,15.3,14.36,1.91,1.84,6.62,3.55,6.09,6.91l-70.07,36.58v-36Z"/><path class="cls-16" d="M434.98,298.46v39.5c0,.27.96,5.16,1.13,5.37,1.11,1.42,8.91-.38,10.63,9.87.59,3.52,1.03,34.56.08,36.1-.22.35-3.51,1.51-3.84,1.15-2.18-13.13,9.77-45.84-13.73-41.21-24.24,14.37-50.74,25.76-74.95,40.05-28.57,16.86-16.12,26.55-19.28,53.72-.32,2.73-1.23,4.61-4.06,2.94l1.09-35.91c-1.23-4.58,10.91-17.98,10.91-19.09v-53.5c.66.05,4,.79,4,1v50l83.81-43.19c1.88-4.79.18-8.99.15-13.27-.08-11.23-.11-22.4,1.05-33.55h3Z"/><path class="cls-3" d="M426.98,341.46l-75.99,40.99c-.31-2.25-.04-2.58,1.63-3.86,2.23-1.7,8.62-4.62,11.69-6.31,16.45-9.07,35.57-19.71,52.46-27.54,3.18-1.47,6.67-3.48,10.21-3.28Z"/><path class="cls-20" d="M339.98,387.46c-1.16.4-4-.44-4-1.5v-50.5c1.16-.4,4,.44,4,1.5v50.5Z"/><path class="cls-5" d="M327.98,445.46c-1.92.29-2.68-.78-2.99-2.51-.99-5.43-.69-29,.08-34.91.56-4.25,5.84-15.49,9.42-17.69,1.63-1,1.83.19,3.5.11-2.71,4.12-10,13.69-10,18.49v36.5Z"/><path class="cls-11" d="M404.99,313.46c.96-1.22,3.69-.26,4.91.52,1.54.98,16.15,14.85,17.52,16.53s2.2,3.92,1.07,5.95c-1.06,1.91-2.13-.24-3.01-1.01-5.23-4.59-12.62-11.59-17.39-16.61-.77-.81-3.83-4.45-3.1-5.38Z"/><path class="cls-2" d="M439.98,389.46c-.86.42-3-.85-3-1.5v-34.5c1.05.01,3,3.09,3,3.5v32.5Z"/><path class="cls-21" d="M420.98,305.46l-.49,12.99c-8.63-6.47-12.7-9.16.49-12.99Z"/><path class="cls-17" d="M427.98,302.46v21c-.86.42-3-.85-3-1.5v-19.5h3Z"/><path class="cls-18" d="M446.97,393.46c.36,5.5-12.27,2.75-9.98,0,.33-.39,7.48,2.78,9.98,0Z"/><path class="cls-19" d="M335.98,449.47c-2.03,4.53-7.98,3.7-10.99.49,3.88.17,7.16,1.01,10.99-.49Z"/></svg>